<?xml version="1.0" encoding="UTF-8" standalone="no"?>
<svg
   width="130.00002"
   height="170.00012"
   viewBox="0 0 34.395836 44.979202"
   version="1.1"
   id="svg8"
   inkscape:version="1.2.1 (9c6d41e410, 2022-07-14)"
   sodipodi:docname="man-versions.svg"
   xmlns:inkscape="http://www.inkscape.org/namespaces/inkscape"
   xmlns:sodipodi="http://sodipodi.sourceforge.net/DTD/sodipodi-0.dtd"
   xmlns="http://www.w3.org/2000/svg"
   xmlns:svg="http://www.w3.org/2000/svg"
   xmlns:rdf="http://www.w3.org/1999/02/22-rdf-syntax-ns#"
   xmlns:cc="http://creativecommons.org/ns#"
   xmlns:dc="http://purl.org/dc/elements/1.1/">
  <defs
     id="defs2" />
  <sodipodi:namedview
     id="base"
     pagecolor="#ffffff"
     bordercolor="#ebe6e6"
     borderopacity="1"
     inkscape:pageopacity="0.0"
     inkscape:pageshadow="2"
     inkscape:zoom="0.7"
     inkscape:cx="251.42857"
     inkscape:cy="547.14285"
     inkscape:document-units="px"
     inkscape:current-layer="layer2"
     inkscape:document-rotation="0"
     showgrid="false"
     units="px"
     showborder="true"
     inkscape:object-nodes="false"
     inkscape:showpageshadow="false"
     inkscape:pagecheckerboard="0"
     inkscape:deskcolor="#d1d1d1"
     inkscape:window-width="1366"
     inkscape:window-height="705"
     inkscape:window-x="-8"
     inkscape:window-y="-8"
     inkscape:window-maximized="1" />
  <metadata
     id="metadata5">
    <rdf:RDF>
      <cc:Work
         rdf:about="">
        <dc:format>image/svg+xml</dc:format>
        <dc:type
           rdf:resource="http://purl.org/dc/dcmitype/StillImage" />
      </cc:Work>
    </rdf:RDF>
  </metadata>
  <g
     inkscape:groupmode="layer"
     id="layer2"
     inkscape:label="Layer 2"
     transform="translate(-78.581112,-163.25381)">
    <g
       id="g7153">
      <path
         d="m 97.140359,163.31643 c 0.63236,-0.10098 1.27543,-0.025 1.90137,0.0862 0.67884,0.12444 1.343321,0.32732 1.977521,0.60183 0.49752,0.21492 0.97148,0.48233 1.47634,0.67996 0.40332,0.16119 0.82072,0.32577 1.14425,0.62746 0.20182,0.19021 0.35624,0.42335 0.51953,0.64661 0.11344,0.16396 0.30762,0.24517 0.4229,0.40822 0.25503,0.3162 0.36296,0.72195 0.40853,1.11998 0.0563,0.52556 0.26145,1.01993 0.33361,1.5424 -5.2e-4,0.13803 0.13088,0.20844 0.19693,0.31342 0.12415,0.15564 0.18347,0.36098 0.34462,0.48542 0.35777,0.30447 0.57212,0.73894 0.72839,1.17618 0.16083,0.39896 0.31801,0.80903 0.34308,1.24381 0.0248,0.24703 -0.0116,0.49313 -0.0428,0.73739 0.0113,0.26772 0.0557,0.53328 0.0786,0.80007 0.12201,1.20768 0.25105,2.41752 0.2746,3.63199 5.2e-4,0.18497 -0.0205,0.38599 -0.15198,0.52741 -0.0403,-0.1791 0.003,-0.36376 -0.019,-0.54501 -0.0126,-0.50919 -0.14617,-1.00357 -0.30915,-1.48219 -0.15595,-0.46411 -0.32933,-0.92297 -0.54155,-1.36393 -0.0263,-0.0565 -0.0508,-0.1158 -0.0499,-0.17879 0.0119,-1.30247 -0.19601,-2.63861 -0.80911,-3.79842 -0.45532,-0.86739 -1.15159,-1.59922 -1.98394,-2.1041 -1.03508,-0.63456 -2.23376,-0.94427 -3.429081,-1.07304 -1.45707,-0.15254 -2.93127,-0.0528 -4.37366,0.18836 -0.50486,0.0899 -1.01093,0.18373 -1.50386,0.32639 -0.44308,0.19701 -0.83816,0.50179 -1.15464,0.8711 -0.39691,0.46504 -0.65255,1.04031 -0.78833,1.63566 -0.18071,0.78927 -0.1752,1.61034 -0.0764,2.41072 0.0731,0.56385 0.18591,1.1243 0.35929,1.66623 -0.2645,-0.0941 -0.56876,-0.14297 -0.83204,-0.0189 -0.28775,0.13217 -0.46632,0.41749 -0.58345,0.7025 -0.21801,0.54656 -0.27061,1.14283 -0.28315,1.72675 -0.0336,0.60184 -0.0884,1.20428 -0.2064,1.79592 -0.0532,0.24178 -0.11101,0.48665 -0.22262,0.70899 -0.0144,0.0609 -0.0606,-0.004 -0.0642,-0.0306 -0.30823,-0.78464 -0.64888,-1.556 -1.00879,-2.31747 -0.0303,-0.0855 -0.11528,-0.12167 -0.1902,-0.15656 -0.0444,-0.24611 -0.0929,-0.49221 -0.10947,-0.74202 -0.0618,-0.80533 0.0807,-1.60509 0.13913,-2.40579 0.059,-0.69353 -0.008,-1.3914 0.0667,-2.0837 0.0438,-0.39835 0.13914,-0.79483 0.31924,-1.15364 0.20029,-0.39958 0.43881,-0.78093 0.72196,-1.12585 0.0896,-0.11179 0.13822,-0.24889 0.2116,-0.37055 0.29877,-0.51167 0.70362,-0.95076 0.9935,-1.46799 0.33362,-0.56107 0.80086,-1.02364 1.27575,-1.46274 0.55805,-0.50672 1.08767,-1.04803 1.69344,-1.49824 0.82379,-0.62777 1.7705,-1.13357 2.80284,-1.28148 z"
         fill="#603813"
         stroke="#603813"
         id="path15606"
         style="fill:#030303;fill-opacity:1;stroke-width:0.0307283" />
      <path
         d="m 95.580539,167.58761 c 1.4424,-0.24116 2.91659,-0.3409 4.37366,-0.18836 1.195321,0.12876 2.394001,0.43848 3.429091,1.07304 0.83234,0.50488 1.52861,1.23671 1.98393,2.1041 0.6131,1.15981 0.82104,2.49595 0.80911,3.79842 -9.8e-4,0.063 0.0235,0.12228 0.0499,0.17879 0.21222,0.44096 0.3856,0.89982 0.54155,1.36393 0.16298,0.47862 0.29661,0.973 0.30915,1.48219 0.0217,0.18125 -0.0214,0.36591 0.019,0.54501 0.13149,-0.14142 0.15259,-0.34244 0.15198,-0.52741 0.26756,-0.0164 0.54124,0.002 0.79627,0.0917 0.23667,0.0818 0.45317,0.23591 0.59016,0.4499 0.14403,0.21956 0.20946,0.48265 0.22751,0.74296 0.026,0.37764 -0.0315,0.75561 -0.1165,1.12214 -0.1474,0.61202 -0.37673,1.20026 -0.63421,1.77276 -0.0394,0.0779 -0.0245,0.16674 -0.0245,0.25105 0.0149,0.42705 -0.10916,0.85194 -0.32168,1.2191 -0.24096,0.41871 -0.58589,0.76827 -0.9721,1.05142 -0.32566,1.36085 -0.7929,2.69482 -1.4751,3.91701 -0.4752,0.84423 -1.05742,1.63504 -1.77235,2.28813 -0.0339,0.0278 -0.0578,0.066 -0.0603,0.11178 -0.11712,0.94397 -0.23331,1.88795 -0.35105,2.83191 -0.0324,-0.0123 -0.0645,-0.0237 -0.096,-0.0349 0.0333,0.15038 0.0367,0.31373 0.11895,0.44898 0.2483,0.41964 0.46173,0.86955 0.55714,1.35188 0.0554,0.28502 0.0587,0.58485 -0.0212,0.86554 -0.22842,0.49437 -0.68679,0.84115 -1.17788,1.04155 -0.7027,0.28501 -1.47726,0.32084 -2.22429,0.26402 -1.189201,-0.0994 -2.345381,-0.43231 -3.465171,-0.83497 -0.95894,-0.3511 -1.89525,-0.76395 -2.81231,-1.21447 -1.35861,-0.74141 -2.66553,-1.6332 -3.68319,-2.81926 -0.35074,-0.4181 -0.66967,-0.8714 -0.87975,-1.37905 0.28438,-0.60677 0.53391,-1.23053 0.73786,-1.86972 0.35991,-1.13697 0.57946,-2.33414 0.51006,-3.53102 -0.0397,-0.64475 -0.15963,-1.2929 -0.42627,-1.88362 -0.24616,0.10159 -0.5125,0.17633 -0.78037,0.14328 -0.25318,-0.0256 -0.48956,-0.14883 -0.67181,-0.32515 -0.20885,-0.20288 -0.35899,-0.45948 -0.47488,-0.72596 -0.43759,-1.04094 -0.82379,-2.10719 -1.09839,-3.20432 -0.15473,-0.64382 -0.28377,-1.30587 -0.23393,-1.97132 0.0278,-0.28779 0.10122,-0.59596 0.31802,-0.80038 0.1743,-0.16953 0.42963,-0.21892 0.66387,-0.20071 0.36265,0.0281 0.70391,0.16922 1.0311,0.32083 0.0749,0.0349 0.15994,0.071 0.19021,0.15656 0.3599,0.76148 0.70055,1.53283 1.00878,2.31747 0.004,0.0265 0.0499,0.0914 0.0642,0.0306 0.11161,-0.22233 0.1694,-0.46721 0.22261,-0.70899 0.11804,-0.59164 0.17277,-1.19408 0.2064,-1.79592 0.0126,-0.58392 0.0651,-1.18019 0.28316,-1.72674 0.11712,-0.28502 0.2957,-0.57034 0.58344,-0.70251 0.26328,-0.12413 0.56754,-0.0754 0.83204,0.0189 -0.17338,-0.54193 -0.28621,-1.10238 -0.35929,-1.66623 -0.0988,-0.80038 -0.10428,-1.62145 0.0764,-2.41072 0.13577,-0.59535 0.39141,-1.17062 0.78832,-1.63566 0.31649,-0.36931 0.71156,-0.67409 1.15465,-0.8711 0.49293,-0.14266 0.99901,-0.23653 1.50385,-0.32639 m 1.03907,6.22829 c -0.72288,0.0905 -1.44546,0.23746 -2.12216,0.516 -0.44125,0.18835 -0.87944,0.43786 -1.17238,0.83125 -0.174,0.23036 -0.2688,0.51445 -0.28438,0.80285 0.93937,-0.44218 1.96039,-0.7346 3.00037,-0.76209 0.68618,-0.0117 1.38643,0.12105 1.98792,0.46566 0.26449,-0.16335 0.52992,-0.35974 0.67517,-0.64444 0.0874,-0.16706 0.086,-0.38013 -0.0223,-0.53761 -0.15778,-0.23961 -0.4232,-0.37364 -0.67517,-0.48943 -0.23026,-0.096 -0.46602,-0.18404 -0.70943,-0.23684 -0.22689,-0.002 -0.45256,0.0318 -0.67761,0.0546 m 5.446661,0.31899 c -0.22079,0.096 -0.45227,0.21152 -0.59109,0.41841 -0.0966,0.14173 -0.0863,0.33472 5.2e-4,0.47862 0.12476,0.2143 0.32964,0.36345 0.53329,0.49499 0.6446,-0.36437 1.40998,-0.43848 2.13285,-0.34739 0.68589,0.0846 1.35097,0.29953 1.97875,0.58763 -0.0132,-0.28038 -0.12538,-0.55273 -0.31557,-0.75778 -0.32841,-0.36251 -0.7871,-0.56631 -1.24119,-0.717 -0.62166,-0.19578 -1.27024,-0.30199 -1.91972,-0.33875 -0.19998,0.0278 -0.38958,0.11056 -0.57794,0.18127 m -6.015421,2.41967 c -0.51035,0.13494 -0.97026,0.43478 -1.33446,0.81645 0.55256,0.31743 1.17056,0.54315 1.81088,0.56292 0.63786,0.0204 1.29347,-0.17879 1.78028,-0.60368 -0.22292,-0.24148 -0.48651,-0.44529 -0.77547,-0.59968 -0.44921,-0.24302 -0.98861,-0.30725 -1.48123,-0.17601 m 5.647561,0.77352 c 0.52259,0.46072 1.24179,0.65402 1.92615,0.59782 0.59016,-0.0454 1.15465,-0.26278 1.66684,-0.55489 -0.51801,-0.53947 -1.24485,-0.93595 -2.00687,-0.8779 -0.61555,0.042 -1.16719,0.39525 -1.58612,0.83497 m -13.386391,0.66792 c -0.17674,0.22757 -0.1844,0.53018 -0.24401,0.80193 -0.12416,0.57372 -0.0413,1.16814 0.0991,1.73076 0.0826,0.32546 0.17216,0.65864 0.35564,0.94273 0.14065,0.16552 0.36786,0.20504 0.55408,0.29829 0.10061,-0.0997 0.15075,-0.24487 0.14403,-0.38567 -0.10673,-0.10685 -0.25901,-0.1473 -0.38346,-0.22758 -0.14311,-0.0793 -0.24586,-0.21554 -0.31007,-0.36407 -0.18071,-0.41624 -0.26084,-0.86739 -0.32719,-1.3142 -0.0355,-0.29583 -0.0728,-0.59967 -0.008,-0.89427 0.0229,-0.10313 0.0571,-0.21831 0.15136,-0.2776 0.0706,-0.0407 0.1532,0.002 0.21496,0.0411 0.15198,0.0944 0.22996,0.26277 0.34768,0.39185 0.0618,-0.11672 0.15382,-0.23993 0.12904,-0.37951 -0.0581,-0.18465 -0.19447,-0.34461 -0.36694,-0.42952 -0.1165,-0.0593 -0.27367,-0.0442 -0.35593,0.0657 m 19.346461,0.17817 c -0.0673,0.10776 -0.0673,0.24054 -0.0832,0.36344 0.0719,-9.9e-4 0.16024,-0.0376 0.21803,0.0243 0.12323,0.12196 0.13332,0.31064 0.15656,0.47368 0.0263,0.30848 0.007,0.62191 -0.0535,0.92544 -0.0217,0.11549 -0.0679,0.2248 -0.13547,0.32022 -0.0767,0.10745 -0.0777,0.24486 -0.0737,0.37208 0.18409,-0.12258 0.2694,-0.3409 0.32383,-0.54747 0.086,-0.36129 0.0771,-0.73616 0.12139,-1.10331 0.0141,-0.27483 0.0129,-0.57065 -0.11956,-0.81891 -0.0737,-0.13217 -0.26481,-0.10901 -0.35441,-0.01 m -5.79648,4.30205 c -0.10335,0.0852 -0.24462,0.11364 -0.3336,0.21863 -0.0865,0.10159 -0.15198,0.22511 -0.17522,0.3582 -0.005,0.0432 -0.0236,0.10776 0.0321,0.12814 0.0623,-0.0645 0.10734,-0.14945 0.18868,-0.19237 0.15044,-0.0713 0.31924,-0.0997 0.46755,-0.17354 0.0722,-0.11179 0.0932,-0.24889 0.0929,-0.37982 -0.0905,0.006 -0.19938,-0.0293 -0.27247,0.0407 m -2.781431,0.1263 c -0.13423,0.10623 -0.17949,0.29397 -0.16847,0.45948 0.088,-0.0451 0.17153,-0.1161 0.27612,-0.11023 0.21955,-0.001 0.41312,0.11548 0.6137,0.18835 0.06,0.0272 0.0991,-0.0454 0.11896,-0.0905 0.0348,-0.0927 0.0792,-0.19732 0.052,-0.29613 -0.11131,-0.0688 -0.23637,-0.11055 -0.35746,-0.15687 -0.16971,-0.0599 -0.37428,-0.10066 -0.53483,0.006 m -8.75771,1.0465 c 0.0593,0.16982 0.12752,0.33657 0.19112,0.50517 0.0251,0.0886 0.11926,0.12599 0.15932,0.20504 0.68893,1.60262 1.49866,3.15367 2.42672,4.62845 0.6186,0.9699 1.29653,1.90492 2.07751,2.74853 0.74306,0.78526 1.58886,1.51431 2.60468,1.90833 0.51464,0.19269 1.07423,0.28717 1.62158,0.21522 0.53146,-0.0618 1.039681,-0.27081 1.484601,-0.56724 0.54185,-0.35666 1.00023,-0.82694 1.40141,-1.33552 0.31037,-0.40513 0.61188,-0.82199 0.84979,-1.27561 -0.50638,0.3758 -1.04305,0.71732 -1.62924,0.95107 -0.53757,0.22604 -1.1048,0.37519 -1.679371,0.46504 -0.68374,0.14205 -1.395,0.0924 -2.07048,-0.0707 -1.0094,-0.24426 -1.94051,-0.76364 -2.7319,-1.43556 -0.8354,-0.70559 -1.53289,-1.56557 -2.12276,-2.487 -0.6504,-1.02271 -1.17636,-2.1217 -1.61914,-3.25063 -0.19295,-0.48418 -0.35623,-0.97948 -0.53236,-1.46953 -0.1422,0.0911 -0.28317,0.18434 -0.43148,0.26495 m 8.83722,1.09959 c -0.14311,0.008 -0.28743,0.003 -0.42871,0.0296 -0.39416,0.0624 -0.79198,0.0972 -1.18462,0.16984 -0.0676,0.009 -0.12475,0.0473 -0.15686,0.10838 0.0798,0.0664 0.16665,0.12445 0.26022,0.17015 0.22995,0.11549 0.45684,0.25167 0.71462,0.29212 0.14617,0.0195 0.28071,0.0821 0.41679,0.13555 0.85896,0.30911 1.805051,0.44805 2.701621,0.22882 0.55408,-0.12908 1.06475,-0.41131 1.49866,-0.77909 -0.47826,-0.14636 -0.97516,-0.22294 -1.469,-0.29334 -0.77914,-0.10283 -1.569901,-0.13649 -2.352721,-0.0621 z"
         fill="#fbb03b"
         stroke="#fbb03b"
         id="path15608"
         style="stroke-width:0.0307283" />
      <path
         d="m 96.619599,173.8159 c 0.22506,-0.0228 0.45073,-0.0568 0.67762,-0.0546 0.24341,0.0528 0.47917,0.14081 0.70943,0.23684 0.25197,0.11579 0.51739,0.24981 0.67518,0.48943 0.10824,0.15748 0.10977,0.37055 0.0223,0.53761 -0.14525,0.2847 -0.41067,0.48109 -0.67517,0.64443 -0.60149,-0.34461 -1.30173,-0.47738 -1.98792,-0.46565 -1.03998,0.0275 -2.061,0.31991 -3.00037,0.76209 0.0156,-0.2884 0.11038,-0.57249 0.28438,-0.80285 0.29294,-0.3934 0.73113,-0.6429 1.17238,-0.83125 0.6767,-0.27854 1.39928,-0.42552 2.12215,-0.516 z"
         fill="#603813"
         stroke="#603813"
         id="path15610"
         style="fill:#000000;fill-opacity:1;stroke-width:0.0307283" />
      <path
         d="m 102.06657,174.13488 c 0.18836,-0.0707 0.37795,-0.15346 0.57794,-0.18126 0.64949,0.0367 1.29806,0.14297 1.91971,0.33875 0.4541,0.15069 0.91278,0.35449 1.24119,0.717 0.19021,0.20504 0.30243,0.4774 0.31558,0.75778 -0.62778,-0.2881 -1.29287,-0.50303 -1.97875,-0.58763 -0.72287,-0.0911 -1.48825,-0.017 -2.13285,0.34739 -0.20366,-0.13155 -0.40854,-0.28069 -0.53329,-0.49499 -0.0868,-0.1439 -0.0973,-0.33689 -5.2e-4,-0.47862 0.13883,-0.20689 0.37031,-0.32239 0.59108,-0.41842 z"
         fill="#603813"
         stroke="#603813"
         id="path15612"
         style="fill:#000000;fill-opacity:1;stroke-width:0.0307283" />
      <path
         d="m 96.050839,176.55548 c 0.49262,-0.13123 1.03203,-0.067 1.48122,0.17601 0.28898,0.1544 0.55256,0.3582 0.77549,0.59967 -0.48682,0.4249 -1.14242,0.62407 -1.78029,0.60369 -0.64033,-0.0198 -1.25831,-0.24548 -1.81087,-0.56292 0.36419,-0.38167 0.8241,-0.6815 1.33445,-0.81645 m 0.24524,-9.9e-4 c -0.30976,0.0972 -0.51769,0.43879 -0.46112,0.76209 0.0367,0.27946 0.26175,0.52001 0.53635,0.57281 0.26878,0.0618 0.56784,-0.0615 0.71584,-0.29675 0.18653,-0.27884 0.1324,-0.69199 -0.12659,-0.90629 -0.17828,-0.15842 -0.44034,-0.20628 -0.66448,-0.13186 z"
         fill="#ffffff"
         stroke="#ffffff"
         id="path15614"
         style="stroke-width:0.0307283" />
      <path
         d="m 101.69962,177.32746 c 0.41894,-0.43971 0.97057,-0.79297 1.58612,-0.83496 0.76202,-0.0581 1.48887,0.33843 2.00687,0.87788 -0.51219,0.29212 -1.07667,0.50951 -1.66684,0.5549 -0.68435,0.0562 -1.40356,-0.13711 -1.92615,-0.59782 m 1.5693,-0.77135 c -0.30212,0.0988 -0.5021,0.43013 -0.45287,0.74696 0.0309,0.28038 0.25289,0.52371 0.52534,0.58206 0.25472,0.0618 0.54186,-0.0401 0.69903,-0.25289 0.20487,-0.26094 0.18285,-0.67069 -0.0529,-0.90414 -0.17918,-0.19423 -0.47274,-0.25876 -0.71859,-0.17199 z"
         fill="#ffffff"
         stroke="#ffffff"
         id="path15616"
         style="stroke-width:0.0307283" />
      <path
         d="m 96.296079,176.5524 c 0.22414,-0.0744 0.4862,-0.0265 0.66448,0.13185 0.25899,0.2143 0.31312,0.62747 0.12659,0.9063 -0.148,0.23529 -0.44706,0.3585 -0.71584,0.29675 -0.2746,-0.0528 -0.49966,-0.29335 -0.53635,-0.57281 -0.0566,-0.3233 0.15136,-0.66482 0.46112,-0.76209 z"
         stroke="#000000"
         id="path15618"
         style="stroke-width:0.0307283" />
      <path
         d="m 103.26831,176.55548 c 0.24585,-0.0868 0.53941,-0.0222 0.71859,0.172 0.23576,0.23345 0.25778,0.64321 0.0529,0.90413 -0.15717,0.21276 -0.44431,0.31466 -0.69903,0.25291 -0.27245,-0.0584 -0.49446,-0.30169 -0.52534,-0.58207 -0.0493,-0.31682 0.15075,-0.64815 0.45287,-0.74697 z"
         stroke="#000000"
         id="path15620"
         style="stroke-width:0.0307283" />
      <path
         d="m 88.312009,177.99445 c 0.0822,-0.10993 0.23943,-0.12506 0.35593,-0.0657 0.17247,0.0849 0.30884,0.24488 0.36695,0.42953 0.0248,0.13957 -0.0673,0.26278 -0.12904,0.3795 -0.11774,-0.12908 -0.19571,-0.29736 -0.34768,-0.39185 -0.0618,-0.0386 -0.14434,-0.0818 -0.21497,-0.0411 -0.0942,0.0593 -0.12843,0.17447 -0.15137,0.27761 -0.0645,0.29458 -0.0272,0.59843 0.008,0.89425 0.0664,0.44682 0.14647,0.89796 0.32719,1.3142 0.0642,0.14854 0.16696,0.28471 0.31007,0.36407 0.12445,0.0802 0.27673,0.12073 0.38345,0.22758 0.007,0.1408 -0.0435,0.28594 -0.14402,0.38568 -0.18623,-0.0932 -0.41342,-0.13278 -0.55409,-0.2983 -0.18347,-0.28408 -0.27306,-0.61726 -0.35563,-0.94272 -0.14035,-0.56263 -0.22321,-1.15705 -0.0991,-1.73077 0.0596,-0.27174 0.0673,-0.57435 0.24402,-0.80193 z"
         fill="#f79420"
         stroke="#f79420"
         id="path15622"
         style="stroke-width:0.0307283" />
      <path
         d="m 107.65939,178.17355 c 0.0896,-0.0994 0.28072,-0.12259 0.35441,0.01 0.1324,0.24827 0.13363,0.54408 0.11956,0.81891 -0.0444,0.36715 -0.0355,0.74202 -0.12139,1.10331 -0.0545,0.20657 -0.13974,0.42489 -0.32383,0.54748 -0.004,-0.12723 -0.003,-0.26464 0.0737,-0.37209 0.0676,-0.0954 0.11376,-0.20473 0.13547,-0.32022 0.0609,-0.30354 0.0798,-0.61696 0.0535,-0.92545 -0.0232,-0.16303 -0.0333,-0.35171 -0.15656,-0.47367 -0.0578,-0.0621 -0.14617,-0.0256 -0.21803,-0.0244 0.0159,-0.12289 0.0159,-0.25568 0.0832,-0.36344 z"
         fill="#f79420"
         stroke="#f79420"
         id="path15624"
         style="stroke-width:0.0307283" />
      <path
         d="m 101.86169,182.47499 c 0.0731,-0.0701 0.18194,-0.0349 0.27245,-0.0407 2.7e-4,0.13092 -0.0207,0.26803 -0.0929,0.3798 -0.1483,0.0738 -0.3171,0.10222 -0.46754,0.17354 -0.0813,0.0429 -0.12629,0.12785 -0.18867,0.19239 -0.0557,-0.0204 -0.0373,-0.0849 -0.0322,-0.12815 0.0232,-0.13309 0.0887,-0.25661 0.17522,-0.3582 0.089,-0.10499 0.23026,-0.13339 0.33361,-0.21862 z"
         fill="#f7931e"
         stroke="#f7931e"
         id="path15626"
         style="stroke-width:0.0307283" />
      <path
         d="m 99.079039,182.60159 c 0.16054,-0.10653 0.36511,-0.0657 0.53482,-0.006 0.12109,0.0463 0.24615,0.088 0.35746,0.15687 0.0272,0.0988 -0.0171,0.20349 -0.052,0.29612 -0.0199,0.0451 -0.059,0.11766 -0.11895,0.0905 -0.2006,-0.0729 -0.39416,-0.18928 -0.61371,-0.18836 -0.10458,-0.006 -0.18807,0.0652 -0.27613,0.11024 -0.011,-0.16551 0.0342,-0.35325 0.16849,-0.45948 z"
         fill="#f7931e"
         stroke="#f7931e"
         id="path15628"
         style="stroke-width:0.0307283" />
      <path
         d="m 90.322859,183.64839 c 0.14831,-0.0806 0.28927,-0.17385 0.43146,-0.26494 0.17613,0.49004 0.33943,0.98535 0.53237,1.46953 0.44279,1.12893 0.96874,2.22792 1.61914,3.25063 0.58986,0.92143 1.28736,1.7814 2.12277,2.48699 0.79137,0.67193 1.72249,1.19132 2.73189,1.43557 0.67549,0.16304 1.38674,0.21276 2.07048,0.0707 0.574571,-0.0899 1.141811,-0.23901 1.679371,-0.46504 0.5862,-0.23375 1.12285,-0.57527 1.62923,-0.95107 -0.2379,0.45361 -0.53941,0.87048 -0.84978,1.27561 -0.40119,0.50858 -0.85956,0.97887 -1.40142,1.33551 -0.44491,0.29644 -0.953131,0.5055 -1.484581,0.56725 -0.54737,0.072 -1.10695,-0.0225 -1.62159,-0.21522 -1.01582,-0.39402 -1.86162,-1.12307 -2.60469,-1.90832 -0.78097,-0.84361 -1.45889,-1.77863 -2.0775,-2.74854 -0.92806,-1.47478 -1.73778,-3.02583 -2.42672,-4.62845 -0.04,-0.079 -0.13424,-0.11641 -0.15931,-0.20504 -0.0636,-0.1686 -0.1318,-0.33534 -0.19112,-0.50518 z"
         fill="#f7931e"
         stroke="#f7931e"
         id="path15630"
         style="stroke-width:0.0307283" />
      <path
         d="m 99.158549,184.74768 c 0.78281,-0.0744 1.573571,-0.0407 2.352711,0.0621 0.49384,0.0704 0.99075,0.14699 1.469,0.29336 -0.43391,0.36777 -0.94457,0.65001 -1.49866,0.77907 -0.89656,0.21925 -1.842661,0.0802 -2.701621,-0.22881 -0.13608,-0.0534 -0.27062,-0.1161 -0.41679,-0.13556 -0.25777,-0.0404 -0.48467,-0.17663 -0.71461,-0.29211 -0.0936,-0.0457 -0.18042,-0.10375 -0.26023,-0.17014 0.0322,-0.0612 0.0893,-0.0998 0.15686,-0.1084 0.39264,-0.0726 0.79046,-0.10745 1.18462,-0.16982 0.14128,-0.0265 0.28561,-0.0216 0.42872,-0.0296 z"
         fill="#f7931e"
         stroke="#f7931e"
         id="path15632"
         style="stroke-width:0.0307283" />
      <path
         d="m 89.385929,190.76908 c 0.0196,0.0624 0.0403,0.12445 0.0645,0.1862 0.21008,0.50765 0.52901,0.96096 0.87974,1.37906 1.01766,1.18606 2.32459,2.07784 3.6832,2.81925 1.55217,1.60633 3.11809,3.19968 4.67363,4.80261 0.87699,0.89393 1.745741,1.79622 2.624871,2.68801 0.61921,-1.75301 1.24058,-3.50569 1.86101,-5.25838 0.17094,-0.49684 0.35839,-0.98844 0.52014,-1.48836 0.0799,-0.28069 0.0764,-0.58053 0.0211,-0.86554 -0.0954,-0.48233 -0.30884,-0.93224 -0.55714,-1.35188 -0.0822,-0.13526 -0.0857,-0.29861 -0.11895,-0.44899 0.0315,0.0111 0.0636,0.0225 0.096,0.0349 0.76477,0.28316 1.52557,0.57743 2.28392,0.87789 8.01804,2.92335 7.66124,9.70625 7.47639,14.07377 l -34.255761,2e-5 c -0.0193,-0.31054 -0.0147,-0.41238 -0.0421,-1.03793 0.0373,-4.46316 3.69159,-10.48694 6.69395,-12.473 0.88617,-0.64135 1.71063,-1.35089 2.54298,-2.06265 0.42076,-0.36685 0.8403,-0.74048 1.19379,-1.17526 0.16328,-0.20565 0.32444,-0.43076 0.35837,-0.69971 z"
         stroke="#000000"
         id="path15634"
         style="fill:#000000;fill-opacity:1;stroke-width:0.0307283"
         sodipodi:nodetypes="ccccccccccccccccccccc" />
      <path
         d="m 94.013389,195.1539 c 0.91705,0.45052 1.85337,0.86337 2.81231,1.21447 1.11979,0.40266 2.27597,0.73554 3.465171,0.83496 0.74703,0.0568 1.52159,0.021 2.22428,-0.264 0.4911,-0.20041 0.94947,-0.54718 1.17789,-1.04155 -0.16175,0.49992 -0.3492,0.99151 -0.52014,1.48836 -0.62043,1.75269 -1.2418,3.50538 -1.86101,5.25839 -0.87913,-0.89179 -1.747881,-1.79408 -2.624871,-2.68802 -1.55554,-1.60293 -3.12146,-3.19628 -4.67363,-4.80261 z"
         fill="#0000ff"
         stroke="#0000ff"
         id="path15636"
         style="fill:#252525;fill-opacity:1;stroke-width:0.0307283" />
      <path
         d="m 97.140359,163.31643 c 0.63236,-0.10098 1.27543,-0.025 1.90137,0.0862 0.67884,0.12444 1.343321,0.32732 1.977521,0.60183 0.49752,0.21492 0.97148,0.48233 1.47634,0.67996 0.40332,0.16119 0.82072,0.32577 1.14425,0.62746 0.20182,0.19021 0.35624,0.42335 0.51953,0.64661 0.11344,0.16396 0.30762,0.24517 0.4229,0.40822 0.25503,0.3162 0.36296,0.72195 0.40853,1.11998 0.0563,0.52556 0.26145,1.01993 0.33361,1.5424 -5.2e-4,0.13803 0.13088,0.20844 0.19693,0.31342 0.12415,0.15564 0.18347,0.36098 0.34462,0.48542 0.35777,0.30447 0.57212,0.73894 0.72839,1.17618 0.16083,0.39896 0.31801,0.80903 0.34308,1.24381 0.0248,0.24703 -0.0116,0.49313 -0.0428,0.73739 0.0113,0.26772 0.0557,0.53328 0.0786,0.80007 0.12201,1.20768 0.25105,2.41752 0.2746,3.63199 5.2e-4,0.18497 -0.0205,0.38599 -0.15198,0.52741 -0.0403,-0.1791 0.003,-0.36376 -0.019,-0.54501 -0.0126,-0.50919 -0.14617,-1.00357 -0.30915,-1.48219 -0.15595,-0.46411 -0.32933,-0.92297 -0.54155,-1.36393 -0.0263,-0.0565 -0.0508,-0.1158 -0.0499,-0.17879 0.0119,-1.30247 -0.19601,-2.63861 -0.80911,-3.79842 -0.45532,-0.86739 -1.15159,-1.59922 -1.98394,-2.1041 -1.03508,-0.63456 -2.23376,-0.94427 -3.429081,-1.07304 -1.45707,-0.15254 -2.93127,-0.0528 -4.37366,0.18836 -0.50486,0.0899 -1.01093,0.18373 -1.50386,0.32639 -0.44308,0.19701 -0.83816,0.50179 -1.15464,0.8711 -0.39691,0.46504 -0.65255,1.04031 -0.78833,1.63566 -0.18071,0.78927 -0.1752,1.61034 -0.0764,2.41072 0.0731,0.56385 0.18591,1.1243 0.35929,1.66623 -0.2645,-0.0941 -0.56876,-0.14297 -0.83204,-0.0189 -0.28775,0.13217 -0.46632,0.41749 -0.58345,0.7025 -0.21801,0.54656 -0.27061,1.14283 -0.28315,1.72675 -0.0336,0.60184 -0.0884,1.20428 -0.2064,1.79592 -0.0532,0.24178 -0.11101,0.48665 -0.22262,0.70899 -0.0144,0.0609 -0.0606,-0.004 -0.0642,-0.0306 -0.30823,-0.78464 -0.64888,-1.556 -1.00879,-2.31747 -0.0303,-0.0855 -0.11528,-0.12167 -0.1902,-0.15656 -0.0444,-0.24611 -0.0929,-0.49221 -0.10947,-0.74202 -0.0618,-0.80533 0.0807,-1.60509 0.13913,-2.40579 0.059,-0.69353 -0.008,-1.3914 0.0667,-2.0837 0.0438,-0.39835 0.13914,-0.79483 0.31924,-1.15364 0.20029,-0.39958 0.43881,-0.78093 0.72196,-1.12585 0.0896,-0.11179 0.13822,-0.24889 0.2116,-0.37055 0.29877,-0.51167 0.70362,-0.95076 0.9935,-1.46799 0.33362,-0.56107 0.80086,-1.02364 1.27575,-1.46274 0.55805,-0.50672 1.08767,-1.04803 1.69344,-1.49824 0.82379,-0.62777 1.7705,-1.13357 2.80284,-1.28148 z"
         fill="#603813"
         stroke="#603813"
         id="path16768"
         style="fill:#030303;fill-opacity:1;stroke-width:0.0307283" />
      <path
         d="m 95.580539,167.58761 c 1.4424,-0.24116 2.91659,-0.3409 4.37366,-0.18836 1.195321,0.12876 2.394001,0.43848 3.429091,1.07304 0.83234,0.50488 1.52861,1.23671 1.98393,2.1041 0.6131,1.15981 0.82104,2.49595 0.80911,3.79842 -9.8e-4,0.063 0.0235,0.12228 0.0499,0.17879 0.21222,0.44096 0.3856,0.89982 0.54155,1.36393 0.16298,0.47862 0.29661,0.973 0.30915,1.48219 0.0217,0.18125 -0.0214,0.36591 0.019,0.54501 0.13149,-0.14142 0.15259,-0.34244 0.15198,-0.52741 0.26756,-0.0164 0.54124,0.002 0.79627,0.0917 0.23667,0.0818 0.45317,0.23591 0.59016,0.4499 0.14403,0.21956 0.20946,0.48265 0.22751,0.74296 0.026,0.37764 -0.0315,0.75561 -0.1165,1.12214 -0.1474,0.61202 -0.37673,1.20026 -0.63421,1.77276 -0.0394,0.0779 -0.0245,0.16674 -0.0245,0.25105 0.0149,0.42705 -0.10916,0.85194 -0.32168,1.2191 -0.24096,0.41871 -0.58589,0.76827 -0.9721,1.05142 -0.32566,1.36085 -0.7929,2.69482 -1.4751,3.91701 -0.4752,0.84423 -1.05742,1.63504 -1.77235,2.28813 -0.0339,0.0278 -0.0578,0.066 -0.0603,0.11178 -0.11712,0.94397 -0.23331,1.88795 -0.35105,2.83191 -0.0324,-0.0123 -0.0645,-0.0237 -0.096,-0.0349 0.0333,0.15038 0.0367,0.31373 0.11895,0.44898 0.2483,0.41964 0.46173,0.86955 0.55714,1.35188 0.0554,0.28502 0.0587,0.58485 -0.0212,0.86554 -0.22842,0.49437 -0.68679,0.84115 -1.17788,1.04155 -0.7027,0.28501 -1.47726,0.32084 -2.22429,0.26402 -1.189201,-0.0994 -2.345381,-0.43231 -3.465171,-0.83497 -0.95894,-0.3511 -1.89525,-0.76395 -2.81231,-1.21447 -1.35861,-0.74141 -2.66553,-1.6332 -3.68319,-2.81926 -0.35074,-0.4181 -0.66967,-0.8714 -0.87975,-1.37905 0.28438,-0.60677 0.53391,-1.23053 0.73786,-1.86972 0.35991,-1.13697 0.57946,-2.33414 0.51006,-3.53102 -0.0397,-0.64475 -0.15963,-1.2929 -0.42627,-1.88362 -0.24616,0.10159 -0.5125,0.17633 -0.78037,0.14328 -0.25318,-0.0256 -0.48956,-0.14883 -0.67181,-0.32515 -0.20885,-0.20288 -0.35899,-0.45948 -0.47488,-0.72596 -0.43759,-1.04094 -0.82379,-2.10719 -1.09839,-3.20432 -0.15473,-0.64382 -0.28377,-1.30587 -0.23393,-1.97132 0.0278,-0.28779 0.10122,-0.59596 0.31802,-0.80038 0.1743,-0.16953 0.42963,-0.21892 0.66387,-0.20071 0.36265,0.0281 0.70391,0.16922 1.0311,0.32083 0.0749,0.0349 0.15994,0.071 0.19021,0.15656 0.3599,0.76148 0.70055,1.53283 1.00878,2.31747 0.004,0.0265 0.0499,0.0914 0.0642,0.0306 0.11161,-0.22233 0.1694,-0.46721 0.22261,-0.70899 0.11804,-0.59164 0.17277,-1.19408 0.2064,-1.79592 0.0126,-0.58392 0.0651,-1.18019 0.28316,-1.72674 0.11712,-0.28502 0.2957,-0.57034 0.58344,-0.70251 0.26328,-0.12413 0.56754,-0.0754 0.83204,0.0189 -0.17338,-0.54193 -0.28621,-1.10238 -0.35929,-1.66623 -0.0988,-0.80038 -0.10428,-1.62145 0.0764,-2.41072 0.13577,-0.59535 0.39141,-1.17062 0.78832,-1.63566 0.31649,-0.36931 0.71156,-0.67409 1.15465,-0.8711 0.49293,-0.14266 0.99901,-0.23653 1.50385,-0.32639 m 1.03907,6.22829 c -0.72288,0.0905 -1.44546,0.23746 -2.12216,0.516 -0.44125,0.18835 -0.87944,0.43786 -1.17238,0.83125 -0.174,0.23036 -0.2688,0.51445 -0.28438,0.80285 0.93937,-0.44218 1.96039,-0.7346 3.00037,-0.76209 0.68618,-0.0117 1.38643,0.12105 1.98792,0.46566 0.26449,-0.16335 0.52992,-0.35974 0.67517,-0.64444 0.0874,-0.16706 0.086,-0.38013 -0.0223,-0.53761 -0.15778,-0.23961 -0.4232,-0.37364 -0.67517,-0.48943 -0.23026,-0.096 -0.46602,-0.18404 -0.70943,-0.23684 -0.22689,-0.002 -0.45256,0.0318 -0.67761,0.0546 m 5.446661,0.31899 c -0.22079,0.096 -0.45227,0.21152 -0.59109,0.41841 -0.0966,0.14173 -0.0863,0.33472 5.2e-4,0.47862 0.12476,0.2143 0.32964,0.36345 0.53329,0.49499 0.6446,-0.36437 1.40998,-0.43848 2.13285,-0.34739 0.68589,0.0846 1.35097,0.29953 1.97875,0.58763 -0.0132,-0.28038 -0.12538,-0.55273 -0.31557,-0.75778 -0.32841,-0.36251 -0.7871,-0.56631 -1.24119,-0.717 -0.62166,-0.19578 -1.27024,-0.30199 -1.91972,-0.33875 -0.19998,0.0278 -0.38958,0.11056 -0.57794,0.18127 m -6.015421,2.41967 c -0.51035,0.13494 -0.97026,0.43478 -1.33446,0.81645 0.55256,0.31743 1.17056,0.54315 1.81088,0.56292 0.63786,0.0204 1.29347,-0.17879 1.78028,-0.60368 -0.22292,-0.24148 -0.48651,-0.44529 -0.77547,-0.59968 -0.44921,-0.24302 -0.98861,-0.30725 -1.48123,-0.17601 m 5.647561,0.77352 c 0.52259,0.46072 1.24179,0.65402 1.92615,0.59782 0.59016,-0.0454 1.15465,-0.26278 1.66684,-0.55489 -0.51801,-0.53947 -1.24485,-0.93595 -2.00687,-0.8779 -0.61555,0.042 -1.16719,0.39525 -1.58612,0.83497 m -13.386391,0.66792 c -0.17674,0.22757 -0.1844,0.53018 -0.24401,0.80193 -0.12416,0.57372 -0.0413,1.16814 0.0991,1.73076 0.0826,0.32546 0.17216,0.65864 0.35564,0.94273 0.14065,0.16552 0.36786,0.20504 0.55408,0.29829 0.10061,-0.0997 0.15075,-0.24487 0.14403,-0.38567 -0.10673,-0.10685 -0.25901,-0.1473 -0.38346,-0.22758 -0.14311,-0.0793 -0.24586,-0.21554 -0.31007,-0.36407 -0.18071,-0.41624 -0.26084,-0.86739 -0.32719,-1.3142 -0.0355,-0.29583 -0.0728,-0.59967 -0.008,-0.89427 0.0229,-0.10313 0.0571,-0.21831 0.15136,-0.2776 0.0706,-0.0407 0.1532,0.002 0.21496,0.0411 0.15198,0.0944 0.22996,0.26277 0.34768,0.39185 0.0618,-0.11672 0.15382,-0.23993 0.12904,-0.37951 -0.0581,-0.18465 -0.19447,-0.34461 -0.36694,-0.42952 -0.1165,-0.0593 -0.27367,-0.0442 -0.35593,0.0657 m 19.346461,0.17817 c -0.0673,0.10776 -0.0673,0.24054 -0.0832,0.36344 0.0719,-9.9e-4 0.16024,-0.0376 0.21803,0.0243 0.12323,0.12196 0.13332,0.31064 0.15656,0.47368 0.0263,0.30848 0.007,0.62191 -0.0535,0.92544 -0.0217,0.11549 -0.0679,0.2248 -0.13547,0.32022 -0.0767,0.10745 -0.0777,0.24486 -0.0737,0.37208 0.18409,-0.12258 0.2694,-0.3409 0.32383,-0.54747 0.086,-0.36129 0.0771,-0.73616 0.12139,-1.10331 0.0141,-0.27483 0.0129,-0.57065 -0.11956,-0.81891 -0.0737,-0.13217 -0.26481,-0.10901 -0.35441,-0.01 m -5.79648,4.30205 c -0.10335,0.0852 -0.24462,0.11364 -0.3336,0.21863 -0.0865,0.10159 -0.15198,0.22511 -0.17522,0.3582 -0.005,0.0432 -0.0236,0.10776 0.0321,0.12814 0.0623,-0.0645 0.10734,-0.14945 0.18868,-0.19237 0.15044,-0.0713 0.31924,-0.0997 0.46755,-0.17354 0.0722,-0.11179 0.0932,-0.24889 0.0929,-0.37982 -0.0905,0.006 -0.19938,-0.0293 -0.27247,0.0407 m -2.781431,0.1263 c -0.13423,0.10623 -0.17949,0.29397 -0.16847,0.45948 0.088,-0.0451 0.17153,-0.1161 0.27612,-0.11023 0.21955,-0.001 0.41312,0.11548 0.6137,0.18835 0.06,0.0272 0.0991,-0.0454 0.11896,-0.0905 0.0348,-0.0927 0.0792,-0.19732 0.052,-0.29613 -0.11131,-0.0688 -0.23637,-0.11055 -0.35746,-0.15687 -0.16971,-0.0599 -0.37428,-0.10066 -0.53483,0.006 m -8.75771,1.0465 c 0.0593,0.16982 0.12752,0.33657 0.19112,0.50517 0.0251,0.0886 0.11926,0.12599 0.15932,0.20504 0.68893,1.60262 1.49866,3.15367 2.42672,4.62845 0.6186,0.9699 1.29653,1.90492 2.07751,2.74853 0.74306,0.78526 1.58886,1.51431 2.60468,1.90833 0.51464,0.19269 1.07423,0.28717 1.62158,0.21522 0.53146,-0.0618 1.039681,-0.27081 1.484601,-0.56724 0.54185,-0.35666 1.00023,-0.82694 1.40141,-1.33552 0.31037,-0.40513 0.61188,-0.82199 0.84979,-1.27561 -0.50638,0.3758 -1.04305,0.71732 -1.62924,0.95107 -0.53757,0.22604 -1.1048,0.37519 -1.679371,0.46504 -0.68374,0.14205 -1.395,0.0924 -2.07048,-0.0707 -1.0094,-0.24426 -1.94051,-0.76364 -2.7319,-1.43556 -0.8354,-0.70559 -1.53289,-1.56557 -2.12276,-2.487 -0.6504,-1.02271 -1.17636,-2.1217 -1.61914,-3.25063 -0.19295,-0.48418 -0.35623,-0.97948 -0.53236,-1.46953 -0.1422,0.0911 -0.28317,0.18434 -0.43148,0.26495 m 8.83722,1.09959 c -0.14311,0.008 -0.28743,0.003 -0.42871,0.0296 -0.39416,0.0624 -0.79198,0.0972 -1.18462,0.16984 -0.0676,0.009 -0.12475,0.0473 -0.15686,0.10838 0.0798,0.0664 0.16665,0.12445 0.26022,0.17015 0.22995,0.11549 0.45684,0.25167 0.71462,0.29212 0.14617,0.0195 0.28071,0.0821 0.41679,0.13555 0.85896,0.30911 1.805051,0.44805 2.701621,0.22882 0.55408,-0.12908 1.06475,-0.41131 1.49866,-0.77909 -0.47826,-0.14636 -0.97516,-0.22294 -1.469,-0.29334 -0.77914,-0.10283 -1.569901,-0.13649 -2.352721,-0.0621 z"
         fill="#fbb03b"
         stroke="#fbb03b"
         id="path16770"
         style="stroke-width:0.0307283" />
      <path
         d="m 96.619599,173.8159 c 0.22506,-0.0228 0.45073,-0.0568 0.67762,-0.0546 0.24341,0.0528 0.47917,0.14081 0.70943,0.23684 0.25197,0.11579 0.51739,0.24981 0.67518,0.48943 0.10824,0.15748 0.10977,0.37055 0.0223,0.53761 -0.14525,0.2847 -0.41067,0.48109 -0.67517,0.64443 -0.60149,-0.34461 -1.30173,-0.47738 -1.98792,-0.46565 -1.03998,0.0275 -2.061,0.31991 -3.00037,0.76209 0.0156,-0.2884 0.11038,-0.57249 0.28438,-0.80285 0.29294,-0.3934 0.73113,-0.6429 1.17238,-0.83125 0.6767,-0.27854 1.39928,-0.42552 2.12215,-0.516 z"
         fill="#603813"
         stroke="#603813"
         id="path16772"
         style="fill:#000000;fill-opacity:1;stroke-width:0.0307283" />
      <path
         d="m 102.06657,174.13488 c 0.18836,-0.0707 0.37795,-0.15346 0.57794,-0.18126 0.64949,0.0367 1.29806,0.14297 1.91971,0.33875 0.4541,0.15069 0.91278,0.35449 1.24119,0.717 0.19021,0.20504 0.30243,0.4774 0.31558,0.75778 -0.62778,-0.2881 -1.29287,-0.50303 -1.97875,-0.58763 -0.72287,-0.0911 -1.48825,-0.017 -2.13285,0.34739 -0.20366,-0.13155 -0.40854,-0.28069 -0.53329,-0.49499 -0.0868,-0.1439 -0.0973,-0.33689 -5.2e-4,-0.47862 0.13883,-0.20689 0.37031,-0.32239 0.59108,-0.41842 z"
         fill="#603813"
         stroke="#603813"
         id="path16774"
         style="fill:#000000;fill-opacity:1;stroke-width:0.0307283" />
      <path
         d="m 96.050839,176.55548 c 0.49262,-0.13123 1.03203,-0.067 1.48122,0.17601 0.28898,0.1544 0.55256,0.3582 0.77549,0.59967 -0.48682,0.4249 -1.14242,0.62407 -1.78029,0.60369 -0.64033,-0.0198 -1.25831,-0.24548 -1.81087,-0.56292 0.36419,-0.38167 0.8241,-0.6815 1.33445,-0.81645 m 0.24524,-9.9e-4 c -0.30976,0.0972 -0.51769,0.43879 -0.46112,0.76209 0.0367,0.27946 0.26175,0.52001 0.53635,0.57281 0.26878,0.0618 0.56784,-0.0615 0.71584,-0.29675 0.18653,-0.27884 0.1324,-0.69199 -0.12659,-0.90629 -0.17828,-0.15842 -0.44034,-0.20628 -0.66448,-0.13186 z"
         fill="#ffffff"
         stroke="#ffffff"
         id="path16776"
         style="stroke-width:0.0307283" />
      <path
         d="m 101.69962,177.32746 c 0.41894,-0.43971 0.97057,-0.79297 1.58612,-0.83496 0.76202,-0.0581 1.48887,0.33843 2.00687,0.87788 -0.51219,0.29212 -1.07667,0.50951 -1.66684,0.5549 -0.68435,0.0562 -1.40356,-0.13711 -1.92615,-0.59782 m 1.5693,-0.77135 c -0.30212,0.0988 -0.5021,0.43013 -0.45287,0.74696 0.0309,0.28038 0.25289,0.52371 0.52534,0.58206 0.25472,0.0618 0.54186,-0.0401 0.69903,-0.25289 0.20487,-0.26094 0.18285,-0.67069 -0.0529,-0.90414 -0.17918,-0.19423 -0.47274,-0.25876 -0.71859,-0.17199 z"
         fill="#ffffff"
         stroke="#ffffff"
         id="path16778"
         style="stroke-width:0.0307283" />
      <path
         d="m 96.296079,176.5524 c 0.22414,-0.0744 0.4862,-0.0265 0.66448,0.13185 0.25899,0.2143 0.31312,0.62747 0.12659,0.9063 -0.148,0.23529 -0.44706,0.3585 -0.71584,0.29675 -0.2746,-0.0528 -0.49966,-0.29335 -0.53635,-0.57281 -0.0566,-0.3233 0.15136,-0.66482 0.46112,-0.76209 z"
         stroke="#000000"
         id="path16780"
         style="stroke-width:0.0307283" />
      <path
         d="m 103.26831,176.55548 c 0.24585,-0.0868 0.53941,-0.0222 0.71859,0.172 0.23576,0.23345 0.25778,0.64321 0.0529,0.90413 -0.15717,0.21276 -0.44431,0.31466 -0.69903,0.25291 -0.27245,-0.0584 -0.49446,-0.30169 -0.52534,-0.58207 -0.0493,-0.31682 0.15075,-0.64815 0.45287,-0.74697 z"
         stroke="#000000"
         id="path16782"
         style="stroke-width:0.0307283" />
      <path
         d="m 88.312009,177.99445 c 0.0822,-0.10993 0.23943,-0.12506 0.35593,-0.0657 0.17247,0.0849 0.30884,0.24488 0.36695,0.42953 0.0248,0.13957 -0.0673,0.26278 -0.12904,0.3795 -0.11774,-0.12908 -0.19571,-0.29736 -0.34768,-0.39185 -0.0618,-0.0386 -0.14434,-0.0818 -0.21497,-0.0411 -0.0942,0.0593 -0.12843,0.17447 -0.15137,0.27761 -0.0645,0.29458 -0.0272,0.59843 0.008,0.89425 0.0664,0.44682 0.14647,0.89796 0.32719,1.3142 0.0642,0.14854 0.16696,0.28471 0.31007,0.36407 0.12445,0.0802 0.27673,0.12073 0.38345,0.22758 0.007,0.1408 -0.0435,0.28594 -0.14402,0.38568 -0.18623,-0.0932 -0.41342,-0.13278 -0.55409,-0.2983 -0.18347,-0.28408 -0.27306,-0.61726 -0.35563,-0.94272 -0.14035,-0.56263 -0.22321,-1.15705 -0.0991,-1.73077 0.0596,-0.27174 0.0673,-0.57435 0.24402,-0.80193 z"
         fill="#f79420"
         stroke="#f79420"
         id="path16784"
         style="stroke-width:0.0307283" />
      <path
         d="m 107.65939,178.17355 c 0.0896,-0.0994 0.28072,-0.12259 0.35441,0.01 0.1324,0.24827 0.13363,0.54408 0.11956,0.81891 -0.0444,0.36715 -0.0355,0.74202 -0.12139,1.10331 -0.0545,0.20657 -0.13974,0.42489 -0.32383,0.54748 -0.004,-0.12723 -0.003,-0.26464 0.0737,-0.37209 0.0676,-0.0954 0.11376,-0.20473 0.13547,-0.32022 0.0609,-0.30354 0.0798,-0.61696 0.0535,-0.92545 -0.0232,-0.16303 -0.0333,-0.35171 -0.15656,-0.47367 -0.0578,-0.0621 -0.14617,-0.0256 -0.21803,-0.0244 0.0159,-0.12289 0.0159,-0.25568 0.0832,-0.36344 z"
         fill="#f79420"
         stroke="#f79420"
         id="path16786"
         style="stroke-width:0.0307283" />
      <path
         d="m 101.86169,182.47499 c 0.0731,-0.0701 0.18194,-0.0349 0.27245,-0.0407 2.7e-4,0.13092 -0.0207,0.26803 -0.0929,0.3798 -0.1483,0.0738 -0.3171,0.10222 -0.46754,0.17354 -0.0813,0.0429 -0.12629,0.12785 -0.18867,0.19239 -0.0557,-0.0204 -0.0373,-0.0849 -0.0322,-0.12815 0.0232,-0.13309 0.0887,-0.25661 0.17522,-0.3582 0.089,-0.10499 0.23026,-0.13339 0.33361,-0.21862 z"
         fill="#f7931e"
         stroke="#f7931e"
         id="path16788"
         style="stroke-width:0.0307283" />
      <path
         d="m 99.079039,182.60159 c 0.16054,-0.10653 0.36511,-0.0657 0.53482,-0.006 0.12109,0.0463 0.24615,0.088 0.35746,0.15687 0.0272,0.0988 -0.0171,0.20349 -0.052,0.29612 -0.0199,0.0451 -0.059,0.11766 -0.11895,0.0905 -0.2006,-0.0729 -0.39416,-0.18928 -0.61371,-0.18836 -0.10458,-0.006 -0.18807,0.0652 -0.27613,0.11024 -0.011,-0.16551 0.0342,-0.35325 0.16849,-0.45948 z"
         fill="#f7931e"
         stroke="#f7931e"
         id="path16790"
         style="stroke-width:0.0307283" />
      <path
         d="m 90.322859,183.64839 c 0.14831,-0.0806 0.28927,-0.17385 0.43146,-0.26494 0.17613,0.49004 0.33943,0.98535 0.53237,1.46953 0.44279,1.12893 0.96874,2.22792 1.61914,3.25063 0.58986,0.92143 1.28736,1.7814 2.12277,2.48699 0.79137,0.67193 1.72249,1.19132 2.73189,1.43557 0.67549,0.16304 1.38674,0.21276 2.07048,0.0707 0.574571,-0.0899 1.141811,-0.23901 1.679371,-0.46504 0.5862,-0.23375 1.12285,-0.57527 1.62923,-0.95107 -0.2379,0.45361 -0.53941,0.87048 -0.84978,1.27561 -0.40119,0.50858 -0.85956,0.97887 -1.40142,1.33551 -0.44491,0.29644 -0.953131,0.5055 -1.484581,0.56725 -0.54737,0.072 -1.10695,-0.0225 -1.62159,-0.21522 -1.01582,-0.39402 -1.86162,-1.12307 -2.60469,-1.90832 -0.78097,-0.84361 -1.45889,-1.77863 -2.0775,-2.74854 -0.92806,-1.47478 -1.73778,-3.02583 -2.42672,-4.62845 -0.04,-0.079 -0.13424,-0.11641 -0.15931,-0.20504 -0.0636,-0.1686 -0.1318,-0.33534 -0.19112,-0.50518 z"
         fill="#f7931e"
         stroke="#f7931e"
         id="path16792"
         style="stroke-width:0.0307283" />
      <path
         d="m 99.158549,184.74768 c 0.78281,-0.0744 1.573571,-0.0407 2.352711,0.0621 0.49384,0.0704 0.99075,0.14699 1.469,0.29336 -0.43391,0.36777 -0.94457,0.65001 -1.49866,0.77907 -0.89656,0.21925 -1.842661,0.0802 -2.701621,-0.22881 -0.13608,-0.0534 -0.27062,-0.1161 -0.41679,-0.13556 -0.25777,-0.0404 -0.48467,-0.17663 -0.71461,-0.29211 -0.0936,-0.0457 -0.18042,-0.10375 -0.26023,-0.17014 0.0322,-0.0612 0.0893,-0.0998 0.15686,-0.1084 0.39264,-0.0726 0.79046,-0.10745 1.18462,-0.16982 0.14128,-0.0265 0.28561,-0.0216 0.42872,-0.0296 z"
         fill="#f7931e"
         stroke="#f7931e"
         id="path16794"
         style="stroke-width:0.0307283" />
      <path
         d="m 89.385929,190.76908 c 0.0196,0.0624 0.0403,0.12445 0.0645,0.1862 0.21008,0.50765 0.52901,0.96096 0.87974,1.37906 1.01766,1.18606 2.32459,2.07784 3.6832,2.81925 1.55217,1.60633 3.11809,3.19968 4.67363,4.80261 0.87699,0.89393 1.745741,1.79622 2.624871,2.68801 0.61921,-1.75301 1.24058,-3.50569 1.86101,-5.25838 0.17094,-0.49684 0.35839,-0.98844 0.52014,-1.48836 0.0799,-0.28069 0.0764,-0.58053 0.0211,-0.86554 -0.0954,-0.48233 -0.30884,-0.93224 -0.55714,-1.35188 -0.0822,-0.13526 -0.0857,-0.29861 -0.11895,-0.44899 0.0315,0.0111 0.0636,0.0225 0.096,0.0349 0.76477,0.28316 1.52557,0.57743 2.28392,0.87789 8.01804,2.92335 7.66124,9.70625 7.47639,14.07377 l -34.255761,2e-5 c -0.0193,-0.31054 -0.0147,-0.41238 -0.0421,-1.03793 0.0373,-4.46316 3.69159,-10.48694 6.69395,-12.473 0.88617,-0.64135 1.71063,-1.35089 2.54298,-2.06265 0.42076,-0.36685 0.8403,-0.74048 1.19379,-1.17526 0.16328,-0.20565 0.32444,-0.43076 0.35837,-0.69971 z"
         stroke="#000000"
         id="path16796"
         style="fill:#000000;fill-opacity:1;stroke:none;stroke-width:0.0307283"
         sodipodi:nodetypes="ccccccccccccccccccccc" />
      <path
         d="m 94.013389,195.1539 c 0.91705,0.45052 1.85337,0.86337 2.81231,1.21447 1.11979,0.40266 2.27597,0.73554 3.465171,0.83496 0.74703,0.0568 1.52159,0.021 2.22428,-0.264 0.4911,-0.20041 0.94947,-0.54718 1.17789,-1.04155 -0.16175,0.49992 -0.3492,0.99151 -0.52014,1.48836 -0.62043,1.75269 -1.2418,3.50538 -1.86101,5.25839 -0.87913,-0.89179 -1.747881,-1.79408 -2.624871,-2.68802 -1.55554,-1.60293 -3.12146,-3.19628 -4.67363,-4.80261 z"
         fill="#0000ff"
         stroke="#0000ff"
         id="path16798"
         style="fill:#252525;fill-opacity:1;stroke:none;stroke-width:0.0307283" />
      <g
         id="g16766"
         style="fill:none;fill-opacity:1;stroke:#cc1616;stroke-opacity:1">
        <path
           style="fill:none;fill-opacity:1;stroke:#cc1616;stroke-width:0.211667;stroke-linecap:butt;stroke-linejoin:miter;stroke-dasharray:none;stroke-opacity:1"
           d="m 99.428809,177.10645 c -0.06682,0.60136 -0.258916,1.07743 -0.317381,1.1526 -0.973825,0.57524 -2.567543,0.61603 -3.599789,0.53868 -0.781412,-0.12744 -1.503649,-0.19162 -1.991992,-0.79763 -0.05429,-0.13363 -0.175395,-0.4719 -0.179573,-0.72246 0.0589,-2.33881 6.197537,-1.59677 6.088735,-0.17119 z"
           id="path15638"
           sodipodi:nodetypes="cccccc" />
        <path
           style="fill:none;fill-opacity:1;stroke:#cc1616;stroke-width:0.19588;stroke-linecap:butt;stroke-linejoin:miter;stroke-dasharray:none;stroke-opacity:1"
           d="m 100.817,177.65705 c 0.0582,-0.59132 0.22549,-1.05945 0.27641,-1.13336 0.84813,-0.56565 2.23615,-0.60576 3.13517,-0.5297 0.68055,0.12532 1.30957,0.18843 1.73488,0.78432 0.0473,0.1314 0.15275,0.46403 0.15639,0.71041 -0.0513,2.29978 -5.39761,1.57013 -5.30285,0.16833 z"
           id="path15640"
           sodipodi:nodetypes="cccccc" />
        <path
           style="fill:none;fill-opacity:1;stroke:#cc1616;stroke-width:0.211667;stroke-linecap:butt;stroke-linejoin:miter;stroke-dasharray:none;stroke-opacity:1"
           d="m 99.336077,177.44828 c 0,0 0.718293,-0.75169 1.520093,-0.0167"
           id="path15642" />
        <path
           style="fill:none;fill-opacity:1;stroke:#cc1616;stroke-width:0.211667;stroke-linecap:butt;stroke-linejoin:miter;stroke-dasharray:none;stroke-opacity:1"
           d="m 106.12863,177.3299 1.08668,-0.0591"
           id="path15644" />
        <path
           style="fill:none;fill-opacity:1;stroke:#cc1616;stroke-width:0.211667;stroke-linecap:butt;stroke-linejoin:miter;stroke-dasharray:none;stroke-opacity:1"
           d="m 93.322513,177.26454 -4.176085,-0.3842"
           id="path15646" />
      </g>
      <g
         id="g16810"
         style="fill:none;fill-opacity:1;stroke:#603813;stroke-opacity:1">
        <path
           style="fill:none;fill-opacity:1;stroke:#603813;stroke-width:0.211667;stroke-linecap:butt;stroke-linejoin:miter;stroke-dasharray:none;stroke-opacity:1"
           d="m 99.428809,177.10645 c -0.06682,0.60136 -0.258916,1.07743 -0.317381,1.1526 -0.973825,0.57524 -2.567543,0.61603 -3.599789,0.53868 -0.781412,-0.12744 -1.503649,-0.19162 -1.991992,-0.79763 -0.05429,-0.13363 -0.175395,-0.4719 -0.179573,-0.72246 0.0589,-2.33881 6.197537,-1.59677 6.088735,-0.17119 z"
           id="path16800"
           sodipodi:nodetypes="cccccc" />
        <path
           style="fill:none;fill-opacity:1;stroke:#603813;stroke-width:0.19588;stroke-linecap:butt;stroke-linejoin:miter;stroke-dasharray:none;stroke-opacity:1"
           d="m 100.817,177.65705 c 0.0582,-0.59132 0.22549,-1.05945 0.27641,-1.13336 0.84813,-0.56565 2.23615,-0.60576 3.13517,-0.5297 0.68055,0.12532 1.30957,0.18843 1.73488,0.78432 0.0473,0.1314 0.15275,0.46403 0.15639,0.71041 -0.0513,2.29978 -5.39761,1.57013 -5.30285,0.16833 z"
           id="path16802"
           sodipodi:nodetypes="cccccc" />
        <path
           style="fill:none;fill-opacity:1;stroke:#603813;stroke-width:0.211667;stroke-linecap:butt;stroke-linejoin:miter;stroke-dasharray:none;stroke-opacity:1"
           d="m 99.336077,177.44828 c 0,0 0.718293,-0.75169 1.520093,-0.0167"
           id="path16804" />
        <path
           style="fill:none;fill-opacity:1;stroke:#603813;stroke-width:0.211667;stroke-linecap:butt;stroke-linejoin:miter;stroke-dasharray:none;stroke-opacity:1"
           d="m 106.12863,177.3299 1.08668,-0.0591"
           id="path16806" />
        <path
           style="fill:none;fill-opacity:1;stroke:#603813;stroke-width:0.211667;stroke-linecap:butt;stroke-linejoin:miter;stroke-dasharray:none;stroke-opacity:1"
           d="m 93.322513,177.26454 -4.176085,-0.3842"
           id="path16808" />
      </g>
    </g>
  </g>
</svg>
