<?xml version="1.0" encoding="UTF-8" standalone="no"?>
<svg
   width="130.3979"
   height="170.00006"
   viewBox="0 0 34.501111 44.979186"
   version="1.1"
   id="svg8"
   xmlns="http://www.w3.org/2000/svg"
   xmlns:svg="http://www.w3.org/2000/svg"
   xmlns:rdf="http://www.w3.org/1999/02/22-rdf-syntax-ns#"
   xmlns:cc="http://creativecommons.org/ns#"
   xmlns:dc="http://purl.org/dc/elements/1.1/">
  <defs
     id="defs2" />
  <metadata
     id="metadata5">
    <rdf:RDF>
      <cc:Work
         rdf:about="">
        <dc:format>image/svg+xml</dc:format>
        <dc:type
           rdf:resource="http://purl.org/dc/dcmitype/StillImage" />
      </cc:Work>
    </rdf:RDF>
  </metadata>
  <g
     id="layer1"
     transform="translate(-31.567272,-824.58291)">
    <g
       id="g2347"
       transform="matrix(0.65076864,0,0,0.65076864,11.024281,591.01147)">
      <path
         id="path2187"
         d="m 83.76009,427.50936 -0.636035,-8.04406 c 0,0 0.261894,-3.36727 -3.292453,-5.72437 -3.554354,-2.3571 -8.754928,-3.77884 -11.037198,-5.31282 -2.282264,-1.53397 -3.442107,-1.68364 -3.367279,-6.323 0.07483,-4.63937 0.336731,-15.07793 0.336731,-15.07793 H 50.498855 c 0,0 0.261899,10.43856 0.336728,15.07793 0.07483,4.63936 -1.085012,4.78903 -3.36728,6.323 -2.282267,1.53398 -7.482843,2.95572 -11.037194,5.31282 -3.55435,2.3571 -3.292451,5.72437 -3.292451,5.72437 l -0.598628,8.04406 z"
         fill="#b2713b"
         stroke-width="0.374142"
         opacity="1"
         stroke="none" />
      <path
         id="path2189"
         d="m 50.764496,404.118 c 3.745163,1.7622 6.308038,2.02785 7.366859,2.02785 1.058822,0 3.621696,-0.26939 7.36686,-2.02785 -0.05986,-0.56122 -0.08231,-1.21971 -0.07109,-2.01289 0.07483,-4.63937 0.336731,-15.07793 0.336731,-15.07793 h -15.265 c 0,0 0.261899,10.43856 0.336728,15.07793 0.01122,0.79318 -0.01122,1.45167 -0.07108,2.01289 z"
         fill="#934d13"
         stroke-width="0.374142"
         opacity="0.65" />
      <path
         id="path2191"
         d="m 48.328831,411.19676 c 1.908124,1.08502 4.414877,1.94555 6.584902,2.13261 0.149656,0 0.149656,-0.22449 0.03742,-0.26189 -1.047596,-0.41156 -2.207437,-0.63605 -3.292449,-0.97277 -1.085013,-0.33673 -2.170025,-0.74829 -3.292451,-1.01019 -0.03741,-0.0374 -0.112243,0.0748 -0.03741,0.11224 z m 13.169804,2.31969 c 1.982951,-0.22449 4.227803,-1.12243 5.948858,-2.17003 0.112244,-0.0748 0.03742,-0.22449 -0.07483,-0.18707 -0.972764,0.33673 -1.945539,0.74828 -2.918309,1.08501 -0.972765,0.33673 -2.020368,0.56121 -2.993137,0.93536 -0.187068,0.0374 -0.187068,0.33673 0.03742,0.33673 z"
         fill="#934d13"
         stroke-width="0.374142"
         opacity="1"
         stroke="none" />
      <path
         id="path2193"
         d="m 83.722682,427.47195 -0.785705,-8.00665 c 0,-0.82311 -0.187071,-1.68363 -0.561212,-2.46934 -0.336725,-0.78569 -0.860529,-1.45914 -1.459148,-2.05777 -0.598635,-0.59863 -1.309501,-1.0476 -2.057783,-1.49657 -0.748289,-0.44897 -1.533987,-0.82312 -2.319685,-1.15984 -1.571396,-0.71087 -3.217622,-1.34692 -4.826435,-2.02038 -0.823114,-0.33672 -1.60881,-0.71086 -2.39451,-1.12242 -0.411555,-0.22448 -0.785697,-0.44896 -1.122427,-0.71087 -0.374137,-0.22448 -0.748284,-0.44897 -1.122427,-0.71087 -0.374142,-0.26189 -0.748284,-0.56121 -1.047597,-0.97277 -0.299315,-0.37414 -0.486383,-0.82311 -0.63604,-1.27208 -0.261902,-0.89795 -0.299313,-1.79588 -0.299313,-2.69383 0,-1.75846 0.07483,-3.51693 0.11224,-5.2754 0.07483,-3.51693 0.224485,-6.99646 0.33673,-10.47598 l 0.224486,0.22449 -7.632501,-0.0748 -7.6325,-0.0374 0.112242,-0.11223 0.2619,10.47597 c 0.03741,1.75847 0.112243,3.47953 0.149657,5.23799 0,0.89795 -0.03742,1.75847 -0.299314,2.65641 -0.112243,0.44897 -0.336728,0.86053 -0.598628,1.23467 -0.299313,0.37414 -0.636041,0.67346 -1.010183,0.93535 -0.374143,0.2619 -0.748284,0.48639 -1.085013,0.74829 -0.336727,0.22449 -0.71087,0.48639 -1.122426,0.71088 -0.785699,0.44896 -1.571397,0.78569 -2.39451,1.15983 -1.608811,0.71087 -3.217622,1.34691 -4.78902,2.0952 -0.785698,0.37414 -1.571397,0.7857 -2.282267,1.19725 -0.748284,0.44897 -1.42174,0.89795 -2.020367,1.49657 -0.598628,0.59863 -1.085013,1.27209 -1.421741,2.02037 -0.149657,0.37414 -0.299314,0.7857 -0.374142,1.15984 -0.07483,0.41155 -0.149657,0.82312 -0.112242,1.19726 v 0.0748 l -0.561214,8.04406 -0.374142,-0.41155 12.720834,0.0374 c 4.227806,0 8.493027,0.0374 12.758248,0.0748 l 12.795662,0.11225 z m 0.07482,0.0748 -12.720831,0.14967 -12.795662,0.11223 c -4.265221,0.0374 -8.567856,0.0748 -12.870491,0.0748 l -12.870491,0.0374 h -0.411556 l 0.03741,-0.41155 0.636041,-8.04406 v 0.0374 c -0.03741,-1.90812 0.823113,-3.66659 2.13261,-4.97609 0.636042,-0.63604 1.421741,-1.15984 2.170025,-1.60881 0.748285,-0.44897 1.571397,-0.82311 2.357096,-1.19725 1.608811,-0.74829 3.255037,-1.38434 4.863848,-2.02037 0.785699,-0.33673 1.608811,-0.67346 2.357095,-1.08502 0.374143,-0.18707 0.71087,-0.41155 1.122427,-0.67345 0.374143,-0.22449 0.748284,-0.44898 1.085013,-0.71087 0.336727,-0.22449 0.673456,-0.5238 0.897941,-0.82311 0.261899,-0.33674 0.44897,-0.71088 0.561213,-1.08502 0.224485,-0.7857 0.299313,-1.68363 0.299313,-2.54417 0,-1.72105 -0.03741,-3.47952 -0.07483,-5.23799 l -0.224485,-10.47598 v -0.11224 h 0.112242 l 7.632496,-0.0374 7.6325,-0.0748 h 0.22449 v 0.22448 c -0.03742,3.47953 -0.07483,6.99646 -0.149661,10.47598 -0.03742,1.75848 -0.07483,3.51694 -0.07483,5.23799 0.03742,0.86053 0.07483,1.72106 0.299314,2.50676 0.112245,0.41155 0.299313,0.74828 0.523799,1.085 0.224485,0.29932 0.523799,0.59864 0.897941,0.82312 0.336731,0.22448 0.710872,0.48639 1.085015,0.71087 0.374142,0.2619 0.710868,0.48639 1.085015,0.67346 0.748284,0.41156 1.53398,0.7857 2.357093,1.12242 1.608814,0.67346 3.217622,1.34692 4.826436,2.0952 0.785691,0.37414 1.571396,0.7857 2.319671,1.23467 0.748304,0.44897 1.496578,0.97277 2.132628,1.60881 1.272078,1.27209 2.095191,3.03055 2.02036,4.86385 v -0.0374 z m -42.203234,-0.14965 0.71087,-5.16317 0.03742,5.16317 z m 33.148996,0 -0.710872,-5.16317 -0.03742,5.16317 z"
         fill="#843e04"
         stroke-width="0.374142"
         opacity="1"
         stroke="none" />
      <path
         id="path2195"
         d="m 74.294297,427.69644 0.03742,-1.34692 10.027012,-0.97276 c 0,0 -0.448973,-6.17335 -0.710867,-7.48285 -0.261902,-1.30949 -0.860529,-3.21762 -4.527122,-5.23799 -3.666597,-2.02037 -10.363739,-4.63937 -10.363739,-4.63937 -11.822893,11.41135 -20.951961,-0.0374 -21.213861,0 0,0 -6.697145,2.619 -10.363739,4.63937 -3.666592,2.02037 -4.26522,3.9285 -4.52712,5.23799 -0.261899,1.3095 -0.71087,7.48285 -0.71087,7.48285 l 10.027011,0.97276 v 1.34692 z"
         fill="#82cbe2"
         stroke-width="0.374142"
         opacity="1"
         stroke="none"
         style="fill:#040404;fill-opacity:1;stroke:#ffffff" />
      <path
         id="path2197"
         d="m 84.583203,425.37676 c -0.149655,-2.17003 -0.261894,-4.34006 -0.48638,-6.51008 -0.112247,-1.08501 -0.336733,-2.24486 -0.972768,-3.21762 -0.598628,-0.97277 -1.459156,-1.72106 -2.394516,-2.3571 -0.897937,-0.63604 -1.908128,-1.15984 -2.880896,-1.64622 -0.972767,-0.48639 -1.982949,-0.93536 -2.955718,-1.38434 -1.982957,-0.89793 -4.003325,-1.68363 -6.061104,-2.46933 -0.07483,-0.0374 -0.187073,0 -0.261902,0.0374 -1.42174,1.42174 -2.993137,2.65641 -4.751603,3.59177 -1.75847,0.93535 -3.70401,1.49657 -5.686961,1.53398 -1.010186,0 -1.982956,-0.11224 -2.955726,-0.33673 -0.972769,-0.2619 -1.908122,-0.63604 -2.768649,-1.08502 -0.860527,-0.44896 -1.721054,-1.01017 -2.506753,-1.6088 -0.411556,-0.29932 -0.785698,-0.63605 -1.159841,-0.97277 -0.18707,-0.14966 -0.374141,-0.33673 -0.523799,-0.5238 l -0.261899,-0.2619 -0.149657,-0.14966 -0.07483,-0.0748 -0.03741,-0.0374 -0.03741,-0.0374 c 0,0 -0.07483,-0.0374 -0.112242,-0.0374 h -0.03741 c -2.020368,0.7857 -4.040736,1.57139 -6.061104,2.43192 -1.010183,0.41156 -1.982953,0.86053 -2.993137,1.34691 -0.97277,0.48639 -1.945539,0.97277 -2.880895,1.60881 -0.897941,0.63605 -1.795882,1.38434 -2.394509,2.3571 -0.636042,0.97277 -0.897942,2.13261 -1.010184,3.21762 -0.2619,2.17003 -0.411557,4.34005 -0.598628,6.51008 0,0.18707 0.149657,0.37414 0.336728,0.41156 l 5.013505,0.48638 4.676778,0.44897 v 1.01018 c 0,0.22449 0.18707,0.37414 0.374141,0.37414 2.731238,0 5.425062,0 8.1563,-0.0374 l 8.11889,-0.0748 16.088108,-0.22448 0.07482,-1.3095 4.938683,-0.37414 5.013503,-0.41156 c 0.149655,0 0.224486,-0.11224 0.224486,-0.22448 z m -5.275404,0.29931 -5.013502,0.59862 c -0.03742,0 -0.07483,0.0374 -0.07483,0.0748 l 0.03742,1.34692 -16.23777,-0.22449 -8.044054,-0.0748 c -2.544167,-0.0374 -5.088334,-0.0374 -7.632501,-0.0374 v -0.97276 c 0,-0.18707 -0.149656,-0.37414 -0.336727,-0.37414 l -5.013505,-0.56122 -4.676777,-0.41155 c 0.149656,-2.02037 0.299313,-4.07816 0.486384,-6.09853 0.112243,-1.08501 0.336728,-2.09519 0.860528,-2.95572 0.561213,-0.86053 1.346911,-1.57139 2.207438,-2.20744 0.860527,-0.59862 1.795883,-1.12243 2.768652,-1.60881 0.97277,-0.48638 1.94554,-0.97276 2.918309,-1.42174 1.945539,-0.89794 3.928493,-1.72105 5.911446,-2.54416 l 0.07483,0.0374 0.149657,0.11225 0.261899,0.26189 c 0.187071,0.18708 0.374143,0.33674 0.561214,0.52381 0.374141,0.33672 0.785698,0.67345 1.159841,0.97276 0.823112,0.59863 1.646225,1.15984 2.544166,1.64623 1.795882,0.93535 3.81625,1.45916 5.836618,1.45916 2.020368,0 4.040735,-0.56122 5.87403,-1.45916 1.75847,-0.89794 3.367279,-2.0952 4.789019,-3.44211 1.94554,0.7857 3.891079,1.64623 5.836618,2.50676 0.97277,0.44896 1.982956,0.89793 2.918312,1.38431 0.972768,0.48639 1.908127,0.97278 2.768649,1.57141 0.860536,0.59862 1.683642,1.3095 2.244853,2.17002 0.561219,0.86053 0.823113,1.87071 0.897944,2.95573 0.112247,1.085 0.224487,2.17002 0.336733,3.21762 l 0.261895,3.03055 z m -37.601286,-2.73124 -0.112242,-0.41156 -0.149657,-0.37414 c -0.336728,-1.0476 -0.860526,-2.02037 -1.42174,-2.95572 -0.598627,-0.93535 -1.272083,-1.79588 -2.057782,-2.54417 -0.785699,-0.74828 -1.646225,-1.45916 -2.618995,-1.90813 0.44897,0.29932 0.860527,0.63604 1.272083,0.97278 0.411557,0.33672 0.785699,0.71086 1.159841,1.12242 0.71087,0.7857 1.384326,1.64623 1.945539,2.54416 0.149657,0.22449 0.2619,0.44897 0.411557,0.67347 0.149656,0.22448 0.261899,0.44896 0.374142,0.71086 0.112243,0.22449 0.261899,0.48639 0.374142,0.71088 0.112242,0.26189 0.224485,0.48638 0.336728,0.74827 l 0.149657,0.37415 0.149657,0.37414 0.261899,0.74829 c 0.187072,0.5238 0.299314,1.0476 0.486385,1.53398 -0.112243,-0.5238 -0.187071,-1.08501 -0.336728,-1.60881 z m 34.757808,-3.70401 c -0.561215,0.93536 -1.085015,1.90813 -1.42174,2.95572 l -0.149656,0.37415 -0.112246,0.41155 -0.224485,0.7857 c -0.11224,0.5238 -0.224485,1.0476 -0.336725,1.60882 0.187068,-0.52381 0.299313,-1.04761 0.486381,-1.53399 l 0.261903,-0.74828 0.149656,-0.37415 0.149657,-0.37414 c 0.11224,-0.22449 0.224486,-0.48638 0.336726,-0.74828 0.112245,-0.22449 0.224485,-0.48639 0.374142,-0.71088 0.112245,-0.22448 0.224486,-0.48638 0.374142,-0.71086 0.149657,-0.22449 0.261902,-0.44897 0.411559,-0.67346 0.561212,-0.89794 1.23467,-1.75847 1.945537,-2.54416 0.336725,-0.41157 0.748289,-0.78571 1.159838,-1.12243 0.411564,-0.37415 0.823113,-0.71088 1.272085,-0.97277 -0.972768,0.48638 -1.833296,1.15984 -2.618994,1.90812 -0.785697,0.67346 -1.459152,1.5714 -2.05778,2.46934 z"
         fill="#49a6c3"
         stroke-width="0.374142"
         opacity="1"
         stroke="none" />
      <g
         id="g2207"
         transform="matrix(0.37414217,0,0,0.37414217,20.717138,345.38516)">
        <g
           id="g2205">
          <path
             id="path2199"
             d="m 64,93.7 c 0,0 -2.3,-2.2 -5,-3.3 -2.7,-1.1 -5.7,0.7 -6.6,3.4 -0.9,2.7 1.2,14 4.7,18.1 3.5,4.1 5.8,4.4 8.1,2.3 2.3,-2 6.4,-9.9 -1.2,-20.5 z"
             fill="#b2713b"
             stroke-width="none"
             opacity="1"
             stroke="none" />
          <path
             id="path2201"
             d="m 65.2,95.3 c 0.4,0.6 0.7,1.2 1.1,1.8 0.4,0.6 0.7,1.3 1,1.9 0.3,0.7 0.6,1.3 0.8,2 0.2,0.7 0.5,1.4 0.6,2.2 0.1,0.4 0.1,0.8 0.2,1.1 l 0.1,1.2 c 0,1.6 -0.2,3.1 -0.6,4.6 -0.5,1.5 -1.1,2.8 -2.1,3.9 -0.2,0.3 -0.5,0.5 -0.7,0.8 -0.3,0.2 -0.5,0.4 -0.8,0.6 -0.6,0.4 -1.2,0.7 -1.9,0.7 -0.7,0.1 -1.4,0 -2,-0.3 -0.6,-0.3 -1.2,-0.7 -1.7,-1.1 -0.5,-0.4 -1,-0.9 -1.5,-1.5 -0.5,-0.5 -0.9,-1.1 -1.3,-1.7 -1.5,-2.5 -2.4,-5.3 -3.2,-8.1 -0.4,-1.4 -0.7,-2.8 -1,-4.3 -0.3,-1.5 -0.5,-2.9 -0.4,-4.5 0,-0.4 0.1,-0.8 0.2,-1.3 0.1,-0.2 0.1,-0.4 0.2,-0.6 l 0.3,-0.5 c 0.4,-0.7 0.9,-1.2 1.4,-1.7 1.1,-0.9 2.4,-1.3 3.7,-1.1 0.6,0.1 1.3,0.3 1.8,0.6 0.6,0.3 1.1,0.6 1.7,1 1.1,0.7 2.1,1.5 3.1,2.4 z M 60.8,91.5 C 60.2,91.2 59.7,91 59.1,90.8 58.5,90.6 58,90.5 57.4,90.5 c -1.1,0.1 -2.2,0.5 -3.1,1.3 -0.4,0.4 -0.8,0.8 -1.1,1.4 -0.1,0.3 -0.3,0.5 -0.4,0.8 -0.1,0.3 -0.2,0.5 -0.2,0.9 -0.2,1.3 -0.1,2.8 0.1,4.2 0.2,1.4 0.4,2.9 0.7,4.3 0.7,2.8 1.7,5.6 3.3,7.7 0.8,1 1.8,1.9 2.7,2.7 1,0.7 2.1,1.2 3.1,1 0.5,-0.1 1,-0.3 1.5,-0.6 0.5,-0.3 0.9,-0.7 1.3,-1.2 0.7,-1 1.4,-2.1 1.7,-3.4 0.4,-1.3 0.6,-2.6 0.7,-4 0,-1.4 -0.1,-2.8 -0.4,-4.2 -0.6,-2.8 -1.8,-5.4 -3.4,-7.6 -0.9,-1 -2,-1.7 -3.1,-2.3 z"
             fill="#a35e26"
             stroke-width="none"
             opacity="1"
             stroke="none" />
          <path
             id="path2203"
             d="m 55.9,93.3 c 3,0.5 5,5.7 5.6,9.2 0.1,0.1 0.1,0.2 0.2,0.3 0.3,0.5 -0.4,1.1 -0.7,0.6 -0.4,-0.7 -1,-1.5 -1.7,-1.8 -1.3,-0.5 -2,1 -1.7,2.5 0.4,1.7 1.5,2.8 2.5,4.1 0.1,0.1 0,0.3 -0.1,0.2 -1.6,-1 -4,-4.5 -2.9,-6.7 0.8,-1.6 2.1,-1.3 3.2,-0.4 -0.7,-2 -1.3,-4 -2.8,-5.5 -0.5,-0.5 -1.4,-1.3 -2.1,-1.2 -1.2,0.2 -1.2,2 -1.3,3.1 -0.1,1.5 0.1,3.1 0.3,4.7 0,0.2 -0.2,0.2 -0.2,0.1 -0.6,-2.4 -1.8,-9.8 1.7,-9.2 z"
             fill="#934d13"
             stroke-width="none"
             opacity="1"
             stroke="none" />
        </g>
      </g>
      <g
         id="g2217"
         transform="matrix(0.37414217,0,0,0.37414217,20.717138,345.38516)">
        <g
           id="g2215">
          <path
             id="path2209"
             d="m 136,93.7 c 0,0 2.3,-2.2 5,-3.3 2.7,-1.1 5.7,0.7 6.6,3.4 0.9,2.7 -1.2,14 -4.7,18.1 -3.5,4.1 -5.8,4.4 -8.1,2.3 -2.3,-2 -6.4,-9.9 1.2,-20.5 z"
             fill="#b2713b"
             stroke-width="none"
             opacity="1"
             stroke="none" />
          <path
             id="path2211"
             d="m 136,93.6 c 1,-0.9 2,-1.7 3.1,-2.4 0.5,-0.4 1.1,-0.7 1.7,-1 0.6,-0.3 1.2,-0.5 1.8,-0.6 1.3,-0.1 2.6,0.2 3.7,1.1 0.5,0.4 1,1 1.4,1.7 l 0.3,0.5 c 0.1,0.2 0.1,0.4 0.2,0.6 0.1,0.4 0.2,0.9 0.2,1.3 0.1,1.6 -0.2,3.1 -0.4,4.5 -0.3,1.5 -0.6,2.9 -1,4.3 -0.8,2.8 -1.7,5.6 -3.2,8.1 -0.4,0.6 -0.8,1.1 -1.3,1.7 -0.4,0.5 -0.9,1 -1.5,1.5 -0.5,0.4 -1.1,0.8 -1.7,1.1 -0.6,0.3 -1.3,0.4 -2,0.3 -0.7,-0.1 -1.3,-0.4 -1.9,-0.7 -0.3,-0.2 -0.6,-0.4 -0.8,-0.6 -0.3,-0.2 -0.5,-0.5 -0.7,-0.8 -0.9,-1.1 -1.6,-2.5 -2.1,-3.9 -0.4,-1.5 -0.7,-3 -0.6,-4.6 l 0.1,-1.2 c 0,-0.4 0.1,-0.8 0.2,-1.1 0.1,-0.8 0.4,-1.5 0.6,-2.2 0.3,-0.7 0.5,-1.4 0.8,-2 0.3,-0.6 0.6,-1.3 1,-1.9 0.4,-0.6 0.7,-1.2 1.1,-1.8 z m 0,0.1 c -1.6,2.2 -2.8,4.9 -3.4,7.6 -0.3,1.4 -0.4,2.8 -0.4,4.2 0,1.4 0.2,2.7 0.7,4 0.4,1.3 1,2.4 1.7,3.4 0.4,0.5 0.8,0.9 1.3,1.2 0.5,0.3 0.9,0.6 1.5,0.6 1,0.2 2.1,-0.3 3.1,-1 1,-0.8 1.9,-1.7 2.7,-2.7 1.6,-2.1 2.6,-4.9 3.3,-7.7 0.4,-1.4 0.6,-2.8 0.7,-4.3 0.2,-1.4 0.2,-2.9 0.1,-4.2 0,-0.3 -0.1,-0.6 -0.2,-0.9 -0.1,-0.3 -0.2,-0.6 -0.4,-0.8 -0.3,-0.5 -0.7,-1 -1.1,-1.4 -0.9,-0.7 -1.9,-1.2 -3.1,-1.3 -0.6,0 -1.1,0.1 -1.7,0.3 -0.6,0.2 -1.1,0.4 -1.7,0.7 -1,0.7 -2.1,1.4 -3.1,2.3 z"
             fill="#a35e26"
             stroke-width="none"
             opacity="1"
             stroke="none" />
          <path
             id="path2213"
             d="m 144.1,93.3 c -3,0.5 -5,5.7 -5.6,9.2 -0.1,0.1 -0.1,0.2 -0.2,0.3 -0.3,0.5 0.4,1.1 0.7,0.6 0.4,-0.7 1,-1.5 1.7,-1.8 1.3,-0.5 2,1 1.7,2.5 -0.4,1.7 -1.5,2.8 -2.5,4.1 -0.1,0.1 0,0.3 0.1,0.2 1.6,-1 4,-4.5 2.9,-6.7 -0.8,-1.6 -2.1,-1.3 -3.2,-0.4 0.7,-2 1.3,-4 2.8,-5.5 0.5,-0.5 1.4,-1.3 2.1,-1.2 1.2,0.2 1.2,2 1.3,3.1 0.1,1.5 -0.1,3.1 -0.3,4.7 0,0.2 0.2,0.2 0.2,0.1 0.6,-2.4 1.8,-9.8 -1.7,-9.2 z"
             fill="#934d13"
             stroke-width="none"
             opacity="1"
             stroke="none" />
        </g>
      </g>
      <g
         id="g2225"
         transform="matrix(0.37414217,0,0,0.37414217,20.717138,345.38516)">
        <g
           id="g2223">
          <path
             id="path2219"
             d="m 100.01,40.83 c -21.4,0 -39.8,15.6 -41,44.1 0,0 0.1,15.8 2.5,28.3 2.3,12.6 3.5,24.2 15.4,30.5 11.9,6.4 20,7.2 23.2,7.2 3.1,0 11.2,-0.9 23.2,-7.2 12,-6.3 13.1,-18 15.4,-30.5 2.3,-12.6 2.5,-28.3 2.5,-28.3 -1.4,-28.4 -19.8,-44.1 -41.2,-44.1 z"
             fill="#b2713b"
             stroke-width="none"
             opacity="1" />
          <path
             id="path2221"
             d="m 100,41.3 c -21.4,0 -39.8,15.6 -41,44.1 0,0 0.1,15.8 2.5,28.3 2.4,12.5 3.5,24.2 15.4,30.5 11.9,6.4 20,7.2 23.2,7.2 3.1,0 11.2,-0.9 23.2,-7.2 11.9,-6.4 13.1,-18 15.4,-30.5 2.3,-12.6 2.5,-28.3 2.5,-28.3 C 139.8,57 121.4,41.3 100,41.3 Z m 35.5,26.9 0.7,2.2 c 0.1,0.4 0.6,2.2 0.6,2.2 0.1,0.4 0.9,4.5 0.9,4.5 0.1,0.4 0.3,2.4 0.3,2.4 0,0.4 0.1,0.8 0.1,1.2 l 0.2,2.4 0.2,2.7 v 0.6 c -0.1,3.2 -0.3,6.4 -0.5,9.6 -0.2,3.2 -0.5,6.4 -0.9,9.6 -0.2,1.6 -0.4,3.2 -0.6,4.7 -0.1,0.8 -0.2,1.6 -0.4,2.3 -0.1,0.8 -0.3,1.6 -0.4,2.4 -0.5,3.2 -1,6.4 -1.7,9.4 -0.7,3.1 -1.6,6 -2.9,8.7 -1.3,2.7 -3.1,5 -5.4,6.9 -1.1,0.9 -6.21,4.62 -11.3,6.42 -1.5,0.6 -3.8,1.38 -5.3,1.78 -1.5,0.5 -3,0.9 -4.5,1.2 -1.5,0.3 -3.1,0.6 -4.6,0.6 -1.5,0 -3.1,-0.1 -4.6,-0.3 -1.6,-0.2 -3.1,-0.5 -4.7,-0.9 -3.1,-0.8 -6.1,-1.9 -9.1,-3.2 -0.7,-0.3 -1.5,-0.7 -2.2,-1 -0.7,-0.4 -1.4,-0.7 -2.2,-1.1 -1.4,-0.7 -2.7,-1.6 -4,-2.6 -2.5,-2 -4.4,-4.5 -5.8,-7.3 -1.4,-2.8 -2.3,-5.9 -2.9,-9 -0.6,-3.1 -1.1,-6.3 -1.5,-9.6 -0.2,-1.6 -0.5,-3.2 -0.6,-4.8 -0.2,-1.6 -0.3,-3.2 -0.5,-4.8 -0.2,-3.2 -0.4,-6.4 -0.5,-9.6 0,-0.8 -0.1,-1.6 -0.1,-2.4 L 61.2,91 c 0,-1.6 -0.1,-3.2 -0.1,-4.8 l 0.1,-2.2 0.1,-1.1 0.1,-1.2 c 0,0 0.2,-2 0.3,-2.4 0,0 0.3,-2 0.4,-2.4 1.1,-6.1 3,-12.2 6.2,-17.5 1.6,-2.7 3.5,-5.2 5.7,-7.4 2.2,-2.2 4.8,-4.2 7.5,-5.8 1.4,-0.8 2.8,-1.5 4.3,-2.1 1.5,-0.6 3,-1.1 4.6,-1.5 l 1.8,-0.4 0.6,-0.1 1.2,-0.2 c 3.5,-0.51 9.2,-0.4 10.8,-0.2 0.4,0.1 0.8,0.1 1.2,0.2 l 1.2,0.2 0.6,0.1 1.8,0.4 c 1.5,0.4 3.1,0.9 4.6,1.5 1.5,0.6 2.9,1.3 4.3,2.1 2.8,1.6 5.3,3.6 7.5,5.8 2.2,2.2 4.1,4.8 5.7,7.4 1.6,2.9 2.8,5.8 3.8,8.8 z"
             fill="#843e04"
             stroke-width="none"
             opacity="1" />
        </g>
      </g>
      <g
         id="g2241"
         transform="matrix(0.37414217,0,0,0.37414217,20.717138,345.38516)">
        <g
           id="g2239">
          <path
             id="path2227"
             d="m 87.37,125.93 c 0,0 1.12,4.65 4.76,7.15 3.64,2.5 9.31,2.85 13.38,1.21 4.07,-1.64 6.77,-5.97 7.12,-7.11 0,0 -20.18,-0.45 -20.32,-0.49 -0.14,-0.04 -4.94,-0.76 -4.94,-0.76 z"
             fill="#d4422b"
             stroke-width="none"
             opacity="1"
             transform="translate(0,3)"
             stroke="none" />
          <path
             id="path2229"
             d="m 86.29,125.34 c 0,0 2.21,2.8 6.33,3.78 2.69,0.64 5.63,-0.21 6.96,-0.36 1.33,-0.15 1.97,0.36 4.15,0.64 2.18,0.28 6.33,0.14 10.06,-2.78 0,0 -2.04,0.5 -3.38,-0.43 -1.34,-0.93 -2.88,-3.21 -7.66,-3.92 -4.78,-0.71 -8.23,-0.14 -11.25,1.36 -3.03,1.5 -3.73,1.92 -5.21,1.71 z"
             fill="#cc371f"
             stroke-width="none"
             opacity="1"
             transform="translate(0,3)"
             stroke="none" />
          <path
             id="path2231"
             d="m 86.08,125.64 c 1.36,1.69 3.21,2.75 5.27,3.39 2.54,0.78 4.71,0.27 7.28,0.04 2.94,-0.27 5.68,1.1 8.66,0.68 2.34,-0.33 4.57,-1.41 6.54,-2.68 0.56,-0.37 -0.01,-1.28 -0.52,-0.89 -2.09,1.6 -4.46,2.74 -7.15,2.68 -2.3,-0.06 -4.4,-1.1 -6.74,-0.84 -2.02,0.22 -3.9,0.97 -5.96,0.78 -2.8,-0.26 -4.91,-1.76 -6.77,-3.75 -0.39,-0.42 -0.95,0.17 -0.61,0.59 z"
             fill="#c52c14"
             stroke-width="none"
             opacity="1"
             transform="translate(0,3)"
             stroke="none" />
          <path
             id="path2233"
             d="m 89.91,126.96 c 2.22,2.07 5.07,1.03 7.71,0.53 3.67,-0.69 7.27,1.65 10.87,0.51 0.21,-0.07 0.19,-0.42 -0.05,-0.4 -3.01,0.24 -5.45,-1.84 -8.45,-1.66 -3.45,0.22 -6.63,3.22 -10.02,0.94 -0.05,-0.03 -0.1,0.04 -0.06,0.08 z"
             fill="#dc4e38"
             stroke-width="none"
             opacity="1"
             transform="translate(0,3)"
             stroke="none" />
          <path
             id="path2235"
             d="m 108.59,130.42 c -0.95,0.98 -1.89,1.9 -3.13,2.5 -1.38,0.67 -2.74,0.71 -4.23,0.85 -0.35,0.03 -0.46,0.54 -0.09,0.64 2.84,0.76 6.56,-1.1 7.87,-3.67 0.13,-0.26 -0.2,-0.55 -0.42,-0.32 z"
             fill="#dc4e38"
             stroke-width="none"
             opacity="1"
             transform="translate(0,3)"
             stroke="none" />
          <path
             id="path2237"
             d="m 87.47,125.61 c 2.67,0.29 4.92,-2.02 7.47,-2.57 3.41,-0.73 6.76,-0.31 10.12,0.42 0.28,0.06 0.37,-0.31 0.12,-0.42 -2.62,-1.11 -5.96,-1.09 -8.73,-0.75 -1.23,0.15 -2.47,0.4 -3.62,0.87 -1.88,0.77 -3.26,2 -5.36,2.25 -0.12,0.02 -0.12,0.19 0,0.2 z"
             fill="#e35a45"
             stroke-width="none"
             opacity="1"
             transform="translate(0,3)"
             stroke="none" />
        </g>
      </g>
      <g
         id="g2271"
         transform="matrix(0.37414217,0,0,0.37414217,20.717138,345.38516)">
        <g
           id="g2269">
          <g
             id="g2245">
            <path
               id="path2243"
               d="m 92.3,99.5 c 0,0 -1.4,-2.7 -3.1,-3.9 -1.7,-1.3 -4.6,-3.1 -9.3,-2.1 -4.7,0.9 -8,4.7 -8,4.7 0,0 5.9,2.2 11.3,2.2 5.3,-0.1 9.1,-0.9 9.1,-0.9 z"
               fill="#ffffff"
               stroke-width="none"
               opacity="1" />
          </g>
          <g
             id="g2257">
            <g
               id="g2255">
              <g
                 id="g2253">
                <path
                   id="path2247"
                   d="m 82,91.5 c 2.7,0 4.9,2.2 4.9,4.9 0,2.7 -2.2,4.9 -4.9,4.9 -2.7,0 -4.9,-2.2 -4.9,-4.9 0,-2.7 2.2,-4.9 4.9,-4.9 z"
                   fill="#681711"
                   stroke-width="none"
                   opacity="1" />
                <path
                   id="path2249"
                   d="m 82,93.8 c 1.4,0 2.6,1.2 2.6,2.6 0,1.4 -1.2,2.6 -2.6,2.6 -1.4,0 -2.6,-1.2 -2.6,-2.6 0,-1.4 1.2,-2.6 2.6,-2.6 z"
                   fill="#000000"
                   stroke-width="none"
                   opacity="1" />
                <path
                   id="path2251"
                   d="m 81.3,94.3 -0.5,-0.5 c -0.2,-0.2 -0.4,-0.3 -0.7,-0.3 -0.3,0 -0.5,0.1 -0.7,0.3 -0.2,0.2 -0.3,0.4 -0.3,0.7 0,0.3 0.1,0.5 0.3,0.7 l 0.5,0.5 c 0.2,0.2 0.4,0.3 0.7,0.3 0.2,0 0.5,-0.1 0.7,-0.3 0.4,-0.5 0.4,-1 0,-1.4 z m 2.5,4.4 c 0.8,0 0.8,-1.3 0,-1.3 -0.8,0 -0.9,1.3 0,1.3 z"
                   fill="#ffffff"
                   stroke-width="none"
                   opacity="1" />
              </g>
            </g>
          </g>
          <g
             id="g2267">
            <path
               id="path2259"
               d="m 70.73,98.03 c 0,6.9 4.93,12.5 11.02,12.5 6.09,0 11.02,-5.6 11.02,-12.5 0,-6.9 -4.93,-12.5 -11.02,-12.5 -6.09,0 -11.02,5.59 -11.02,12.5 z m 1.2,0.17 c 0,0 3.31,-3.76 8,-4.69 4.69,-0.93 7.55,0.87 9.25,2.12 1.7,1.25 3.12,3.92 3.12,3.92 0,0 -3.76,0.77 -9.09,0.84 -5.34,0.06 -11.28,-2.19 -11.28,-2.19 z"
               fill="#b2713b"
               stroke-width="none"
               opacity="1"
               stroke="none" />
            <path
               id="path2261"
               d="m 91.56,97.86 c 0,0 -2.08,-4.66 -7.97,-5.44 -5.89,-0.79 -14.54,3.87 -15.21,5.61 -0.67,1.74 14.43,3.48 18.3,2.53 0,0 -11.56,-0.39 -14.54,-2.3 0,0 2.3,-4.27 8.93,-4.83 6.61,-0.57 10.04,3.7 10.49,4.43 z"
               fill="#b2713b"
               stroke-width="none"
               opacity="1"
               stroke="none" />
            <path
               id="path2263"
               d="m 92.49,100.56 c -2.99,2.4 -6.96,3.48 -10.76,3.36 -0.17,-0.01 -0.17,-0.25 0,-0.26 3.97,-0.16 7.22,-1.31 10.68,-3.21 0.07,-0.04 0.15,0.05 0.08,0.11 z"
               fill="#a35e26"
               stroke-width="none"
               opacity="1"
               stroke="none" />
            <path
               id="path2265"
               d="m 71.75,98.72 c 6.44,2.32 13.78,2.6 20.43,0.97 0.13,0.06 0.34,-0.05 0.27,-0.21 -3.52,-8.75 -15.59,-8.02 -20.9,-1.51 -0.22,0.27 -0.14,0.63 0.2,0.75 z m 0.88,-0.65 c 5.34,-6.21 15.21,-6.15 19.35,1.37 -6.45,1.12 -13.13,0.73 -19.35,-1.37 z"
               fill="#1b2a40"
               stroke-width="none"
               opacity="1"
               stroke="none" />
          </g>
        </g>
      </g>
      <g
         id="g2301"
         transform="matrix(0.37414217,0,0,0.37414217,20.717138,345.38516)">
        <g
           id="g2299">
          <g
             id="g2275">
            <path
               id="path2273"
               d="m 107.7,99.5 c 0,0 1.4,-2.7 3.1,-3.9 1.7,-1.3 4.6,-3.1 9.3,-2.1 4.7,0.9 8,4.7 8,4.7 0,0 -5.9,2.2 -11.3,2.2 -5.3,-0.1 -9.1,-0.9 -9.1,-0.9 z"
               fill="#ffffff"
               stroke-width="none"
               opacity="1" />
          </g>
          <g
             id="g2287">
            <g
               id="g2285">
              <g
                 id="g2283">
                <path
                   id="path2277"
                   d="m 118,91.5 c 2.7,0 4.9,2.2 4.9,4.9 0,2.7 -2.2,4.9 -4.9,4.9 -2.7,0 -4.9,-2.2 -4.9,-4.9 0,-2.7 2.2,-4.9 4.9,-4.9 z"
                   fill="#681711"
                   stroke-width="none"
                   opacity="1" />
                <path
                   id="path2279"
                   d="m 118,93.8 c 1.4,0 2.6,1.2 2.6,2.6 0,1.4 -1.2,2.6 -2.6,2.6 -1.4,0 -2.6,-1.2 -2.6,-2.6 0,-1.4 1.2,-2.6 2.6,-2.6 z"
                   fill="#000000"
                   stroke-width="none"
                   opacity="1" />
                <path
                   id="path2281"
                   d="m 117.4,94.3 -0.5,-0.5 c -0.2,-0.2 -0.4,-0.3 -0.7,-0.3 -0.3,0 -0.5,0.1 -0.7,0.3 -0.2,0.2 -0.3,0.4 -0.3,0.7 0,0.3 0.1,0.5 0.3,0.7 l 0.5,0.5 c 0.2,0.2 0.4,0.3 0.7,0.3 0.2,0 0.5,-0.1 0.7,-0.3 0.3,-0.5 0.4,-1 0,-1.4 z m 2.4,4.4 c 0.8,0 0.8,-1.3 0,-1.3 -0.8,0 -0.8,1.3 0,1.3 z"
                   fill="#ffffff"
                   stroke-width="none"
                   opacity="1" />
              </g>
            </g>
          </g>
          <g
             id="g2297">
            <path
               id="path2289"
               d="m 118.26,85.53 c -6.08,0 -11.02,5.6 -11.02,12.5 0,6.9 4.93,12.5 11.02,12.5 6.09,0 11.02,-5.6 11.02,-12.5 0,-6.9 -4.94,-12.5 -11.02,-12.5 z m -1.47,14.85 c -5.33,-0.06 -9.09,-0.84 -9.09,-0.84 0,0 1.41,-2.67 3.12,-3.92 1.7,-1.25 4.56,-3.05 9.25,-2.12 4.69,0.93 8,4.69 8,4.69 0,0 -5.94,2.26 -11.28,2.19 z"
               fill="#b2713b"
               stroke-width="none"
               opacity="1"
               stroke="none" />
            <path
               id="path2291"
               d="m 108.44,97.86 c 0,0 2.08,-4.66 7.97,-5.44 5.89,-0.79 14.54,3.87 15.21,5.61 0.67,1.74 -14.43,3.48 -18.3,2.53 0,0 11.56,-0.39 14.54,-2.3 0,0 -2.3,-4.27 -8.93,-4.83 -6.61,-0.57 -10.04,3.7 -10.49,4.43 z"
               fill="#aa6730"
               stroke-width="none"
               opacity="1"
               stroke="none" />
            <path
               id="path2293"
               d="m 107.51,100.56 c 2.99,2.4 6.96,3.48 10.76,3.36 0.17,-0.01 0.17,-0.25 0,-0.26 -3.97,-0.16 -7.22,-1.31 -10.68,-3.21 -0.07,-0.04 -0.15,0.05 -0.08,0.11 z"
               fill="#a35e26"
               stroke-width="none"
               opacity="1"
               stroke="none" />
            <path
               id="path2295"
               d="m 128.45,97.96 c -5.31,-6.51 -17.38,-7.23 -20.9,1.51 -0.07,0.17 0.14,0.28 0.27,0.21 6.65,1.63 13.98,1.35 20.43,-0.97 0.34,-0.11 0.42,-0.47 0.2,-0.75 z m -20.43,1.47 c 4.14,-7.52 14.01,-7.58 19.35,-1.37 -6.22,2.11 -12.9,2.5 -19.35,1.37 z"
               fill="#1b2a40"
               stroke-width="none"
               opacity="1"
               stroke="none" />
          </g>
        </g>
      </g>
      <g
         id="g2313"
         transform="matrix(0.37414217,0,0,0.37414217,20.717138,345.38516)">
        <g
           id="g2311">
          <g
             id="g2309">
            <path
               id="path2303"
               d="m 72.9,84.2 c 0.1,-0.2 0.4,-0.3 0.6,-0.4 0.2,-0.1 0.4,-0.2 0.6,-0.2 0.4,-0.2 0.8,-0.4 1.2,-0.5 0.5,-0.1 1.2,-0.5 1.7,-0.2 1.6,-0.6 3.7,-0.2 5.1,0.6 1.9,0.2 3.9,0.8 5.3,1.8 0.1,0.1 0.2,0.2 0.2,0.3 0.3,0.1 0.5,0.2 0.8,0.3 1,0.4 2.1,0.7 3.1,1.2 0.1,0 0.2,0.1 0.3,0.1 0.3,0.1 0.4,0.7 0.2,0.8 -0.1,0.1 -0.1,0.2 -0.2,0.3 -0.8,0.6 -1.8,0.2 -2.6,-0.1 -0.7,-0.3 -1.5,-0.6 -2,-1.2 -0.8,-0.3 -1.4,-0.7 -2.1,-1.1 -0.1,0 -0.2,-0.1 -0.3,-0.1 -1.2,-0.2 -2.5,-0.7 -3.7,-1.3 -0.7,-0.1 -1.3,-0.3 -2,-0.3 -0.9,-0.1 -1.8,0.2 -2.8,-0.1 h -0.1 c -0.2,0.1 -0.4,0.1 -0.6,0.2 -0.8,0.2 -1.5,0.4 -2.3,0.4 -0.1,0 -0.2,-0.1 -0.2,-0.2 H 73 c 0,0 -0.2,-0.1 -0.1,-0.3 z"
               fill="#543c32"
               stroke-width="none"
               opacity="1" />
            <path
               id="path2305"
               d="m 77.4,82.3 c 3.1,-0.2 6.2,1.5 9,2.6 1.7,0.7 5.2,0.9 5.9,3 0.1,0.3 -0.3,0.4 -0.5,0.2 -0.9,-1.2 -2.4,-1.4 -3.8,-1.8 -1.2,-0.4 -2.3,-0.8 -3.5,-1.3 -2.4,-1 -4.8,-1.6 -7.3,-2.2 -0.1,-0.1 0,-0.4 0.2,-0.5 z"
               fill="#634e45"
               stroke-width="none"
               opacity="1" />
            <path
               id="path2307"
               d="m 93.3,87.9 c 0.3,-1.4 -1.8,-1.9 -2.8,-2.3 -2.4,-1 -4.9,-2.1 -7.4,-2.8 -1.5,-0.4 -3.1,-0.7 -4.6,-0.7 -1.2,0 -2.3,0.1 -3.5,0.5 -2,0.6 -3.9,1.8 -5.6,3.1 -0.9,0.5 -1.8,1.2 -2.5,1.9 -0.1,0.1 0,0.3 0.2,0.2 0,0 0.1,0 0.1,-0.1 0,0.1 0.1,0.1 0.2,0.1 1.5,-0.7 2.8,-1.6 4.3,-2.2 1.5,-0.6 3.1,-1 4.7,-1.1 h 0.7 c 1.9,0 3.7,0.4 5.4,1.2 2.4,1.1 4.6,2.6 7,3.5 0.4,0.2 0.9,0.2 1.4,0.2 1.1,0 2.2,-0.4 2.4,-1.5 z M 78.5,83 c 1.6,0 3.2,0.4 4.8,0.9 2,0.7 4,1.6 6,2.4 0.4,0.2 2.4,0.7 2.6,1.2 0.2,0.6 -0.2,0.8 -0.8,0.9 -0.3,0 -0.6,-0.1 -0.8,-0.1 -0.6,-0.2 -1.2,-0.6 -1.7,-0.9 -3.1,-1.6 -6.3,-3.5 -9.8,-3.7 h -1 c -1.1,0 -2.3,0.1 -3.5,0.3 0.5,-0.2 1,-0.4 1.6,-0.6 0.8,-0.3 1.7,-0.4 2.6,-0.4 z"
               fill="#452c22"
               stroke-width="none"
               opacity="1" />
          </g>
        </g>
      </g>
      <g
         id="g2325"
         transform="matrix(0.37414217,0,0,0.37414217,20.717138,345.38516)">
        <g
           id="g2323">
          <g
             id="g2321">
            <path
               id="path2315"
               d="m 127.1,84.2 c -0.1,-0.2 -0.4,-0.3 -0.6,-0.4 -0.2,-0.1 -0.4,-0.2 -0.6,-0.2 -0.4,-0.2 -0.8,-0.4 -1.2,-0.5 -0.5,-0.1 -1.2,-0.5 -1.7,-0.2 -1.6,-0.6 -3.7,-0.2 -5.1,0.6 -1.9,0.2 -3.9,0.8 -5.3,1.8 -0.1,0.1 -0.2,0.2 -0.2,0.3 -0.3,0.1 -0.5,0.2 -0.8,0.3 -1,0.4 -2.1,0.7 -3.1,1.2 -0.1,0 -0.2,0.1 -0.3,0.1 -0.3,0.1 -0.4,0.7 -0.2,0.8 0.1,0.1 0.1,0.2 0.2,0.3 0.8,0.6 1.8,0.2 2.6,-0.1 0.7,-0.3 1.5,-0.6 2,-1.2 0.8,-0.3 1.4,-0.7 2.1,-1.1 0.1,0 0.2,-0.1 0.3,-0.1 1.2,-0.2 2.5,-0.7 3.7,-1.3 0.7,-0.1 1.3,-0.3 2,-0.3 0.9,-0.1 1.8,0.2 2.8,-0.1 h 0.1 c 0.2,0.1 0.4,0.1 0.6,0.2 0.8,0.2 1.5,0.4 2.3,0.4 0.1,0 0.2,-0.1 0.2,-0.2 h 0.1 c 0,0 0.2,-0.1 0.1,-0.3 z"
               fill="#543c32"
               stroke-width="none"
               opacity="1" />
            <path
               id="path2317"
               d="m 122.6,82.3 c -3.1,-0.2 -6.2,1.5 -9,2.6 -1.7,0.7 -5.2,0.9 -5.9,3 -0.1,0.3 0.3,0.4 0.5,0.2 0.9,-1.2 2.4,-1.4 3.8,-1.8 1.2,-0.4 2.3,-0.8 3.5,-1.3 2.4,-1 4.8,-1.6 7.3,-2.2 0.1,-0.1 0,-0.4 -0.2,-0.5 z"
               fill="#634e45"
               stroke-width="none"
               opacity="1" />
            <path
               id="path2319"
               d="m 109,89.3 c 0.5,0 1,-0.1 1.4,-0.2 2.4,-0.9 4.7,-2.4 7,-3.5 1.8,-0.8 3.6,-1.2 5.4,-1.2 h 0.7 c 1.6,0.1 3.2,0.5 4.6,1.1 1.5,0.6 2.9,1.6 4.3,2.2 0.1,0 0.2,0 0.2,-0.1 0,0 0.1,0 0.1,0.1 0.2,0.1 0.3,-0.1 0.2,-0.2 -0.7,-0.7 -1.6,-1.4 -2.5,-1.9 -1.7,-1.3 -3.6,-2.4 -5.6,-3.1 -1.1,-0.4 -2.3,-0.5 -3.5,-0.5 -1.6,0 -3.1,0.3 -4.6,0.7 -2.5,0.7 -5,1.8 -7.4,2.8 -0.9,0.4 -3.1,0.9 -2.8,2.3 0.4,1.2 1.5,1.6 2.5,1.5 z m 15.2,-5.9 c 0.5,0.2 1.1,0.3 1.6,0.6 -1.2,-0.2 -2.3,-0.3 -3.5,-0.3 h -1 c -3.5,0.2 -6.8,2.2 -9.8,3.7 -0.6,0.3 -1.1,0.7 -1.7,0.9 -0.2,0.1 -0.5,0.1 -0.8,0.1 -0.5,0 -1,-0.2 -0.8,-0.9 0.2,-0.5 2.2,-1 2.6,-1.2 2,-0.8 4,-1.7 6,-2.4 1.6,-0.5 3.2,-0.9 4.8,-0.9 0.8,0 1.7,0.1 2.6,0.4 z"
               fill="#452c22"
               stroke-width="none"
               opacity="1" />
          </g>
        </g>
      </g>
      <g
         id="g2337"
         transform="matrix(0.37414217,0,0,0.37414217,20.717138,345.38516)">
        <g
           id="g2335">
          <path
             id="path2327"
             d="m 106.48,114.01 c -2.23,0.09 -3.27,2.84 -5.54,3.17 -3.19,0.45 -5.28,-2.02 -7.58,-3.74 -0.08,-0.06 -0.21,0.06 -0.14,0.14 0.3,0.4 0.64,0.79 1,1.17 -0.5,-0.34 -0.87,-0.33 -1.47,-0.37 -0.73,-0.05 -1.25,-0.35 -1.36,-1.18 -0.04,-0.3 0.55,-1.35 0.73,-1.68 0.82,-1.61 2,-2.88 3.07,-4.3 0.08,-0.1 -0.08,-0.26 -0.18,-0.18 -0.16,0.12 -0.32,0.26 -0.48,0.4 0.74,-1.5 1.44,-3.03 2,-4.58 0.04,-0.12 -0.15,-0.2 -0.21,-0.09 -0.92,1.67 -1.68,3.48 -2.4,5.26 -1.31,1.35 -2.44,3.19 -2.97,4.83 -0.73,2.27 1.71,1.96 3.16,2.24 0.18,0.03 0.26,-0.15 0.16,-0.27 1.5,1.58 3.45,2.87 5.61,3.05 2.98,0.24 4.36,-2.2 6.69,-3.54 0.12,-0.11 0.07,-0.34 -0.09,-0.33 z"
             fill="#843e04"
             stroke-width="none"
             opacity="1"
             transform="translate(0,2)"
             stroke="none" />
          <path
             id="path2329"
             d="m 108.82,112.74 c -0.19,-0.99 -1.07,-1.94 -1.67,-2.71 -0.72,-0.93 -1.48,-1.82 -2.41,-2.54 -0.18,-0.14 -0.34,0.14 -0.22,0.29 0.89,1.13 1.9,2.14 2.75,3.3 0.57,0.78 1.55,1.89 0.7,2.98 -0.5,0.64 -1.65,0.74 -2.39,0.93 -0.09,0.02 -0.07,0.15 0.02,0.16 1.44,0.11 3.58,-0.54 3.22,-2.41 z"
             fill="#843e04"
             stroke-width="none"
             opacity="1"
             transform="translate(0,2)"
             stroke="none" />
          <path
             id="path2331"
             d="m 97.07,106.9 c 2.12,-0.61 4.06,-0.55 6.22,-0.38 0.16,0.01 0.17,-0.21 0.04,-0.26 -2.04,-0.74 -4.39,-0.4 -6.34,0.44 -0.13,0.05 -0.04,0.23 0.08,0.2 z"
             fill="#843e04"
             stroke-width="none"
             opacity="1"
             transform="translate(0,2)"
             stroke="none" />
          <path
             id="path2333"
             d="m 103.63,108.35 c -1.09,-1.49 -3.61,-0.05 -2.51,1.47 1.39,1.92 -0.3,3.43 -2.28,3.58 -0.57,0.04 -0.83,0.66 -0.45,1.1 1.34,1.56 3.69,1.13 5.01,-0.29 1.5,-1.61 1.5,-4.12 0.23,-5.86 z"
             fill="#ba7b47"
             stroke-width="none"
             opacity="1"
             transform="translate(0,2)"
             stroke="none" />
        </g>
      </g>
      <g
         id="g2345"
         transform="matrix(0.37414217,0,0,0.37414217,20.717138,345.38516)"
         style="fill:#000707;fill-opacity:1">
        <path
           id="path2339"
           d="m 96.3,39.2 c 0,0 -1.9,-1.7 -6.2,-2.7 -4.3,-1 -14.5,-0.3 -25.3,9.8 -10.8,10.1 -16.2,22.4 -19.3,32 -3.1,9.6 -4.3,32 -4.1,33.7 0.2,1.7 6,9.1 9.6,11.3 0,0 -0.5,-10.8 0.2,-14.8 0,0 1.2,12.6 1.9,16 0,0 8.4,4.4 14.9,5.4 0,0 -3.1,-17.9 -3.8,-33.9 -0.7,-16 1.4,-31.4 5.1,-38.8 0,0 -2.5,14.6 -3.2,22.5 0,0 25.2,4.3 49.4,2.4 0,0 1.4,-9.1 1.4,-13.1 0,0 0.7,7.9 0.7,12.6 0,0 9.1,1 17.3,-0.7 0,0 3.8,30.3 -5.5,48.8 0,0 9.6,-1.5 13.7,-3.7 0,0 1.4,-4.7 1.9,-7.1 0,0 0.2,3.4 -0.5,6.2 0,0 4.8,-2.7 8.1,-5.4 0,0 -0.1,-10.9 -0.5,-15.9 0,0 2.4,7.5 2.2,14.4 0,0 1.9,-2.5 3.6,-4.4 0,0 -1.8,-20.4 -8.5,-40.9 -6.7,-20.5 -21.7,-31.3 -30.6,-34.5 -8.9,-3.2 -18.9,-2.7 -22.5,0.8 z"
           fill="#eee4e0"
           stroke-width="none"
           opacity="1"
           stroke="none"
           style="fill:#000707;fill-opacity:1" />
        <path
           id="path2341"
           d="m 91.2,39.9 c -18.8,0.6 -23.4,23.5 -23.6,38.3 0,0.4 0.6,0.5 0.7,0.1 2.1,-15.3 4.3,-34.8 23,-37.8 0.4,0 0.3,-0.6 -0.1,-0.6 z M 89,41.1 c -12.8,6 -16.7,20.6 -16.1,33.7 0,0.3 0.4,0.3 0.4,0 C 73.5,61.6 76.6,48.1 89.1,41.4 89.4,41.3 89.2,41 89,41.1 Z m 5.4,0.1 c -5.6,8.9 -7.9,20.7 -4.9,30.9 0.1,0.3 0.7,0.3 0.6,-0.1 C 88.9,61.1 90,51.4 94.9,41.5 95.1,41.1 94.6,40.8 94.4,41.2 Z m -1,-1.8 C 78,35.9 65.6,50.2 61.6,63.5 c -2.8,9 -3,18.6 -2.9,28 0.1,10.2 0.2,20.6 2.4,30.6 0.1,0.3 0.6,0.2 0.5,-0.1 -2.4,-16.8 -4,-35.5 -0.8,-52.3 3,-15.9 14.4,-31.9 32.4,-29.7 0.4,0 0.5,-0.5 0.2,-0.6 z m 6,2.6 c -0.1,-0.2 -0.3,0 -0.3,0.2 2.8,5.6 5,11.5 6.2,17.6 1.2,6.3 0.8,12.3 0.7,18.6 0,0.3 0.5,0.4 0.5,0.1 2.8,-12.1 -0.9,-26.1 -7.1,-36.5 z m 3.4,-3.2 c -0.3,0 -0.4,0.4 -0.1,0.4 18.5,4 21,24.6 22.9,39.9 0,0.3 0.5,0.3 0.5,0 0.2,-14.8 -5.7,-37.9 -23.3,-40.3 z M 140,74.5 c -3.2,-16 -15.4,-29.2 -30,-35.8 -0.2,-0.1 -0.3,0.2 -0.2,0.3 13.9,8.5 26.1,19.9 29,36.7 2.7,15.5 2,32.7 -4,47.3 -0.1,0.4 0.4,0.6 0.6,0.3 4.1,-6.8 5.5,-14.7 5.9,-22.6 0.6,-8.6 0.4,-17.8 -1.3,-26.2 z M 80.5,38.7 C 67.7,43 59.2,55.3 54.5,67.4 48.7,82.4 44.8,101 47,117 c 0,0.3 0.5,0.2 0.5,-0.1 -0.9,-27.7 5.2,-64.9 33.1,-78 0.1,-0.1 0.1,-0.3 -0.1,-0.2 z"
           fill="#dfc5bb"
           stroke-width="none"
           opacity="1"
           stroke="none"
           style="fill:#000707;fill-opacity:1" />
        <path
           id="path2343"
           d="m 109.9,51.7 c -2.1,-5.3 -5.1,-10.4 -10.8,-12.1 -0.2,0 -0.3,0.2 -0.1,0.3 13.1,5.6 14.4,25.9 14.2,38 0,0.3 0.4,0.3 0.4,0 0.9,-8.9 -0.4,-18 -3.7,-26.2 z m 22.6,16.6 c -0.1,-0.2 -0.4,-0.1 -0.4,0.2 1,3.9 1.9,7.6 2.6,11.5 0.1,0.3 0.6,0.2 0.6,-0.1 -0.1,-3.9 -1,-8.1 -2.8,-11.6 z M 99,44.8 c -0.1,-0.2 -0.3,-0.1 -0.3,0.1 2.2,9.6 2.8,18.8 3,28.6 0,0.3 0.4,0.3 0.5,0 1,-9.5 -0.5,-19.6 -3.2,-28.7 z M 98.8,51 c 0,-0.2 -0.3,-0.1 -0.3,0 0.8,7.2 1.1,14.3 1.3,21.6 0,0.3 0.5,0.3 0.5,0 0.5,-7.2 -0.2,-14.5 -1.5,-21.6 z m -2.7,-2.9 c 0,-0.2 -0.3,-0.2 -0.3,0 0.8,10.2 0.7,20.5 1,30.7 0,0.3 0.4,0.3 0.5,0 C 97.8,68.5 97,58.3 96.1,48.1 Z m -1.9,6.8 c -0.4,6.3 -0.6,12.6 -0.4,18.9 0,0.3 0.4,0.3 0.5,0 0.3,-6.3 0.3,-12.6 0.3,-18.9 0,-0.3 -0.4,-0.3 -0.4,0 z m -4.8,-9.4 c -5.3,8.7 -6.4,19.2 -6.6,29.1 0,0.4 0.7,0.4 0.7,0 0.9,-10.1 1.3,-19.8 6.4,-28.9 0.1,-0.2 -0.3,-0.5 -0.5,-0.2 z M 84,50.3 c -3.1,6.2 -4.8,13 -4.1,20 0,0.3 0.4,0.3 0.4,0 0.2,-6.9 1.2,-13.3 4.1,-19.7 0.3,-0.4 -0.2,-0.7 -0.4,-0.3 z m -2.1,-0.5 c -3.2,5.7 -5.5,11.8 -6.2,18.3 0,0.3 0.5,0.4 0.5,0.1 1.2,-6.4 2.9,-12.4 6,-18.2 0.2,-0.2 -0.2,-0.5 -0.3,-0.2 z m 26.4,-6.6 c -0.1,-0.1 -0.3,0 -0.2,0.1 4.7,7.3 7.1,15.4 7.7,24 0,0.2 0.3,0.2 0.3,0 -0.1,-8.9 -2.9,-16.9 -7.8,-24.1 z m 15,10.5 c -0.1,-0.1 -0.3,0 -0.2,0.2 4.4,5.7 5.2,12.6 6.4,19.5 0,0.2 0.4,0.2 0.4,-0.1 -0.7,-7 -2,-14.1 -6.6,-19.6 z m -1,-4 c -0.1,-0.1 -0.3,0.1 -0.2,0.2 5.1,5.5 8.3,11.6 10.7,18.6 0.1,0.3 0.5,0.2 0.4,-0.1 -1.7,-7.2 -5.8,-13.5 -10.9,-18.7 z m -0.9,-8.1 c -0.2,-0.1 -0.4,0.2 -0.2,0.4 19.9,13.3 24.9,35.8 27.1,58.2 0,0.3 0.4,0.3 0.4,0 -0.4,-22 -7.5,-46.7 -27.3,-58.6 z m 25.7,29.8 c -0.1,-0.2 -0.3,-0.1 -0.3,0.1 2,8.2 3.1,16.4 3.7,24.8 0,0.3 0.4,0.3 0.4,0 0,-8.5 -1.4,-16.9 -3.8,-24.9 z m 1.2,31.9 c 0,-0.2 -0.3,-0.2 -0.3,0 -0.3,6.2 -0.7,12.4 -1.3,18.6 0,0.2 0.2,0.2 0.3,0 1,-6.1 1.5,-12.4 1.3,-18.6 z M 57.5,70.8 c 0,-0.2 -0.3,-0.3 -0.3,-0.1 -3,13.1 -3.8,26.9 -2.2,40.2 0,0.2 0.4,0.2 0.4,0 -0.7,-13.5 -0.1,-26.7 2.1,-40.1 z"
           fill="#fdfdfd"
           stroke-width="none"
           opacity="1"
           stroke="none"
           style="fill:#000707;fill-opacity:1" />
      </g>
    </g>
  </g>
</svg>
