<?xml version="1.0" encoding="UTF-8" standalone="no"?>
<svg
   width="130.39792"
   height="170.00006"
   viewBox="0 0 34.501115 44.979186"
   version="1.1"
   id="svg8"
   xmlns="http://www.w3.org/2000/svg"
   xmlns:svg="http://www.w3.org/2000/svg"
   xmlns:rdf="http://www.w3.org/1999/02/22-rdf-syntax-ns#"
   xmlns:cc="http://creativecommons.org/ns#"
   xmlns:dc="http://purl.org/dc/elements/1.1/">
  <defs
     id="defs2" />
  <metadata
     id="metadata5">
    <rdf:RDF>
      <cc:Work
         rdf:about="">
        <dc:format>image/svg+xml</dc:format>
        <dc:type
           rdf:resource="http://purl.org/dc/dcmitype/StillImage" />
      </cc:Work>
    </rdf:RDF>
  </metadata>
  <g
     id="layer1"
     transform="translate(-118.47313,-729.55404)">
    <g
       id="g2007"
       transform="matrix(0.6385856,0,0,0.6385856,42.817896,561.03938)">
      <path
         id="path1847"
         d="m 171.66169,333.78924 -0.64817,-8.19754 c 0,0 0.26689,-3.43151 -3.35527,-5.83358 -3.62217,-2.40208 -8.92196,-3.85093 -11.24777,-5.41418 -2.32581,-1.56324 -3.50778,-1.71576 -3.43152,-6.44364 0.0763,-4.72787 0.34315,-15.36559 0.34315,-15.36559 h -15.55624 c 0,0 0.2669,10.63772 0.34316,15.36559 0.0763,4.72788 -1.10572,4.8804 -3.43153,6.44364 -2.32581,1.56325 -7.6256,3.01211 -11.24776,5.41418 -3.62217,2.40207 -3.35527,5.83358 -3.35527,5.83358 l -0.61005,8.19754 z"
         fill="#b2713b"
         stroke-width="0.38128"
         opacity="1"
         stroke="none" />
      <path
         id="path1849"
         d="m 138.03658,309.95158 c 3.81662,1.79583 6.42839,2.06654 7.50741,2.06654 1.07902,0 3.6908,-0.27452 7.50741,-2.06654 -0.061,-0.57192 -0.0839,-1.24297 -0.0724,-2.05129 0.0763,-4.72787 0.34315,-15.36559 0.34315,-15.36559 h -15.55624 c 0,0 0.2669,10.63772 0.34316,15.36559 0.0114,0.80832 -0.0114,1.47937 -0.0725,2.05129 z"
         fill="#934d13"
         stroke-width="0.38128"
         opacity="0.65" />
      <path
         id="path1851"
         d="m 135.55445,317.16541 c 1.94453,1.10571 4.49911,1.98265 6.71053,2.17329 0.15251,0 0.15251,-0.22877 0.0381,-0.26688 -1.06758,-0.41942 -2.24955,-0.64819 -3.35526,-0.99134 -1.10572,-0.34315 -2.21143,-0.76256 -3.35527,-1.02946 -0.0381,-0.0381 -0.11438,0.0763 -0.0381,0.11439 z m 13.42106,2.36394 c 2.02079,-0.22877 4.30847,-1.14384 6.06236,-2.21143 0.11439,-0.0763 0.0381,-0.22877 -0.0763,-0.19064 -0.99132,0.34315 -1.98265,0.76256 -2.97398,1.10571 -0.99133,0.34315 -2.05892,0.57192 -3.05025,0.9532 -0.19063,0.0381 -0.19063,0.34316 0.0381,0.34316 z"
         fill="#934d13"
         stroke-width="0.38128"
         opacity="1"
         stroke="none" />
      <path
         id="path1853"
         d="m 171.62356,333.7511 -0.80069,-8.1594 c 0,-0.83882 -0.19063,-1.71576 -0.57192,-2.51645 -0.34315,-0.80069 -0.87694,-1.48699 -1.48699,-2.09704 -0.61005,-0.61005 -1.33448,-1.06757 -2.09704,-1.52511 -0.76256,-0.45754 -1.56325,-0.83882 -2.36394,-1.18198 -1.60137,-0.72443 -3.27901,-1.37261 -4.91852,-2.05892 -0.83881,-0.34315 -1.6395,-0.72443 -2.44019,-1.14384 -0.41941,-0.22876 -0.80069,-0.45753 -1.14384,-0.72443 -0.38128,-0.22877 -0.76256,-0.45753 -1.14384,-0.72443 -0.38128,-0.2669 -0.76256,-0.57192 -1.06759,-0.99133 -0.30502,-0.38128 -0.49566,-0.83882 -0.64817,-1.29635 -0.2669,-0.91508 -0.30502,-1.83015 -0.30502,-2.74522 0,-1.79202 0.0763,-3.58404 0.11438,-5.37605 0.0762,-3.58404 0.22877,-7.12994 0.34315,-10.67585 l 0.22877,0.22877 -7.77812,-0.0763 -7.77812,-0.0381 0.11439,-0.11438 0.26689,10.67585 c 0.0381,1.79201 0.11439,3.54591 0.15252,5.33792 0,0.91508 -0.0381,1.79202 -0.30503,2.70709 -0.11438,0.45754 -0.34315,0.87695 -0.61005,1.25823 -0.30502,0.38128 -0.64817,0.6863 -1.02945,0.9532 -0.38128,0.2669 -0.76256,0.49566 -1.10572,0.76256 -0.34315,0.22877 -0.72443,0.49566 -1.14384,0.72444 -0.80069,0.45753 -1.60137,0.80068 -2.44019,1.18196 -1.63951,0.72444 -3.27901,1.37261 -4.88039,2.13517 -0.80069,0.38129 -1.60138,0.80069 -2.32581,1.2201 -0.76256,0.45753 -1.44886,0.91508 -2.05891,1.52512 -0.61005,0.61004 -1.10571,1.29635 -1.44887,2.05891 -0.15251,0.38128 -0.30502,0.80069 -0.38128,1.18197 -0.0763,0.41941 -0.15251,0.83882 -0.11438,1.2201 v 0.0763 l -0.57192,8.19753 -0.38128,-0.41941 12.96353,0.0381 c 4.30847,0 8.65506,0.0381 13.00166,0.0763 l 13.03978,0.11438 z m 0.0763,0.0763 -12.96353,0.15252 -13.03979,0.11439 c -4.34659,0.0381 -8.73131,0.0763 -13.11604,0.0763 l -13.11604,0.0381 h -0.41941 l 0.0381,-0.41941 0.64817,-8.19753 v 0.0381 c -0.0381,-1.94453 0.83882,-3.73654 2.1733,-5.07103 0.64818,-0.64817 1.44887,-1.18196 2.21143,-1.6395 0.76256,-0.45754 1.60137,-0.83882 2.40206,-1.2201 1.63951,-0.76256 3.31714,-1.41074 4.95665,-2.05891 0.80069,-0.34315 1.6395,-0.6863 2.40206,-1.10572 0.38128,-0.19063 0.72444,-0.4194 1.14384,-0.6863 0.38128,-0.22877 0.76256,-0.45754 1.10572,-0.72443 0.34315,-0.22877 0.6863,-0.53379 0.91507,-0.83882 0.2669,-0.34315 0.45754,-0.72443 0.57192,-1.10571 0.22877,-0.80069 0.30502,-1.71575 0.30502,-2.59271 0,-1.75389 -0.0381,-3.5459 -0.0762,-5.33792 l -0.22877,-10.67585 v -0.11438 h 0.11438 l 7.77812,-0.0381 7.77811,-0.0763 h 0.22878 v 0.22877 c -0.0381,3.54591 -0.0763,7.12994 -0.15252,10.67585 -0.0381,1.79202 -0.0763,3.58404 -0.0763,5.33792 0.0381,0.87695 0.0763,1.75389 0.30503,2.55458 0.11439,0.41941 0.30502,0.76256 0.53379,1.10571 0.22877,0.30503 0.53379,0.61005 0.91507,0.83882 0.34316,0.22877 0.72444,0.49567 1.10572,0.72444 0.38128,0.26689 0.72443,0.49566 1.10571,0.6863 0.76257,0.41941 1.56325,0.80069 2.40207,1.14384 1.63951,0.68631 3.27901,1.37261 4.91852,2.13517 0.80068,0.38128 1.60137,0.80069 2.36393,1.25822 0.76257,0.45754 1.52512,0.99133 2.1733,1.63951 1.29635,1.29635 2.13517,3.08837 2.05891,4.95664 v -0.0381 z m -43.00842,-0.15251 0.72444,-5.26167 0.0381,5.26167 z m 33.78144,0 -0.72444,-5.26167 -0.0381,5.26167 z"
         fill="#843e04"
         stroke-width="0.38128"
         opacity="1"
         stroke="none" />
      <path
         id="path1855"
         d="m 162.0153,333.97987 0.0381,-1.37261 10.21831,-0.99133 c 0,0 -0.45753,-6.29112 -0.72443,-7.62559 -0.2669,-1.3345 -0.87694,-3.27902 -4.61349,-5.33794 -3.73655,-2.0589 -10.56146,-4.72787 -10.56146,-4.72787 -12.04846,11.62905 -21.3517,-0.0381 -21.6186,0 0,0 -6.82491,2.66897 -10.56146,4.72787 -3.73655,2.05892 -4.3466,4.00344 -4.61349,5.33794 -0.2669,1.33447 -0.72443,7.62559 -0.72443,7.62559 l 10.21831,0.99133 v 1.37261 z"
         fill="#82cbe2"
         stroke-width="0.38128"
         opacity="1"
         stroke="none"
         style="fill:#008080;fill-opacity:1;stroke:#ffffff" />
      <path
         id="path1857"
         d="m 172.50051,331.61593 c -0.15252,-2.21143 -0.2669,-4.42285 -0.49567,-6.63428 -0.11438,-1.10571 -0.34315,-2.28767 -0.99132,-3.279 -0.61005,-0.99133 -1.487,-1.7539 -2.4402,-2.40207 -0.91507,-0.64818 -1.94453,-1.18197 -2.93586,-1.67763 -0.99133,-0.49566 -2.02078,-0.95321 -3.01211,-1.41075 -2.02079,-0.91506 -4.0797,-1.71575 -6.17674,-2.51644 -0.0763,-0.0381 -0.19064,0 -0.2669,0.0381 -1.44887,1.44887 -3.05024,2.70709 -4.84226,3.6603 -1.79202,0.9532 -3.77467,1.52512 -5.79546,1.56325 -1.02946,0 -2.02079,-0.11439 -3.01211,-0.34316 -0.99133,-0.26689 -1.94453,-0.64817 -2.82148,-1.10571 -0.87694,-0.45754 -1.75389,-1.02945 -2.55457,-1.6395 -0.41941,-0.30503 -0.80069,-0.64819 -1.18197,-0.99133 -0.19064,-0.15252 -0.38128,-0.34316 -0.5338,-0.5338 l -0.26689,-0.2669 -0.15251,-0.15251 -0.0763,-0.0763 -0.0381,-0.0381 -0.0381,-0.0381 c 0,0 -0.0763,-0.0381 -0.11439,-0.0381 h -0.0381 c -2.05891,0.80068 -4.11783,1.60137 -6.17674,2.47832 -1.02946,0.41941 -2.02079,0.87693 -3.05024,1.3726 -0.99133,0.49566 -1.98266,0.99133 -2.93586,1.63951 -0.91507,0.64818 -1.83015,1.41074 -2.4402,2.40207 -0.64817,0.99132 -0.91507,2.1733 -1.02945,3.27901 -0.2669,2.21142 -0.41941,4.42285 -0.61005,6.63428 0,0.19064 0.15251,0.38128 0.34315,0.4194 l 5.10916,0.49567 4.766,0.45752 v 1.02947 c 0,0.22877 0.19064,0.38128 0.38128,0.38128 2.78335,0 5.52856,0 8.31191,-0.0381 l 8.27379,-0.0763 16.39505,-0.22877 0.0762,-1.33449 5.0329,-0.38128 5.10915,-0.4194 c 0.15251,0 0.22877,-0.11439 0.22877,-0.22877 z m -5.37605,0.30503 -5.10916,0.61004 c -0.0381,0 -0.0763,0.0381 -0.0763,0.0763 l 0.0381,1.37261 -16.54756,-0.22877 -8.19752,-0.0762 c -2.59271,-0.0381 -5.18542,-0.0381 -7.77812,-0.0381 v -0.99133 c 0,-0.19065 -0.15251,-0.38128 -0.34315,-0.38128 l -5.10916,-0.57193 -4.766,-0.4194 c 0.15251,-2.05892 0.30502,-4.15596 0.49566,-6.21486 0.11438,-1.10571 0.34315,-2.13518 0.87695,-3.01212 0.57192,-0.87695 1.3726,-1.60138 2.24955,-2.24956 0.87694,-0.61005 1.83014,-1.14384 2.82147,-1.6395 0.99133,-0.49566 1.98266,-0.99133 2.97399,-1.44887 1.98266,-0.91506 4.00344,-1.75389 6.02423,-2.5927 l 0.0763,0.0381 0.15252,0.11438 0.26689,0.2669 c 0.19064,0.19064 0.38128,0.34315 0.57192,0.53379 0.38128,0.34315 0.80069,0.6863 1.18197,0.99133 0.83882,0.61005 1.67764,1.18197 2.59271,1.67763 1.83014,0.9532 3.88906,1.487 5.94797,1.487 2.05891,0 4.11783,-0.57193 5.9861,-1.487 1.79202,-0.91506 3.43152,-2.13516 4.88039,-3.50778 1.98265,0.80069 3.96531,1.67763 5.94797,2.55458 0.99133,0.45754 2.02079,0.91507 2.97398,1.41074 0.99133,0.49566 1.94454,0.99133 2.82148,1.60137 0.87695,0.61005 1.71576,1.33449 2.28768,2.21143 0.57192,0.87695 0.83882,1.9064 0.91507,3.01212 0.11439,1.10571 0.22877,2.21143 0.34316,3.27902 l 0.26689,3.08835 z m -38.31867,-2.78335 -0.11439,-0.41941 -0.15251,-0.38128 c -0.34315,-1.06759 -0.87694,-2.05891 -1.44886,-3.01211 -0.61005,-0.9532 -1.29636,-1.83015 -2.09705,-2.59271 -0.80068,-0.76256 -1.67763,-1.487 -2.66896,-1.94453 0.45754,0.30502 0.87695,0.64818 1.29636,0.99133 0.4194,0.34315 0.80068,0.72443 1.18196,1.14384 0.72444,0.80069 1.41074,1.67763 1.98266,2.5927 0.15251,0.22877 0.2669,0.45754 0.41941,0.68631 0.15251,0.22877 0.2669,0.45753 0.38128,0.72443 0.11438,0.22877 0.2669,0.49567 0.38128,0.72444 0.11438,0.26689 0.22877,0.49566 0.34315,0.76255 l 0.15252,0.38128 0.15251,0.38129 0.26689,0.76257 c 0.19064,0.53379 0.30503,1.06757 0.49567,1.56324 -0.11439,-0.5338 -0.19064,-1.10571 -0.34315,-1.6395 z m 35.42094,-3.77468 c -0.57193,0.9532 -1.10572,1.94453 -1.44887,3.01212 l -0.15251,0.38128 -0.11439,0.4194 -0.22877,0.80069 c -0.11438,0.5338 -0.22876,1.06759 -0.34315,1.63951 0.19064,-0.53379 0.30503,-1.06759 0.49567,-1.56325 l 0.2669,-0.76256 0.15251,-0.38128 0.15251,-0.38128 c 0.11438,-0.22877 0.22877,-0.49566 0.34315,-0.76256 0.11439,-0.22877 0.22877,-0.49567 0.38128,-0.72444 0.11439,-0.22876 0.22877,-0.49566 0.38128,-0.72443 0.15251,-0.22876 0.2669,-0.45753 0.41941,-0.6863 0.57192,-0.91507 1.25822,-1.79202 1.98266,-2.59271 0.34315,-0.41941 0.76256,-0.80069 1.18196,-1.14384 0.41942,-0.38128 0.83882,-0.72443 1.29636,-0.99133 -0.99133,0.49567 -1.86827,1.18197 -2.66896,1.94453 -0.80069,0.68631 -1.487,1.60138 -2.09704,2.51645 z"
         fill="#49a6c3"
         stroke-width="0.38128"
         opacity="1"
         stroke="none" />
      <g
         id="g1867"
         transform="matrix(0.38128029,0,0,0.38128029,107.41596,250.0982)">
        <g
           id="g1865">
          <path
             id="path1859"
             d="m 64,93.7 c 0,0 -2.3,-2.2 -5,-3.3 -2.7,-1.1 -5.7,0.7 -6.6,3.4 -0.9,2.7 1.2,14 4.7,18.1 3.5,4.1 5.8,4.4 8.1,2.3 2.3,-2 6.4,-9.9 -1.2,-20.5 z"
             fill="#b2713b"
             stroke-width="none"
             opacity="1"
             stroke="none" />
          <path
             id="path1861"
             d="m 65.2,95.3 c 0.4,0.6 0.7,1.2 1.1,1.8 0.4,0.6 0.7,1.3 1,1.9 0.3,0.7 0.6,1.3 0.8,2 0.2,0.7 0.5,1.4 0.6,2.2 0.1,0.4 0.1,0.8 0.2,1.1 l 0.1,1.2 c 0,1.6 -0.2,3.1 -0.6,4.6 -0.5,1.5 -1.1,2.8 -2.1,3.9 -0.2,0.3 -0.5,0.5 -0.7,0.8 -0.3,0.2 -0.5,0.4 -0.8,0.6 -0.6,0.4 -1.2,0.7 -1.9,0.7 -0.7,0.1 -1.4,0 -2,-0.3 -0.6,-0.3 -1.2,-0.7 -1.7,-1.1 -0.5,-0.4 -1,-0.9 -1.5,-1.5 -0.5,-0.5 -0.9,-1.1 -1.3,-1.7 -1.5,-2.5 -2.4,-5.3 -3.2,-8.1 -0.4,-1.4 -0.7,-2.8 -1,-4.3 -0.3,-1.5 -0.5,-2.9 -0.4,-4.5 0,-0.4 0.1,-0.8 0.2,-1.3 0.1,-0.2 0.1,-0.4 0.2,-0.6 l 0.3,-0.5 c 0.4,-0.7 0.9,-1.2 1.4,-1.7 1.1,-0.9 2.4,-1.3 3.7,-1.1 0.6,0.1 1.3,0.3 1.8,0.6 0.6,0.3 1.1,0.6 1.7,1 1.1,0.7 2.1,1.5 3.1,2.4 z M 60.8,91.5 C 60.2,91.2 59.7,91 59.1,90.8 58.5,90.6 58,90.5 57.4,90.5 c -1.1,0.1 -2.2,0.5 -3.1,1.3 -0.4,0.4 -0.8,0.8 -1.1,1.4 -0.1,0.3 -0.3,0.5 -0.4,0.8 -0.1,0.3 -0.2,0.5 -0.2,0.9 -0.2,1.3 -0.1,2.8 0.1,4.2 0.2,1.4 0.4,2.9 0.7,4.3 0.7,2.8 1.7,5.6 3.3,7.7 0.8,1 1.8,1.9 2.7,2.7 1,0.7 2.1,1.2 3.1,1 0.5,-0.1 1,-0.3 1.5,-0.6 0.5,-0.3 0.9,-0.7 1.3,-1.2 0.7,-1 1.4,-2.1 1.7,-3.4 0.4,-1.3 0.6,-2.6 0.7,-4 0,-1.4 -0.1,-2.8 -0.4,-4.2 -0.6,-2.8 -1.8,-5.4 -3.4,-7.6 -0.9,-1 -2,-1.7 -3.1,-2.3 z"
             fill="#a35e26"
             stroke-width="none"
             opacity="1"
             stroke="none" />
          <path
             id="path1863"
             d="m 55.9,93.3 c 3,0.5 5,5.7 5.6,9.2 0.1,0.1 0.1,0.2 0.2,0.3 0.3,0.5 -0.4,1.1 -0.7,0.6 -0.4,-0.7 -1,-1.5 -1.7,-1.8 -1.3,-0.5 -2,1 -1.7,2.5 0.4,1.7 1.5,2.8 2.5,4.1 0.1,0.1 0,0.3 -0.1,0.2 -1.6,-1 -4,-4.5 -2.9,-6.7 0.8,-1.6 2.1,-1.3 3.2,-0.4 -0.7,-2 -1.3,-4 -2.8,-5.5 -0.5,-0.5 -1.4,-1.3 -2.1,-1.2 -1.2,0.2 -1.2,2 -1.3,3.1 -0.1,1.5 0.1,3.1 0.3,4.7 0,0.2 -0.2,0.2 -0.2,0.1 -0.6,-2.4 -1.8,-9.8 1.7,-9.2 z"
             fill="#934d13"
             stroke-width="none"
             opacity="1"
             stroke="none" />
        </g>
      </g>
      <g
         id="g1877"
         transform="matrix(0.38128029,0,0,0.38128029,107.41596,250.0982)">
        <g
           id="g1875">
          <path
             id="path1869"
             d="m 136,93.7 c 0,0 2.3,-2.2 5,-3.3 2.7,-1.1 5.7,0.7 6.6,3.4 0.9,2.7 -1.2,14 -4.7,18.1 -3.5,4.1 -5.8,4.4 -8.1,2.3 -2.3,-2 -6.4,-9.9 1.2,-20.5 z"
             fill="#b2713b"
             stroke-width="none"
             opacity="1"
             stroke="none" />
          <path
             id="path1871"
             d="m 136,93.6 c 1,-0.9 2,-1.7 3.1,-2.4 0.5,-0.4 1.1,-0.7 1.7,-1 0.6,-0.3 1.2,-0.5 1.8,-0.6 1.3,-0.1 2.6,0.2 3.7,1.1 0.5,0.4 1,1 1.4,1.7 l 0.3,0.5 c 0.1,0.2 0.1,0.4 0.2,0.6 0.1,0.4 0.2,0.9 0.2,1.3 0.1,1.6 -0.2,3.1 -0.4,4.5 -0.3,1.5 -0.6,2.9 -1,4.3 -0.8,2.8 -1.7,5.6 -3.2,8.1 -0.4,0.6 -0.8,1.1 -1.3,1.7 -0.4,0.5 -0.9,1 -1.5,1.5 -0.5,0.4 -1.1,0.8 -1.7,1.1 -0.6,0.3 -1.3,0.4 -2,0.3 -0.7,-0.1 -1.3,-0.4 -1.9,-0.7 -0.3,-0.2 -0.6,-0.4 -0.8,-0.6 -0.3,-0.2 -0.5,-0.5 -0.7,-0.8 -0.9,-1.1 -1.6,-2.5 -2.1,-3.9 -0.4,-1.5 -0.7,-3 -0.6,-4.6 l 0.1,-1.2 c 0,-0.4 0.1,-0.8 0.2,-1.1 0.1,-0.8 0.4,-1.5 0.6,-2.2 0.3,-0.7 0.5,-1.4 0.8,-2 0.3,-0.6 0.6,-1.3 1,-1.9 0.4,-0.6 0.7,-1.2 1.1,-1.8 z m 0,0.1 c -1.6,2.2 -2.8,4.9 -3.4,7.6 -0.3,1.4 -0.4,2.8 -0.4,4.2 0,1.4 0.2,2.7 0.7,4 0.4,1.3 1,2.4 1.7,3.4 0.4,0.5 0.8,0.9 1.3,1.2 0.5,0.3 0.9,0.6 1.5,0.6 1,0.2 2.1,-0.3 3.1,-1 1,-0.8 1.9,-1.7 2.7,-2.7 1.6,-2.1 2.6,-4.9 3.3,-7.7 0.4,-1.4 0.6,-2.8 0.7,-4.3 0.2,-1.4 0.2,-2.9 0.1,-4.2 0,-0.3 -0.1,-0.6 -0.2,-0.9 -0.1,-0.3 -0.2,-0.6 -0.4,-0.8 -0.3,-0.5 -0.7,-1 -1.1,-1.4 -0.9,-0.7 -1.9,-1.2 -3.1,-1.3 -0.6,0 -1.1,0.1 -1.7,0.3 -0.6,0.2 -1.1,0.4 -1.7,0.7 -1,0.7 -2.1,1.4 -3.1,2.3 z"
             fill="#a35e26"
             stroke-width="none"
             opacity="1"
             stroke="none" />
          <path
             id="path1873"
             d="m 144.1,93.3 c -3,0.5 -5,5.7 -5.6,9.2 -0.1,0.1 -0.1,0.2 -0.2,0.3 -0.3,0.5 0.4,1.1 0.7,0.6 0.4,-0.7 1,-1.5 1.7,-1.8 1.3,-0.5 2,1 1.7,2.5 -0.4,1.7 -1.5,2.8 -2.5,4.1 -0.1,0.1 0,0.3 0.1,0.2 1.6,-1 4,-4.5 2.9,-6.7 -0.8,-1.6 -2.1,-1.3 -3.2,-0.4 0.7,-2 1.3,-4 2.8,-5.5 0.5,-0.5 1.4,-1.3 2.1,-1.2 1.2,0.2 1.2,2 1.3,3.1 0.1,1.5 -0.1,3.1 -0.3,4.7 0,0.2 0.2,0.2 0.2,0.1 0.6,-2.4 1.8,-9.8 -1.7,-9.2 z"
             fill="#934d13"
             stroke-width="none"
             opacity="1"
             stroke="none" />
        </g>
      </g>
      <g
         id="g1885"
         transform="matrix(0.38128029,0,0,0.38128029,107.41596,250.0982)">
        <g
           id="g1883">
          <path
             id="path1879"
             d="m 100.01,40.83 c -21.4,0 -39.8,15.6 -41,44.1 0,0 0.1,15.8 2.5,28.3 2.3,12.6 3.5,24.2 15.4,30.5 11.9,6.4 20,7.2 23.2,7.2 3.1,0 11.2,-0.9 23.2,-7.2 12,-6.3 13.1,-18 15.4,-30.5 2.3,-12.6 2.5,-28.3 2.5,-28.3 -1.4,-28.4 -19.8,-44.1 -41.2,-44.1 z"
             fill="#b2713b"
             stroke-width="none"
             opacity="1" />
          <path
             id="path1881"
             d="m 100,41.3 c -21.4,0 -39.8,15.6 -41,44.1 0,0 0.1,15.8 2.5,28.3 2.4,12.5 3.5,24.2 15.4,30.5 11.9,6.4 20,7.2 23.2,7.2 3.1,0 11.2,-0.9 23.2,-7.2 11.9,-6.4 13.1,-18 15.4,-30.5 2.3,-12.6 2.5,-28.3 2.5,-28.3 C 139.8,57 121.4,41.3 100,41.3 Z m 35.5,26.9 0.7,2.2 c 0.1,0.4 0.6,2.2 0.6,2.2 0.1,0.4 0.9,4.5 0.9,4.5 0.1,0.4 0.3,2.4 0.3,2.4 0,0.4 0.1,0.8 0.1,1.2 l 0.2,2.4 0.2,2.7 v 0.6 c -0.1,3.2 -0.3,6.4 -0.5,9.6 -0.2,3.2 -0.5,6.4 -0.9,9.6 -0.2,1.6 -0.4,3.2 -0.6,4.7 -0.1,0.8 -0.2,1.6 -0.4,2.3 -0.1,0.8 -0.3,1.6 -0.4,2.4 -0.5,3.2 -1,6.4 -1.7,9.4 -0.7,3.1 -1.6,6 -2.9,8.7 -1.3,2.7 -3.1,5 -5.4,6.9 -1.1,0.9 -6.21,4.62 -11.3,6.42 -1.5,0.6 -3.8,1.38 -5.3,1.78 -1.5,0.5 -3,0.9 -4.5,1.2 -1.5,0.3 -3.1,0.6 -4.6,0.6 -1.5,0 -3.1,-0.1 -4.6,-0.3 -1.6,-0.2 -3.1,-0.5 -4.7,-0.9 -3.1,-0.8 -6.1,-1.9 -9.1,-3.2 -0.7,-0.3 -1.5,-0.7 -2.2,-1 -0.7,-0.4 -1.4,-0.7 -2.2,-1.1 -1.4,-0.7 -2.7,-1.6 -4,-2.6 -2.5,-2 -4.4,-4.5 -5.8,-7.3 -1.4,-2.8 -2.3,-5.9 -2.9,-9 -0.6,-3.1 -1.1,-6.3 -1.5,-9.6 -0.2,-1.6 -0.5,-3.2 -0.6,-4.8 -0.2,-1.6 -0.3,-3.2 -0.5,-4.8 -0.2,-3.2 -0.4,-6.4 -0.5,-9.6 0,-0.8 -0.1,-1.6 -0.1,-2.4 L 61.2,91 c 0,-1.6 -0.1,-3.2 -0.1,-4.8 l 0.1,-2.2 0.1,-1.1 0.1,-1.2 c 0,0 0.2,-2 0.3,-2.4 0,0 0.3,-2 0.4,-2.4 1.1,-6.1 3,-12.2 6.2,-17.5 1.6,-2.7 3.5,-5.2 5.7,-7.4 2.2,-2.2 4.8,-4.2 7.5,-5.8 1.4,-0.8 2.8,-1.5 4.3,-2.1 1.5,-0.6 3,-1.1 4.6,-1.5 l 1.8,-0.4 0.6,-0.1 1.2,-0.2 c 3.5,-0.51 9.2,-0.4 10.8,-0.2 0.4,0.1 0.8,0.1 1.2,0.2 l 1.2,0.2 0.6,0.1 1.8,0.4 c 1.5,0.4 3.1,0.9 4.6,1.5 1.5,0.6 2.9,1.3 4.3,2.1 2.8,1.6 5.3,3.6 7.5,5.8 2.2,2.2 4.1,4.8 5.7,7.4 1.6,2.9 2.8,5.8 3.8,8.8 z"
             fill="#843e04"
             stroke-width="none"
             opacity="1" />
        </g>
      </g>
      <g
         id="g1901"
         transform="matrix(0.38128029,0,0,0.38128029,107.41596,250.0982)">
        <g
           id="g1899">
          <path
             id="path1887"
             d="m 87.37,125.93 c 0,0 1.12,4.65 4.76,7.15 3.64,2.5 9.31,2.85 13.38,1.21 4.07,-1.64 6.77,-5.97 7.12,-7.11 0,0 -20.18,-0.45 -20.32,-0.49 -0.14,-0.04 -4.94,-0.76 -4.94,-0.76 z"
             fill="#d4422b"
             stroke-width="none"
             opacity="1"
             transform="translate(0,3)"
             stroke="none" />
          <path
             id="path1889"
             d="m 86.29,125.34 c 0,0 2.21,2.8 6.33,3.78 2.69,0.64 5.63,-0.21 6.96,-0.36 1.33,-0.15 1.97,0.36 4.15,0.64 2.18,0.28 6.33,0.14 10.06,-2.78 0,0 -2.04,0.5 -3.38,-0.43 -1.34,-0.93 -2.88,-3.21 -7.66,-3.92 -4.78,-0.71 -8.23,-0.14 -11.25,1.36 -3.03,1.5 -3.73,1.92 -5.21,1.71 z"
             fill="#cc371f"
             stroke-width="none"
             opacity="1"
             transform="translate(0,3)"
             stroke="none" />
          <path
             id="path1891"
             d="m 86.08,125.64 c 1.36,1.69 3.21,2.75 5.27,3.39 2.54,0.78 4.71,0.27 7.28,0.04 2.94,-0.27 5.68,1.1 8.66,0.68 2.34,-0.33 4.57,-1.41 6.54,-2.68 0.56,-0.37 -0.01,-1.28 -0.52,-0.89 -2.09,1.6 -4.46,2.74 -7.15,2.68 -2.3,-0.06 -4.4,-1.1 -6.74,-0.84 -2.02,0.22 -3.9,0.97 -5.96,0.78 -2.8,-0.26 -4.91,-1.76 -6.77,-3.75 -0.39,-0.42 -0.95,0.17 -0.61,0.59 z"
             fill="#c52c14"
             stroke-width="none"
             opacity="1"
             transform="translate(0,3)"
             stroke="none" />
          <path
             id="path1893"
             d="m 89.91,126.96 c 2.22,2.07 5.07,1.03 7.71,0.53 3.67,-0.69 7.27,1.65 10.87,0.51 0.21,-0.07 0.19,-0.42 -0.05,-0.4 -3.01,0.24 -5.45,-1.84 -8.45,-1.66 -3.45,0.22 -6.63,3.22 -10.02,0.94 -0.05,-0.03 -0.1,0.04 -0.06,0.08 z"
             fill="#dc4e38"
             stroke-width="none"
             opacity="1"
             transform="translate(0,3)"
             stroke="none" />
          <path
             id="path1895"
             d="m 108.59,130.42 c -0.95,0.98 -1.89,1.9 -3.13,2.5 -1.38,0.67 -2.74,0.71 -4.23,0.85 -0.35,0.03 -0.46,0.54 -0.09,0.64 2.84,0.76 6.56,-1.1 7.87,-3.67 0.13,-0.26 -0.2,-0.55 -0.42,-0.32 z"
             fill="#dc4e38"
             stroke-width="none"
             opacity="1"
             transform="translate(0,3)"
             stroke="none" />
          <path
             id="path1897"
             d="m 87.47,125.61 c 2.67,0.29 4.92,-2.02 7.47,-2.57 3.41,-0.73 6.76,-0.31 10.12,0.42 0.28,0.06 0.37,-0.31 0.12,-0.42 -2.62,-1.11 -5.96,-1.09 -8.73,-0.75 -1.23,0.15 -2.47,0.4 -3.62,0.87 -1.88,0.77 -3.26,2 -5.36,2.25 -0.12,0.02 -0.12,0.19 0,0.2 z"
             fill="#e35a45"
             stroke-width="none"
             opacity="1"
             transform="translate(0,3)"
             stroke="none" />
        </g>
      </g>
      <g
         id="g1931"
         transform="matrix(0.38128029,0,0,0.38128029,107.41596,250.0982)">
        <g
           id="g1929">
          <g
             id="g1905">
            <path
               id="path1903"
               d="m 92.3,99.5 c 0,0 -1.4,-2.7 -3.1,-3.9 -1.7,-1.3 -4.6,-3.1 -9.3,-2.1 -4.7,0.9 -8,4.7 -8,4.7 0,0 5.9,2.2 11.3,2.2 5.3,-0.1 9.1,-0.9 9.1,-0.9 z"
               fill="#ffffff"
               stroke-width="none"
               opacity="1" />
          </g>
          <g
             id="g1917">
            <g
               id="g1915">
              <g
                 id="g1913">
                <path
                   id="path1907"
                   d="m 82,91.5 c 2.7,0 4.9,2.2 4.9,4.9 0,2.7 -2.2,4.9 -4.9,4.9 -2.7,0 -4.9,-2.2 -4.9,-4.9 0,-2.7 2.2,-4.9 4.9,-4.9 z"
                   fill="#681711"
                   stroke-width="none"
                   opacity="1" />
                <path
                   id="path1909"
                   d="m 82,93.8 c 1.4,0 2.6,1.2 2.6,2.6 0,1.4 -1.2,2.6 -2.6,2.6 -1.4,0 -2.6,-1.2 -2.6,-2.6 0,-1.4 1.2,-2.6 2.6,-2.6 z"
                   fill="#000000"
                   stroke-width="none"
                   opacity="1" />
                <path
                   id="path1911"
                   d="m 81.3,94.3 -0.5,-0.5 c -0.2,-0.2 -0.4,-0.3 -0.7,-0.3 -0.3,0 -0.5,0.1 -0.7,0.3 -0.2,0.2 -0.3,0.4 -0.3,0.7 0,0.3 0.1,0.5 0.3,0.7 l 0.5,0.5 c 0.2,0.2 0.4,0.3 0.7,0.3 0.2,0 0.5,-0.1 0.7,-0.3 0.4,-0.5 0.4,-1 0,-1.4 z m 2.5,4.4 c 0.8,0 0.8,-1.3 0,-1.3 -0.8,0 -0.9,1.3 0,1.3 z"
                   fill="#ffffff"
                   stroke-width="none"
                   opacity="1" />
              </g>
            </g>
          </g>
          <g
             id="g1927">
            <path
               id="path1919"
               d="m 70.73,98.03 c 0,6.9 4.93,12.5 11.02,12.5 6.09,0 11.02,-5.6 11.02,-12.5 0,-6.9 -4.93,-12.5 -11.02,-12.5 -6.09,0 -11.02,5.59 -11.02,12.5 z m 1.2,0.17 c 0,0 3.31,-3.76 8,-4.69 4.69,-0.93 7.55,0.87 9.25,2.12 1.7,1.25 3.12,3.92 3.12,3.92 0,0 -3.76,0.77 -9.09,0.84 -5.34,0.06 -11.28,-2.19 -11.28,-2.19 z"
               fill="#b2713b"
               stroke-width="none"
               opacity="1"
               stroke="none" />
            <path
               id="path1921"
               d="m 91.56,97.86 c 0,0 -2.08,-4.66 -7.97,-5.44 -5.89,-0.79 -14.54,3.87 -15.21,5.61 -0.67,1.74 14.43,3.48 18.3,2.53 0,0 -11.56,-0.39 -14.54,-2.3 0,0 2.3,-4.27 8.93,-4.83 6.61,-0.57 10.04,3.7 10.49,4.43 z"
               fill="#b2713b"
               stroke-width="none"
               opacity="1"
               stroke="none" />
            <path
               id="path1923"
               d="m 92.49,100.56 c -2.99,2.4 -6.96,3.48 -10.76,3.36 -0.17,-0.01 -0.17,-0.25 0,-0.26 3.97,-0.16 7.22,-1.31 10.68,-3.21 0.07,-0.04 0.15,0.05 0.08,0.11 z"
               fill="#a35e26"
               stroke-width="none"
               opacity="1"
               stroke="none" />
            <path
               id="path1925"
               d="m 71.75,98.72 c 6.44,2.32 13.78,2.6 20.43,0.97 0.13,0.06 0.34,-0.05 0.27,-0.21 -3.52,-8.75 -15.59,-8.02 -20.9,-1.51 -0.22,0.27 -0.14,0.63 0.2,0.75 z m 0.88,-0.65 c 5.34,-6.21 15.21,-6.15 19.35,1.37 -6.45,1.12 -13.13,0.73 -19.35,-1.37 z"
               fill="#1b2a40"
               stroke-width="none"
               opacity="1"
               stroke="none" />
          </g>
        </g>
      </g>
      <g
         id="g1961"
         transform="matrix(0.38128029,0,0,0.38128029,107.41596,250.0982)">
        <g
           id="g1959">
          <g
             id="g1935">
            <path
               id="path1933"
               d="m 107.7,99.5 c 0,0 1.4,-2.7 3.1,-3.9 1.7,-1.3 4.6,-3.1 9.3,-2.1 4.7,0.9 8,4.7 8,4.7 0,0 -5.9,2.2 -11.3,2.2 -5.3,-0.1 -9.1,-0.9 -9.1,-0.9 z"
               fill="#ffffff"
               stroke-width="none"
               opacity="1" />
          </g>
          <g
             id="g1947">
            <g
               id="g1945">
              <g
                 id="g1943">
                <path
                   id="path1937"
                   d="m 118,91.5 c 2.7,0 4.9,2.2 4.9,4.9 0,2.7 -2.2,4.9 -4.9,4.9 -2.7,0 -4.9,-2.2 -4.9,-4.9 0,-2.7 2.2,-4.9 4.9,-4.9 z"
                   fill="#681711"
                   stroke-width="none"
                   opacity="1" />
                <path
                   id="path1939"
                   d="m 118,93.8 c 1.4,0 2.6,1.2 2.6,2.6 0,1.4 -1.2,2.6 -2.6,2.6 -1.4,0 -2.6,-1.2 -2.6,-2.6 0,-1.4 1.2,-2.6 2.6,-2.6 z"
                   fill="#000000"
                   stroke-width="none"
                   opacity="1" />
                <path
                   id="path1941"
                   d="m 117.4,94.3 -0.5,-0.5 c -0.2,-0.2 -0.4,-0.3 -0.7,-0.3 -0.3,0 -0.5,0.1 -0.7,0.3 -0.2,0.2 -0.3,0.4 -0.3,0.7 0,0.3 0.1,0.5 0.3,0.7 l 0.5,0.5 c 0.2,0.2 0.4,0.3 0.7,0.3 0.2,0 0.5,-0.1 0.7,-0.3 0.3,-0.5 0.4,-1 0,-1.4 z m 2.4,4.4 c 0.8,0 0.8,-1.3 0,-1.3 -0.8,0 -0.8,1.3 0,1.3 z"
                   fill="#ffffff"
                   stroke-width="none"
                   opacity="1" />
              </g>
            </g>
          </g>
          <g
             id="g1957">
            <path
               id="path1949"
               d="m 118.26,85.53 c -6.08,0 -11.02,5.6 -11.02,12.5 0,6.9 4.93,12.5 11.02,12.5 6.09,0 11.02,-5.6 11.02,-12.5 0,-6.9 -4.94,-12.5 -11.02,-12.5 z m -1.47,14.85 c -5.33,-0.06 -9.09,-0.84 -9.09,-0.84 0,0 1.41,-2.67 3.12,-3.92 1.7,-1.25 4.56,-3.05 9.25,-2.12 4.69,0.93 8,4.69 8,4.69 0,0 -5.94,2.26 -11.28,2.19 z"
               fill="#b2713b"
               stroke-width="none"
               opacity="1"
               stroke="none" />
            <path
               id="path1951"
               d="m 108.44,97.86 c 0,0 2.08,-4.66 7.97,-5.44 5.89,-0.79 14.54,3.87 15.21,5.61 0.67,1.74 -14.43,3.48 -18.3,2.53 0,0 11.56,-0.39 14.54,-2.3 0,0 -2.3,-4.27 -8.93,-4.83 -6.61,-0.57 -10.04,3.7 -10.49,4.43 z"
               fill="#aa6730"
               stroke-width="none"
               opacity="1"
               stroke="none" />
            <path
               id="path1953"
               d="m 107.51,100.56 c 2.99,2.4 6.96,3.48 10.76,3.36 0.17,-0.01 0.17,-0.25 0,-0.26 -3.97,-0.16 -7.22,-1.31 -10.68,-3.21 -0.07,-0.04 -0.15,0.05 -0.08,0.11 z"
               fill="#a35e26"
               stroke-width="none"
               opacity="1"
               stroke="none" />
            <path
               id="path1955"
               d="m 128.45,97.96 c -5.31,-6.51 -17.38,-7.23 -20.9,1.51 -0.07,0.17 0.14,0.28 0.27,0.21 6.65,1.63 13.98,1.35 20.43,-0.97 0.34,-0.11 0.42,-0.47 0.2,-0.75 z m -20.43,1.47 c 4.14,-7.52 14.01,-7.58 19.35,-1.37 -6.22,2.11 -12.9,2.5 -19.35,1.37 z"
               fill="#1b2a40"
               stroke-width="none"
               opacity="1"
               stroke="none" />
          </g>
        </g>
      </g>
      <g
         id="g1973"
         transform="matrix(0.38128029,0,0,0.38128029,107.41596,250.0982)">
        <g
           id="g1971">
          <g
             id="g1969">
            <path
               id="path1963"
               d="m 72.9,84.2 c 0.1,-0.2 0.4,-0.3 0.6,-0.4 0.2,-0.1 0.4,-0.2 0.6,-0.2 0.4,-0.2 0.8,-0.4 1.2,-0.5 0.5,-0.1 1.2,-0.5 1.7,-0.2 1.6,-0.6 3.7,-0.2 5.1,0.6 1.9,0.2 3.9,0.8 5.3,1.8 0.1,0.1 0.2,0.2 0.2,0.3 0.3,0.1 0.5,0.2 0.8,0.3 1,0.4 2.1,0.7 3.1,1.2 0.1,0 0.2,0.1 0.3,0.1 0.3,0.1 0.4,0.7 0.2,0.8 -0.1,0.1 -0.1,0.2 -0.2,0.3 -0.8,0.6 -1.8,0.2 -2.6,-0.1 -0.7,-0.3 -1.5,-0.6 -2,-1.2 -0.8,-0.3 -1.4,-0.7 -2.1,-1.1 -0.1,0 -0.2,-0.1 -0.3,-0.1 -1.2,-0.2 -2.5,-0.7 -3.7,-1.3 -0.7,-0.1 -1.3,-0.3 -2,-0.3 -0.9,-0.1 -1.8,0.2 -2.8,-0.1 h -0.1 c -0.2,0.1 -0.4,0.1 -0.6,0.2 -0.8,0.2 -1.5,0.4 -2.3,0.4 -0.1,0 -0.2,-0.1 -0.2,-0.2 H 73 c 0,0 -0.2,-0.1 -0.1,-0.3 z"
               fill="#543c32"
               stroke-width="none"
               opacity="1" />
            <path
               id="path1965"
               d="m 77.4,82.3 c 3.1,-0.2 6.2,1.5 9,2.6 1.7,0.7 5.2,0.9 5.9,3 0.1,0.3 -0.3,0.4 -0.5,0.2 -0.9,-1.2 -2.4,-1.4 -3.8,-1.8 -1.2,-0.4 -2.3,-0.8 -3.5,-1.3 -2.4,-1 -4.8,-1.6 -7.3,-2.2 -0.1,-0.1 0,-0.4 0.2,-0.5 z"
               fill="#634e45"
               stroke-width="none"
               opacity="1" />
            <path
               id="path1967"
               d="m 93.3,87.9 c 0.3,-1.4 -1.8,-1.9 -2.8,-2.3 -2.4,-1 -4.9,-2.1 -7.4,-2.8 -1.5,-0.4 -3.1,-0.7 -4.6,-0.7 -1.2,0 -2.3,0.1 -3.5,0.5 -2,0.6 -3.9,1.8 -5.6,3.1 -0.9,0.5 -1.8,1.2 -2.5,1.9 -0.1,0.1 0,0.3 0.2,0.2 0,0 0.1,0 0.1,-0.1 0,0.1 0.1,0.1 0.2,0.1 1.5,-0.7 2.8,-1.6 4.3,-2.2 1.5,-0.6 3.1,-1 4.7,-1.1 h 0.7 c 1.9,0 3.7,0.4 5.4,1.2 2.4,1.1 4.6,2.6 7,3.5 0.4,0.2 0.9,0.2 1.4,0.2 1.1,0 2.2,-0.4 2.4,-1.5 z M 78.5,83 c 1.6,0 3.2,0.4 4.8,0.9 2,0.7 4,1.6 6,2.4 0.4,0.2 2.4,0.7 2.6,1.2 0.2,0.6 -0.2,0.8 -0.8,0.9 -0.3,0 -0.6,-0.1 -0.8,-0.1 -0.6,-0.2 -1.2,-0.6 -1.7,-0.9 -3.1,-1.6 -6.3,-3.5 -9.8,-3.7 h -1 c -1.1,0 -2.3,0.1 -3.5,0.3 0.5,-0.2 1,-0.4 1.6,-0.6 0.8,-0.3 1.7,-0.4 2.6,-0.4 z"
               fill="#452c22"
               stroke-width="none"
               opacity="1" />
          </g>
        </g>
      </g>
      <g
         id="g1985"
         transform="matrix(0.38128029,0,0,0.38128029,107.41596,250.0982)">
        <g
           id="g1983">
          <g
             id="g1981">
            <path
               id="path1975"
               d="m 127.1,84.2 c -0.1,-0.2 -0.4,-0.3 -0.6,-0.4 -0.2,-0.1 -0.4,-0.2 -0.6,-0.2 -0.4,-0.2 -0.8,-0.4 -1.2,-0.5 -0.5,-0.1 -1.2,-0.5 -1.7,-0.2 -1.6,-0.6 -3.7,-0.2 -5.1,0.6 -1.9,0.2 -3.9,0.8 -5.3,1.8 -0.1,0.1 -0.2,0.2 -0.2,0.3 -0.3,0.1 -0.5,0.2 -0.8,0.3 -1,0.4 -2.1,0.7 -3.1,1.2 -0.1,0 -0.2,0.1 -0.3,0.1 -0.3,0.1 -0.4,0.7 -0.2,0.8 0.1,0.1 0.1,0.2 0.2,0.3 0.8,0.6 1.8,0.2 2.6,-0.1 0.7,-0.3 1.5,-0.6 2,-1.2 0.8,-0.3 1.4,-0.7 2.1,-1.1 0.1,0 0.2,-0.1 0.3,-0.1 1.2,-0.2 2.5,-0.7 3.7,-1.3 0.7,-0.1 1.3,-0.3 2,-0.3 0.9,-0.1 1.8,0.2 2.8,-0.1 h 0.1 c 0.2,0.1 0.4,0.1 0.6,0.2 0.8,0.2 1.5,0.4 2.3,0.4 0.1,0 0.2,-0.1 0.2,-0.2 h 0.1 c 0,0 0.2,-0.1 0.1,-0.3 z"
               fill="#543c32"
               stroke-width="none"
               opacity="1" />
            <path
               id="path1977"
               d="m 122.6,82.3 c -3.1,-0.2 -6.2,1.5 -9,2.6 -1.7,0.7 -5.2,0.9 -5.9,3 -0.1,0.3 0.3,0.4 0.5,0.2 0.9,-1.2 2.4,-1.4 3.8,-1.8 1.2,-0.4 2.3,-0.8 3.5,-1.3 2.4,-1 4.8,-1.6 7.3,-2.2 0.1,-0.1 0,-0.4 -0.2,-0.5 z"
               fill="#634e45"
               stroke-width="none"
               opacity="1" />
            <path
               id="path1979"
               d="m 109,89.3 c 0.5,0 1,-0.1 1.4,-0.2 2.4,-0.9 4.7,-2.4 7,-3.5 1.8,-0.8 3.6,-1.2 5.4,-1.2 h 0.7 c 1.6,0.1 3.2,0.5 4.6,1.1 1.5,0.6 2.9,1.6 4.3,2.2 0.1,0 0.2,0 0.2,-0.1 0,0 0.1,0 0.1,0.1 0.2,0.1 0.3,-0.1 0.2,-0.2 -0.7,-0.7 -1.6,-1.4 -2.5,-1.9 -1.7,-1.3 -3.6,-2.4 -5.6,-3.1 -1.1,-0.4 -2.3,-0.5 -3.5,-0.5 -1.6,0 -3.1,0.3 -4.6,0.7 -2.5,0.7 -5,1.8 -7.4,2.8 -0.9,0.4 -3.1,0.9 -2.8,2.3 0.4,1.2 1.5,1.6 2.5,1.5 z m 15.2,-5.9 c 0.5,0.2 1.1,0.3 1.6,0.6 -1.2,-0.2 -2.3,-0.3 -3.5,-0.3 h -1 c -3.5,0.2 -6.8,2.2 -9.8,3.7 -0.6,0.3 -1.1,0.7 -1.7,0.9 -0.2,0.1 -0.5,0.1 -0.8,0.1 -0.5,0 -1,-0.2 -0.8,-0.9 0.2,-0.5 2.2,-1 2.6,-1.2 2,-0.8 4,-1.7 6,-2.4 1.6,-0.5 3.2,-0.9 4.8,-0.9 0.8,0 1.7,0.1 2.6,0.4 z"
               fill="#452c22"
               stroke-width="none"
               opacity="1" />
          </g>
        </g>
      </g>
      <g
         id="g1997"
         transform="matrix(0.38128029,0,0,0.38128029,107.41596,250.0982)">
        <g
           id="g1995">
          <path
             id="path1987"
             d="m 106.48,114.01 c -2.23,0.09 -3.27,2.84 -5.54,3.17 -3.19,0.45 -5.28,-2.02 -7.58,-3.74 -0.08,-0.06 -0.21,0.06 -0.14,0.14 0.3,0.4 0.64,0.79 1,1.17 -0.5,-0.34 -0.87,-0.33 -1.47,-0.37 -0.73,-0.05 -1.25,-0.35 -1.36,-1.18 -0.04,-0.3 0.55,-1.35 0.73,-1.68 0.82,-1.61 2,-2.88 3.07,-4.3 0.08,-0.1 -0.08,-0.26 -0.18,-0.18 -0.16,0.12 -0.32,0.26 -0.48,0.4 0.74,-1.5 1.44,-3.03 2,-4.58 0.04,-0.12 -0.15,-0.2 -0.21,-0.09 -0.92,1.67 -1.68,3.48 -2.4,5.26 -1.31,1.35 -2.44,3.19 -2.97,4.83 -0.73,2.27 1.71,1.96 3.16,2.24 0.18,0.03 0.26,-0.15 0.16,-0.27 1.5,1.58 3.45,2.87 5.61,3.05 2.98,0.24 4.36,-2.2 6.69,-3.54 0.12,-0.11 0.07,-0.34 -0.09,-0.33 z"
             fill="#843e04"
             stroke-width="none"
             opacity="1"
             transform="translate(0,2)"
             stroke="none" />
          <path
             id="path1989"
             d="m 108.82,112.74 c -0.19,-0.99 -1.07,-1.94 -1.67,-2.71 -0.72,-0.93 -1.48,-1.82 -2.41,-2.54 -0.18,-0.14 -0.34,0.14 -0.22,0.29 0.89,1.13 1.9,2.14 2.75,3.3 0.57,0.78 1.55,1.89 0.7,2.98 -0.5,0.64 -1.65,0.74 -2.39,0.93 -0.09,0.02 -0.07,0.15 0.02,0.16 1.44,0.11 3.58,-0.54 3.22,-2.41 z"
             fill="#843e04"
             stroke-width="none"
             opacity="1"
             transform="translate(0,2)"
             stroke="none" />
          <path
             id="path1991"
             d="m 97.07,106.9 c 2.12,-0.61 4.06,-0.55 6.22,-0.38 0.16,0.01 0.17,-0.21 0.04,-0.26 -2.04,-0.74 -4.39,-0.4 -6.34,0.44 -0.13,0.05 -0.04,0.23 0.08,0.2 z"
             fill="#843e04"
             stroke-width="none"
             opacity="1"
             transform="translate(0,2)"
             stroke="none" />
          <path
             id="path1993"
             d="m 103.63,108.35 c -1.09,-1.49 -3.61,-0.05 -2.51,1.47 1.39,1.92 -0.3,3.43 -2.28,3.58 -0.57,0.04 -0.83,0.66 -0.45,1.1 1.34,1.56 3.69,1.13 5.01,-0.29 1.5,-1.61 1.5,-4.12 0.23,-5.86 z"
             fill="#ba7b47"
             stroke-width="none"
             opacity="1"
             transform="translate(0,2)"
             stroke="none" />
        </g>
      </g>
      <g
         id="g2005"
         transform="matrix(0.38128029,0,0,0.38128029,107.41596,250.0982)">
        <path
           id="path1999"
           d="m 96.3,39.2 c 0,0 -1.9,-1.7 -6.2,-2.7 -4.3,-1 -14.5,-0.3 -25.3,9.8 -10.8,10.1 -16.2,22.4 -19.3,32 -3.1,9.6 -4.3,32 -4.1,33.7 0.2,1.7 6,9.1 9.6,11.3 0,0 -0.5,-10.8 0.2,-14.8 0,0 1.2,12.6 1.9,16 0,0 8.4,4.4 14.9,5.4 0,0 -3.1,-17.9 -3.8,-33.9 -0.7,-16 1.4,-31.4 5.1,-38.8 0,0 -2.5,14.6 -3.2,22.5 0,0 25.2,4.3 49.4,2.4 0,0 1.4,-9.1 1.4,-13.1 0,0 0.7,7.9 0.7,12.6 0,0 9.1,1 17.3,-0.7 0,0 3.8,30.3 -5.5,48.8 0,0 9.6,-1.5 13.7,-3.7 0,0 1.4,-4.7 1.9,-7.1 0,0 0.2,3.4 -0.5,6.2 0,0 4.8,-2.7 8.1,-5.4 0,0 -0.1,-10.9 -0.5,-15.9 0,0 2.4,7.5 2.2,14.4 0,0 1.9,-2.5 3.6,-4.4 0,0 -1.8,-20.4 -8.5,-40.9 -6.7,-20.5 -21.7,-31.3 -30.6,-34.5 -8.9,-3.2 -18.9,-2.7 -22.5,0.8 z"
           fill="#eee4e0"
           stroke-width="none"
           opacity="1"
           stroke="none" />
        <path
           id="path2001"
           d="m 91.2,39.9 c -18.8,0.6 -23.4,23.5 -23.6,38.3 0,0.4 0.6,0.5 0.7,0.1 2.1,-15.3 4.3,-34.8 23,-37.8 0.4,0 0.3,-0.6 -0.1,-0.6 z M 89,41.1 c -12.8,6 -16.7,20.6 -16.1,33.7 0,0.3 0.4,0.3 0.4,0 C 73.5,61.6 76.6,48.1 89.1,41.4 89.4,41.3 89.2,41 89,41.1 Z m 5.4,0.1 c -5.6,8.9 -7.9,20.7 -4.9,30.9 0.1,0.3 0.7,0.3 0.6,-0.1 C 88.9,61.1 90,51.4 94.9,41.5 95.1,41.1 94.6,40.8 94.4,41.2 Z m -1,-1.8 C 78,35.9 65.6,50.2 61.6,63.5 c -2.8,9 -3,18.6 -2.9,28 0.1,10.2 0.2,20.6 2.4,30.6 0.1,0.3 0.6,0.2 0.5,-0.1 -2.4,-16.8 -4,-35.5 -0.8,-52.3 3,-15.9 14.4,-31.9 32.4,-29.7 0.4,0 0.5,-0.5 0.2,-0.6 z m 6,2.6 c -0.1,-0.2 -0.3,0 -0.3,0.2 2.8,5.6 5,11.5 6.2,17.6 1.2,6.3 0.8,12.3 0.7,18.6 0,0.3 0.5,0.4 0.5,0.1 2.8,-12.1 -0.9,-26.1 -7.1,-36.5 z m 3.4,-3.2 c -0.3,0 -0.4,0.4 -0.1,0.4 18.5,4 21,24.6 22.9,39.9 0,0.3 0.5,0.3 0.5,0 0.2,-14.8 -5.7,-37.9 -23.3,-40.3 z M 140,74.5 c -3.2,-16 -15.4,-29.2 -30,-35.8 -0.2,-0.1 -0.3,0.2 -0.2,0.3 13.9,8.5 26.1,19.9 29,36.7 2.7,15.5 2,32.7 -4,47.3 -0.1,0.4 0.4,0.6 0.6,0.3 4.1,-6.8 5.5,-14.7 5.9,-22.6 0.6,-8.6 0.4,-17.8 -1.3,-26.2 z M 80.5,38.7 C 67.7,43 59.2,55.3 54.5,67.4 48.7,82.4 44.8,101 47,117 c 0,0.3 0.5,0.2 0.5,-0.1 -0.9,-27.7 5.2,-64.9 33.1,-78 0.1,-0.1 0.1,-0.3 -0.1,-0.2 z"
           fill="#dfc5bb"
           stroke-width="none"
           opacity="1"
           stroke="none" />
        <path
           id="path2003"
           d="m 109.9,51.7 c -2.1,-5.3 -5.1,-10.4 -10.8,-12.1 -0.2,0 -0.3,0.2 -0.1,0.3 13.1,5.6 14.4,25.9 14.2,38 0,0.3 0.4,0.3 0.4,0 0.9,-8.9 -0.4,-18 -3.7,-26.2 z m 22.6,16.6 c -0.1,-0.2 -0.4,-0.1 -0.4,0.2 1,3.9 1.9,7.6 2.6,11.5 0.1,0.3 0.6,0.2 0.6,-0.1 -0.1,-3.9 -1,-8.1 -2.8,-11.6 z M 99,44.8 c -0.1,-0.2 -0.3,-0.1 -0.3,0.1 2.2,9.6 2.8,18.8 3,28.6 0,0.3 0.4,0.3 0.5,0 1,-9.5 -0.5,-19.6 -3.2,-28.7 z M 98.8,51 c 0,-0.2 -0.3,-0.1 -0.3,0 0.8,7.2 1.1,14.3 1.3,21.6 0,0.3 0.5,0.3 0.5,0 0.5,-7.2 -0.2,-14.5 -1.5,-21.6 z m -2.7,-2.9 c 0,-0.2 -0.3,-0.2 -0.3,0 0.8,10.2 0.7,20.5 1,30.7 0,0.3 0.4,0.3 0.5,0 C 97.8,68.5 97,58.3 96.1,48.1 Z m -1.9,6.8 c -0.4,6.3 -0.6,12.6 -0.4,18.9 0,0.3 0.4,0.3 0.5,0 0.3,-6.3 0.3,-12.6 0.3,-18.9 0,-0.3 -0.4,-0.3 -0.4,0 z m -4.8,-9.4 c -5.3,8.7 -6.4,19.2 -6.6,29.1 0,0.4 0.7,0.4 0.7,0 0.9,-10.1 1.3,-19.8 6.4,-28.9 0.1,-0.2 -0.3,-0.5 -0.5,-0.2 z M 84,50.3 c -3.1,6.2 -4.8,13 -4.1,20 0,0.3 0.4,0.3 0.4,0 0.2,-6.9 1.2,-13.3 4.1,-19.7 0.3,-0.4 -0.2,-0.7 -0.4,-0.3 z m -2.1,-0.5 c -3.2,5.7 -5.5,11.8 -6.2,18.3 0,0.3 0.5,0.4 0.5,0.1 1.2,-6.4 2.9,-12.4 6,-18.2 0.2,-0.2 -0.2,-0.5 -0.3,-0.2 z m 26.4,-6.6 c -0.1,-0.1 -0.3,0 -0.2,0.1 4.7,7.3 7.1,15.4 7.7,24 0,0.2 0.3,0.2 0.3,0 -0.1,-8.9 -2.9,-16.9 -7.8,-24.1 z m 15,10.5 c -0.1,-0.1 -0.3,0 -0.2,0.2 4.4,5.7 5.2,12.6 6.4,19.5 0,0.2 0.4,0.2 0.4,-0.1 -0.7,-7 -2,-14.1 -6.6,-19.6 z m -1,-4 c -0.1,-0.1 -0.3,0.1 -0.2,0.2 5.1,5.5 8.3,11.6 10.7,18.6 0.1,0.3 0.5,0.2 0.4,-0.1 -1.7,-7.2 -5.8,-13.5 -10.9,-18.7 z m -0.9,-8.1 c -0.2,-0.1 -0.4,0.2 -0.2,0.4 19.9,13.3 24.9,35.8 27.1,58.2 0,0.3 0.4,0.3 0.4,0 -0.4,-22 -7.5,-46.7 -27.3,-58.6 z m 25.7,29.8 c -0.1,-0.2 -0.3,-0.1 -0.3,0.1 2,8.2 3.1,16.4 3.7,24.8 0,0.3 0.4,0.3 0.4,0 0,-8.5 -1.4,-16.9 -3.8,-24.9 z m 1.2,31.9 c 0,-0.2 -0.3,-0.2 -0.3,0 -0.3,6.2 -0.7,12.4 -1.3,18.6 0,0.2 0.2,0.2 0.3,0 1,-6.1 1.5,-12.4 1.3,-18.6 z M 57.5,70.8 c 0,-0.2 -0.3,-0.3 -0.3,-0.1 -3,13.1 -3.8,26.9 -2.2,40.2 0,0.2 0.4,0.2 0.4,0 -0.7,-13.5 -0.1,-26.7 2.1,-40.1 z"
           fill="#fdfdfd"
           stroke-width="none"
           opacity="1"
           stroke="none" />
      </g>
    </g>
  </g>
</svg>
