<?xml version="1.0" encoding="UTF-8" standalone="no"?>
<svg
   width="130.39795"
   height="170.00006"
   viewBox="0 0 34.501123 44.979186"
   version="1.1"
   id="svg8"
   xmlns="http://www.w3.org/2000/svg"
   xmlns:svg="http://www.w3.org/2000/svg"
   xmlns:rdf="http://www.w3.org/1999/02/22-rdf-syntax-ns#"
   xmlns:cc="http://creativecommons.org/ns#"
   xmlns:dc="http://purl.org/dc/elements/1.1/">
  <defs
     id="defs2" />
  <metadata
     id="metadata5">
    <rdf:RDF>
      <cc:Work
         rdf:about="">
        <dc:format>image/svg+xml</dc:format>
        <dc:type
           rdf:resource="http://purl.org/dc/dcmitype/StillImage" />
      </cc:Work>
    </rdf:RDF>
  </metadata>
  <g
     id="layer1"
     transform="translate(-34.213113,-643.53232)">
    <g
       id="g1327"
       transform="matrix(0.477242,0,0,0.477242,16.261704,566.6725)">
      <path
         id="path1167"
         d="m 108.7852,254.58378 -0.8673,-10.96891 c 0,0 0.35712,-4.59163 -4.4896,-7.80577 -4.84673,-3.21415 -11.938251,-5.15284 -15.050362,-7.24458 -3.112104,-2.09174 -4.69367,-2.29582 -4.591634,-8.62207 0.102043,-6.32626 0.459167,-20.56032 0.459167,-20.56032 H 63.430062 c 0,0 0.357127,14.23406 0.459163,20.56032 0.102037,6.32625 -1.479526,6.53033 -4.591634,8.62207 -3.112108,2.09174 -10.203632,4.03043 -15.050357,7.24458 -4.846725,3.21414 -4.489598,7.80577 -4.489598,7.80577 l -0.816291,10.96891 z"
         fill="#b2713b"
         stroke-width="0.510182"
         opacity="1"
         stroke="none" />
      <path
         id="path1169"
         d="m 63.792291,222.68723 c 5.106917,2.40295 8.601663,2.76518 10.045475,2.76518 1.443813,0 4.938558,-0.36733 10.045477,-2.76518 -0.08163,-0.76528 -0.112243,-1.6632 -0.09694,-2.74478 0.102043,-6.32626 0.459167,-20.56032 0.459167,-20.56032 H 63.430062 c 0,0 0.357127,14.23406 0.459163,20.56032 0.0153,1.08158 -0.0153,1.9795 -0.09693,2.74478 z"
         fill="#934d13"
         stroke-width="0.510182"
         opacity="0.65" />
      <path
         id="path1171"
         d="m 60.471009,232.33986 c 2.601926,1.47953 6.020142,2.65295 8.979196,2.90803 0.204072,0 0.204072,-0.30611 0.05103,-0.35712 -1.428505,-0.5612 -3.010068,-0.86731 -4.489595,-1.32647 -1.479527,-0.45917 -2.959053,-1.02037 -4.489598,-1.3775 -0.05101,-0.051 -0.153054,0.10204 -0.05101,0.15306 z m 17.958392,3.16313 c 2.703959,-0.30611 5.765048,-1.53055 8.111884,-2.95906 0.153057,-0.10203 0.05103,-0.30611 -0.102037,-0.25509 -1.326465,0.45917 -2.652944,1.02036 -3.979416,1.47953 -1.326466,0.45916 -2.754981,0.76527 -4.081453,1.27545 -0.255087,0.051 -0.255087,0.45917 0.05103,0.45917 z"
         fill="#934d13"
         stroke-width="0.510182"
         opacity="1"
         stroke="none" />
      <path
         id="path1173"
         d="m 108.73419,254.53276 -1.07139,-10.91789 c 0,-1.1224 -0.25509,-2.29581 -0.76527,-3.3672 -0.45916,-1.07138 -1.17342,-1.9897 -1.9897,-2.80599 -0.8163,-0.81629 -1.78564,-1.42851 -2.806,-2.04073 -1.02037,-0.61222 -2.09175,-1.1224 -3.16313,-1.58156 -2.142762,-0.96935 -4.387561,-1.83666 -6.581345,-2.75499 -1.1224,-0.45916 -2.193778,-0.96934 -3.265162,-1.53054 -0.561197,-0.3061 -1.071379,-0.61221 -1.530545,-0.96934 -0.510175,-0.30611 -1.020363,-0.61222 -1.530545,-0.96935 -0.510182,-0.35712 -1.020363,-0.76527 -1.428508,-1.32647 -0.408146,-0.51018 -0.663233,-1.1224 -0.867306,-1.73462 -0.35713,-1.22444 -0.408145,-2.44887 -0.408145,-3.67331 0,-2.39785 0.102036,-4.7957 0.153051,-7.19356 0.102036,-4.7957 0.306109,-9.54039 0.459167,-14.28508 l 0.306109,0.30611 -10.407705,-0.10204 -10.407704,-0.051 0.153054,-0.15305 0.357127,14.28508 c 0.05101,2.39785 0.153055,4.74469 0.204073,7.14254 0,1.22444 -0.05102,2.39785 -0.408145,3.62229 -0.153055,0.61222 -0.459164,1.17342 -0.816291,1.6836 -0.408145,0.51018 -0.867308,0.91833 -1.37749,1.27545 -0.510182,0.35713 -1.020363,0.66324 -1.479527,1.02037 -0.459163,0.30611 -0.969345,0.66324 -1.530544,0.96935 -1.071382,0.61221 -2.142763,1.07137 -3.265163,1.58155 -2.19378,0.96935 -4.387561,1.83666 -6.530324,2.85703 -1.071381,0.51018 -2.142763,1.07138 -3.112108,1.63257 -1.020363,0.61222 -1.93869,1.22445 -2.75498,2.04073 -0.816291,0.81629 -1.479527,1.73462 -1.93869,2.75498 -0.204073,0.51018 -0.408146,1.07138 -0.510182,1.58157 -0.102036,0.56119 -0.204073,1.1224 -0.153054,1.63258 v 0.10203 l -0.765273,10.9689 -0.510181,-0.56119 17.346174,0.051 c 5.765052,0 11.581122,0.051 17.397192,0.10204 l 17.44821,0.15306 z m 0.10203,0.10203 -17.346171,0.20408 -17.44821,0.15305 c -5.81607,0.051 -11.683159,0.10204 -17.550247,0.10204 l -17.550247,0.051 h -0.561199 l 0.05101,-0.56119 0.867308,-10.96891 v 0.051 c -0.05101,-2.60192 1.1224,-4.99977 2.908035,-6.78541 0.867309,-0.86731 1.938691,-1.58156 2.959054,-2.19378 1.020363,-0.61222 2.142762,-1.1224 3.214144,-1.63258 2.193781,-1.02037 4.43858,-1.88768 6.63236,-2.75498 1.071382,-0.45917 2.193781,-0.91833 3.214144,-1.47953 0.510182,-0.25509 0.969345,-0.5612 1.530545,-0.91833 0.510182,-0.30611 1.020363,-0.61222 1.479527,-0.96934 0.459163,-0.30611 0.918327,-0.71426 1.224436,-1.1224 0.357127,-0.45917 0.612217,-0.96935 0.765272,-1.47953 0.306109,-1.07138 0.408145,-2.29581 0.408145,-3.46924 0,-2.34683 -0.05101,-4.74468 -0.102036,-7.14254 l -0.306109,-14.28508 v -0.15305 h 0.153054 l 10.407698,-0.051 10.407705,-0.10203 h 0.306115 v 0.3061 c -0.05103,4.7447 -0.102042,9.5404 -0.204079,14.28509 -0.05103,2.39786 -0.102036,4.79571 -0.102036,7.14254 0.05103,1.17342 0.102036,2.34684 0.408145,3.41822 0.153058,0.5612 0.408145,1.02036 0.714254,1.47952 0.306109,0.40815 0.714255,0.8163 1.224436,1.1224 0.459167,0.30611 0.969348,0.66324 1.47953,0.96935 0.510182,0.35713 0.969342,0.66324 1.47953,0.91833 1.020363,0.5612 2.091741,1.07138 3.214141,1.53054 2.193784,0.91833 4.387561,1.83666 6.581345,2.85702 1.071371,0.51018 2.142761,1.07138 3.163111,1.6836 1.02039,0.61221 2.04074,1.32647 2.90806,2.19378 1.73461,1.73462 2.85701,4.13247 2.75497,6.63236 v -0.051 z m -57.54848,-0.20407 0.969345,-7.04051 0.05102,7.04051 z m 45.202089,0 -0.969348,-7.04051 -0.05103,7.04051 z"
         fill="#843e04"
         stroke-width="0.510182"
         opacity="1"
         stroke="none" />
      <path
         id="path1175"
         d="m 95.877611,254.83887 0.05103,-1.83666 13.672869,-1.32646 c 0,0 -0.61222,-8.418 -0.96934,-10.20364 -0.35713,-1.78563 -1.17342,-4.38756 -6.1732,-7.14254 -4.999784,-2.75498 -14.132031,-6.32626 -14.132031,-6.32626 -16.121739,15.56055 -28.570169,-0.051 -28.927296,0 0,0 -9.132251,3.57128 -14.132031,6.32626 -4.999779,2.75498 -5.81607,5.35691 -6.173197,7.14254 -0.357127,1.78564 -0.969345,10.20364 -0.969345,10.20364 l 13.672867,1.32646 v 1.83666 z"
         fill="#82cbe2"
         stroke-width="0.510182"
         opacity="1"
         stroke="none"
         style="fill:#008080;fill-opacity:1;stroke:#ffffff" />
      <path
         id="path1177"
         d="m 109.9076,251.67575 c -0.20407,-2.95906 -0.35712,-5.91812 -0.66323,-8.87717 -0.15306,-1.47952 -0.45917,-3.06109 -1.32647,-4.38756 -0.81629,-1.32647 -1.98971,-2.34684 -3.26517,-3.21414 -1.22443,-0.86731 -2.60193,-1.58157 -3.9284,-2.2448 -1.326469,-0.66324 -2.703956,-1.27546 -4.030428,-1.88768 -2.703966,-1.22443 -5.458947,-2.29581 -8.264942,-3.36719 -0.102037,-0.051 -0.255094,0 -0.357131,0.051 -1.93869,1.93869 -4.081452,3.62229 -6.479303,4.89774 -2.397856,1.27545 -5.050801,2.04073 -7.75476,2.09174 -1.377493,0 -2.703965,-0.15305 -4.030438,-0.45916 -1.326472,-0.35713 -2.601922,-0.86731 -3.77534,-1.47953 -1.173418,-0.61221 -2.346835,-1.37748 -3.418217,-2.19377 -0.561199,-0.40815 -1.071381,-0.86732 -1.581563,-1.32648 -0.25509,-0.20407 -0.510181,-0.45916 -0.714254,-0.71425 l -0.357127,-0.35713 -0.204073,-0.20407 -0.102036,-0.10204 -0.05101,-0.051 -0.05101,-0.051 c 0,0 -0.102036,-0.051 -0.153054,-0.051 h -0.05101 c -2.754981,1.07138 -5.509961,2.14276 -8.264942,3.31618 -1.37749,0.5612 -2.703962,1.17342 -4.081453,1.83665 -1.326472,0.66324 -2.652944,1.32647 -3.928398,2.19378 -1.224436,0.86731 -2.448872,1.88768 -3.265162,3.21414 -0.867309,1.32648 -1.224436,2.90804 -1.37749,4.38757 -0.357128,2.95905 -0.5612,5.9181 -0.816291,8.87716 0,0.25509 0.204073,0.51018 0.459163,0.5612 l 6.836434,0.66323 6.37727,0.61222 v 1.37749 c 0,0.30611 0.25509,0.51018 0.510181,0.51018 3.724326,0 7.397633,0 11.121959,-0.051 l 11.070947,-0.10204 21.937802,-0.3061 0.10203,-1.78564 6.734406,-0.51018 6.83643,-0.5612 c 0.20407,0 0.30611,-0.15305 0.30611,-0.3061 z m -7.19356,0.40814 -6.836429,0.81629 c -0.05103,0 -0.102036,0.051 -0.102036,0.10203 l 0.05103,1.83666 -22.141881,-0.30611 -10.968901,-0.10203 c -3.469235,-0.051 -6.93847,-0.051 -10.407705,-0.051 v -1.32647 c 0,-0.25509 -0.204072,-0.51018 -0.459163,-0.51018 l -6.836433,-0.76528 -6.37727,-0.56119 c 0.204072,-2.75498 0.408145,-5.56099 0.663236,-8.31597 0.153054,-1.47952 0.459163,-2.85701 1.173418,-4.03043 0.765272,-1.17342 1.836653,-2.14276 3.010071,-3.01007 1.173418,-0.81629 2.448872,-1.53055 3.775344,-2.19378 1.326472,-0.66324 2.652944,-1.32647 3.979416,-1.93869 2.652944,-1.22444 5.356907,-2.34683 8.060869,-3.46923 l 0.102037,0.051 0.204072,0.15306 0.357127,0.35712 c 0.255091,0.2551 0.510182,0.45917 0.765273,0.71426 0.510181,0.45916 1.071381,0.91832 1.581563,1.32647 1.122399,0.81629 2.244799,1.58156 3.469234,2.2448 2.448872,1.27545 5.203853,1.98971 7.958833,1.98971 2.754981,0 5.509961,-0.76528 8.009848,-1.98971 2.397857,-1.22444 4.591634,-2.85702 6.530324,-4.69367 2.652945,1.07138 5.305889,2.2448 7.958833,3.41822 1.326472,0.61221 2.703966,1.22443 3.97942,1.88766 1.32647,0.66324 2.60193,1.32648 3.77534,2.14277 1.17343,0.81629 2.29582,1.78564 3.06109,2.95905 0.76528,1.17342 1.1224,2.55091 1.22444,4.03044 0.15306,1.47952 0.30611,2.95905 0.45917,4.38756 l 0.35712,4.13247 z m -51.273246,-3.72433 -0.153054,-0.5612 -0.204073,-0.51018 c -0.459163,-1.42851 -1.173417,-2.75498 -1.93869,-4.03043 -0.81629,-1.27545 -1.734617,-2.44887 -2.805998,-3.46924 -1.071382,-1.02036 -2.244799,-1.98971 -3.571272,-2.60193 0.612218,0.40815 1.173418,0.86731 1.734618,1.32648 0.5612,0.45916 1.071381,0.96934 1.581563,1.53054 0.969345,1.07138 1.887672,2.2448 2.652944,3.46923 0.204073,0.30611 0.357127,0.61222 0.5612,0.91834 0.204072,0.3061 0.357127,0.61221 0.510181,0.96934 0.153055,0.30611 0.357127,0.66324 0.510182,0.96935 0.153054,0.35712 0.306109,0.66323 0.459163,1.02035 l 0.204073,0.51019 0.204073,0.51018 0.357127,1.02037 c 0.255091,0.71425 0.408145,1.42851 0.663236,2.09174 -0.153055,-0.71426 -0.255091,-1.47953 -0.459164,-2.19378 z m 47.39587,-5.0508 c -0.765275,1.27546 -1.47953,2.60193 -1.93869,4.03044 l -0.204072,0.51018 -0.153058,0.5612 -0.306109,1.07138 c -0.153051,0.71426 -0.306109,1.42851 -0.45916,2.19379 0.255087,-0.71426 0.408145,-1.42852 0.663232,-2.09175 l 0.357131,-1.02036 0.204072,-0.51019 0.204073,-0.51018 c 0.153051,-0.30611 0.306109,-0.66323 0.45916,-1.02036 0.153058,-0.30611 0.306109,-0.66324 0.510182,-0.96935 0.153058,-0.30611 0.306109,-0.66323 0.510181,-0.96934 0.204073,-0.30611 0.357131,-0.61222 0.561203,-0.91833 0.765271,-1.22443 1.683601,-2.39785 2.652941,-3.46923 0.45916,-0.56121 1.02037,-1.07139 1.58156,-1.53055 0.56121,-0.51018 1.1224,-0.96935 1.73462,-1.32647 -1.32647,0.66323 -2.49989,1.58156 -3.57127,2.60192 -1.07138,0.91833 -1.989705,2.14277 -2.805996,3.3672 z"
         fill="#49a6c3"
         stroke-width="0.510182"
         opacity="1"
         stroke="none" />
      <g
         id="g1187"
         transform="matrix(0.51018159,0,0,0.51018159,22.819607,142.59892)">
        <g
           id="g1185">
          <path
             id="path1179"
             d="m 64,93.7 c 0,0 -2.3,-2.2 -5,-3.3 -2.7,-1.1 -5.7,0.7 -6.6,3.4 -0.9,2.7 1.2,14 4.7,18.1 3.5,4.1 5.8,4.4 8.1,2.3 2.3,-2 6.4,-9.9 -1.2,-20.5 z"
             fill="#b2713b"
             stroke-width="none"
             opacity="1"
             stroke="none" />
          <path
             id="path1181"
             d="m 65.2,95.3 c 0.4,0.6 0.7,1.2 1.1,1.8 0.4,0.6 0.7,1.3 1,1.9 0.3,0.7 0.6,1.3 0.8,2 0.2,0.7 0.5,1.4 0.6,2.2 0.1,0.4 0.1,0.8 0.2,1.1 l 0.1,1.2 c 0,1.6 -0.2,3.1 -0.6,4.6 -0.5,1.5 -1.1,2.8 -2.1,3.9 -0.2,0.3 -0.5,0.5 -0.7,0.8 -0.3,0.2 -0.5,0.4 -0.8,0.6 -0.6,0.4 -1.2,0.7 -1.9,0.7 -0.7,0.1 -1.4,0 -2,-0.3 -0.6,-0.3 -1.2,-0.7 -1.7,-1.1 -0.5,-0.4 -1,-0.9 -1.5,-1.5 -0.5,-0.5 -0.9,-1.1 -1.3,-1.7 -1.5,-2.5 -2.4,-5.3 -3.2,-8.1 -0.4,-1.4 -0.7,-2.8 -1,-4.3 -0.3,-1.5 -0.5,-2.9 -0.4,-4.5 0,-0.4 0.1,-0.8 0.2,-1.3 0.1,-0.2 0.1,-0.4 0.2,-0.6 l 0.3,-0.5 c 0.4,-0.7 0.9,-1.2 1.4,-1.7 1.1,-0.9 2.4,-1.3 3.7,-1.1 0.6,0.1 1.3,0.3 1.8,0.6 0.6,0.3 1.1,0.6 1.7,1 1.1,0.7 2.1,1.5 3.1,2.4 z M 60.8,91.5 C 60.2,91.2 59.7,91 59.1,90.8 58.5,90.6 58,90.5 57.4,90.5 c -1.1,0.1 -2.2,0.5 -3.1,1.3 -0.4,0.4 -0.8,0.8 -1.1,1.4 -0.1,0.3 -0.3,0.5 -0.4,0.8 -0.1,0.3 -0.2,0.5 -0.2,0.9 -0.2,1.3 -0.1,2.8 0.1,4.2 0.2,1.4 0.4,2.9 0.7,4.3 0.7,2.8 1.7,5.6 3.3,7.7 0.8,1 1.8,1.9 2.7,2.7 1,0.7 2.1,1.2 3.1,1 0.5,-0.1 1,-0.3 1.5,-0.6 0.5,-0.3 0.9,-0.7 1.3,-1.2 0.7,-1 1.4,-2.1 1.7,-3.4 0.4,-1.3 0.6,-2.6 0.7,-4 0,-1.4 -0.1,-2.8 -0.4,-4.2 -0.6,-2.8 -1.8,-5.4 -3.4,-7.6 -0.9,-1 -2,-1.7 -3.1,-2.3 z"
             fill="#a35e26"
             stroke-width="none"
             opacity="1"
             stroke="none" />
          <path
             id="path1183"
             d="m 55.9,93.3 c 3,0.5 5,5.7 5.6,9.2 0.1,0.1 0.1,0.2 0.2,0.3 0.3,0.5 -0.4,1.1 -0.7,0.6 -0.4,-0.7 -1,-1.5 -1.7,-1.8 -1.3,-0.5 -2,1 -1.7,2.5 0.4,1.7 1.5,2.8 2.5,4.1 0.1,0.1 0,0.3 -0.1,0.2 -1.6,-1 -4,-4.5 -2.9,-6.7 0.8,-1.6 2.1,-1.3 3.2,-0.4 -0.7,-2 -1.3,-4 -2.8,-5.5 -0.5,-0.5 -1.4,-1.3 -2.1,-1.2 -1.2,0.2 -1.2,2 -1.3,3.1 -0.1,1.5 0.1,3.1 0.3,4.7 0,0.2 -0.2,0.2 -0.2,0.1 -0.6,-2.4 -1.8,-9.8 1.7,-9.2 z"
             fill="#934d13"
             stroke-width="none"
             opacity="1"
             stroke="none" />
        </g>
      </g>
      <g
         id="g1197"
         transform="matrix(0.51018159,0,0,0.51018159,22.819607,142.59892)">
        <g
           id="g1195">
          <path
             id="path1189"
             d="m 136,93.7 c 0,0 2.3,-2.2 5,-3.3 2.7,-1.1 5.7,0.7 6.6,3.4 0.9,2.7 -1.2,14 -4.7,18.1 -3.5,4.1 -5.8,4.4 -8.1,2.3 -2.3,-2 -6.4,-9.9 1.2,-20.5 z"
             fill="#b2713b"
             stroke-width="none"
             opacity="1"
             stroke="none" />
          <path
             id="path1191"
             d="m 136,93.6 c 1,-0.9 2,-1.7 3.1,-2.4 0.5,-0.4 1.1,-0.7 1.7,-1 0.6,-0.3 1.2,-0.5 1.8,-0.6 1.3,-0.1 2.6,0.2 3.7,1.1 0.5,0.4 1,1 1.4,1.7 l 0.3,0.5 c 0.1,0.2 0.1,0.4 0.2,0.6 0.1,0.4 0.2,0.9 0.2,1.3 0.1,1.6 -0.2,3.1 -0.4,4.5 -0.3,1.5 -0.6,2.9 -1,4.3 -0.8,2.8 -1.7,5.6 -3.2,8.1 -0.4,0.6 -0.8,1.1 -1.3,1.7 -0.4,0.5 -0.9,1 -1.5,1.5 -0.5,0.4 -1.1,0.8 -1.7,1.1 -0.6,0.3 -1.3,0.4 -2,0.3 -0.7,-0.1 -1.3,-0.4 -1.9,-0.7 -0.3,-0.2 -0.6,-0.4 -0.8,-0.6 -0.3,-0.2 -0.5,-0.5 -0.7,-0.8 -0.9,-1.1 -1.6,-2.5 -2.1,-3.9 -0.4,-1.5 -0.7,-3 -0.6,-4.6 l 0.1,-1.2 c 0,-0.4 0.1,-0.8 0.2,-1.1 0.1,-0.8 0.4,-1.5 0.6,-2.2 0.3,-0.7 0.5,-1.4 0.8,-2 0.3,-0.6 0.6,-1.3 1,-1.9 0.4,-0.6 0.7,-1.2 1.1,-1.8 z m 0,0.1 c -1.6,2.2 -2.8,4.9 -3.4,7.6 -0.3,1.4 -0.4,2.8 -0.4,4.2 0,1.4 0.2,2.7 0.7,4 0.4,1.3 1,2.4 1.7,3.4 0.4,0.5 0.8,0.9 1.3,1.2 0.5,0.3 0.9,0.6 1.5,0.6 1,0.2 2.1,-0.3 3.1,-1 1,-0.8 1.9,-1.7 2.7,-2.7 1.6,-2.1 2.6,-4.9 3.3,-7.7 0.4,-1.4 0.6,-2.8 0.7,-4.3 0.2,-1.4 0.2,-2.9 0.1,-4.2 0,-0.3 -0.1,-0.6 -0.2,-0.9 -0.1,-0.3 -0.2,-0.6 -0.4,-0.8 -0.3,-0.5 -0.7,-1 -1.1,-1.4 -0.9,-0.7 -1.9,-1.2 -3.1,-1.3 -0.6,0 -1.1,0.1 -1.7,0.3 -0.6,0.2 -1.1,0.4 -1.7,0.7 -1,0.7 -2.1,1.4 -3.1,2.3 z"
             fill="#a35e26"
             stroke-width="none"
             opacity="1"
             stroke="none" />
          <path
             id="path1193"
             d="m 144.1,93.3 c -3,0.5 -5,5.7 -5.6,9.2 -0.1,0.1 -0.1,0.2 -0.2,0.3 -0.3,0.5 0.4,1.1 0.7,0.6 0.4,-0.7 1,-1.5 1.7,-1.8 1.3,-0.5 2,1 1.7,2.5 -0.4,1.7 -1.5,2.8 -2.5,4.1 -0.1,0.1 0,0.3 0.1,0.2 1.6,-1 4,-4.5 2.9,-6.7 -0.8,-1.6 -2.1,-1.3 -3.2,-0.4 0.7,-2 1.3,-4 2.8,-5.5 0.5,-0.5 1.4,-1.3 2.1,-1.2 1.2,0.2 1.2,2 1.3,3.1 0.1,1.5 -0.1,3.1 -0.3,4.7 0,0.2 0.2,0.2 0.2,0.1 0.6,-2.4 1.8,-9.8 -1.7,-9.2 z"
             fill="#934d13"
             stroke-width="none"
             opacity="1"
             stroke="none" />
        </g>
      </g>
      <g
         id="g1205"
         transform="matrix(0.51018159,0,0,0.51018159,22.819607,142.59892)">
        <g
           id="g1203">
          <path
             id="path1199"
             d="m 100.01,40.83 c -21.4,0 -39.8,15.6 -41,44.1 0,0 0.1,15.8 2.5,28.3 2.3,12.6 3.5,24.2 15.4,30.5 11.9,6.4 20,7.2 23.2,7.2 3.1,0 11.2,-0.9 23.2,-7.2 12,-6.3 13.1,-18 15.4,-30.5 2.3,-12.6 2.5,-28.3 2.5,-28.3 -1.4,-28.4 -19.8,-44.1 -41.2,-44.1 z"
             fill="#b2713b"
             stroke-width="none"
             opacity="1" />
          <path
             id="path1201"
             d="m 100,41.3 c -21.4,0 -39.8,15.6 -41,44.1 0,0 0.1,15.8 2.5,28.3 2.4,12.5 3.5,24.2 15.4,30.5 11.9,6.4 20,7.2 23.2,7.2 3.1,0 11.2,-0.9 23.2,-7.2 11.9,-6.4 13.1,-18 15.4,-30.5 2.3,-12.6 2.5,-28.3 2.5,-28.3 C 139.8,57 121.4,41.3 100,41.3 Z m 35.5,26.9 0.7,2.2 c 0.1,0.4 0.6,2.2 0.6,2.2 0.1,0.4 0.9,4.5 0.9,4.5 0.1,0.4 0.3,2.4 0.3,2.4 0,0.4 0.1,0.8 0.1,1.2 l 0.2,2.4 0.2,2.7 v 0.6 c -0.1,3.2 -0.3,6.4 -0.5,9.6 -0.2,3.2 -0.5,6.4 -0.9,9.6 -0.2,1.6 -0.4,3.2 -0.6,4.7 -0.1,0.8 -0.2,1.6 -0.4,2.3 -0.1,0.8 -0.3,1.6 -0.4,2.4 -0.5,3.2 -1,6.4 -1.7,9.4 -0.7,3.1 -1.6,6 -2.9,8.7 -1.3,2.7 -3.1,5 -5.4,6.9 -1.1,0.9 -6.21,4.62 -11.3,6.42 -1.5,0.6 -3.8,1.38 -5.3,1.78 -1.5,0.5 -3,0.9 -4.5,1.2 -1.5,0.3 -3.1,0.6 -4.6,0.6 -1.5,0 -3.1,-0.1 -4.6,-0.3 -1.6,-0.2 -3.1,-0.5 -4.7,-0.9 -3.1,-0.8 -6.1,-1.9 -9.1,-3.2 -0.7,-0.3 -1.5,-0.7 -2.2,-1 -0.7,-0.4 -1.4,-0.7 -2.2,-1.1 -1.4,-0.7 -2.7,-1.6 -4,-2.6 -2.5,-2 -4.4,-4.5 -5.8,-7.3 -1.4,-2.8 -2.3,-5.9 -2.9,-9 -0.6,-3.1 -1.1,-6.3 -1.5,-9.6 -0.2,-1.6 -0.5,-3.2 -0.6,-4.8 -0.2,-1.6 -0.3,-3.2 -0.5,-4.8 -0.2,-3.2 -0.4,-6.4 -0.5,-9.6 0,-0.8 -0.1,-1.6 -0.1,-2.4 L 61.2,91 c 0,-1.6 -0.1,-3.2 -0.1,-4.8 l 0.1,-2.2 0.1,-1.1 0.1,-1.2 c 0,0 0.2,-2 0.3,-2.4 0,0 0.3,-2 0.4,-2.4 1.1,-6.1 3,-12.2 6.2,-17.5 1.6,-2.7 3.5,-5.2 5.7,-7.4 2.2,-2.2 4.8,-4.2 7.5,-5.8 1.4,-0.8 2.8,-1.5 4.3,-2.1 1.5,-0.6 3,-1.1 4.6,-1.5 l 1.8,-0.4 0.6,-0.1 1.2,-0.2 c 3.5,-0.51 9.2,-0.4 10.8,-0.2 0.4,0.1 0.8,0.1 1.2,0.2 l 1.2,0.2 0.6,0.1 1.8,0.4 c 1.5,0.4 3.1,0.9 4.6,1.5 1.5,0.6 2.9,1.3 4.3,2.1 2.8,1.6 5.3,3.6 7.5,5.8 2.2,2.2 4.1,4.8 5.7,7.4 1.6,2.9 2.8,5.8 3.8,8.8 z"
             fill="#843e04"
             stroke-width="none"
             opacity="1" />
        </g>
      </g>
      <g
         id="g1221"
         transform="matrix(0.51018159,0,0,0.51018159,22.819607,142.59892)">
        <g
           id="g1219">
          <path
             id="path1207"
             d="m 87.37,125.93 c 0,0 1.12,4.65 4.76,7.15 3.64,2.5 9.31,2.85 13.38,1.21 4.07,-1.64 6.77,-5.97 7.12,-7.11 0,0 -20.18,-0.45 -20.32,-0.49 -0.14,-0.04 -4.94,-0.76 -4.94,-0.76 z"
             fill="#d4422b"
             stroke-width="none"
             opacity="1"
             transform="translate(0,3)"
             stroke="none" />
          <path
             id="path1209"
             d="m 86.29,125.34 c 0,0 2.21,2.8 6.33,3.78 2.69,0.64 5.63,-0.21 6.96,-0.36 1.33,-0.15 1.97,0.36 4.15,0.64 2.18,0.28 6.33,0.14 10.06,-2.78 0,0 -2.04,0.5 -3.38,-0.43 -1.34,-0.93 -2.88,-3.21 -7.66,-3.92 -4.78,-0.71 -8.23,-0.14 -11.25,1.36 -3.03,1.5 -3.73,1.92 -5.21,1.71 z"
             fill="#cc371f"
             stroke-width="none"
             opacity="1"
             transform="translate(0,3)"
             stroke="none" />
          <path
             id="path1211"
             d="m 86.08,125.64 c 1.36,1.69 3.21,2.75 5.27,3.39 2.54,0.78 4.71,0.27 7.28,0.04 2.94,-0.27 5.68,1.1 8.66,0.68 2.34,-0.33 4.57,-1.41 6.54,-2.68 0.56,-0.37 -0.01,-1.28 -0.52,-0.89 -2.09,1.6 -4.46,2.74 -7.15,2.68 -2.3,-0.06 -4.4,-1.1 -6.74,-0.84 -2.02,0.22 -3.9,0.97 -5.96,0.78 -2.8,-0.26 -4.91,-1.76 -6.77,-3.75 -0.39,-0.42 -0.95,0.17 -0.61,0.59 z"
             fill="#c52c14"
             stroke-width="none"
             opacity="1"
             transform="translate(0,3)"
             stroke="none" />
          <path
             id="path1213"
             d="m 89.91,126.96 c 2.22,2.07 5.07,1.03 7.71,0.53 3.67,-0.69 7.27,1.65 10.87,0.51 0.21,-0.07 0.19,-0.42 -0.05,-0.4 -3.01,0.24 -5.45,-1.84 -8.45,-1.66 -3.45,0.22 -6.63,3.22 -10.02,0.94 -0.05,-0.03 -0.1,0.04 -0.06,0.08 z"
             fill="#dc4e38"
             stroke-width="none"
             opacity="1"
             transform="translate(0,3)"
             stroke="none" />
          <path
             id="path1215"
             d="m 108.59,130.42 c -0.95,0.98 -1.89,1.9 -3.13,2.5 -1.38,0.67 -2.74,0.71 -4.23,0.85 -0.35,0.03 -0.46,0.54 -0.09,0.64 2.84,0.76 6.56,-1.1 7.87,-3.67 0.13,-0.26 -0.2,-0.55 -0.42,-0.32 z"
             fill="#dc4e38"
             stroke-width="none"
             opacity="1"
             transform="translate(0,3)"
             stroke="none" />
          <path
             id="path1217"
             d="m 87.47,125.61 c 2.67,0.29 4.92,-2.02 7.47,-2.57 3.41,-0.73 6.76,-0.31 10.12,0.42 0.28,0.06 0.37,-0.31 0.12,-0.42 -2.62,-1.11 -5.96,-1.09 -8.73,-0.75 -1.23,0.15 -2.47,0.4 -3.62,0.87 -1.88,0.77 -3.26,2 -5.36,2.25 -0.12,0.02 -0.12,0.19 0,0.2 z"
             fill="#e35a45"
             stroke-width="none"
             opacity="1"
             transform="translate(0,3)"
             stroke="none" />
        </g>
      </g>
      <g
         id="g1251"
         transform="matrix(0.51018159,0,0,0.51018159,22.819607,142.59892)">
        <g
           id="g1249">
          <g
             id="g1225">
            <path
               id="path1223"
               d="m 92.3,99.5 c 0,0 -1.4,-2.7 -3.1,-3.9 -1.7,-1.3 -4.6,-3.1 -9.3,-2.1 -4.7,0.9 -8,4.7 -8,4.7 0,0 5.9,2.2 11.3,2.2 5.3,-0.1 9.1,-0.9 9.1,-0.9 z"
               fill="#ffffff"
               stroke-width="none"
               opacity="1" />
          </g>
          <g
             id="g1237">
            <g
               id="g1235">
              <g
                 id="g1233">
                <path
                   id="path1227"
                   d="m 82,91.5 c 2.7,0 4.9,2.2 4.9,4.9 0,2.7 -2.2,4.9 -4.9,4.9 -2.7,0 -4.9,-2.2 -4.9,-4.9 0,-2.7 2.2,-4.9 4.9,-4.9 z"
                   fill="#681711"
                   stroke-width="none"
                   opacity="1" />
                <path
                   id="path1229"
                   d="m 82,93.8 c 1.4,0 2.6,1.2 2.6,2.6 0,1.4 -1.2,2.6 -2.6,2.6 -1.4,0 -2.6,-1.2 -2.6,-2.6 0,-1.4 1.2,-2.6 2.6,-2.6 z"
                   fill="#000000"
                   stroke-width="none"
                   opacity="1" />
                <path
                   id="path1231"
                   d="m 81.3,94.3 -0.5,-0.5 c -0.2,-0.2 -0.4,-0.3 -0.7,-0.3 -0.3,0 -0.5,0.1 -0.7,0.3 -0.2,0.2 -0.3,0.4 -0.3,0.7 0,0.3 0.1,0.5 0.3,0.7 l 0.5,0.5 c 0.2,0.2 0.4,0.3 0.7,0.3 0.2,0 0.5,-0.1 0.7,-0.3 0.4,-0.5 0.4,-1 0,-1.4 z m 2.5,4.4 c 0.8,0 0.8,-1.3 0,-1.3 -0.8,0 -0.9,1.3 0,1.3 z"
                   fill="#ffffff"
                   stroke-width="none"
                   opacity="1" />
              </g>
            </g>
          </g>
          <g
             id="g1247">
            <path
               id="path1239"
               d="m 70.73,98.03 c 0,6.9 4.93,12.5 11.02,12.5 6.09,0 11.02,-5.6 11.02,-12.5 0,-6.9 -4.93,-12.5 -11.02,-12.5 -6.09,0 -11.02,5.59 -11.02,12.5 z m 1.2,0.17 c 0,0 3.31,-3.76 8,-4.69 4.69,-0.93 7.55,0.87 9.25,2.12 1.7,1.25 3.12,3.92 3.12,3.92 0,0 -3.76,0.77 -9.09,0.84 -5.34,0.06 -11.28,-2.19 -11.28,-2.19 z"
               fill="#b2713b"
               stroke-width="none"
               opacity="1"
               stroke="none" />
            <path
               id="path1241"
               d="m 91.56,97.86 c 0,0 -2.08,-4.66 -7.97,-5.44 -5.89,-0.79 -14.54,3.87 -15.21,5.61 -0.67,1.74 14.43,3.48 18.3,2.53 0,0 -11.56,-0.39 -14.54,-2.3 0,0 2.3,-4.27 8.93,-4.83 6.61,-0.57 10.04,3.7 10.49,4.43 z"
               fill="#b2713b"
               stroke-width="none"
               opacity="1"
               stroke="none" />
            <path
               id="path1243"
               d="m 92.49,100.56 c -2.99,2.4 -6.96,3.48 -10.76,3.36 -0.17,-0.01 -0.17,-0.25 0,-0.26 3.97,-0.16 7.22,-1.31 10.68,-3.21 0.07,-0.04 0.15,0.05 0.08,0.11 z"
               fill="#a35e26"
               stroke-width="none"
               opacity="1"
               stroke="none" />
            <path
               id="path1245"
               d="m 71.75,98.72 c 6.44,2.32 13.78,2.6 20.43,0.97 0.13,0.06 0.34,-0.05 0.27,-0.21 -3.52,-8.75 -15.59,-8.02 -20.9,-1.51 -0.22,0.27 -0.14,0.63 0.2,0.75 z m 0.88,-0.65 c 5.34,-6.21 15.21,-6.15 19.35,1.37 -6.45,1.12 -13.13,0.73 -19.35,-1.37 z"
               fill="#1b2a40"
               stroke-width="none"
               opacity="1"
               stroke="none" />
          </g>
        </g>
      </g>
      <g
         id="g1281"
         transform="matrix(0.51018159,0,0,0.51018159,22.819607,142.59892)">
        <g
           id="g1279">
          <g
             id="g1255">
            <path
               id="path1253"
               d="m 107.7,99.5 c 0,0 1.4,-2.7 3.1,-3.9 1.7,-1.3 4.6,-3.1 9.3,-2.1 4.7,0.9 8,4.7 8,4.7 0,0 -5.9,2.2 -11.3,2.2 -5.3,-0.1 -9.1,-0.9 -9.1,-0.9 z"
               fill="#ffffff"
               stroke-width="none"
               opacity="1" />
          </g>
          <g
             id="g1267">
            <g
               id="g1265">
              <g
                 id="g1263">
                <path
                   id="path1257"
                   d="m 118,91.5 c 2.7,0 4.9,2.2 4.9,4.9 0,2.7 -2.2,4.9 -4.9,4.9 -2.7,0 -4.9,-2.2 -4.9,-4.9 0,-2.7 2.2,-4.9 4.9,-4.9 z"
                   fill="#681711"
                   stroke-width="none"
                   opacity="1" />
                <path
                   id="path1259"
                   d="m 118,93.8 c 1.4,0 2.6,1.2 2.6,2.6 0,1.4 -1.2,2.6 -2.6,2.6 -1.4,0 -2.6,-1.2 -2.6,-2.6 0,-1.4 1.2,-2.6 2.6,-2.6 z"
                   fill="#000000"
                   stroke-width="none"
                   opacity="1" />
                <path
                   id="path1261"
                   d="m 117.4,94.3 -0.5,-0.5 c -0.2,-0.2 -0.4,-0.3 -0.7,-0.3 -0.3,0 -0.5,0.1 -0.7,0.3 -0.2,0.2 -0.3,0.4 -0.3,0.7 0,0.3 0.1,0.5 0.3,0.7 l 0.5,0.5 c 0.2,0.2 0.4,0.3 0.7,0.3 0.2,0 0.5,-0.1 0.7,-0.3 0.3,-0.5 0.4,-1 0,-1.4 z m 2.4,4.4 c 0.8,0 0.8,-1.3 0,-1.3 -0.8,0 -0.8,1.3 0,1.3 z"
                   fill="#ffffff"
                   stroke-width="none"
                   opacity="1" />
              </g>
            </g>
          </g>
          <g
             id="g1277">
            <path
               id="path1269"
               d="m 118.26,85.53 c -6.08,0 -11.02,5.6 -11.02,12.5 0,6.9 4.93,12.5 11.02,12.5 6.09,0 11.02,-5.6 11.02,-12.5 0,-6.9 -4.94,-12.5 -11.02,-12.5 z m -1.47,14.85 c -5.33,-0.06 -9.09,-0.84 -9.09,-0.84 0,0 1.41,-2.67 3.12,-3.92 1.7,-1.25 4.56,-3.05 9.25,-2.12 4.69,0.93 8,4.69 8,4.69 0,0 -5.94,2.26 -11.28,2.19 z"
               fill="#b2713b"
               stroke-width="none"
               opacity="1"
               stroke="none" />
            <path
               id="path1271"
               d="m 108.44,97.86 c 0,0 2.08,-4.66 7.97,-5.44 5.89,-0.79 14.54,3.87 15.21,5.61 0.67,1.74 -14.43,3.48 -18.3,2.53 0,0 11.56,-0.39 14.54,-2.3 0,0 -2.3,-4.27 -8.93,-4.83 -6.61,-0.57 -10.04,3.7 -10.49,4.43 z"
               fill="#aa6730"
               stroke-width="none"
               opacity="1"
               stroke="none" />
            <path
               id="path1273"
               d="m 107.51,100.56 c 2.99,2.4 6.96,3.48 10.76,3.36 0.17,-0.01 0.17,-0.25 0,-0.26 -3.97,-0.16 -7.22,-1.31 -10.68,-3.21 -0.07,-0.04 -0.15,0.05 -0.08,0.11 z"
               fill="#a35e26"
               stroke-width="none"
               opacity="1"
               stroke="none" />
            <path
               id="path1275"
               d="m 128.45,97.96 c -5.31,-6.51 -17.38,-7.23 -20.9,1.51 -0.07,0.17 0.14,0.28 0.27,0.21 6.65,1.63 13.98,1.35 20.43,-0.97 0.34,-0.11 0.42,-0.47 0.2,-0.75 z m -20.43,1.47 c 4.14,-7.52 14.01,-7.58 19.35,-1.37 -6.22,2.11 -12.9,2.5 -19.35,1.37 z"
               fill="#1b2a40"
               stroke-width="none"
               opacity="1"
               stroke="none" />
          </g>
        </g>
      </g>
      <g
         id="g1293"
         transform="matrix(0.51018159,0,0,0.51018159,22.819607,142.59892)">
        <g
           id="g1291">
          <g
             id="g1289">
            <path
               id="path1283"
               d="m 72.9,84.2 c 0.1,-0.2 0.4,-0.3 0.6,-0.4 0.2,-0.1 0.4,-0.2 0.6,-0.2 0.4,-0.2 0.8,-0.4 1.2,-0.5 0.5,-0.1 1.2,-0.5 1.7,-0.2 1.6,-0.6 3.7,-0.2 5.1,0.6 1.9,0.2 3.9,0.8 5.3,1.8 0.1,0.1 0.2,0.2 0.2,0.3 0.3,0.1 0.5,0.2 0.8,0.3 1,0.4 2.1,0.7 3.1,1.2 0.1,0 0.2,0.1 0.3,0.1 0.3,0.1 0.4,0.7 0.2,0.8 -0.1,0.1 -0.1,0.2 -0.2,0.3 -0.8,0.6 -1.8,0.2 -2.6,-0.1 -0.7,-0.3 -1.5,-0.6 -2,-1.2 -0.8,-0.3 -1.4,-0.7 -2.1,-1.1 -0.1,0 -0.2,-0.1 -0.3,-0.1 -1.2,-0.2 -2.5,-0.7 -3.7,-1.3 -0.7,-0.1 -1.3,-0.3 -2,-0.3 -0.9,-0.1 -1.8,0.2 -2.8,-0.1 h -0.1 c -0.2,0.1 -0.4,0.1 -0.6,0.2 -0.8,0.2 -1.5,0.4 -2.3,0.4 -0.1,0 -0.2,-0.1 -0.2,-0.2 H 73 c 0,0 -0.2,-0.1 -0.1,-0.3 z"
               fill="#543c32"
               stroke-width="none"
               opacity="1" />
            <path
               id="path1285"
               d="m 77.4,82.3 c 3.1,-0.2 6.2,1.5 9,2.6 1.7,0.7 5.2,0.9 5.9,3 0.1,0.3 -0.3,0.4 -0.5,0.2 -0.9,-1.2 -2.4,-1.4 -3.8,-1.8 -1.2,-0.4 -2.3,-0.8 -3.5,-1.3 -2.4,-1 -4.8,-1.6 -7.3,-2.2 -0.1,-0.1 0,-0.4 0.2,-0.5 z"
               fill="#634e45"
               stroke-width="none"
               opacity="1" />
            <path
               id="path1287"
               d="m 93.3,87.9 c 0.3,-1.4 -1.8,-1.9 -2.8,-2.3 -2.4,-1 -4.9,-2.1 -7.4,-2.8 -1.5,-0.4 -3.1,-0.7 -4.6,-0.7 -1.2,0 -2.3,0.1 -3.5,0.5 -2,0.6 -3.9,1.8 -5.6,3.1 -0.9,0.5 -1.8,1.2 -2.5,1.9 -0.1,0.1 0,0.3 0.2,0.2 0,0 0.1,0 0.1,-0.1 0,0.1 0.1,0.1 0.2,0.1 1.5,-0.7 2.8,-1.6 4.3,-2.2 1.5,-0.6 3.1,-1 4.7,-1.1 h 0.7 c 1.9,0 3.7,0.4 5.4,1.2 2.4,1.1 4.6,2.6 7,3.5 0.4,0.2 0.9,0.2 1.4,0.2 1.1,0 2.2,-0.4 2.4,-1.5 z M 78.5,83 c 1.6,0 3.2,0.4 4.8,0.9 2,0.7 4,1.6 6,2.4 0.4,0.2 2.4,0.7 2.6,1.2 0.2,0.6 -0.2,0.8 -0.8,0.9 -0.3,0 -0.6,-0.1 -0.8,-0.1 -0.6,-0.2 -1.2,-0.6 -1.7,-0.9 -3.1,-1.6 -6.3,-3.5 -9.8,-3.7 h -1 c -1.1,0 -2.3,0.1 -3.5,0.3 0.5,-0.2 1,-0.4 1.6,-0.6 0.8,-0.3 1.7,-0.4 2.6,-0.4 z"
               fill="#452c22"
               stroke-width="none"
               opacity="1" />
          </g>
        </g>
      </g>
      <g
         id="g1305"
         transform="matrix(0.51018159,0,0,0.51018159,22.819607,142.59892)">
        <g
           id="g1303">
          <g
             id="g1301">
            <path
               id="path1295"
               d="m 127.1,84.2 c -0.1,-0.2 -0.4,-0.3 -0.6,-0.4 -0.2,-0.1 -0.4,-0.2 -0.6,-0.2 -0.4,-0.2 -0.8,-0.4 -1.2,-0.5 -0.5,-0.1 -1.2,-0.5 -1.7,-0.2 -1.6,-0.6 -3.7,-0.2 -5.1,0.6 -1.9,0.2 -3.9,0.8 -5.3,1.8 -0.1,0.1 -0.2,0.2 -0.2,0.3 -0.3,0.1 -0.5,0.2 -0.8,0.3 -1,0.4 -2.1,0.7 -3.1,1.2 -0.1,0 -0.2,0.1 -0.3,0.1 -0.3,0.1 -0.4,0.7 -0.2,0.8 0.1,0.1 0.1,0.2 0.2,0.3 0.8,0.6 1.8,0.2 2.6,-0.1 0.7,-0.3 1.5,-0.6 2,-1.2 0.8,-0.3 1.4,-0.7 2.1,-1.1 0.1,0 0.2,-0.1 0.3,-0.1 1.2,-0.2 2.5,-0.7 3.7,-1.3 0.7,-0.1 1.3,-0.3 2,-0.3 0.9,-0.1 1.8,0.2 2.8,-0.1 h 0.1 c 0.2,0.1 0.4,0.1 0.6,0.2 0.8,0.2 1.5,0.4 2.3,0.4 0.1,0 0.2,-0.1 0.2,-0.2 h 0.1 c 0,0 0.2,-0.1 0.1,-0.3 z"
               fill="#543c32"
               stroke-width="none"
               opacity="1" />
            <path
               id="path1297"
               d="m 122.6,82.3 c -3.1,-0.2 -6.2,1.5 -9,2.6 -1.7,0.7 -5.2,0.9 -5.9,3 -0.1,0.3 0.3,0.4 0.5,0.2 0.9,-1.2 2.4,-1.4 3.8,-1.8 1.2,-0.4 2.3,-0.8 3.5,-1.3 2.4,-1 4.8,-1.6 7.3,-2.2 0.1,-0.1 0,-0.4 -0.2,-0.5 z"
               fill="#634e45"
               stroke-width="none"
               opacity="1" />
            <path
               id="path1299"
               d="m 109,89.3 c 0.5,0 1,-0.1 1.4,-0.2 2.4,-0.9 4.7,-2.4 7,-3.5 1.8,-0.8 3.6,-1.2 5.4,-1.2 h 0.7 c 1.6,0.1 3.2,0.5 4.6,1.1 1.5,0.6 2.9,1.6 4.3,2.2 0.1,0 0.2,0 0.2,-0.1 0,0 0.1,0 0.1,0.1 0.2,0.1 0.3,-0.1 0.2,-0.2 -0.7,-0.7 -1.6,-1.4 -2.5,-1.9 -1.7,-1.3 -3.6,-2.4 -5.6,-3.1 -1.1,-0.4 -2.3,-0.5 -3.5,-0.5 -1.6,0 -3.1,0.3 -4.6,0.7 -2.5,0.7 -5,1.8 -7.4,2.8 -0.9,0.4 -3.1,0.9 -2.8,2.3 0.4,1.2 1.5,1.6 2.5,1.5 z m 15.2,-5.9 c 0.5,0.2 1.1,0.3 1.6,0.6 -1.2,-0.2 -2.3,-0.3 -3.5,-0.3 h -1 c -3.5,0.2 -6.8,2.2 -9.8,3.7 -0.6,0.3 -1.1,0.7 -1.7,0.9 -0.2,0.1 -0.5,0.1 -0.8,0.1 -0.5,0 -1,-0.2 -0.8,-0.9 0.2,-0.5 2.2,-1 2.6,-1.2 2,-0.8 4,-1.7 6,-2.4 1.6,-0.5 3.2,-0.9 4.8,-0.9 0.8,0 1.7,0.1 2.6,0.4 z"
               fill="#452c22"
               stroke-width="none"
               opacity="1" />
          </g>
        </g>
      </g>
      <g
         id="g1317"
         transform="matrix(0.51018159,0,0,0.51018159,22.819607,142.59892)">
        <g
           id="g1315">
          <path
             id="path1307"
             d="m 106.48,114.01 c -2.23,0.09 -3.27,2.84 -5.54,3.17 -3.19,0.45 -5.28,-2.02 -7.58,-3.74 -0.08,-0.06 -0.21,0.06 -0.14,0.14 0.3,0.4 0.64,0.79 1,1.17 -0.5,-0.34 -0.87,-0.33 -1.47,-0.37 -0.73,-0.05 -1.25,-0.35 -1.36,-1.18 -0.04,-0.3 0.55,-1.35 0.73,-1.68 0.82,-1.61 2,-2.88 3.07,-4.3 0.08,-0.1 -0.08,-0.26 -0.18,-0.18 -0.16,0.12 -0.32,0.26 -0.48,0.4 0.74,-1.5 1.44,-3.03 2,-4.58 0.04,-0.12 -0.15,-0.2 -0.21,-0.09 -0.92,1.67 -1.68,3.48 -2.4,5.26 -1.31,1.35 -2.44,3.19 -2.97,4.83 -0.73,2.27 1.71,1.96 3.16,2.24 0.18,0.03 0.26,-0.15 0.16,-0.27 1.5,1.58 3.45,2.87 5.61,3.05 2.98,0.24 4.36,-2.2 6.69,-3.54 0.12,-0.11 0.07,-0.34 -0.09,-0.33 z"
             fill="#843e04"
             stroke-width="none"
             opacity="1"
             transform="translate(0,2)"
             stroke="none" />
          <path
             id="path1309"
             d="m 108.82,112.74 c -0.19,-0.99 -1.07,-1.94 -1.67,-2.71 -0.72,-0.93 -1.48,-1.82 -2.41,-2.54 -0.18,-0.14 -0.34,0.14 -0.22,0.29 0.89,1.13 1.9,2.14 2.75,3.3 0.57,0.78 1.55,1.89 0.7,2.98 -0.5,0.64 -1.65,0.74 -2.39,0.93 -0.09,0.02 -0.07,0.15 0.02,0.16 1.44,0.11 3.58,-0.54 3.22,-2.41 z"
             fill="#843e04"
             stroke-width="none"
             opacity="1"
             transform="translate(0,2)"
             stroke="none" />
          <path
             id="path1311"
             d="m 97.07,106.9 c 2.12,-0.61 4.06,-0.55 6.22,-0.38 0.16,0.01 0.17,-0.21 0.04,-0.26 -2.04,-0.74 -4.39,-0.4 -6.34,0.44 -0.13,0.05 -0.04,0.23 0.08,0.2 z"
             fill="#843e04"
             stroke-width="none"
             opacity="1"
             transform="translate(0,2)"
             stroke="none" />
          <path
             id="path1313"
             d="m 103.63,108.35 c -1.09,-1.49 -3.61,-0.05 -2.51,1.47 1.39,1.92 -0.3,3.43 -2.28,3.58 -0.57,0.04 -0.83,0.66 -0.45,1.1 1.34,1.56 3.69,1.13 5.01,-0.29 1.5,-1.61 1.5,-4.12 0.23,-5.86 z"
             fill="#ba7b47"
             stroke-width="none"
             opacity="1"
             transform="translate(0,2)"
             stroke="none" />
        </g>
      </g>
      <g
         id="g1325"
         transform="matrix(0.51018159,0,0,0.51018159,22.819607,142.59892)"
         style="fill:#000707;fill-opacity:1">
        <path
           id="path1319"
           d="m 96.3,39.2 c 0,0 -1.9,-1.7 -6.2,-2.7 -4.3,-1 -14.5,-0.3 -25.3,9.8 -10.8,10.1 -16.2,22.4 -19.3,32 -3.1,9.6 -4.3,32 -4.1,33.7 0.2,1.7 6,9.1 9.6,11.3 0,0 -0.5,-10.8 0.2,-14.8 0,0 1.2,12.6 1.9,16 0,0 8.4,4.4 14.9,5.4 0,0 -3.1,-17.9 -3.8,-33.9 -0.7,-16 1.4,-31.4 5.1,-38.8 0,0 -2.5,14.6 -3.2,22.5 0,0 25.2,4.3 49.4,2.4 0,0 1.4,-9.1 1.4,-13.1 0,0 0.7,7.9 0.7,12.6 0,0 9.1,1 17.3,-0.7 0,0 3.8,30.3 -5.5,48.8 0,0 9.6,-1.5 13.7,-3.7 0,0 1.4,-4.7 1.9,-7.1 0,0 0.2,3.4 -0.5,6.2 0,0 4.8,-2.7 8.1,-5.4 0,0 -0.1,-10.9 -0.5,-15.9 0,0 2.4,7.5 2.2,14.4 0,0 1.9,-2.5 3.6,-4.4 0,0 -1.8,-20.4 -8.5,-40.9 -6.7,-20.5 -21.7,-31.3 -30.6,-34.5 -8.9,-3.2 -18.9,-2.7 -22.5,0.8 z"
           fill="#eee4e0"
           stroke-width="none"
           opacity="1"
           stroke="none"
           style="fill:#000707;fill-opacity:1" />
        <path
           id="path1321"
           d="m 91.2,39.9 c -18.8,0.6 -23.4,23.5 -23.6,38.3 0,0.4 0.6,0.5 0.7,0.1 2.1,-15.3 4.3,-34.8 23,-37.8 0.4,0 0.3,-0.6 -0.1,-0.6 z M 89,41.1 c -12.8,6 -16.7,20.6 -16.1,33.7 0,0.3 0.4,0.3 0.4,0 C 73.5,61.6 76.6,48.1 89.1,41.4 89.4,41.3 89.2,41 89,41.1 Z m 5.4,0.1 c -5.6,8.9 -7.9,20.7 -4.9,30.9 0.1,0.3 0.7,0.3 0.6,-0.1 C 88.9,61.1 90,51.4 94.9,41.5 95.1,41.1 94.6,40.8 94.4,41.2 Z m -1,-1.8 C 78,35.9 65.6,50.2 61.6,63.5 c -2.8,9 -3,18.6 -2.9,28 0.1,10.2 0.2,20.6 2.4,30.6 0.1,0.3 0.6,0.2 0.5,-0.1 -2.4,-16.8 -4,-35.5 -0.8,-52.3 3,-15.9 14.4,-31.9 32.4,-29.7 0.4,0 0.5,-0.5 0.2,-0.6 z m 6,2.6 c -0.1,-0.2 -0.3,0 -0.3,0.2 2.8,5.6 5,11.5 6.2,17.6 1.2,6.3 0.8,12.3 0.7,18.6 0,0.3 0.5,0.4 0.5,0.1 2.8,-12.1 -0.9,-26.1 -7.1,-36.5 z m 3.4,-3.2 c -0.3,0 -0.4,0.4 -0.1,0.4 18.5,4 21,24.6 22.9,39.9 0,0.3 0.5,0.3 0.5,0 0.2,-14.8 -5.7,-37.9 -23.3,-40.3 z M 140,74.5 c -3.2,-16 -15.4,-29.2 -30,-35.8 -0.2,-0.1 -0.3,0.2 -0.2,0.3 13.9,8.5 26.1,19.9 29,36.7 2.7,15.5 2,32.7 -4,47.3 -0.1,0.4 0.4,0.6 0.6,0.3 4.1,-6.8 5.5,-14.7 5.9,-22.6 0.6,-8.6 0.4,-17.8 -1.3,-26.2 z M 80.5,38.7 C 67.7,43 59.2,55.3 54.5,67.4 48.7,82.4 44.8,101 47,117 c 0,0.3 0.5,0.2 0.5,-0.1 -0.9,-27.7 5.2,-64.9 33.1,-78 0.1,-0.1 0.1,-0.3 -0.1,-0.2 z"
           fill="#dfc5bb"
           stroke-width="none"
           opacity="1"
           stroke="none"
           style="fill:#000707;fill-opacity:1" />
        <path
           id="path1323"
           d="m 109.9,51.7 c -2.1,-5.3 -5.1,-10.4 -10.8,-12.1 -0.2,0 -0.3,0.2 -0.1,0.3 13.1,5.6 14.4,25.9 14.2,38 0,0.3 0.4,0.3 0.4,0 0.9,-8.9 -0.4,-18 -3.7,-26.2 z m 22.6,16.6 c -0.1,-0.2 -0.4,-0.1 -0.4,0.2 1,3.9 1.9,7.6 2.6,11.5 0.1,0.3 0.6,0.2 0.6,-0.1 -0.1,-3.9 -1,-8.1 -2.8,-11.6 z M 99,44.8 c -0.1,-0.2 -0.3,-0.1 -0.3,0.1 2.2,9.6 2.8,18.8 3,28.6 0,0.3 0.4,0.3 0.5,0 1,-9.5 -0.5,-19.6 -3.2,-28.7 z M 98.8,51 c 0,-0.2 -0.3,-0.1 -0.3,0 0.8,7.2 1.1,14.3 1.3,21.6 0,0.3 0.5,0.3 0.5,0 0.5,-7.2 -0.2,-14.5 -1.5,-21.6 z m -2.7,-2.9 c 0,-0.2 -0.3,-0.2 -0.3,0 0.8,10.2 0.7,20.5 1,30.7 0,0.3 0.4,0.3 0.5,0 C 97.8,68.5 97,58.3 96.1,48.1 Z m -1.9,6.8 c -0.4,6.3 -0.6,12.6 -0.4,18.9 0,0.3 0.4,0.3 0.5,0 0.3,-6.3 0.3,-12.6 0.3,-18.9 0,-0.3 -0.4,-0.3 -0.4,0 z m -4.8,-9.4 c -5.3,8.7 -6.4,19.2 -6.6,29.1 0,0.4 0.7,0.4 0.7,0 0.9,-10.1 1.3,-19.8 6.4,-28.9 0.1,-0.2 -0.3,-0.5 -0.5,-0.2 z M 84,50.3 c -3.1,6.2 -4.8,13 -4.1,20 0,0.3 0.4,0.3 0.4,0 0.2,-6.9 1.2,-13.3 4.1,-19.7 0.3,-0.4 -0.2,-0.7 -0.4,-0.3 z m -2.1,-0.5 c -3.2,5.7 -5.5,11.8 -6.2,18.3 0,0.3 0.5,0.4 0.5,0.1 1.2,-6.4 2.9,-12.4 6,-18.2 0.2,-0.2 -0.2,-0.5 -0.3,-0.2 z m 26.4,-6.6 c -0.1,-0.1 -0.3,0 -0.2,0.1 4.7,7.3 7.1,15.4 7.7,24 0,0.2 0.3,0.2 0.3,0 -0.1,-8.9 -2.9,-16.9 -7.8,-24.1 z m 15,10.5 c -0.1,-0.1 -0.3,0 -0.2,0.2 4.4,5.7 5.2,12.6 6.4,19.5 0,0.2 0.4,0.2 0.4,-0.1 -0.7,-7 -2,-14.1 -6.6,-19.6 z m -1,-4 c -0.1,-0.1 -0.3,0.1 -0.2,0.2 5.1,5.5 8.3,11.6 10.7,18.6 0.1,0.3 0.5,0.2 0.4,-0.1 -1.7,-7.2 -5.8,-13.5 -10.9,-18.7 z m -0.9,-8.1 c -0.2,-0.1 -0.4,0.2 -0.2,0.4 19.9,13.3 24.9,35.8 27.1,58.2 0,0.3 0.4,0.3 0.4,0 -0.4,-22 -7.5,-46.7 -27.3,-58.6 z m 25.7,29.8 c -0.1,-0.2 -0.3,-0.1 -0.3,0.1 2,8.2 3.1,16.4 3.7,24.8 0,0.3 0.4,0.3 0.4,0 0,-8.5 -1.4,-16.9 -3.8,-24.9 z m 1.2,31.9 c 0,-0.2 -0.3,-0.2 -0.3,0 -0.3,6.2 -0.7,12.4 -1.3,18.6 0,0.2 0.2,0.2 0.3,0 1,-6.1 1.5,-12.4 1.3,-18.6 z M 57.5,70.8 c 0,-0.2 -0.3,-0.3 -0.3,-0.1 -3,13.1 -3.8,26.9 -2.2,40.2 0,0.2 0.4,0.2 0.4,0 -0.7,-13.5 -0.1,-26.7 2.1,-40.1 z"
           fill="#fdfdfd"
           stroke-width="none"
           opacity="1"
           stroke="none"
           style="fill:#000707;fill-opacity:1" />
      </g>
    </g>
  </g>
</svg>
