<?xml version="1.0" encoding="UTF-8" standalone="no"?>
<svg
   width="130.39803"
   height="170.00006"
   viewBox="0 0 34.501143 44.979186"
   version="1.1"
   id="svg8"
   xmlns:xlink="http://www.w3.org/1999/xlink"
   xmlns="http://www.w3.org/2000/svg"
   xmlns:svg="http://www.w3.org/2000/svg"
   xmlns:rdf="http://www.w3.org/1999/02/22-rdf-syntax-ns#"
   xmlns:cc="http://creativecommons.org/ns#"
   xmlns:dc="http://purl.org/dc/elements/1.1/">
  <defs
     id="defs2">
    <linearGradient
       id="SvgjsLinearGradient7860"
       x1="81.072899"
       y1="112.2763"
       x2="81.072899"
       y2="92.4328"
       gradientTransform="matrix(1,0,0,-1,-66.590151,134.61711)"
       gradientUnits="userSpaceOnUse"
       class="svga-on-canvas-glasses-gradient-single-0-null">
      <stop
         id="SvgjsStop7861"
         stop-opacity="1"
         stop-color="#97a1ad"
         offset="0" />
      <stop
         id="SvgjsStop7862"
         stop-opacity="0.6667"
         stop-color="#889ab3"
         offset="0.3333" />
      <stop
         id="SvgjsStop7863"
         stop-opacity="3.130000e-02"
         stop-color="#6287c3"
         offset="0.9687" />
      <stop
         id="SvgjsStop7864"
         stop-opacity="0"
         stop-color="#6086c4"
         offset="1" />
    </linearGradient>
    <linearGradient
       id="SvgjsLinearGradient7866"
       x1="-1736.927"
       y1="112.2763"
       x2="-1736.927"
       y2="92.4328"
       gradientTransform="rotate(180,-842.29508,67.308554)"
       gradientUnits="userSpaceOnUse"
       class="svga-on-canvas-glasses-gradient-single-1-null">
      <stop
         id="SvgjsStop7867"
         stop-opacity="1"
         stop-color="#97a1ad"
         offset="0" />
      <stop
         id="SvgjsStop7868"
         stop-opacity="0.6667"
         stop-color="#889ab3"
         offset="0.3333" />
      <stop
         id="SvgjsStop7869"
         stop-opacity="3.130000e-02"
         stop-color="#6287c3"
         offset="0.9687" />
      <stop
         id="SvgjsStop7870"
         stop-opacity="0"
         stop-color="#6086c4"
         offset="1" />
    </linearGradient>
    <linearGradient
       xlink:href="#SvgjsLinearGradient7860"
       id="linearGradient2361"
       gradientUnits="userSpaceOnUse"
       gradientTransform="matrix(1,0,0,-1,-330.86868,159.5754)"
       x1="81.072899"
       y1="112.2763"
       x2="81.072899"
       y2="92.4328" />
    <linearGradient
       xlink:href="#SvgjsLinearGradient7866"
       id="linearGradient2363"
       gradientUnits="userSpaceOnUse"
       gradientTransform="rotate(180,-974.43431,79.787699)"
       x1="-1736.927"
       y1="112.2763"
       x2="-1736.927"
       y2="92.4328" />
  </defs>
  <metadata
     id="metadata5">
    <rdf:RDF>
      <cc:Work
         rdf:about="">
        <dc:format>image/svg+xml</dc:format>
        <dc:type
           rdf:resource="http://purl.org/dc/dcmitype/StillImage" />
      </cc:Work>
    </rdf:RDF>
  </metadata>
  <g
     id="layer1"
     transform="translate(-109.23198,-543.96775)">
    <g
       id="g1165"
       transform="matrix(0.30674677,0,0,0.30674677,93.111898,526.98273)">
      <g
         id="g1163">
        <path
           style="fill:#008080;fill-rule:evenodd;stroke:#ffffff;stroke-width:4.00093;stroke-linecap:round;stroke-linejoin:round;paint-order:stroke fill markers"
           id="path987"
           d="m -34.608051,235.33475 c 15.866862,-32.95425 -46.835825,12.97096 -16.617594,-7.63483 30.21823,-20.60578 -35.43392,20.99406 1.038729,18.25804 36.47265,-2.73602 -34.651096,-34.07553 -1.696845,-18.20867 32.954251,15.86686 -35.898349,-20.18964 -15.292562,10.02859 20.605788,30.21823 12.184729,-47.0465 14.92075,-10.57385 2.73602,36.47265 -0.46443,-41.1837 -16.331292,-8.22945 -15.866861,32.95425 46.835825,-12.97096 16.617595,7.63482 -30.218231,20.60579 35.433919,-20.99406 -1.03873,-18.25804 -36.47265,2.73602 34.651096,34.07554 1.696845,18.20867 -32.954251,-15.86686 35.898349,20.18965 15.292562,-10.02858 -20.605788,-30.21823 -12.184729,47.04649 -14.920749,10.57384 -2.736021,-36.47265 0.464429,41.18371 16.331291,8.22946 z"
           transform="matrix(0.32601367,0,0,0.33535831,94.8469,54.292542)" />
        <path
           style="fill:#008080;fill-rule:evenodd;stroke:#ffffff;stroke-width:4.00093;stroke-linecap:round;stroke-linejoin:round;paint-order:stroke fill markers"
           id="path989"
           d="m -34.608051,235.33475 c 15.866862,-32.95425 -46.835825,12.97096 -16.617594,-7.63483 30.21823,-20.60578 -35.43392,20.99406 1.038729,18.25804 36.47265,-2.73602 -34.651096,-34.07553 -1.696845,-18.20867 32.954251,15.86686 -35.898349,-20.18964 -15.292562,10.02859 20.605788,30.21823 12.184729,-47.0465 14.92075,-10.57385 2.73602,36.47265 -0.46443,-41.1837 -16.331292,-8.22945 -15.866861,32.95425 46.835825,-12.97096 16.617595,7.63482 -30.218231,20.60579 35.433919,-20.99406 -1.03873,-18.25804 -36.47265,2.73602 34.651096,34.07554 1.696845,18.20867 -32.954251,-15.86686 35.898349,20.18965 15.292562,-10.02858 -20.605788,-30.21823 -12.184729,47.04649 -14.920749,10.57384 -2.736021,-36.47265 0.464429,41.18371 16.331291,8.22946 z"
           transform="matrix(0.32601367,0,0,0.33535831,156.51215,54.292542)" />
        <path
           id="path991"
           d="m 163.2799,200.89333 -1.34937,-17.06563 c 0,0 0.55562,-7.14375 -6.985,-12.14437 -7.54063,-5.00063 -18.57375,-8.01688 -23.41563,-11.27125 -4.84187,-3.25437 -7.3025,-3.57188 -7.14375,-13.41438 0.15876,-9.8425 0.71438,-31.98812 0.71438,-31.98812 h -32.385 c 0,0 0.555625,22.14562 0.714375,31.98812 0.15875,9.8425 -2.301875,10.16001 -7.14375,13.41438 -4.841875,3.25437 -15.875,6.27062 -23.415625,11.27125 -7.540625,5.00062 -6.985,12.14437 -6.985,12.14437 l -1.27,17.06563 z"
           fill="#b2713b"
           stroke-width="0.79375"
           opacity="1"
           stroke="none" />
        <path
           id="path993"
           d="m 93.279093,151.26808 c 7.945437,3.73856 13.382627,4.30212 15.628937,4.30212 2.24631,0 7.6835,-0.5715 15.62894,-4.30212 -0.127,-1.19063 -0.17463,-2.58763 -0.15082,-4.27038 0.15876,-9.8425 0.71438,-31.98812 0.71438,-31.98812 h -32.385 c 0,0 0.555625,22.14562 0.714375,31.98812 0.02381,1.68275 -0.02381,3.07975 -0.150812,4.27038 z"
           fill="#934d13"
           stroke-width="0.79375"
           opacity="0.65" />
        <path
           id="path995"
           d="m 88.11178,166.28583 c 4.048125,2.30188 9.36625,4.1275 13.97,4.52437 0.3175,0 0.3175,-0.47625 0.0794,-0.55562 -2.222495,-0.87312 -4.68312,-1.34937 -6.984995,-2.06375 -2.301875,-0.71438 -4.60375,-1.5875 -6.985,-2.14313 -0.07937,-0.0794 -0.238125,0.15875 -0.07937,0.23813 z m 27.94,4.92125 c 4.20687,-0.47625 8.96937,-2.38125 12.62062,-4.60375 0.23813,-0.15875 0.0794,-0.47625 -0.15875,-0.39688 -2.06374,0.71438 -4.1275,1.5875 -6.19125,2.30188 -2.06374,0.71437 -4.28625,1.19062 -6.35,1.98437 -0.39687,0.0794 -0.39687,0.71438 0.0794,0.71438 z"
           fill="#934d13"
           stroke-width="0.79375"
           opacity="1"
           stroke="none" />
        <path
           id="path997"
           d="m 163.20053,200.81396 -1.66688,-16.98626 c 0,-1.74625 -0.39687,-3.57187 -1.19062,-5.23875 -0.71438,-1.66687 -1.82563,-3.09562 -3.09562,-4.36562 -1.27001,-1.27 -2.77813,-2.2225 -4.36563,-3.175 -1.5875,-0.9525 -3.25438,-1.74625 -4.92125,-2.46062 -3.33375,-1.50813 -6.82625,-2.85751 -10.23938,-4.28626 -1.74625,-0.71437 -3.41312,-1.50812 -5.08,-2.38125 -0.87312,-0.47624 -1.66687,-0.95249 -2.38125,-1.50812 -0.79374,-0.47625 -1.5875,-0.9525 -2.38125,-1.50813 -0.79375,-0.55562 -1.5875,-1.19062 -2.2225,-2.06375 -0.635,-0.79375 -1.03187,-1.74625 -1.34937,-2.69875 -0.55563,-1.905 -0.635,-3.81 -0.635,-5.715 0,-3.73062 0.15875,-7.46125 0.23812,-11.19187 0.15875,-7.46125 0.47625,-14.84312 0.71438,-22.225 l 0.47625,0.47625 -16.1925,-0.15875 -16.1925,-0.0794 0.238125,-0.23812 0.555625,22.225 c 0.07937,3.73062 0.238125,7.38188 0.3175,11.1125 0,1.905 -0.07937,3.73062 -0.635,5.63562 -0.238125,0.9525 -0.714375,1.82563 -1.27,2.61938 -0.635,0.79375 -1.349375,1.42875 -2.143125,1.98437 -0.79375,0.55563 -1.5875,1.03188 -2.301875,1.5875 -0.714375,0.47626 -1.508125,1.03188 -2.38125,1.50813 -1.666875,0.9525 -3.33375,1.66687 -5.08,2.46062 -3.413125,1.50813 -6.82625,2.8575 -10.16,4.44501 -1.666875,0.79375 -3.33375,1.66687 -4.841875,2.53999 -1.5875,0.9525 -3.01625,1.90501 -4.28625,3.175 -1.27,1.27 -2.301875,2.69876 -3.01625,4.28625 -0.3175,0.79375 -0.635,1.66688 -0.79375,2.46063 -0.15875,0.87312 -0.3175,1.74625 -0.238125,2.54 v 0.15875 l -1.190625,17.06562 -0.79375,-0.87312 26.9875,0.0794 c 8.969375,0 18.018125,0.0794 27.066875,0.15875 l 27.14625,0.23813 z m 0.15875,0.15874 -26.9875,0.31751 -27.14625,0.23812 c -9.04875,0.0794 -18.176875,0.15875 -27.305,0.15875 l -27.305,0.0794 h -0.873125 l 0.07937,-0.87312 1.349375,-17.06563 v 0.0794 c -0.07937,-4.04813 1.74625,-7.77875 4.524375,-10.55688 1.349375,-1.34937 3.01625,-2.46062 4.60375,-3.41312 1.5875,-0.9525 3.33375,-1.74625 5.000625,-2.54 3.413125,-1.5875 6.905625,-2.93688 10.31875,-4.28625 1.666875,-0.71438 3.413125,-1.42875 5.000625,-2.30188 0.79375,-0.39687 1.508125,-0.87312 2.38125,-1.42875 0.79375,-0.47625 1.5875,-0.9525 2.301875,-1.50812 0.714375,-0.47625 1.42875,-1.11125 1.905,-1.74625 0.555625,-0.71438 0.9525,-1.50813 1.190625,-2.30188 0.47625,-1.66687 0.635,-3.57187 0.635,-5.3975 0,-3.65125 -0.07937,-7.38187 -0.15875,-11.1125 l -0.47625,-22.225 v -0.23812 h 0.238125 l 16.19249,-0.0794 16.1925,-0.15875 h 0.47626 v 0.47625 c -0.0794,7.38188 -0.15876,14.84313 -0.31751,22.225 -0.0794,3.73063 -0.15875,7.46125 -0.15875,11.1125 0.0794,1.82563 0.15875,3.65125 0.635,5.31813 0.23813,0.87312 0.635,1.5875 1.11125,2.30187 0.47625,0.635 1.11125,1.27 1.905,1.74625 0.71438,0.47625 1.50813,1.03188 2.30188,1.50813 0.79375,0.55562 1.50812,1.03187 2.30188,1.42875 1.5875,0.87312 3.25437,1.66687 5.00062,2.38125 3.41313,1.42875 6.82625,2.8575 10.23938,4.445 1.66687,0.79375 3.33374,1.66687 4.92124,2.61937 1.58752,0.9525 3.17501,2.06375 4.52439,3.41313 2.69874,2.69875 4.44499,6.42937 4.28624,10.31875 v -0.0794 z m -89.535,-0.3175 1.508125,-10.95375 0.07937,10.95375 z m 70.32625,0 -1.50813,-10.95375 -0.0794,10.95375 z"
           fill="#843e04"
           stroke-width="0.79375"
           opacity="1"
           stroke="none" />
        <path
           id="path999"
           d="m 143.19803,201.29021 0.0794,-2.85751 21.2725,-2.06374 c 0,0 -0.9525,-13.09688 -1.50812,-15.875 -0.55563,-2.77813 -1.82563,-6.82626 -9.60438,-11.1125 -7.77875,-4.28625 -21.98687,-9.84251 -21.98687,-9.84251 -25.0825,24.20938 -44.45,-0.0794 -45.005625,0 0,0 -14.208125,5.55626 -21.986875,9.84251 -7.77875,4.28624 -9.04875,8.33437 -9.604375,11.1125 -0.555625,2.77812 -1.508125,15.875 -1.508125,15.875 l 21.2725,2.06374 v 2.85751 z"
           fill="#82cbe2"
           stroke-width="0.79375"
           opacity="1"
           stroke="none"
           style="fill:#008080;stroke:#ffffff" />
        <path
           id="path1001"
           d="m 165.02615,196.36896 c -0.3175,-4.60376 -0.55562,-9.20751 -1.03187,-13.81126 -0.23813,-2.30187 -0.71438,-4.7625 -2.06375,-6.82625 -1.27,-2.06375 -3.09563,-3.65125 -5.08,-5.00062 -1.905,-1.34937 -4.04813,-2.46063 -6.11188,-3.4925 -2.06375,-1.03188 -4.20687,-1.98438 -6.27062,-2.93688 -4.20688,-1.905 -8.49313,-3.57187 -12.85875,-5.23875 -0.15875,-0.0794 -0.39688,0 -0.55563,0.0794 -3.01625,3.01625 -6.35,5.63562 -10.08062,7.62 -3.73063,1.98437 -7.85813,3.175 -12.065,3.25437 -2.14313,0 -4.20688,-0.23812 -6.27063,-0.71437 -2.06375,-0.55563 -4.04812,-1.34938 -5.873745,-2.30188 -1.825625,-0.9525 -3.65125,-2.14312 -5.318125,-3.41312 -0.873125,-0.635 -1.666875,-1.34938 -2.460625,-2.06375 -0.396875,-0.3175 -0.79375,-0.71438 -1.11125,-1.11125 l -0.555625,-0.55563 -0.3175,-0.3175 -0.15875,-0.15875 -0.07937,-0.0794 -0.07937,-0.0794 c 0,0 -0.15875,-0.0794 -0.238125,-0.0794 h -0.07937 c -4.28625,1.66687 -8.5725,3.33375 -12.85875,5.15937 -2.143125,0.87313 -4.206875,1.82563 -6.35,2.8575 -2.06375,1.03188 -4.1275,2.06375 -6.111875,3.41313 -1.905,1.34937 -3.81,2.93688 -5.08,5.00062 -1.349375,2.06375 -1.905,4.52438 -2.143125,6.82625 -0.555625,4.60375 -0.873125,9.2075 -1.27,13.81126 0,0.39687 0.3175,0.79375 0.714375,0.87312 l 10.63625,1.03187 9.921875,0.9525 v 2.14313 c 0,0.47625 0.396875,0.79375 0.79375,0.79375 5.794375,0 11.509375,0 17.30375,-0.0794 l 17.224385,-0.15875 34.13124,-0.47624 0.15874,-2.77813 10.4775,-0.79375 10.63625,-0.87312 c 0.3175,0 0.47625,-0.23813 0.47625,-0.47625 z m -11.19187,0.635 -10.63625,1.26999 c -0.0794,0 -0.15875,0.0794 -0.15875,0.15875 l 0.0794,2.85751 -34.44875,-0.47625 -17.06562,-0.15875 c -5.3975,-0.0794 -10.795,-0.0794 -16.1925,-0.0794 v -2.06375 c 0,-0.39688 -0.3175,-0.79375 -0.714375,-0.79375 l -10.63625,-1.19063 -9.921875,-0.87312 c 0.3175,-4.28625 0.635,-8.65188 1.031875,-12.93813 0.238125,-2.30187 0.714375,-4.445 1.825625,-6.27062 1.190625,-1.82563 2.8575,-3.33375 4.683125,-4.68313 1.825625,-1.27 3.81,-2.38125 5.87375,-3.41312 2.06375,-1.03188 4.1275,-2.06375 6.19125,-3.01625 4.1275,-1.905 8.334375,-3.65125 12.54125,-5.3975 l 0.15875,0.0794 0.3175,0.23813 0.555625,0.55562 c 0.396875,0.39688 0.79375,0.71438 1.190625,1.11125 0.79375,0.71438 1.666875,1.42875 2.460625,2.06375 1.74625,1.27 3.4925,2.46063 5.3975,3.4925 3.81,1.98438 8.09625,3.09563 12.3825,3.09563 4.28625,0 8.5725,-1.19063 12.46187,-3.09563 3.73063,-1.905 7.14375,-4.445 10.16,-7.3025 4.1275,1.66688 8.255,3.4925 12.3825,5.31813 2.06375,0.9525 4.20688,1.905 6.19125,2.93687 2.06375,1.03188 4.04813,2.06375 5.87375,3.33375 1.82563,1.27 3.57188,2.77813 4.7625,4.60375 1.19063,1.82563 1.74625,3.96875 1.905,6.27063 0.23813,2.30187 0.47625,4.60375 0.71438,6.82625 l 0.55562,6.42937 z m -79.771875,-5.79438 -0.238125,-0.87313 -0.3175,-0.79375 c -0.714375,-2.2225 -1.825625,-4.28624 -3.01625,-6.27062 -1.27,-1.98437 -2.69875,-3.81 -4.365625,-5.3975 -1.666875,-1.5875 -3.4925,-3.09563 -5.55625,-4.04813 0.9525,0.635 1.825625,1.34938 2.69875,2.06375 0.873125,0.71438 1.666875,1.50813 2.460625,2.38125 1.508125,1.66688 2.936875,3.4925 4.1275,5.3975 0.3175,0.47625 0.555625,0.9525 0.873125,1.42876 0.3175,0.47624 0.555625,0.95249 0.79375,1.50812 0.238125,0.47625 0.555625,1.03188 0.79375,1.50813 0.238125,0.55562 0.47625,1.03187 0.714375,1.58749 l 0.3175,0.79375 0.3175,0.79376 0.555625,1.5875 c 0.396875,1.11124 0.635,2.2225 1.031875,3.25437 -0.238125,-1.11125 -0.396875,-2.30188 -0.714375,-3.41312 z m 73.739375,-7.85813 c -1.19063,1.98438 -2.30188,4.04813 -3.01625,6.27063 l -0.3175,0.79375 -0.23813,0.87312 -0.47625,1.66688 c -0.23812,1.11125 -0.47625,2.2225 -0.71437,3.41313 0.39687,-1.11126 0.635,-2.22251 1.03187,-3.25438 l 0.55563,-1.5875 0.3175,-0.79375 0.3175,-0.79375 c 0.23812,-0.47625 0.47625,-1.03187 0.71437,-1.5875 0.23813,-0.47625 0.47625,-1.03188 0.79375,-1.50813 0.23813,-0.47625 0.47625,-1.03187 0.79375,-1.50812 0.3175,-0.47625 0.55563,-0.9525 0.87313,-1.42875 1.19062,-1.905 2.61937,-3.73063 4.1275,-5.3975 0.71437,-0.87313 1.5875,-1.66688 2.46062,-2.38125 0.87313,-0.79375 1.74625,-1.50813 2.69875,-2.06375 -2.06375,1.03187 -3.88937,2.46062 -5.55625,4.04812 -1.66687,1.42875 -3.09562,3.33375 -4.36562,5.23875 z"
           fill="#49a6c3"
           stroke-width="0.79375"
           opacity="1"
           stroke="none" />
        <g
           id="g1011"
           transform="matrix(0.79375,0,0,0.79375,29.53303,26.665205)">
          <g
             id="g1009">
            <path
               id="path1003"
               d="m 64,93.7 c 0,0 -2.3,-2.2 -5,-3.3 -2.7,-1.1 -5.7,0.7 -6.6,3.4 -0.9,2.7 1.2,14 4.7,18.1 3.5,4.1 5.8,4.4 8.1,2.3 2.3,-2 6.4,-9.9 -1.2,-20.5 z"
               fill="#b2713b"
               stroke-width="none"
               opacity="1"
               stroke="none" />
            <path
               id="path1005"
               d="m 65.2,95.3 c 0.4,0.6 0.7,1.2 1.1,1.8 0.4,0.6 0.7,1.3 1,1.9 0.3,0.7 0.6,1.3 0.8,2 0.2,0.7 0.5,1.4 0.6,2.2 0.1,0.4 0.1,0.8 0.2,1.1 l 0.1,1.2 c 0,1.6 -0.2,3.1 -0.6,4.6 -0.5,1.5 -1.1,2.8 -2.1,3.9 -0.2,0.3 -0.5,0.5 -0.7,0.8 -0.3,0.2 -0.5,0.4 -0.8,0.6 -0.6,0.4 -1.2,0.7 -1.9,0.7 -0.7,0.1 -1.4,0 -2,-0.3 -0.6,-0.3 -1.2,-0.7 -1.7,-1.1 -0.5,-0.4 -1,-0.9 -1.5,-1.5 -0.5,-0.5 -0.9,-1.1 -1.3,-1.7 -1.5,-2.5 -2.4,-5.3 -3.2,-8.1 -0.4,-1.4 -0.7,-2.8 -1,-4.3 -0.3,-1.5 -0.5,-2.9 -0.4,-4.5 0,-0.4 0.1,-0.8 0.2,-1.3 0.1,-0.2 0.1,-0.4 0.2,-0.6 l 0.3,-0.5 c 0.4,-0.7 0.9,-1.2 1.4,-1.7 1.1,-0.9 2.4,-1.3 3.7,-1.1 0.6,0.1 1.3,0.3 1.8,0.6 0.6,0.3 1.1,0.6 1.7,1 1.1,0.7 2.1,1.5 3.1,2.4 z M 60.8,91.5 C 60.2,91.2 59.7,91 59.1,90.8 58.5,90.6 58,90.5 57.4,90.5 c -1.1,0.1 -2.2,0.5 -3.1,1.3 -0.4,0.4 -0.8,0.8 -1.1,1.4 -0.1,0.3 -0.3,0.5 -0.4,0.8 -0.1,0.3 -0.2,0.5 -0.2,0.9 -0.2,1.3 -0.1,2.8 0.1,4.2 0.2,1.4 0.4,2.9 0.7,4.3 0.7,2.8 1.7,5.6 3.3,7.7 0.8,1 1.8,1.9 2.7,2.7 1,0.7 2.1,1.2 3.1,1 0.5,-0.1 1,-0.3 1.5,-0.6 0.5,-0.3 0.9,-0.7 1.3,-1.2 0.7,-1 1.4,-2.1 1.7,-3.4 0.4,-1.3 0.6,-2.6 0.7,-4 0,-1.4 -0.1,-2.8 -0.4,-4.2 -0.6,-2.8 -1.8,-5.4 -3.4,-7.6 -0.9,-1 -2,-1.7 -3.1,-2.3 z"
               fill="#a35e26"
               stroke-width="none"
               opacity="1"
               stroke="none" />
            <path
               id="path1007"
               d="m 55.9,93.3 c 3,0.5 5,5.7 5.6,9.2 0.1,0.1 0.1,0.2 0.2,0.3 0.3,0.5 -0.4,1.1 -0.7,0.6 -0.4,-0.7 -1,-1.5 -1.7,-1.8 -1.3,-0.5 -2,1 -1.7,2.5 0.4,1.7 1.5,2.8 2.5,4.1 0.1,0.1 0,0.3 -0.1,0.2 -1.6,-1 -4,-4.5 -2.9,-6.7 0.8,-1.6 2.1,-1.3 3.2,-0.4 -0.7,-2 -1.3,-4 -2.8,-5.5 -0.5,-0.5 -1.4,-1.3 -2.1,-1.2 -1.2,0.2 -1.2,2 -1.3,3.1 -0.1,1.5 0.1,3.1 0.3,4.7 0,0.2 -0.2,0.2 -0.2,0.1 -0.6,-2.4 -1.8,-9.8 1.7,-9.2 z"
               fill="#934d13"
               stroke-width="none"
               opacity="1"
               stroke="none" />
          </g>
        </g>
        <g
           id="g1021"
           transform="matrix(0.79375,0,0,0.79375,29.53303,26.665205)">
          <g
             id="g1019">
            <path
               id="path1013"
               d="m 136,93.7 c 0,0 2.3,-2.2 5,-3.3 2.7,-1.1 5.7,0.7 6.6,3.4 0.9,2.7 -1.2,14 -4.7,18.1 -3.5,4.1 -5.8,4.4 -8.1,2.3 -2.3,-2 -6.4,-9.9 1.2,-20.5 z"
               fill="#b2713b"
               stroke-width="none"
               opacity="1"
               stroke="none" />
            <path
               id="path1015"
               d="m 136,93.6 c 1,-0.9 2,-1.7 3.1,-2.4 0.5,-0.4 1.1,-0.7 1.7,-1 0.6,-0.3 1.2,-0.5 1.8,-0.6 1.3,-0.1 2.6,0.2 3.7,1.1 0.5,0.4 1,1 1.4,1.7 l 0.3,0.5 c 0.1,0.2 0.1,0.4 0.2,0.6 0.1,0.4 0.2,0.9 0.2,1.3 0.1,1.6 -0.2,3.1 -0.4,4.5 -0.3,1.5 -0.6,2.9 -1,4.3 -0.8,2.8 -1.7,5.6 -3.2,8.1 -0.4,0.6 -0.8,1.1 -1.3,1.7 -0.4,0.5 -0.9,1 -1.5,1.5 -0.5,0.4 -1.1,0.8 -1.7,1.1 -0.6,0.3 -1.3,0.4 -2,0.3 -0.7,-0.1 -1.3,-0.4 -1.9,-0.7 -0.3,-0.2 -0.6,-0.4 -0.8,-0.6 -0.3,-0.2 -0.5,-0.5 -0.7,-0.8 -0.9,-1.1 -1.6,-2.5 -2.1,-3.9 -0.4,-1.5 -0.7,-3 -0.6,-4.6 l 0.1,-1.2 c 0,-0.4 0.1,-0.8 0.2,-1.1 0.1,-0.8 0.4,-1.5 0.6,-2.2 0.3,-0.7 0.5,-1.4 0.8,-2 0.3,-0.6 0.6,-1.3 1,-1.9 0.4,-0.6 0.7,-1.2 1.1,-1.8 z m 0,0.1 c -1.6,2.2 -2.8,4.9 -3.4,7.6 -0.3,1.4 -0.4,2.8 -0.4,4.2 0,1.4 0.2,2.7 0.7,4 0.4,1.3 1,2.4 1.7,3.4 0.4,0.5 0.8,0.9 1.3,1.2 0.5,0.3 0.9,0.6 1.5,0.6 1,0.2 2.1,-0.3 3.1,-1 1,-0.8 1.9,-1.7 2.7,-2.7 1.6,-2.1 2.6,-4.9 3.3,-7.7 0.4,-1.4 0.6,-2.8 0.7,-4.3 0.2,-1.4 0.2,-2.9 0.1,-4.2 0,-0.3 -0.1,-0.6 -0.2,-0.9 -0.1,-0.3 -0.2,-0.6 -0.4,-0.8 -0.3,-0.5 -0.7,-1 -1.1,-1.4 -0.9,-0.7 -1.9,-1.2 -3.1,-1.3 -0.6,0 -1.1,0.1 -1.7,0.3 -0.6,0.2 -1.1,0.4 -1.7,0.7 -1,0.7 -2.1,1.4 -3.1,2.3 z"
               fill="#a35e26"
               stroke-width="none"
               opacity="1"
               stroke="none" />
            <path
               id="path1017"
               d="m 144.1,93.3 c -3,0.5 -5,5.7 -5.6,9.2 -0.1,0.1 -0.1,0.2 -0.2,0.3 -0.3,0.5 0.4,1.1 0.7,0.6 0.4,-0.7 1,-1.5 1.7,-1.8 1.3,-0.5 2,1 1.7,2.5 -0.4,1.7 -1.5,2.8 -2.5,4.1 -0.1,0.1 0,0.3 0.1,0.2 1.6,-1 4,-4.5 2.9,-6.7 -0.8,-1.6 -2.1,-1.3 -3.2,-0.4 0.7,-2 1.3,-4 2.8,-5.5 0.5,-0.5 1.4,-1.3 2.1,-1.2 1.2,0.2 1.2,2 1.3,3.1 0.1,1.5 -0.1,3.1 -0.3,4.7 0,0.2 0.2,0.2 0.2,0.1 0.6,-2.4 1.8,-9.8 -1.7,-9.2 z"
               fill="#934d13"
               stroke-width="none"
               opacity="1"
               stroke="none" />
          </g>
        </g>
        <g
           id="g1029"
           transform="matrix(0.79375,0,0,0.79375,29.53303,26.665205)">
          <g
             id="g1027">
            <path
               id="path1023"
               d="m 100.01,40.83 c -21.4,0 -39.8,15.6 -41,44.1 0,0 0.1,15.8 2.5,28.3 2.3,12.6 3.5,24.2 15.4,30.5 11.9,6.4 20,7.2 23.2,7.2 3.1,0 11.2,-0.9 23.2,-7.2 12,-6.3 13.1,-18 15.4,-30.5 2.3,-12.6 2.5,-28.3 2.5,-28.3 -1.4,-28.4 -19.8,-44.1 -41.2,-44.1 z"
               fill="#b2713b"
               stroke-width="none"
               opacity="1" />
            <path
               id="path1025"
               d="m 100,41.3 c -21.4,0 -39.8,15.6 -41,44.1 0,0 0.1,15.8 2.5,28.3 2.4,12.5 3.5,24.2 15.4,30.5 11.9,6.4 20,7.2 23.2,7.2 3.1,0 11.2,-0.9 23.2,-7.2 11.9,-6.4 13.1,-18 15.4,-30.5 2.3,-12.6 2.5,-28.3 2.5,-28.3 C 139.8,57 121.4,41.3 100,41.3 Z m 35.5,26.9 0.7,2.2 c 0.1,0.4 0.6,2.2 0.6,2.2 0.1,0.4 0.9,4.5 0.9,4.5 0.1,0.4 0.3,2.4 0.3,2.4 0,0.4 0.1,0.8 0.1,1.2 l 0.2,2.4 0.2,2.7 v 0.6 c -0.1,3.2 -0.3,6.4 -0.5,9.6 -0.2,3.2 -0.5,6.4 -0.9,9.6 -0.2,1.6 -0.4,3.2 -0.6,4.7 -0.1,0.8 -0.2,1.6 -0.4,2.3 -0.1,0.8 -0.3,1.6 -0.4,2.4 -0.5,3.2 -1,6.4 -1.7,9.4 -0.7,3.1 -1.6,6 -2.9,8.7 -1.3,2.7 -3.1,5 -5.4,6.9 -1.1,0.9 -6.21,4.62 -11.3,6.42 -1.5,0.6 -3.8,1.38 -5.3,1.78 -1.5,0.5 -3,0.9 -4.5,1.2 -1.5,0.3 -3.1,0.6 -4.6,0.6 -1.5,0 -3.1,-0.1 -4.6,-0.3 -1.6,-0.2 -3.1,-0.5 -4.7,-0.9 -3.1,-0.8 -6.1,-1.9 -9.1,-3.2 -0.7,-0.3 -1.5,-0.7 -2.2,-1 -0.7,-0.4 -1.4,-0.7 -2.2,-1.1 -1.4,-0.7 -2.7,-1.6 -4,-2.6 -2.5,-2 -4.4,-4.5 -5.8,-7.3 -1.4,-2.8 -2.3,-5.9 -2.9,-9 -0.6,-3.1 -1.1,-6.3 -1.5,-9.6 -0.2,-1.6 -0.5,-3.2 -0.6,-4.8 -0.2,-1.6 -0.3,-3.2 -0.5,-4.8 -0.2,-3.2 -0.4,-6.4 -0.5,-9.6 0,-0.8 -0.1,-1.6 -0.1,-2.4 L 61.2,91 c 0,-1.6 -0.1,-3.2 -0.1,-4.8 l 0.1,-2.2 0.1,-1.1 0.1,-1.2 c 0,0 0.2,-2 0.3,-2.4 0,0 0.3,-2 0.4,-2.4 1.1,-6.1 3,-12.2 6.2,-17.5 1.6,-2.7 3.5,-5.2 5.7,-7.4 2.2,-2.2 4.8,-4.2 7.5,-5.8 1.4,-0.8 2.8,-1.5 4.3,-2.1 1.5,-0.6 3,-1.1 4.6,-1.5 l 1.8,-0.4 0.6,-0.1 1.2,-0.2 c 3.5,-0.51 9.2,-0.4 10.8,-0.2 0.4,0.1 0.8,0.1 1.2,0.2 l 1.2,0.2 0.6,0.1 1.8,0.4 c 1.5,0.4 3.1,0.9 4.6,1.5 1.5,0.6 2.9,1.3 4.3,2.1 2.8,1.6 5.3,3.6 7.5,5.8 2.2,2.2 4.1,4.8 5.7,7.4 1.6,2.9 2.8,5.8 3.8,8.8 z"
               fill="#843e04"
               stroke-width="none"
               opacity="1" />
          </g>
        </g>
        <g
           id="g1045"
           transform="matrix(0.79375,0,0,0.79375,29.53303,26.665205)">
          <g
             id="g1043">
            <path
               id="path1031"
               d="m 87.37,125.93 c 0,0 1.12,4.65 4.76,7.15 3.64,2.5 9.31,2.85 13.38,1.21 4.07,-1.64 6.77,-5.97 7.12,-7.11 0,0 -20.18,-0.45 -20.32,-0.49 -0.14,-0.04 -4.94,-0.76 -4.94,-0.76 z"
               fill="#d4422b"
               stroke-width="none"
               opacity="1"
               transform="translate(0,3)"
               stroke="none" />
            <path
               id="path1033"
               d="m 86.29,125.34 c 0,0 2.21,2.8 6.33,3.78 2.69,0.64 5.63,-0.21 6.96,-0.36 1.33,-0.15 1.97,0.36 4.15,0.64 2.18,0.28 6.33,0.14 10.06,-2.78 0,0 -2.04,0.5 -3.38,-0.43 -1.34,-0.93 -2.88,-3.21 -7.66,-3.92 -4.78,-0.71 -8.23,-0.14 -11.25,1.36 -3.03,1.5 -3.73,1.92 -5.21,1.71 z"
               fill="#cc371f"
               stroke-width="none"
               opacity="1"
               transform="translate(0,3)"
               stroke="none" />
            <path
               id="path1035"
               d="m 86.08,125.64 c 1.36,1.69 3.21,2.75 5.27,3.39 2.54,0.78 4.71,0.27 7.28,0.04 2.94,-0.27 5.68,1.1 8.66,0.68 2.34,-0.33 4.57,-1.41 6.54,-2.68 0.56,-0.37 -0.01,-1.28 -0.52,-0.89 -2.09,1.6 -4.46,2.74 -7.15,2.68 -2.3,-0.06 -4.4,-1.1 -6.74,-0.84 -2.02,0.22 -3.9,0.97 -5.96,0.78 -2.8,-0.26 -4.91,-1.76 -6.77,-3.75 -0.39,-0.42 -0.95,0.17 -0.61,0.59 z"
               fill="#c52c14"
               stroke-width="none"
               opacity="1"
               transform="translate(0,3)"
               stroke="none" />
            <path
               id="path1037"
               d="m 89.91,126.96 c 2.22,2.07 5.07,1.03 7.71,0.53 3.67,-0.69 7.27,1.65 10.87,0.51 0.21,-0.07 0.19,-0.42 -0.05,-0.4 -3.01,0.24 -5.45,-1.84 -8.45,-1.66 -3.45,0.22 -6.63,3.22 -10.02,0.94 -0.05,-0.03 -0.1,0.04 -0.06,0.08 z"
               fill="#dc4e38"
               stroke-width="none"
               opacity="1"
               transform="translate(0,3)"
               stroke="none" />
            <path
               id="path1039"
               d="m 108.59,130.42 c -0.95,0.98 -1.89,1.9 -3.13,2.5 -1.38,0.67 -2.74,0.71 -4.23,0.85 -0.35,0.03 -0.46,0.54 -0.09,0.64 2.84,0.76 6.56,-1.1 7.87,-3.67 0.13,-0.26 -0.2,-0.55 -0.42,-0.32 z"
               fill="#dc4e38"
               stroke-width="none"
               opacity="1"
               transform="translate(0,3)"
               stroke="none" />
            <path
               id="path1041"
               d="m 87.47,125.61 c 2.67,0.29 4.92,-2.02 7.47,-2.57 3.41,-0.73 6.76,-0.31 10.12,0.42 0.28,0.06 0.37,-0.31 0.12,-0.42 -2.62,-1.11 -5.96,-1.09 -8.73,-0.75 -1.23,0.15 -2.47,0.4 -3.62,0.87 -1.88,0.77 -3.26,2 -5.36,2.25 -0.12,0.02 -0.12,0.19 0,0.2 z"
               fill="#e35a45"
               stroke-width="none"
               opacity="1"
               transform="translate(0,3)"
               stroke="none" />
          </g>
        </g>
        <g
           id="g1075"
           transform="matrix(0.79375,0,0,0.79375,29.53303,26.665205)">
          <g
             id="g1073">
            <g
               id="g1049">
              <path
                 id="path1047"
                 d="m 92.3,99.5 c 0,0 -1.4,-2.7 -3.1,-3.9 -1.7,-1.3 -4.6,-3.1 -9.3,-2.1 -4.7,0.9 -8,4.7 -8,4.7 0,0 5.9,2.2 11.3,2.2 5.3,-0.1 9.1,-0.9 9.1,-0.9 z"
                 fill="#ffffff"
                 stroke-width="none"
                 opacity="1" />
            </g>
            <g
               id="g1061">
              <g
                 id="g1059">
                <g
                   id="g1057">
                  <path
                     id="path1051"
                     d="m 82,91.5 c 2.7,0 4.9,2.2 4.9,4.9 0,2.7 -2.2,4.9 -4.9,4.9 -2.7,0 -4.9,-2.2 -4.9,-4.9 0,-2.7 2.2,-4.9 4.9,-4.9 z"
                     fill="#681711"
                     stroke-width="none"
                     opacity="1" />
                  <path
                     id="path1053"
                     d="m 82,93.8 c 1.4,0 2.6,1.2 2.6,2.6 0,1.4 -1.2,2.6 -2.6,2.6 -1.4,0 -2.6,-1.2 -2.6,-2.6 0,-1.4 1.2,-2.6 2.6,-2.6 z"
                     fill="#000000"
                     stroke-width="none"
                     opacity="1" />
                  <path
                     id="path1055"
                     d="m 81.3,94.3 -0.5,-0.5 c -0.2,-0.2 -0.4,-0.3 -0.7,-0.3 -0.3,0 -0.5,0.1 -0.7,0.3 -0.2,0.2 -0.3,0.4 -0.3,0.7 0,0.3 0.1,0.5 0.3,0.7 l 0.5,0.5 c 0.2,0.2 0.4,0.3 0.7,0.3 0.2,0 0.5,-0.1 0.7,-0.3 0.4,-0.5 0.4,-1 0,-1.4 z m 2.5,4.4 c 0.8,0 0.8,-1.3 0,-1.3 -0.8,0 -0.9,1.3 0,1.3 z"
                     fill="#ffffff"
                     stroke-width="none"
                     opacity="1" />
                </g>
              </g>
            </g>
            <g
               id="g1071">
              <path
                 id="path1063"
                 d="m 70.73,98.03 c 0,6.9 4.93,12.5 11.02,12.5 6.09,0 11.02,-5.6 11.02,-12.5 0,-6.9 -4.93,-12.5 -11.02,-12.5 -6.09,0 -11.02,5.59 -11.02,12.5 z m 1.2,0.17 c 0,0 3.31,-3.76 8,-4.69 4.69,-0.93 7.55,0.87 9.25,2.12 1.7,1.25 3.12,3.92 3.12,3.92 0,0 -3.76,0.77 -9.09,0.84 -5.34,0.06 -11.28,-2.19 -11.28,-2.19 z"
                 fill="#b2713b"
                 stroke-width="none"
                 opacity="1"
                 stroke="none" />
              <path
                 id="path1065"
                 d="m 91.56,97.86 c 0,0 -2.08,-4.66 -7.97,-5.44 -5.89,-0.79 -14.54,3.87 -15.21,5.61 -0.67,1.74 14.43,3.48 18.3,2.53 0,0 -11.56,-0.39 -14.54,-2.3 0,0 2.3,-4.27 8.93,-4.83 6.61,-0.57 10.04,3.7 10.49,4.43 z"
                 fill="#b2713b"
                 stroke-width="none"
                 opacity="1"
                 stroke="none" />
              <path
                 id="path1067"
                 d="m 92.49,100.56 c -2.99,2.4 -6.96,3.48 -10.76,3.36 -0.17,-0.01 -0.17,-0.25 0,-0.26 3.97,-0.16 7.22,-1.31 10.68,-3.21 0.07,-0.04 0.15,0.05 0.08,0.11 z"
                 fill="#a35e26"
                 stroke-width="none"
                 opacity="1"
                 stroke="none" />
              <path
                 id="path1069"
                 d="m 71.75,98.72 c 6.44,2.32 13.78,2.6 20.43,0.97 0.13,0.06 0.34,-0.05 0.27,-0.21 -3.52,-8.75 -15.59,-8.02 -20.9,-1.51 -0.22,0.27 -0.14,0.63 0.2,0.75 z m 0.88,-0.65 c 5.34,-6.21 15.21,-6.15 19.35,1.37 -6.45,1.12 -13.13,0.73 -19.35,-1.37 z"
                 fill="#1b2a40"
                 stroke-width="none"
                 opacity="1"
                 stroke="none" />
            </g>
          </g>
        </g>
        <g
           id="g1105"
           transform="matrix(0.79375,0,0,0.79375,29.53303,26.665205)">
          <g
             id="g1103">
            <g
               id="g1079">
              <path
                 id="path1077"
                 d="m 107.7,99.5 c 0,0 1.4,-2.7 3.1,-3.9 1.7,-1.3 4.6,-3.1 9.3,-2.1 4.7,0.9 8,4.7 8,4.7 0,0 -5.9,2.2 -11.3,2.2 -5.3,-0.1 -9.1,-0.9 -9.1,-0.9 z"
                 fill="#ffffff"
                 stroke-width="none"
                 opacity="1" />
            </g>
            <g
               id="g1091">
              <g
                 id="g1089">
                <g
                   id="g1087">
                  <path
                     id="path1081"
                     d="m 118,91.5 c 2.7,0 4.9,2.2 4.9,4.9 0,2.7 -2.2,4.9 -4.9,4.9 -2.7,0 -4.9,-2.2 -4.9,-4.9 0,-2.7 2.2,-4.9 4.9,-4.9 z"
                     fill="#681711"
                     stroke-width="none"
                     opacity="1" />
                  <path
                     id="path1083"
                     d="m 118,93.8 c 1.4,0 2.6,1.2 2.6,2.6 0,1.4 -1.2,2.6 -2.6,2.6 -1.4,0 -2.6,-1.2 -2.6,-2.6 0,-1.4 1.2,-2.6 2.6,-2.6 z"
                     fill="#000000"
                     stroke-width="none"
                     opacity="1" />
                  <path
                     id="path1085"
                     d="m 117.4,94.3 -0.5,-0.5 c -0.2,-0.2 -0.4,-0.3 -0.7,-0.3 -0.3,0 -0.5,0.1 -0.7,0.3 -0.2,0.2 -0.3,0.4 -0.3,0.7 0,0.3 0.1,0.5 0.3,0.7 l 0.5,0.5 c 0.2,0.2 0.4,0.3 0.7,0.3 0.2,0 0.5,-0.1 0.7,-0.3 0.3,-0.5 0.4,-1 0,-1.4 z m 2.4,4.4 c 0.8,0 0.8,-1.3 0,-1.3 -0.8,0 -0.8,1.3 0,1.3 z"
                     fill="#ffffff"
                     stroke-width="none"
                     opacity="1" />
                </g>
              </g>
            </g>
            <g
               id="g1101">
              <path
                 id="path1093"
                 d="m 118.26,85.53 c -6.08,0 -11.02,5.6 -11.02,12.5 0,6.9 4.93,12.5 11.02,12.5 6.09,0 11.02,-5.6 11.02,-12.5 0,-6.9 -4.94,-12.5 -11.02,-12.5 z m -1.47,14.85 c -5.33,-0.06 -9.09,-0.84 -9.09,-0.84 0,0 1.41,-2.67 3.12,-3.92 1.7,-1.25 4.56,-3.05 9.25,-2.12 4.69,0.93 8,4.69 8,4.69 0,0 -5.94,2.26 -11.28,2.19 z"
                 fill="#b2713b"
                 stroke-width="none"
                 opacity="1"
                 stroke="none" />
              <path
                 id="path1095"
                 d="m 108.44,97.86 c 0,0 2.08,-4.66 7.97,-5.44 5.89,-0.79 14.54,3.87 15.21,5.61 0.67,1.74 -14.43,3.48 -18.3,2.53 0,0 11.56,-0.39 14.54,-2.3 0,0 -2.3,-4.27 -8.93,-4.83 -6.61,-0.57 -10.04,3.7 -10.49,4.43 z"
                 fill="#aa6730"
                 stroke-width="none"
                 opacity="1"
                 stroke="none" />
              <path
                 id="path1097"
                 d="m 107.51,100.56 c 2.99,2.4 6.96,3.48 10.76,3.36 0.17,-0.01 0.17,-0.25 0,-0.26 -3.97,-0.16 -7.22,-1.31 -10.68,-3.21 -0.07,-0.04 -0.15,0.05 -0.08,0.11 z"
                 fill="#a35e26"
                 stroke-width="none"
                 opacity="1"
                 stroke="none" />
              <path
                 id="path1099"
                 d="m 128.45,97.96 c -5.31,-6.51 -17.38,-7.23 -20.9,1.51 -0.07,0.17 0.14,0.28 0.27,0.21 6.65,1.63 13.98,1.35 20.43,-0.97 0.34,-0.11 0.42,-0.47 0.2,-0.75 z m -20.43,1.47 c 4.14,-7.52 14.01,-7.58 19.35,-1.37 -6.22,2.11 -12.9,2.5 -19.35,1.37 z"
                 fill="#1b2a40"
                 stroke-width="none"
                 opacity="1"
                 stroke="none" />
            </g>
          </g>
        </g>
        <g
           id="g1117"
           transform="matrix(0.79375,0,0,0.79375,29.53303,26.665205)">
          <g
             id="g1115">
            <g
               id="g1113">
              <path
                 id="path1107"
                 d="m 72.9,84.2 c 0.1,-0.2 0.4,-0.3 0.6,-0.4 0.2,-0.1 0.4,-0.2 0.6,-0.2 0.4,-0.2 0.8,-0.4 1.2,-0.5 0.5,-0.1 1.2,-0.5 1.7,-0.2 1.6,-0.6 3.7,-0.2 5.1,0.6 1.9,0.2 3.9,0.8 5.3,1.8 0.1,0.1 0.2,0.2 0.2,0.3 0.3,0.1 0.5,0.2 0.8,0.3 1,0.4 2.1,0.7 3.1,1.2 0.1,0 0.2,0.1 0.3,0.1 0.3,0.1 0.4,0.7 0.2,0.8 -0.1,0.1 -0.1,0.2 -0.2,0.3 -0.8,0.6 -1.8,0.2 -2.6,-0.1 -0.7,-0.3 -1.5,-0.6 -2,-1.2 -0.8,-0.3 -1.4,-0.7 -2.1,-1.1 -0.1,0 -0.2,-0.1 -0.3,-0.1 -1.2,-0.2 -2.5,-0.7 -3.7,-1.3 -0.7,-0.1 -1.3,-0.3 -2,-0.3 -0.9,-0.1 -1.8,0.2 -2.8,-0.1 h -0.1 c -0.2,0.1 -0.4,0.1 -0.6,0.2 -0.8,0.2 -1.5,0.4 -2.3,0.4 -0.1,0 -0.2,-0.1 -0.2,-0.2 H 73 c 0,0 -0.2,-0.1 -0.1,-0.3 z"
                 fill="#543c32"
                 stroke-width="none"
                 opacity="1" />
              <path
                 id="path1109"
                 d="m 77.4,82.3 c 3.1,-0.2 6.2,1.5 9,2.6 1.7,0.7 5.2,0.9 5.9,3 0.1,0.3 -0.3,0.4 -0.5,0.2 -0.9,-1.2 -2.4,-1.4 -3.8,-1.8 -1.2,-0.4 -2.3,-0.8 -3.5,-1.3 -2.4,-1 -4.8,-1.6 -7.3,-2.2 -0.1,-0.1 0,-0.4 0.2,-0.5 z"
                 fill="#634e45"
                 stroke-width="none"
                 opacity="1" />
              <path
                 id="path1111"
                 d="m 93.3,87.9 c 0.3,-1.4 -1.8,-1.9 -2.8,-2.3 -2.4,-1 -4.9,-2.1 -7.4,-2.8 -1.5,-0.4 -3.1,-0.7 -4.6,-0.7 -1.2,0 -2.3,0.1 -3.5,0.5 -2,0.6 -3.9,1.8 -5.6,3.1 -0.9,0.5 -1.8,1.2 -2.5,1.9 -0.1,0.1 0,0.3 0.2,0.2 0,0 0.1,0 0.1,-0.1 0,0.1 0.1,0.1 0.2,0.1 1.5,-0.7 2.8,-1.6 4.3,-2.2 1.5,-0.6 3.1,-1 4.7,-1.1 h 0.7 c 1.9,0 3.7,0.4 5.4,1.2 2.4,1.1 4.6,2.6 7,3.5 0.4,0.2 0.9,0.2 1.4,0.2 1.1,0 2.2,-0.4 2.4,-1.5 z M 78.5,83 c 1.6,0 3.2,0.4 4.8,0.9 2,0.7 4,1.6 6,2.4 0.4,0.2 2.4,0.7 2.6,1.2 0.2,0.6 -0.2,0.8 -0.8,0.9 -0.3,0 -0.6,-0.1 -0.8,-0.1 -0.6,-0.2 -1.2,-0.6 -1.7,-0.9 -3.1,-1.6 -6.3,-3.5 -9.8,-3.7 h -1 c -1.1,0 -2.3,0.1 -3.5,0.3 0.5,-0.2 1,-0.4 1.6,-0.6 0.8,-0.3 1.7,-0.4 2.6,-0.4 z"
                 fill="#452c22"
                 stroke-width="none"
                 opacity="1" />
            </g>
          </g>
        </g>
        <g
           id="g1129"
           transform="matrix(0.79375,0,0,0.79375,29.53303,26.665205)">
          <g
             id="g1127">
            <g
               id="g1125">
              <path
                 id="path1119"
                 d="m 127.1,84.2 c -0.1,-0.2 -0.4,-0.3 -0.6,-0.4 -0.2,-0.1 -0.4,-0.2 -0.6,-0.2 -0.4,-0.2 -0.8,-0.4 -1.2,-0.5 -0.5,-0.1 -1.2,-0.5 -1.7,-0.2 -1.6,-0.6 -3.7,-0.2 -5.1,0.6 -1.9,0.2 -3.9,0.8 -5.3,1.8 -0.1,0.1 -0.2,0.2 -0.2,0.3 -0.3,0.1 -0.5,0.2 -0.8,0.3 -1,0.4 -2.1,0.7 -3.1,1.2 -0.1,0 -0.2,0.1 -0.3,0.1 -0.3,0.1 -0.4,0.7 -0.2,0.8 0.1,0.1 0.1,0.2 0.2,0.3 0.8,0.6 1.8,0.2 2.6,-0.1 0.7,-0.3 1.5,-0.6 2,-1.2 0.8,-0.3 1.4,-0.7 2.1,-1.1 0.1,0 0.2,-0.1 0.3,-0.1 1.2,-0.2 2.5,-0.7 3.7,-1.3 0.7,-0.1 1.3,-0.3 2,-0.3 0.9,-0.1 1.8,0.2 2.8,-0.1 h 0.1 c 0.2,0.1 0.4,0.1 0.6,0.2 0.8,0.2 1.5,0.4 2.3,0.4 0.1,0 0.2,-0.1 0.2,-0.2 h 0.1 c 0,0 0.2,-0.1 0.1,-0.3 z"
                 fill="#543c32"
                 stroke-width="none"
                 opacity="1" />
              <path
                 id="path1121"
                 d="m 122.6,82.3 c -3.1,-0.2 -6.2,1.5 -9,2.6 -1.7,0.7 -5.2,0.9 -5.9,3 -0.1,0.3 0.3,0.4 0.5,0.2 0.9,-1.2 2.4,-1.4 3.8,-1.8 1.2,-0.4 2.3,-0.8 3.5,-1.3 2.4,-1 4.8,-1.6 7.3,-2.2 0.1,-0.1 0,-0.4 -0.2,-0.5 z"
                 fill="#634e45"
                 stroke-width="none"
                 opacity="1" />
              <path
                 id="path1123"
                 d="m 109,89.3 c 0.5,0 1,-0.1 1.4,-0.2 2.4,-0.9 4.7,-2.4 7,-3.5 1.8,-0.8 3.6,-1.2 5.4,-1.2 h 0.7 c 1.6,0.1 3.2,0.5 4.6,1.1 1.5,0.6 2.9,1.6 4.3,2.2 0.1,0 0.2,0 0.2,-0.1 0,0 0.1,0 0.1,0.1 0.2,0.1 0.3,-0.1 0.2,-0.2 -0.7,-0.7 -1.6,-1.4 -2.5,-1.9 -1.7,-1.3 -3.6,-2.4 -5.6,-3.1 -1.1,-0.4 -2.3,-0.5 -3.5,-0.5 -1.6,0 -3.1,0.3 -4.6,0.7 -2.5,0.7 -5,1.8 -7.4,2.8 -0.9,0.4 -3.1,0.9 -2.8,2.3 0.4,1.2 1.5,1.6 2.5,1.5 z m 15.2,-5.9 c 0.5,0.2 1.1,0.3 1.6,0.6 -1.2,-0.2 -2.3,-0.3 -3.5,-0.3 h -1 c -3.5,0.2 -6.8,2.2 -9.8,3.7 -0.6,0.3 -1.1,0.7 -1.7,0.9 -0.2,0.1 -0.5,0.1 -0.8,0.1 -0.5,0 -1,-0.2 -0.8,-0.9 0.2,-0.5 2.2,-1 2.6,-1.2 2,-0.8 4,-1.7 6,-2.4 1.6,-0.5 3.2,-0.9 4.8,-0.9 0.8,0 1.7,0.1 2.6,0.4 z"
                 fill="#452c22"
                 stroke-width="none"
                 opacity="1" />
            </g>
          </g>
        </g>
        <g
           id="g1141"
           transform="matrix(0.79375,0,0,0.79375,29.53303,26.665205)">
          <g
             id="g1139">
            <path
               id="path1131"
               d="m 106.48,114.01 c -2.23,0.09 -3.27,2.84 -5.54,3.17 -3.19,0.45 -5.28,-2.02 -7.58,-3.74 -0.08,-0.06 -0.21,0.06 -0.14,0.14 0.3,0.4 0.64,0.79 1,1.17 -0.5,-0.34 -0.87,-0.33 -1.47,-0.37 -0.73,-0.05 -1.25,-0.35 -1.36,-1.18 -0.04,-0.3 0.55,-1.35 0.73,-1.68 0.82,-1.61 2,-2.88 3.07,-4.3 0.08,-0.1 -0.08,-0.26 -0.18,-0.18 -0.16,0.12 -0.32,0.26 -0.48,0.4 0.74,-1.5 1.44,-3.03 2,-4.58 0.04,-0.12 -0.15,-0.2 -0.21,-0.09 -0.92,1.67 -1.68,3.48 -2.4,5.26 -1.31,1.35 -2.44,3.19 -2.97,4.83 -0.73,2.27 1.71,1.96 3.16,2.24 0.18,0.03 0.26,-0.15 0.16,-0.27 1.5,1.58 3.45,2.87 5.61,3.05 2.98,0.24 4.36,-2.2 6.69,-3.54 0.12,-0.11 0.07,-0.34 -0.09,-0.33 z"
               fill="#843e04"
               stroke-width="none"
               opacity="1"
               transform="translate(0,2)"
               stroke="none" />
            <path
               id="path1133"
               d="m 108.82,112.74 c -0.19,-0.99 -1.07,-1.94 -1.67,-2.71 -0.72,-0.93 -1.48,-1.82 -2.41,-2.54 -0.18,-0.14 -0.34,0.14 -0.22,0.29 0.89,1.13 1.9,2.14 2.75,3.3 0.57,0.78 1.55,1.89 0.7,2.98 -0.5,0.64 -1.65,0.74 -2.39,0.93 -0.09,0.02 -0.07,0.15 0.02,0.16 1.44,0.11 3.58,-0.54 3.22,-2.41 z"
               fill="#843e04"
               stroke-width="none"
               opacity="1"
               transform="translate(0,2)"
               stroke="none" />
            <path
               id="path1135"
               d="m 97.07,106.9 c 2.12,-0.61 4.06,-0.55 6.22,-0.38 0.16,0.01 0.17,-0.21 0.04,-0.26 -2.04,-0.74 -4.39,-0.4 -6.34,0.44 -0.13,0.05 -0.04,0.23 0.08,0.2 z"
               fill="#843e04"
               stroke-width="none"
               opacity="1"
               transform="translate(0,2)"
               stroke="none" />
            <path
               id="path1137"
               d="m 103.63,108.35 c -1.09,-1.49 -3.61,-0.05 -2.51,1.47 1.39,1.92 -0.3,3.43 -2.28,3.58 -0.57,0.04 -0.83,0.66 -0.45,1.1 1.34,1.56 3.69,1.13 5.01,-0.29 1.5,-1.61 1.5,-4.12 0.23,-5.86 z"
               fill="#ba7b47"
               stroke-width="none"
               opacity="1"
               transform="translate(0,2)"
               stroke="none" />
          </g>
        </g>
        <g
           id="g1149"
           transform="matrix(0.79375,0,0,0.79375,29.53303,26.665205)">
          <path
             id="path1143"
             d="m 96.3,39.2 c 0,0 -1.9,-1.7 -6.2,-2.7 -4.3,-1 -14.5,-0.3 -25.3,9.8 -10.8,10.1 -16.2,22.4 -19.3,32 -3.1,9.6 -4.3,32 -4.1,33.7 0.2,1.7 6,9.1 9.6,11.3 0,0 -0.5,-10.8 0.2,-14.8 0,0 1.2,12.6 1.9,16 0,0 8.4,4.4 14.9,5.4 0,0 -3.1,-17.9 -3.8,-33.9 -0.7,-16 1.4,-31.4 5.1,-38.8 0,0 -2.5,14.6 -3.2,22.5 0,0 25.2,4.3 49.4,2.4 0,0 1.4,-9.1 1.4,-13.1 0,0 0.7,7.9 0.7,12.6 0,0 9.1,1 17.3,-0.7 0,0 3.8,30.3 -5.5,48.8 0,0 9.6,-1.5 13.7,-3.7 0,0 1.4,-4.7 1.9,-7.1 0,0 0.2,3.4 -0.5,6.2 0,0 4.8,-2.7 8.1,-5.4 0,0 -0.1,-10.9 -0.5,-15.9 0,0 2.4,7.5 2.2,14.4 0,0 1.9,-2.5 3.6,-4.4 0,0 -1.8,-20.4 -8.5,-40.9 -6.7,-20.5 -21.7,-31.3 -30.6,-34.5 -8.9,-3.2 -18.9,-2.7 -22.5,0.8 z"
             fill="#eee4e0"
             stroke-width="none"
             opacity="1"
             stroke="none" />
          <path
             id="path1145"
             d="m 91.2,39.9 c -18.8,0.6 -23.4,23.5 -23.6,38.3 0,0.4 0.6,0.5 0.7,0.1 2.1,-15.3 4.3,-34.8 23,-37.8 0.4,0 0.3,-0.6 -0.1,-0.6 z M 89,41.1 c -12.8,6 -16.7,20.6 -16.1,33.7 0,0.3 0.4,0.3 0.4,0 C 73.5,61.6 76.6,48.1 89.1,41.4 89.4,41.3 89.2,41 89,41.1 Z m 5.4,0.1 c -5.6,8.9 -7.9,20.7 -4.9,30.9 0.1,0.3 0.7,0.3 0.6,-0.1 C 88.9,61.1 90,51.4 94.9,41.5 95.1,41.1 94.6,40.8 94.4,41.2 Z m -1,-1.8 C 78,35.9 65.6,50.2 61.6,63.5 c -2.8,9 -3,18.6 -2.9,28 0.1,10.2 0.2,20.6 2.4,30.6 0.1,0.3 0.6,0.2 0.5,-0.1 -2.4,-16.8 -4,-35.5 -0.8,-52.3 3,-15.9 14.4,-31.9 32.4,-29.7 0.4,0 0.5,-0.5 0.2,-0.6 z m 6,2.6 c -0.1,-0.2 -0.3,0 -0.3,0.2 2.8,5.6 5,11.5 6.2,17.6 1.2,6.3 0.8,12.3 0.7,18.6 0,0.3 0.5,0.4 0.5,0.1 2.8,-12.1 -0.9,-26.1 -7.1,-36.5 z m 3.4,-3.2 c -0.3,0 -0.4,0.4 -0.1,0.4 18.5,4 21,24.6 22.9,39.9 0,0.3 0.5,0.3 0.5,0 0.2,-14.8 -5.7,-37.9 -23.3,-40.3 z M 140,74.5 c -3.2,-16 -15.4,-29.2 -30,-35.8 -0.2,-0.1 -0.3,0.2 -0.2,0.3 13.9,8.5 26.1,19.9 29,36.7 2.7,15.5 2,32.7 -4,47.3 -0.1,0.4 0.4,0.6 0.6,0.3 4.1,-6.8 5.5,-14.7 5.9,-22.6 0.6,-8.6 0.4,-17.8 -1.3,-26.2 z M 80.5,38.7 C 67.7,43 59.2,55.3 54.5,67.4 48.7,82.4 44.8,101 47,117 c 0,0.3 0.5,0.2 0.5,-0.1 -0.9,-27.7 5.2,-64.9 33.1,-78 0.1,-0.1 0.1,-0.3 -0.1,-0.2 z"
             fill="#dfc5bb"
             stroke-width="none"
             opacity="1"
             stroke="none" />
          <path
             id="path1147"
             d="m 109.9,51.7 c -2.1,-5.3 -5.1,-10.4 -10.8,-12.1 -0.2,0 -0.3,0.2 -0.1,0.3 13.1,5.6 14.4,25.9 14.2,38 0,0.3 0.4,0.3 0.4,0 0.9,-8.9 -0.4,-18 -3.7,-26.2 z m 22.6,16.6 c -0.1,-0.2 -0.4,-0.1 -0.4,0.2 1,3.9 1.9,7.6 2.6,11.5 0.1,0.3 0.6,0.2 0.6,-0.1 -0.1,-3.9 -1,-8.1 -2.8,-11.6 z M 99,44.8 c -0.1,-0.2 -0.3,-0.1 -0.3,0.1 2.2,9.6 2.8,18.8 3,28.6 0,0.3 0.4,0.3 0.5,0 1,-9.5 -0.5,-19.6 -3.2,-28.7 z M 98.8,51 c 0,-0.2 -0.3,-0.1 -0.3,0 0.8,7.2 1.1,14.3 1.3,21.6 0,0.3 0.5,0.3 0.5,0 0.5,-7.2 -0.2,-14.5 -1.5,-21.6 z m -2.7,-2.9 c 0,-0.2 -0.3,-0.2 -0.3,0 0.8,10.2 0.7,20.5 1,30.7 0,0.3 0.4,0.3 0.5,0 C 97.8,68.5 97,58.3 96.1,48.1 Z m -1.9,6.8 c -0.4,6.3 -0.6,12.6 -0.4,18.9 0,0.3 0.4,0.3 0.5,0 0.3,-6.3 0.3,-12.6 0.3,-18.9 0,-0.3 -0.4,-0.3 -0.4,0 z m -4.8,-9.4 c -5.3,8.7 -6.4,19.2 -6.6,29.1 0,0.4 0.7,0.4 0.7,0 0.9,-10.1 1.3,-19.8 6.4,-28.9 0.1,-0.2 -0.3,-0.5 -0.5,-0.2 z M 84,50.3 c -3.1,6.2 -4.8,13 -4.1,20 0,0.3 0.4,0.3 0.4,0 0.2,-6.9 1.2,-13.3 4.1,-19.7 0.3,-0.4 -0.2,-0.7 -0.4,-0.3 z m -2.1,-0.5 c -3.2,5.7 -5.5,11.8 -6.2,18.3 0,0.3 0.5,0.4 0.5,0.1 1.2,-6.4 2.9,-12.4 6,-18.2 0.2,-0.2 -0.2,-0.5 -0.3,-0.2 z m 26.4,-6.6 c -0.1,-0.1 -0.3,0 -0.2,0.1 4.7,7.3 7.1,15.4 7.7,24 0,0.2 0.3,0.2 0.3,0 -0.1,-8.9 -2.9,-16.9 -7.8,-24.1 z m 15,10.5 c -0.1,-0.1 -0.3,0 -0.2,0.2 4.4,5.7 5.2,12.6 6.4,19.5 0,0.2 0.4,0.2 0.4,-0.1 -0.7,-7 -2,-14.1 -6.6,-19.6 z m -1,-4 c -0.1,-0.1 -0.3,0.1 -0.2,0.2 5.1,5.5 8.3,11.6 10.7,18.6 0.1,0.3 0.5,0.2 0.4,-0.1 -1.7,-7.2 -5.8,-13.5 -10.9,-18.7 z m -0.9,-8.1 c -0.2,-0.1 -0.4,0.2 -0.2,0.4 19.9,13.3 24.9,35.8 27.1,58.2 0,0.3 0.4,0.3 0.4,0 -0.4,-22 -7.5,-46.7 -27.3,-58.6 z m 25.7,29.8 c -0.1,-0.2 -0.3,-0.1 -0.3,0.1 2,8.2 3.1,16.4 3.7,24.8 0,0.3 0.4,0.3 0.4,0 0,-8.5 -1.4,-16.9 -3.8,-24.9 z m 1.2,31.9 c 0,-0.2 -0.3,-0.2 -0.3,0 -0.3,6.2 -0.7,12.4 -1.3,18.6 0,0.2 0.2,0.2 0.3,0 1,-6.1 1.5,-12.4 1.3,-18.6 z M 57.5,70.8 c 0,-0.2 -0.3,-0.3 -0.3,-0.1 -3,13.1 -3.8,26.9 -2.2,40.2 0,0.2 0.4,0.2 0.4,0 -0.7,-13.5 -0.1,-26.7 2.1,-40.1 z"
             fill="#fdfdfd"
             stroke-width="none"
             opacity="1"
             stroke="none" />
        </g>
        <g
           id="g1161"
           transform="matrix(0.79375,0,0,0.79375,29.53303,26.665205)">
          <g
             id="g1159">
            <path
               id="path1151"
               d="m 73.9,90.6 c 0,0 -6.6,2.3 -7.2,7.7 -0.6,5.4 5.8,9.9 10.5,10.8 4.7,0.9 10.1,0.6 13.7,-1.6 3.7,-2.2 5.4,-5.4 4.3,-9.2 -1.1,-3.8 -5.4,-7.1 -11.4,-8.2 -6,-1.1 -9.9,0.5 -9.9,0.5 z"
               fill="url(#SvgjsLinearGradient7860)"
               opacity="1"
               style="fill:url(#linearGradient2361)" />
            <path
               id="path1153"
               d="m 126.1,90.6 c 0,0 6.6,2.3 7.2,7.7 0.6,5.4 -5.8,9.9 -10.5,10.8 -4.7,0.9 -10.1,0.6 -13.7,-1.6 -3.7,-2.2 -5.4,-5.4 -4.3,-9.2 1.1,-3.8 5.4,-7.1 11.4,-8.2 6,-1.1 9.9,0.5 9.9,0.5 z"
               fill="url(#SvgjsLinearGradient7866)"
               opacity="1"
               style="fill:url(#linearGradient2363)" />
            <path
               id="path1155"
               d="m 122.9,87.3 c -9.9,0.1 -13.9,3.6 -17.3,5.4 -3.4,1.8 -7.7,1.8 -11.1,0 -3.4,-1.8 -7.4,-5.3 -17.3,-5.4 -9.9,-0.1 -15.5,0.8 -15.4,3.7 0.1,2.9 0.6,4.4 2.8,5.6 0.9,0.5 1.4,1.1 1.7,1.5 v 0.1 c -0.3,2.8 1,5.6 3.7,7.8 2.6,2.2 6.2,3.6 10.2,4 0.7,0.1 1.4,0.1 2.1,0.1 7.3,0 13.3,-3.8 13.8,-9 0.4,-3.5 3.1,-3.6 3.1,-3.6 h 1.7 c 0,0 2.7,0.2 3.1,3.6 0.5,5.2 6.5,9 13.8,9 0.7,0 1.4,0 2.1,-0.1 4,-0.4 7.6,-1.8 10.2,-4 2.7,-2.2 4,-5 3.7,-7.8 v -0.1 c 0.2,-0.4 0.7,-1 1.6,-1.5 2.1,-1.2 2.6,-2.7 2.8,-5.6 0.1,-2.9 -5.4,-3.7 -15.3,-3.7 z m -27.8,13.8 c -0.5,5.2 -7.2,8.8 -14.9,8.1 -3.8,-0.4 -7.2,-1.7 -9.7,-3.8 -2.4,-2 -3.6,-4.5 -3.4,-7 0.5,-4.7 6.1,-8.2 12.9,-8.2 0.7,0 1.4,0 2.1,0.1 7.7,0.7 13.5,5.6 13,10.8 z m 34.4,4.3 c -2.5,2.1 -5.9,3.4 -9.7,3.8 -7.7,0.8 -14.4,-2.8 -14.9,-8.1 -0.5,-5.3 5.3,-10.1 13.1,-10.8 0.7,-0.1 1.4,-0.1 2.1,-0.1 6.8,0 12.4,3.4 12.9,8.2 0.1,2.4 -1.1,4.9 -3.5,7 z"
               fill="#18d5ab"
               stroke-width="none"
               opacity="1"
               stroke="none" />
            <path
               id="path1157"
               d="m 122.9,87.4 c -3.1,0.1 -6.2,0.4 -9.1,1.4 -1.5,0.5 -2.9,1.1 -4.2,1.8 -1.4,0.7 -2.6,1.6 -4,2.3 -2.8,1.4 -6.1,1.7 -9.1,0.8 -1.5,-0.4 -2.9,-1.2 -4.2,-2 -1.3,-0.8 -2.7,-1.5 -4.1,-2.1 -2.8,-1.2 -5.9,-1.8 -8.9,-2 -1.5,-0.1 -3.1,-0.1 -4.6,-0.1 -1.5,0 -3.1,0.1 -4.6,0.2 -1.5,0.1 -3.1,0.3 -4.6,0.6 -0.8,0.2 -1.5,0.4 -2.1,0.8 -0.7,0.3 -1.2,0.9 -1.3,1.7 0,1.5 0.1,3.1 1,4.4 0.4,0.6 1,1.1 1.7,1.5 0.7,0.4 1.3,0.9 1.7,1.6 -0.2,1.9 0.3,3.8 1.4,5.3 1.1,1.6 2.5,2.8 4.1,3.8 3.2,1.9 7.1,2.8 10.8,2.7 1.9,-0.1 3.8,-0.3 5.6,-0.9 1.8,-0.6 3.5,-1.5 4.9,-2.7 0.7,-0.6 1.3,-1.3 1.8,-2.1 0.3,-0.4 0.4,-0.8 0.6,-1.2 0.1,-0.4 0.3,-0.9 0.3,-1.3 0.1,-0.9 0.3,-1.9 0.9,-2.8 0.6,-0.8 1.4,-1.4 2.5,-1.6 h 1.7 c 1,0.1 1.9,0.7 2.5,1.6 0.6,0.8 0.7,1.9 0.9,2.8 0.1,0.5 0.2,0.9 0.3,1.3 l 0.6,1.2 c 0.5,0.8 1.1,1.5 1.8,2.1 1.4,1.2 3.1,2.1 4.9,2.7 1.8,0.6 3.7,0.9 5.5,0.9 3.7,0.1 7.5,-0.8 10.7,-2.8 1.6,-1 3.1,-2.2 4.1,-3.8 1.1,-1.5 1.6,-3.4 1.4,-5.3 v -0.1 c 0.3,-0.5 0.7,-0.9 1.1,-1.2 0.4,-0.3 0.9,-0.5 1.4,-0.9 0.9,-0.6 1.4,-1.5 1.7,-2.6 0.1,-0.5 0.2,-1 0.2,-1.6 0,-0.5 0.1,-1.1 0,-1.6 -0.1,-0.2 -0.2,-0.4 -0.4,-0.7 -0.2,-0.2 -0.4,-0.4 -0.6,-0.5 -0.2,-0.2 -0.4,-0.3 -0.7,-0.4 -0.2,-0.1 -0.5,-0.2 -0.7,-0.3 -2,-0.7 -4.2,-0.8 -6.3,-1 -2.3,0.1 -4.5,0.1 -6.6,0.1 z m 0,-0.1 c 2.1,0 4.3,0 6.4,0.1 2.1,0.1 4.3,0.3 6.4,0.9 0.3,0.1 0.5,0.2 0.8,0.3 0.2,0.1 0.5,0.2 0.7,0.4 0.2,0.1 0.4,0.3 0.6,0.5 0.2,0.2 0.3,0.4 0.4,0.7 0.2,0.6 0.1,1.1 0.1,1.6 -0.1,0.5 -0.1,1.1 -0.2,1.6 -0.2,1.1 -0.8,2.1 -1.7,2.7 -0.4,0.3 -0.9,0.6 -1.3,0.9 -0.4,0.3 -0.8,0.7 -1,1.1 V 98 c 0.2,1.9 -0.3,3.9 -1.4,5.5 -1.1,1.6 -2.5,2.9 -4.2,3.9 -3.3,2 -7.2,2.9 -11,2.8 -1.9,0 -3.8,-0.3 -5.7,-0.9 -1.8,-0.6 -3.6,-1.5 -5,-2.8 -0.7,-0.7 -1.4,-1.4 -1.9,-2.2 -0.3,-0.4 -0.4,-0.9 -0.7,-1.3 -0.1,-0.5 -0.3,-0.9 -0.4,-1.4 -0.1,-0.5 -0.1,-0.9 -0.3,-1.4 -0.1,-0.4 -0.3,-0.9 -0.5,-1.2 -0.5,-0.8 -1.3,-1.3 -2.2,-1.4 h -1.7 c -0.8,0.1 -1.7,0.6 -2.2,1.4 -0.5,0.8 -0.7,1.7 -0.8,2.6 -0.1,0.5 -0.2,0.9 -0.4,1.4 -0.2,0.4 -0.4,0.9 -0.7,1.3 -0.5,0.8 -1.2,1.6 -1.9,2.2 -1.4,1.3 -3.2,2.2 -5,2.8 -1.8,0.6 -3.7,0.9 -5.6,0.9 -3.8,0.1 -7.7,-0.8 -10.9,-2.8 -1.6,-1 -3.1,-2.3 -4.1,-3.9 -1.1,-1.6 -1.6,-3.5 -1.4,-5.4 v 0.1 c -0.7,-1.4 -2.5,-1.7 -3.4,-3 -0.5,-0.7 -0.7,-1.4 -0.8,-2.2 -0.1,-0.8 -0.2,-1.5 -0.2,-2.3 0.1,-0.8 0.7,-1.5 1.4,-1.8 0.7,-0.4 1.4,-0.6 2.2,-0.8 1.5,-0.4 3.1,-0.5 4.6,-0.7 1.5,-0.1 3.1,-0.2 4.6,-0.2 1.5,0 3.1,0 4.6,0.1 3.1,0.2 6.2,0.7 9.1,2 1.4,0.6 2.8,1.4 4.1,2.2 1.3,0.8 2.6,1.6 4.1,2 2.9,0.9 6.2,0.7 8.9,-0.7 1.4,-0.7 2.7,-1.6 4,-2.3 1.4,-0.7 2.8,-1.3 4.3,-1.8 3.1,-1 6.2,-1.4 9.3,-1.4 z m -27.8,13.8 c -0.2,1.6 -0.9,3 -1.9,4.2 -1,1.2 -2.4,2.1 -3.8,2.7 -2.9,1.3 -6.1,1.7 -9.2,1.4 -3.1,-0.3 -6.2,-1.4 -8.7,-3.2 -1.3,-0.9 -2.4,-2 -3.3,-3.3 -0.8,-1.3 -1.3,-2.9 -1.2,-4.5 0.2,-1.6 0.9,-3.1 2,-4.2 1.1,-1.2 2.4,-2.1 3.9,-2.7 2.9,-1.3 6.1,-1.6 9.2,-1.3 3.1,0.3 6.2,1.3 8.8,3.2 1.3,0.9 2.4,2.1 3.2,3.4 0.7,1.2 1.2,2.8 1,4.3 z m 0,0 c 0.1,-1.6 -0.3,-3.1 -1.2,-4.4 -0.8,-1.3 -2,-2.4 -3.2,-3.2 -2.6,-1.7 -5.6,-2.6 -8.7,-2.9 -3.1,-0.3 -6.2,0 -9,1.3 -1.4,0.6 -2.7,1.4 -3.8,2.5 a 6.96,6.96 0 0 0 -2,4 c -0.2,1.5 0.2,3.1 1.1,4.4 0.8,1.3 1.9,2.4 3.2,3.3 2.6,1.8 5.6,2.7 8.7,2.9 3.1,0.2 6.2,-0.1 9.1,-1.2 1.4,-0.6 2.8,-1.4 3.8,-2.5 1.1,-1.2 1.8,-2.6 2,-4.2 z m 34.4,4.3 c -2.4,2 -5.4,3.2 -8.5,3.8 -3.1,0.5 -6.3,0.4 -9.3,-0.7 -1.5,-0.5 -2.9,-1.3 -4.1,-2.3 -1.2,-1 -2.2,-2.3 -2.6,-3.9 -0.5,-1.5 -0.3,-3.2 0.3,-4.6 0.6,-1.5 1.6,-2.7 2.8,-3.7 2.4,-2.1 5.4,-3.2 8.5,-3.8 l 1.2,-0.2 h 1.2 c 0.8,-0.1 1.6,-0.1 2.4,0 1.6,0.1 3.1,0.4 4.6,0.9 1.5,0.5 2.9,1.2 4.1,2.3 0.6,0.5 1.1,1.1 1.6,1.8 0.4,0.7 0.8,1.4 1,2.2 0.4,1.5 0.3,3.2 -0.4,4.6 -0.6,1.4 -1.6,2.6 -2.8,3.6 z m 0,-0.1 c 1.2,-1 2.2,-2.2 2.8,-3.7 0.6,-1.4 0.7,-3 0.2,-4.5 -0.2,-0.7 -0.6,-1.4 -1,-2 -0.5,-0.6 -1,-1.2 -1.6,-1.6 -1.2,-0.9 -2.6,-1.7 -4,-2.2 -2.9,-1 -6.1,-1.1 -9.1,-0.7 -3,0.5 -6,1.6 -8.4,3.5 -1.2,1 -2.2,2.2 -2.8,3.6 -0.6,1.4 -0.8,3 -0.3,4.5 0.4,1.5 1.4,2.8 2.6,3.7 1.2,1 2.6,1.7 4.1,2.2 2.9,1 6.1,1.1 9.1,0.7 2.9,-0.4 6,-1.5 8.4,-3.5 z"
               fill="#00b68e"
               stroke-width="none"
               opacity="1"
               stroke="none" />
          </g>
        </g>
      </g>
    </g>
  </g>
</svg>
