<?xml version="1.0" encoding="UTF-8" standalone="no"?>
<svg
   width="130.39792"
   height="170.00006"
   viewBox="0 0 34.501115 44.979186"
   version="1.1"
   id="svg8"
   xmlns:xlink="http://www.w3.org/1999/xlink"
   xmlns="http://www.w3.org/2000/svg"
   xmlns:svg="http://www.w3.org/2000/svg"
   xmlns:rdf="http://www.w3.org/1999/02/22-rdf-syntax-ns#"
   xmlns:cc="http://creativecommons.org/ns#"
   xmlns:dc="http://purl.org/dc/elements/1.1/">
  <defs
     id="defs2">
    <linearGradient
       id="SvgjsLinearGradient7860"
       x1="81.072899"
       y1="112.2763"
       x2="81.072899"
       y2="92.4328"
       gradientTransform="matrix(1,0,0,-1,-66.590151,134.61711)"
       gradientUnits="userSpaceOnUse"
       class="svga-on-canvas-glasses-gradient-single-0-null">
      <stop
         id="SvgjsStop7861"
         stop-opacity="1"
         stop-color="#97a1ad"
         offset="0" />
      <stop
         id="SvgjsStop7862"
         stop-opacity="0.6667"
         stop-color="#889ab3"
         offset="0.3333" />
      <stop
         id="SvgjsStop7863"
         stop-opacity="3.130000e-02"
         stop-color="#6287c3"
         offset="0.9687" />
      <stop
         id="SvgjsStop7864"
         stop-opacity="0"
         stop-color="#6086c4"
         offset="1" />
    </linearGradient>
    <linearGradient
       id="SvgjsLinearGradient7866"
       x1="-1736.927"
       y1="112.2763"
       x2="-1736.927"
       y2="92.4328"
       gradientTransform="rotate(180,-842.29508,67.308554)"
       gradientUnits="userSpaceOnUse"
       class="svga-on-canvas-glasses-gradient-single-1-null">
      <stop
         id="SvgjsStop7867"
         stop-opacity="1"
         stop-color="#97a1ad"
         offset="0" />
      <stop
         id="SvgjsStop7868"
         stop-opacity="0.6667"
         stop-color="#889ab3"
         offset="0.3333" />
      <stop
         id="SvgjsStop7869"
         stop-opacity="3.130000e-02"
         stop-color="#6287c3"
         offset="0.9687" />
      <stop
         id="SvgjsStop7870"
         stop-opacity="0"
         stop-color="#6086c4"
         offset="1" />
    </linearGradient>
    <linearGradient
       xlink:href="#SvgjsLinearGradient7860"
       id="linearGradient2357"
       gradientUnits="userSpaceOnUse"
       gradientTransform="matrix(1,0,0,-1,-330.86868,159.5754)"
       x1="81.072899"
       y1="112.2763"
       x2="81.072899"
       y2="92.4328" />
    <linearGradient
       xlink:href="#SvgjsLinearGradient7866"
       id="linearGradient2359"
       gradientUnits="userSpaceOnUse"
       gradientTransform="rotate(180,-974.43431,79.787699)"
       x1="-1736.927"
       y1="112.2763"
       x2="-1736.927"
       y2="92.4328" />
  </defs>
  <metadata
     id="metadata5">
    <rdf:RDF>
      <cc:Work
         rdf:about="">
        <dc:format>image/svg+xml</dc:format>
        <dc:type
           rdf:resource="http://purl.org/dc/dcmitype/StillImage" />
      </cc:Work>
    </rdf:RDF>
  </metadata>
  <g
     id="layer1"
     transform="translate(-118.30352,-641.10764)">
    <g
       id="g1505"
       transform="matrix(0.62846774,0,0,0.62846774,43.953574,530.84866)">
      <path
         style="fill:#008080;fill-rule:evenodd;stroke:#ffffff;stroke-width:0.645699;stroke-linecap:round;stroke-linejoin:round;paint-order:stroke fill markers"
         id="path1329"
         d="m 133.44015,213.4348 c 2.52478,-5.39408 -7.45265,2.12313 -2.64424,-1.2497 4.80841,-3.37283 -5.63834,3.43639 0.16529,2.98855 5.80363,-0.44785 -5.51378,-5.57762 -0.27001,-2.98047 5.24377,2.59715 -5.71224,-3.30471 -2.43339,1.64152 3.27885,4.94623 1.93886,-7.70075 2.37423,-1.73077 0.43536,5.96998 -0.0739,-6.7411 -2.59868,-1.34703 -2.52478,5.39408 7.45264,-2.12313 2.64424,1.2497 -4.80841,3.37283 5.63834,-3.43639 -0.16529,-2.98854 -5.80363,0.44784 5.51378,5.57761 0.27001,2.98046 -5.24378,-2.59715 5.71224,3.30472 2.43339,-1.64152 -3.27885,-4.94623 -1.93887,7.70075 -2.37423,1.73077 -0.43536,-5.96998 0.0739,6.7411 2.59868,1.34703 z" />
      <path
         style="fill:#008080;fill-rule:evenodd;stroke:#ffffff;stroke-width:0.645699;stroke-linecap:round;stroke-linejoin:round;paint-order:stroke fill markers"
         id="path1331"
         d="m 163.53811,213.4348 c 2.52478,-5.39408 -7.45265,2.12313 -2.64424,-1.2497 4.80841,-3.37283 -5.63834,3.43639 0.16529,2.98855 5.80363,-0.44785 -5.51378,-5.57762 -0.27001,-2.98047 5.24377,2.59715 -5.71224,-3.30471 -2.43339,1.64152 3.27885,4.94623 1.93886,-7.70075 2.37423,-1.73077 0.43536,5.96998 -0.0739,-6.7411 -2.59868,-1.34703 -2.52478,5.39408 7.45264,-2.12313 2.64424,1.2497 -4.80841,3.37283 5.63834,-3.43639 -0.16529,-2.98854 -5.80363,0.44784 5.51378,5.57761 0.27001,2.98046 -5.24378,-2.59715 5.71224,3.30472 2.43339,-1.64152 -3.27885,-4.94623 -1.93887,7.70075 -2.37423,1.73077 -0.43536,-5.96998 0.0739,6.7411 2.59868,1.34703 z" />
      <path
         id="path1333"
         d="m 172.34828,246.46815 -0.65861,-8.3295 c 0,0 0.27119,-3.48677 -3.40928,-5.9275 -3.68048,-2.44074 -9.06559,-3.91293 -11.42885,-5.50134 -2.36325,-1.58842 -3.56425,-1.74339 -3.48676,-6.54738 0.0775,-4.80399 0.34868,-15.61296 0.34868,-15.61296 h -15.80668 c 0,0 0.2712,10.80897 0.34868,15.61296 0.0775,4.80399 -1.12351,4.95896 -3.48676,6.54738 -2.36326,1.58841 -7.74837,3.0606 -11.42885,5.50134 -3.68047,2.44073 -3.40928,5.9275 -3.40928,5.9275 l -0.61987,8.3295 z"
         fill="#b2713b"
         stroke-width="0.387418"
         opacity="1"
         stroke="none" />
      <path
         id="path1335"
         d="m 138.18185,222.24675 c 3.87806,1.82473 6.53188,2.0998 7.62827,2.0998 1.09639,0 3.75021,-0.27894 7.62827,-2.0998 -0.062,-0.58113 -0.0852,-1.26299 -0.0736,-2.08432 0.0775,-4.80399 0.34868,-15.61296 0.34868,-15.61296 h -15.80668 c 0,0 0.2712,10.80897 0.34868,15.61296 0.0116,0.82133 -0.0116,1.50319 -0.0736,2.08432 z"
         fill="#934d13"
         stroke-width="0.387418"
         opacity="0.65" />
      <path
         id="path1337"
         d="m 135.65976,229.5767 c 1.97583,1.12352 4.57154,2.01458 6.81856,2.20828 0.15497,0 0.15497,-0.23245 0.0388,-0.27119 -1.08477,-0.42615 -2.28577,-0.6586 -3.40928,-1.00728 -1.12352,-0.34868 -2.24703,-0.77484 -3.40929,-1.04604 -0.0387,-0.0387 -0.11622,0.0775 -0.0387,0.11623 z m 13.63713,2.402 c 2.05331,-0.23245 4.37782,-1.16226 6.15995,-2.24703 0.11623,-0.0775 0.0387,-0.23245 -0.0775,-0.19371 -1.00728,0.34868 -2.01457,0.77483 -3.02186,1.12351 -1.00728,0.34868 -2.09206,0.58113 -3.09935,0.96855 -0.1937,0.0387 -0.1937,0.34868 0.0388,0.34868 z"
         fill="#934d13"
         stroke-width="0.387418"
         opacity="1"
         stroke="none" />
      <path
         id="path1339"
         d="m 172.30954,246.42941 -0.81358,-8.29076 c 0,-0.85232 -0.19371,-1.74338 -0.58112,-2.55696 -0.34868,-0.81358 -0.89107,-1.51093 -1.51093,-2.1308 -0.61988,-0.61987 -1.35597,-1.08478 -2.13081,-1.54968 -0.77483,-0.4649 -1.58842,-0.85232 -2.40199,-1.20099 -1.62716,-0.7361 -3.3318,-1.39471 -4.9977,-2.09207 -0.85232,-0.34867 -1.6659,-0.73609 -2.47948,-1.16225 -0.42616,-0.23245 -0.81358,-0.4649 -1.16226,-0.73609 -0.38741,-0.23246 -0.77483,-0.46491 -1.16225,-0.7361 -0.38742,-0.27119 -0.77484,-0.58113 -1.08477,-1.00729 -0.30994,-0.38742 -0.50364,-0.85232 -0.65861,-1.31722 -0.2712,-0.92981 -0.30994,-1.85961 -0.30994,-2.78942 0,-1.82086 0.0775,-3.64173 0.11623,-5.46259 0.0775,-3.64174 0.23245,-7.24472 0.34868,-10.84772 l 0.23245,0.23245 -7.90334,-0.0775 -7.90334,-0.0388 0.11623,-0.11622 0.27119,10.84772 c 0.0387,1.82086 0.11623,3.60299 0.15497,5.42386 0,0.9298 -0.0387,1.82086 -0.30993,2.75066 -0.11623,0.46491 -0.34868,0.89107 -0.61987,1.27849 -0.30994,0.38742 -0.65862,0.69735 -1.04603,0.96854 -0.38742,0.2712 -0.77484,0.50365 -1.12352,0.77484 -0.34867,0.23245 -0.73609,0.50364 -1.16225,0.7361 -0.81358,0.4649 -1.62716,0.81357 -2.47948,1.20099 -1.6659,0.7361 -3.3318,1.39471 -4.95896,2.16955 -0.81358,0.38742 -1.62715,0.81357 -2.36325,1.23973 -0.77484,0.4649 -1.47219,0.92981 -2.09206,1.54968 -0.61987,0.61987 -1.12351,1.31722 -1.47219,2.09206 -0.15497,0.38741 -0.30993,0.81358 -0.38742,1.201 -0.0775,0.42615 -0.15496,0.85232 -0.11622,1.23973 v 0.0775 l -0.58113,8.32949 -0.38742,-0.42616 13.17223,0.0388 c 4.37783,0 8.7944,0.0387 13.21097,0.0775 l 13.24971,0.11623 z m 0.0775,0.0775 -13.17223,0.15497 -13.24971,0.11622 c -4.41657,0.0388 -8.87188,0.0775 -13.3272,0.0775 l -13.32719,0.0388 h -0.42616 l 0.0387,-0.42616 0.65861,-8.3295 v 0.0388 c -0.0387,-1.97584 0.85232,-3.7967 2.20829,-5.15267 0.65861,-0.65861 1.47219,-1.201 2.24702,-1.6659 0.77484,-0.4649 1.62716,-0.85232 2.44074,-1.23974 1.6659,-0.77483 3.37054,-1.43345 5.03644,-2.09206 0.81358,-0.34868 1.6659,-0.69735 2.44073,-1.12351 0.38742,-0.19371 0.7361,-0.42616 1.16226,-0.69736 0.38742,-0.23245 0.77484,-0.4649 1.12351,-0.73609 0.34868,-0.23245 0.69736,-0.54238 0.92981,-0.85232 0.27119,-0.34868 0.4649,-0.7361 0.58112,-1.12352 0.23246,-0.81357 0.30994,-1.74338 0.30994,-2.63444 0,-1.78213 -0.0387,-3.60299 -0.0775,-5.42386 l -0.23246,-10.84772 v -0.11622 h 0.11623 l 7.90333,-0.0388 7.90334,-0.0775 h 0.23245 v 0.23246 c -0.0387,3.60299 -0.0775,7.24472 -0.15497,10.84771 -0.0388,1.82087 -0.0775,3.64173 -0.0775,5.42386 0.0387,0.89106 0.0775,1.78212 0.30993,2.59571 0.11623,0.42615 0.30994,0.77483 0.54239,1.12351 0.23245,0.30993 0.54238,0.61987 0.9298,0.85232 0.34868,0.23245 0.7361,0.50364 1.12352,0.73609 0.38742,0.2712 0.73609,0.50365 1.12351,0.69736 0.77484,0.42616 1.58842,0.81357 2.44074,1.16225 1.6659,0.69736 3.3318,1.39471 4.9977,2.16955 0.81357,0.38741 1.62715,0.81357 2.40199,1.27847 0.77484,0.46491 1.54968,1.00729 2.20829,1.66591 1.31722,1.31722 2.16954,3.13808 2.09205,5.03644 v -0.0388 z m -43.7008,-0.15497 0.73609,-5.34638 0.0387,5.34638 z m 34.32527,0 -0.7361,-5.34638 -0.0387,5.34638 z"
         fill="#843e04"
         stroke-width="0.387418"
         opacity="1"
         stroke="none" />
      <path
         id="path1341"
         d="m 162.5466,246.66186 0.0387,-1.39471 10.38282,-1.00729 c 0,0 -0.46491,-6.3924 -0.7361,-7.74837 -0.27119,-1.35596 -0.89106,-3.3318 -4.68776,-5.42385 -3.7967,-2.09206 -10.73149,-4.804 -10.73149,-4.804 -12.24242,11.81627 -21.69543,-0.0387 -21.96663,0 0,0 -6.93479,2.71194 -10.73149,4.804 -3.7967,2.09205 -4.41657,4.06789 -4.68776,5.42385 -0.27119,1.35597 -0.7361,7.74837 -0.7361,7.74837 l 10.38282,1.00729 v 1.39471 z"
         fill="#82cbe2"
         stroke-width="0.387418"
         opacity="1"
         stroke="none"
         style="fill:#040404;fill-opacity:1;stroke:#ffffff" />
      <path
         id="path1343"
         d="m 173.2006,244.25986 c -0.15497,-2.24703 -0.27119,-4.49406 -0.50364,-6.74108 -0.11623,-1.12351 -0.34868,-2.32451 -1.00729,-3.3318 -0.61987,-1.00729 -1.51093,-1.78213 -2.47948,-2.44073 -0.9298,-0.65861 -1.97583,-1.201 -2.98312,-1.70465 -1.00729,-0.50364 -2.05332,-0.96854 -3.0606,-1.43345 -2.05332,-0.9298 -4.14538,-1.74338 -6.27618,-2.55696 -0.0775,-0.0387 -0.19371,0 -0.2712,0.0388 -1.47219,1.47219 -3.09934,2.75066 -4.92021,3.71921 -1.82087,0.96855 -3.83544,1.54968 -5.88876,1.58842 -1.04603,0 -2.05332,-0.11623 -3.06061,-0.34868 -1.00729,-0.27119 -1.97583,-0.65861 -2.86689,-1.12351 -0.89106,-0.46491 -1.78213,-1.04603 -2.5957,-1.6659 -0.42617,-0.30994 -0.81358,-0.65861 -1.201,-1.00729 -0.19371,-0.15497 -0.38742,-0.34868 -0.54239,-0.54238 l -0.27119,-0.2712 -0.15497,-0.15497 -0.0775,-0.0775 -0.0387,-0.0387 -0.0387,-0.0388 c 0,0 -0.0775,-0.0387 -0.11623,-0.0387 h -0.0387 c -2.09206,0.81357 -4.18411,1.62715 -6.27617,2.51821 -1.04603,0.42617 -2.05332,0.89107 -3.09935,1.39471 -1.00729,0.50365 -2.01458,1.00729 -2.98312,1.6659 -0.92981,0.65861 -1.85961,1.43345 -2.47948,2.44074 -0.65861,1.00728 -0.92981,2.20828 -1.04603,3.33179 -0.27119,2.24703 -0.42616,4.49406 -0.61987,6.74109 0,0.19371 0.15497,0.38742 0.34868,0.42616 l 5.1914,0.50364 4.84273,0.4649 v 1.04603 c 0,0.23246 0.19371,0.38742 0.38742,0.38742 2.82816,0 5.61757,0 8.44572,-0.0388 l 8.40699,-0.0775 16.65899,-0.23244 0.0775,-1.35597 5.11392,-0.38742 5.19141,-0.42615 c 0.15496,0 0.23245,-0.11623 0.23245,-0.23246 z m -5.4626,0.30994 -5.1914,0.61986 c -0.0388,0 -0.0775,0.0388 -0.0775,0.0775 l 0.0388,1.39471 -16.81396,-0.23245 -8.3295,-0.0775 c -2.63444,-0.0387 -5.26889,-0.0387 -7.90333,-0.0387 v -1.00729 c 0,-0.19371 -0.15497,-0.38742 -0.34868,-0.38742 l -5.19141,-0.58113 -4.84273,-0.42616 c 0.15497,-2.09205 0.30994,-4.22286 0.50365,-6.31492 0.11622,-1.12351 0.34867,-2.16954 0.89106,-3.0606 0.58113,-0.89107 1.39471,-1.62716 2.28577,-2.28577 0.89106,-0.61987 1.85961,-1.16226 2.86689,-1.6659 1.00729,-0.50365 2.01458,-1.00729 3.02187,-1.47219 2.01457,-0.9298 4.06789,-1.78212 6.12121,-2.63445 l 0.0775,0.0388 0.15497,0.11623 0.27119,0.27119 c 0.19371,0.19371 0.38742,0.34868 0.58113,0.54238 0.38742,0.34868 0.81358,0.69736 1.201,1.00729 0.85232,0.61987 1.70464,1.201 2.63444,1.70464 1.85961,0.96855 3.95167,1.51094 6.04373,1.51094 2.09206,0 4.18412,-0.58113 6.08247,-1.51094 1.82087,-0.9298 3.48676,-2.16954 4.95895,-3.56425 2.01458,0.81358 4.02916,1.70464 6.04373,2.59571 1.00729,0.4649 2.05332,0.9298 3.02187,1.43344 1.00728,0.50365 1.97583,1.00729 2.86689,1.62716 0.89107,0.61987 1.74339,1.35597 2.32451,2.24703 0.58113,0.89106 0.85232,1.93709 0.92981,3.06061 0.11623,1.12351 0.23245,2.24702 0.34868,3.3318 l 0.27119,3.13808 z m -38.93555,-2.82816 -0.11622,-0.42616 -0.15497,-0.38742 c -0.34868,-1.08477 -0.89106,-2.09205 -1.47219,-3.0606 -0.61987,-0.96855 -1.31722,-1.85961 -2.1308,-2.63445 -0.81358,-0.77484 -1.70464,-1.51093 -2.71193,-1.97584 0.4649,0.30994 0.89106,0.65862 1.31722,1.00729 0.42616,0.34868 0.81358,0.7361 1.201,1.16226 0.73609,0.81358 1.43345,1.70464 2.01457,2.63444 0.15497,0.23245 0.2712,0.46491 0.42616,0.69736 0.15497,0.23245 0.2712,0.4649 0.38742,0.73609 0.11623,0.23246 0.2712,0.50365 0.38742,0.7361 0.11623,0.27119 0.23245,0.50364 0.34868,0.77483 l 0.15496,0.38742 0.15497,0.38743 0.27119,0.77483 c 0.19371,0.54238 0.30994,1.08477 0.50365,1.58842 -0.11623,-0.54239 -0.19371,-1.12352 -0.34868,-1.6659 z m 35.99117,-3.83544 c -0.58113,0.96854 -1.12351,1.97583 -1.47219,3.0606 l -0.15496,0.38742 -0.11623,0.42616 -0.23245,0.81358 c -0.11623,0.54239 -0.23245,1.08477 -0.34868,1.6659 0.19371,-0.54239 0.30994,-1.08477 0.50365,-1.58841 l 0.27119,-0.77484 0.15497,-0.38742 0.15497,-0.38742 c 0.11622,-0.23245 0.23245,-0.50364 0.34867,-0.77484 0.11623,-0.23245 0.23245,-0.50364 0.38742,-0.73609 0.11623,-0.23245 0.23245,-0.50364 0.38742,-0.7361 0.15496,-0.23245 0.27119,-0.4649 0.42616,-0.69735 0.58112,-0.9298 1.27848,-1.82087 2.01457,-2.63444 0.34868,-0.42617 0.77484,-0.81359 1.201,-1.16226 0.42616,-0.38742 0.85232,-0.7361 1.31722,-1.00729 -1.00729,0.50364 -1.89835,1.201 -2.71193,1.97583 -0.81357,0.69736 -1.51093,1.62716 -2.1308,2.55697 z"
         fill="#49a6c3"
         stroke-width="0.387418"
         opacity="1"
         stroke="none" />
      <g
         id="g1353"
         transform="matrix(0.38741844,0,0,0.38741844,107.06828,161.4298)">
        <g
           id="g1351">
          <path
             id="path1345"
             d="m 64,93.7 c 0,0 -2.3,-2.2 -5,-3.3 -2.7,-1.1 -5.7,0.7 -6.6,3.4 -0.9,2.7 1.2,14 4.7,18.1 3.5,4.1 5.8,4.4 8.1,2.3 2.3,-2 6.4,-9.9 -1.2,-20.5 z"
             fill="#b2713b"
             stroke-width="none"
             opacity="1"
             stroke="none" />
          <path
             id="path1347"
             d="m 65.2,95.3 c 0.4,0.6 0.7,1.2 1.1,1.8 0.4,0.6 0.7,1.3 1,1.9 0.3,0.7 0.6,1.3 0.8,2 0.2,0.7 0.5,1.4 0.6,2.2 0.1,0.4 0.1,0.8 0.2,1.1 l 0.1,1.2 c 0,1.6 -0.2,3.1 -0.6,4.6 -0.5,1.5 -1.1,2.8 -2.1,3.9 -0.2,0.3 -0.5,0.5 -0.7,0.8 -0.3,0.2 -0.5,0.4 -0.8,0.6 -0.6,0.4 -1.2,0.7 -1.9,0.7 -0.7,0.1 -1.4,0 -2,-0.3 -0.6,-0.3 -1.2,-0.7 -1.7,-1.1 -0.5,-0.4 -1,-0.9 -1.5,-1.5 -0.5,-0.5 -0.9,-1.1 -1.3,-1.7 -1.5,-2.5 -2.4,-5.3 -3.2,-8.1 -0.4,-1.4 -0.7,-2.8 -1,-4.3 -0.3,-1.5 -0.5,-2.9 -0.4,-4.5 0,-0.4 0.1,-0.8 0.2,-1.3 0.1,-0.2 0.1,-0.4 0.2,-0.6 l 0.3,-0.5 c 0.4,-0.7 0.9,-1.2 1.4,-1.7 1.1,-0.9 2.4,-1.3 3.7,-1.1 0.6,0.1 1.3,0.3 1.8,0.6 0.6,0.3 1.1,0.6 1.7,1 1.1,0.7 2.1,1.5 3.1,2.4 z M 60.8,91.5 C 60.2,91.2 59.7,91 59.1,90.8 58.5,90.6 58,90.5 57.4,90.5 c -1.1,0.1 -2.2,0.5 -3.1,1.3 -0.4,0.4 -0.8,0.8 -1.1,1.4 -0.1,0.3 -0.3,0.5 -0.4,0.8 -0.1,0.3 -0.2,0.5 -0.2,0.9 -0.2,1.3 -0.1,2.8 0.1,4.2 0.2,1.4 0.4,2.9 0.7,4.3 0.7,2.8 1.7,5.6 3.3,7.7 0.8,1 1.8,1.9 2.7,2.7 1,0.7 2.1,1.2 3.1,1 0.5,-0.1 1,-0.3 1.5,-0.6 0.5,-0.3 0.9,-0.7 1.3,-1.2 0.7,-1 1.4,-2.1 1.7,-3.4 0.4,-1.3 0.6,-2.6 0.7,-4 0,-1.4 -0.1,-2.8 -0.4,-4.2 -0.6,-2.8 -1.8,-5.4 -3.4,-7.6 -0.9,-1 -2,-1.7 -3.1,-2.3 z"
             fill="#a35e26"
             stroke-width="none"
             opacity="1"
             stroke="none" />
          <path
             id="path1349"
             d="m 55.9,93.3 c 3,0.5 5,5.7 5.6,9.2 0.1,0.1 0.1,0.2 0.2,0.3 0.3,0.5 -0.4,1.1 -0.7,0.6 -0.4,-0.7 -1,-1.5 -1.7,-1.8 -1.3,-0.5 -2,1 -1.7,2.5 0.4,1.7 1.5,2.8 2.5,4.1 0.1,0.1 0,0.3 -0.1,0.2 -1.6,-1 -4,-4.5 -2.9,-6.7 0.8,-1.6 2.1,-1.3 3.2,-0.4 -0.7,-2 -1.3,-4 -2.8,-5.5 -0.5,-0.5 -1.4,-1.3 -2.1,-1.2 -1.2,0.2 -1.2,2 -1.3,3.1 -0.1,1.5 0.1,3.1 0.3,4.7 0,0.2 -0.2,0.2 -0.2,0.1 -0.6,-2.4 -1.8,-9.8 1.7,-9.2 z"
             fill="#934d13"
             stroke-width="none"
             opacity="1"
             stroke="none" />
        </g>
      </g>
      <g
         id="g1363"
         transform="matrix(0.38741844,0,0,0.38741844,107.06828,161.4298)">
        <g
           id="g1361">
          <path
             id="path1355"
             d="m 136,93.7 c 0,0 2.3,-2.2 5,-3.3 2.7,-1.1 5.7,0.7 6.6,3.4 0.9,2.7 -1.2,14 -4.7,18.1 -3.5,4.1 -5.8,4.4 -8.1,2.3 -2.3,-2 -6.4,-9.9 1.2,-20.5 z"
             fill="#b2713b"
             stroke-width="none"
             opacity="1"
             stroke="none" />
          <path
             id="path1357"
             d="m 136,93.6 c 1,-0.9 2,-1.7 3.1,-2.4 0.5,-0.4 1.1,-0.7 1.7,-1 0.6,-0.3 1.2,-0.5 1.8,-0.6 1.3,-0.1 2.6,0.2 3.7,1.1 0.5,0.4 1,1 1.4,1.7 l 0.3,0.5 c 0.1,0.2 0.1,0.4 0.2,0.6 0.1,0.4 0.2,0.9 0.2,1.3 0.1,1.6 -0.2,3.1 -0.4,4.5 -0.3,1.5 -0.6,2.9 -1,4.3 -0.8,2.8 -1.7,5.6 -3.2,8.1 -0.4,0.6 -0.8,1.1 -1.3,1.7 -0.4,0.5 -0.9,1 -1.5,1.5 -0.5,0.4 -1.1,0.8 -1.7,1.1 -0.6,0.3 -1.3,0.4 -2,0.3 -0.7,-0.1 -1.3,-0.4 -1.9,-0.7 -0.3,-0.2 -0.6,-0.4 -0.8,-0.6 -0.3,-0.2 -0.5,-0.5 -0.7,-0.8 -0.9,-1.1 -1.6,-2.5 -2.1,-3.9 -0.4,-1.5 -0.7,-3 -0.6,-4.6 l 0.1,-1.2 c 0,-0.4 0.1,-0.8 0.2,-1.1 0.1,-0.8 0.4,-1.5 0.6,-2.2 0.3,-0.7 0.5,-1.4 0.8,-2 0.3,-0.6 0.6,-1.3 1,-1.9 0.4,-0.6 0.7,-1.2 1.1,-1.8 z m 0,0.1 c -1.6,2.2 -2.8,4.9 -3.4,7.6 -0.3,1.4 -0.4,2.8 -0.4,4.2 0,1.4 0.2,2.7 0.7,4 0.4,1.3 1,2.4 1.7,3.4 0.4,0.5 0.8,0.9 1.3,1.2 0.5,0.3 0.9,0.6 1.5,0.6 1,0.2 2.1,-0.3 3.1,-1 1,-0.8 1.9,-1.7 2.7,-2.7 1.6,-2.1 2.6,-4.9 3.3,-7.7 0.4,-1.4 0.6,-2.8 0.7,-4.3 0.2,-1.4 0.2,-2.9 0.1,-4.2 0,-0.3 -0.1,-0.6 -0.2,-0.9 -0.1,-0.3 -0.2,-0.6 -0.4,-0.8 -0.3,-0.5 -0.7,-1 -1.1,-1.4 -0.9,-0.7 -1.9,-1.2 -3.1,-1.3 -0.6,0 -1.1,0.1 -1.7,0.3 -0.6,0.2 -1.1,0.4 -1.7,0.7 -1,0.7 -2.1,1.4 -3.1,2.3 z"
             fill="#a35e26"
             stroke-width="none"
             opacity="1"
             stroke="none" />
          <path
             id="path1359"
             d="m 144.1,93.3 c -3,0.5 -5,5.7 -5.6,9.2 -0.1,0.1 -0.1,0.2 -0.2,0.3 -0.3,0.5 0.4,1.1 0.7,0.6 0.4,-0.7 1,-1.5 1.7,-1.8 1.3,-0.5 2,1 1.7,2.5 -0.4,1.7 -1.5,2.8 -2.5,4.1 -0.1,0.1 0,0.3 0.1,0.2 1.6,-1 4,-4.5 2.9,-6.7 -0.8,-1.6 -2.1,-1.3 -3.2,-0.4 0.7,-2 1.3,-4 2.8,-5.5 0.5,-0.5 1.4,-1.3 2.1,-1.2 1.2,0.2 1.2,2 1.3,3.1 0.1,1.5 -0.1,3.1 -0.3,4.7 0,0.2 0.2,0.2 0.2,0.1 0.6,-2.4 1.8,-9.8 -1.7,-9.2 z"
             fill="#934d13"
             stroke-width="none"
             opacity="1"
             stroke="none" />
        </g>
      </g>
      <g
         id="g1371"
         transform="matrix(0.38741844,0,0,0.38741844,107.06828,161.4298)">
        <g
           id="g1369">
          <path
             id="path1365"
             d="m 100.01,40.83 c -21.4,0 -39.8,15.6 -41,44.1 0,0 0.1,15.8 2.5,28.3 2.3,12.6 3.5,24.2 15.4,30.5 11.9,6.4 20,7.2 23.2,7.2 3.1,0 11.2,-0.9 23.2,-7.2 12,-6.3 13.1,-18 15.4,-30.5 2.3,-12.6 2.5,-28.3 2.5,-28.3 -1.4,-28.4 -19.8,-44.1 -41.2,-44.1 z"
             fill="#b2713b"
             stroke-width="none"
             opacity="1" />
          <path
             id="path1367"
             d="m 100,41.3 c -21.4,0 -39.8,15.6 -41,44.1 0,0 0.1,15.8 2.5,28.3 2.4,12.5 3.5,24.2 15.4,30.5 11.9,6.4 20,7.2 23.2,7.2 3.1,0 11.2,-0.9 23.2,-7.2 11.9,-6.4 13.1,-18 15.4,-30.5 2.3,-12.6 2.5,-28.3 2.5,-28.3 C 139.8,57 121.4,41.3 100,41.3 Z m 35.5,26.9 0.7,2.2 c 0.1,0.4 0.6,2.2 0.6,2.2 0.1,0.4 0.9,4.5 0.9,4.5 0.1,0.4 0.3,2.4 0.3,2.4 0,0.4 0.1,0.8 0.1,1.2 l 0.2,2.4 0.2,2.7 v 0.6 c -0.1,3.2 -0.3,6.4 -0.5,9.6 -0.2,3.2 -0.5,6.4 -0.9,9.6 -0.2,1.6 -0.4,3.2 -0.6,4.7 -0.1,0.8 -0.2,1.6 -0.4,2.3 -0.1,0.8 -0.3,1.6 -0.4,2.4 -0.5,3.2 -1,6.4 -1.7,9.4 -0.7,3.1 -1.6,6 -2.9,8.7 -1.3,2.7 -3.1,5 -5.4,6.9 -1.1,0.9 -6.21,4.62 -11.3,6.42 -1.5,0.6 -3.8,1.38 -5.3,1.78 -1.5,0.5 -3,0.9 -4.5,1.2 -1.5,0.3 -3.1,0.6 -4.6,0.6 -1.5,0 -3.1,-0.1 -4.6,-0.3 -1.6,-0.2 -3.1,-0.5 -4.7,-0.9 -3.1,-0.8 -6.1,-1.9 -9.1,-3.2 -0.7,-0.3 -1.5,-0.7 -2.2,-1 -0.7,-0.4 -1.4,-0.7 -2.2,-1.1 -1.4,-0.7 -2.7,-1.6 -4,-2.6 -2.5,-2 -4.4,-4.5 -5.8,-7.3 -1.4,-2.8 -2.3,-5.9 -2.9,-9 -0.6,-3.1 -1.1,-6.3 -1.5,-9.6 -0.2,-1.6 -0.5,-3.2 -0.6,-4.8 -0.2,-1.6 -0.3,-3.2 -0.5,-4.8 -0.2,-3.2 -0.4,-6.4 -0.5,-9.6 0,-0.8 -0.1,-1.6 -0.1,-2.4 L 61.2,91 c 0,-1.6 -0.1,-3.2 -0.1,-4.8 l 0.1,-2.2 0.1,-1.1 0.1,-1.2 c 0,0 0.2,-2 0.3,-2.4 0,0 0.3,-2 0.4,-2.4 1.1,-6.1 3,-12.2 6.2,-17.5 1.6,-2.7 3.5,-5.2 5.7,-7.4 2.2,-2.2 4.8,-4.2 7.5,-5.8 1.4,-0.8 2.8,-1.5 4.3,-2.1 1.5,-0.6 3,-1.1 4.6,-1.5 l 1.8,-0.4 0.6,-0.1 1.2,-0.2 c 3.5,-0.51 9.2,-0.4 10.8,-0.2 0.4,0.1 0.8,0.1 1.2,0.2 l 1.2,0.2 0.6,0.1 1.8,0.4 c 1.5,0.4 3.1,0.9 4.6,1.5 1.5,0.6 2.9,1.3 4.3,2.1 2.8,1.6 5.3,3.6 7.5,5.8 2.2,2.2 4.1,4.8 5.7,7.4 1.6,2.9 2.8,5.8 3.8,8.8 z"
             fill="#843e04"
             stroke-width="none"
             opacity="1" />
        </g>
      </g>
      <g
         id="g1387"
         transform="matrix(0.38741844,0,0,0.38741844,107.06828,161.4298)">
        <g
           id="g1385">
          <path
             id="path1373"
             d="m 87.37,125.93 c 0,0 1.12,4.65 4.76,7.15 3.64,2.5 9.31,2.85 13.38,1.21 4.07,-1.64 6.77,-5.97 7.12,-7.11 0,0 -20.18,-0.45 -20.32,-0.49 -0.14,-0.04 -4.94,-0.76 -4.94,-0.76 z"
             fill="#d4422b"
             stroke-width="none"
             opacity="1"
             transform="translate(0,3)"
             stroke="none" />
          <path
             id="path1375"
             d="m 86.29,125.34 c 0,0 2.21,2.8 6.33,3.78 2.69,0.64 5.63,-0.21 6.96,-0.36 1.33,-0.15 1.97,0.36 4.15,0.64 2.18,0.28 6.33,0.14 10.06,-2.78 0,0 -2.04,0.5 -3.38,-0.43 -1.34,-0.93 -2.88,-3.21 -7.66,-3.92 -4.78,-0.71 -8.23,-0.14 -11.25,1.36 -3.03,1.5 -3.73,1.92 -5.21,1.71 z"
             fill="#cc371f"
             stroke-width="none"
             opacity="1"
             transform="translate(0,3)"
             stroke="none" />
          <path
             id="path1377"
             d="m 86.08,125.64 c 1.36,1.69 3.21,2.75 5.27,3.39 2.54,0.78 4.71,0.27 7.28,0.04 2.94,-0.27 5.68,1.1 8.66,0.68 2.34,-0.33 4.57,-1.41 6.54,-2.68 0.56,-0.37 -0.01,-1.28 -0.52,-0.89 -2.09,1.6 -4.46,2.74 -7.15,2.68 -2.3,-0.06 -4.4,-1.1 -6.74,-0.84 -2.02,0.22 -3.9,0.97 -5.96,0.78 -2.8,-0.26 -4.91,-1.76 -6.77,-3.75 -0.39,-0.42 -0.95,0.17 -0.61,0.59 z"
             fill="#c52c14"
             stroke-width="none"
             opacity="1"
             transform="translate(0,3)"
             stroke="none" />
          <path
             id="path1379"
             d="m 89.91,126.96 c 2.22,2.07 5.07,1.03 7.71,0.53 3.67,-0.69 7.27,1.65 10.87,0.51 0.21,-0.07 0.19,-0.42 -0.05,-0.4 -3.01,0.24 -5.45,-1.84 -8.45,-1.66 -3.45,0.22 -6.63,3.22 -10.02,0.94 -0.05,-0.03 -0.1,0.04 -0.06,0.08 z"
             fill="#dc4e38"
             stroke-width="none"
             opacity="1"
             transform="translate(0,3)"
             stroke="none" />
          <path
             id="path1381"
             d="m 108.59,130.42 c -0.95,0.98 -1.89,1.9 -3.13,2.5 -1.38,0.67 -2.74,0.71 -4.23,0.85 -0.35,0.03 -0.46,0.54 -0.09,0.64 2.84,0.76 6.56,-1.1 7.87,-3.67 0.13,-0.26 -0.2,-0.55 -0.42,-0.32 z"
             fill="#dc4e38"
             stroke-width="none"
             opacity="1"
             transform="translate(0,3)"
             stroke="none" />
          <path
             id="path1383"
             d="m 87.47,125.61 c 2.67,0.29 4.92,-2.02 7.47,-2.57 3.41,-0.73 6.76,-0.31 10.12,0.42 0.28,0.06 0.37,-0.31 0.12,-0.42 -2.62,-1.11 -5.96,-1.09 -8.73,-0.75 -1.23,0.15 -2.47,0.4 -3.62,0.87 -1.88,0.77 -3.26,2 -5.36,2.25 -0.12,0.02 -0.12,0.19 0,0.2 z"
             fill="#e35a45"
             stroke-width="none"
             opacity="1"
             transform="translate(0,3)"
             stroke="none" />
        </g>
      </g>
      <g
         id="g1417"
         transform="matrix(0.38741844,0,0,0.38741844,107.06828,161.4298)">
        <g
           id="g1415">
          <g
             id="g1391">
            <path
               id="path1389"
               d="m 92.3,99.5 c 0,0 -1.4,-2.7 -3.1,-3.9 -1.7,-1.3 -4.6,-3.1 -9.3,-2.1 -4.7,0.9 -8,4.7 -8,4.7 0,0 5.9,2.2 11.3,2.2 5.3,-0.1 9.1,-0.9 9.1,-0.9 z"
               fill="#ffffff"
               stroke-width="none"
               opacity="1" />
          </g>
          <g
             id="g1403">
            <g
               id="g1401">
              <g
                 id="g1399">
                <path
                   id="path1393"
                   d="m 82,91.5 c 2.7,0 4.9,2.2 4.9,4.9 0,2.7 -2.2,4.9 -4.9,4.9 -2.7,0 -4.9,-2.2 -4.9,-4.9 0,-2.7 2.2,-4.9 4.9,-4.9 z"
                   fill="#681711"
                   stroke-width="none"
                   opacity="1" />
                <path
                   id="path1395"
                   d="m 82,93.8 c 1.4,0 2.6,1.2 2.6,2.6 0,1.4 -1.2,2.6 -2.6,2.6 -1.4,0 -2.6,-1.2 -2.6,-2.6 0,-1.4 1.2,-2.6 2.6,-2.6 z"
                   fill="#000000"
                   stroke-width="none"
                   opacity="1" />
                <path
                   id="path1397"
                   d="m 81.3,94.3 -0.5,-0.5 c -0.2,-0.2 -0.4,-0.3 -0.7,-0.3 -0.3,0 -0.5,0.1 -0.7,0.3 -0.2,0.2 -0.3,0.4 -0.3,0.7 0,0.3 0.1,0.5 0.3,0.7 l 0.5,0.5 c 0.2,0.2 0.4,0.3 0.7,0.3 0.2,0 0.5,-0.1 0.7,-0.3 0.4,-0.5 0.4,-1 0,-1.4 z m 2.5,4.4 c 0.8,0 0.8,-1.3 0,-1.3 -0.8,0 -0.9,1.3 0,1.3 z"
                   fill="#ffffff"
                   stroke-width="none"
                   opacity="1" />
              </g>
            </g>
          </g>
          <g
             id="g1413">
            <path
               id="path1405"
               d="m 70.73,98.03 c 0,6.9 4.93,12.5 11.02,12.5 6.09,0 11.02,-5.6 11.02,-12.5 0,-6.9 -4.93,-12.5 -11.02,-12.5 -6.09,0 -11.02,5.59 -11.02,12.5 z m 1.2,0.17 c 0,0 3.31,-3.76 8,-4.69 4.69,-0.93 7.55,0.87 9.25,2.12 1.7,1.25 3.12,3.92 3.12,3.92 0,0 -3.76,0.77 -9.09,0.84 -5.34,0.06 -11.28,-2.19 -11.28,-2.19 z"
               fill="#b2713b"
               stroke-width="none"
               opacity="1"
               stroke="none" />
            <path
               id="path1407"
               d="m 91.56,97.86 c 0,0 -2.08,-4.66 -7.97,-5.44 -5.89,-0.79 -14.54,3.87 -15.21,5.61 -0.67,1.74 14.43,3.48 18.3,2.53 0,0 -11.56,-0.39 -14.54,-2.3 0,0 2.3,-4.27 8.93,-4.83 6.61,-0.57 10.04,3.7 10.49,4.43 z"
               fill="#b2713b"
               stroke-width="none"
               opacity="1"
               stroke="none" />
            <path
               id="path1409"
               d="m 92.49,100.56 c -2.99,2.4 -6.96,3.48 -10.76,3.36 -0.17,-0.01 -0.17,-0.25 0,-0.26 3.97,-0.16 7.22,-1.31 10.68,-3.21 0.07,-0.04 0.15,0.05 0.08,0.11 z"
               fill="#a35e26"
               stroke-width="none"
               opacity="1"
               stroke="none" />
            <path
               id="path1411"
               d="m 71.75,98.72 c 6.44,2.32 13.78,2.6 20.43,0.97 0.13,0.06 0.34,-0.05 0.27,-0.21 -3.52,-8.75 -15.59,-8.02 -20.9,-1.51 -0.22,0.27 -0.14,0.63 0.2,0.75 z m 0.88,-0.65 c 5.34,-6.21 15.21,-6.15 19.35,1.37 -6.45,1.12 -13.13,0.73 -19.35,-1.37 z"
               fill="#1b2a40"
               stroke-width="none"
               opacity="1"
               stroke="none" />
          </g>
        </g>
      </g>
      <g
         id="g1447"
         transform="matrix(0.38741844,0,0,0.38741844,107.06828,161.4298)">
        <g
           id="g1445">
          <g
             id="g1421">
            <path
               id="path1419"
               d="m 107.7,99.5 c 0,0 1.4,-2.7 3.1,-3.9 1.7,-1.3 4.6,-3.1 9.3,-2.1 4.7,0.9 8,4.7 8,4.7 0,0 -5.9,2.2 -11.3,2.2 -5.3,-0.1 -9.1,-0.9 -9.1,-0.9 z"
               fill="#ffffff"
               stroke-width="none"
               opacity="1" />
          </g>
          <g
             id="g1433">
            <g
               id="g1431">
              <g
                 id="g1429">
                <path
                   id="path1423"
                   d="m 118,91.5 c 2.7,0 4.9,2.2 4.9,4.9 0,2.7 -2.2,4.9 -4.9,4.9 -2.7,0 -4.9,-2.2 -4.9,-4.9 0,-2.7 2.2,-4.9 4.9,-4.9 z"
                   fill="#681711"
                   stroke-width="none"
                   opacity="1" />
                <path
                   id="path1425"
                   d="m 118,93.8 c 1.4,0 2.6,1.2 2.6,2.6 0,1.4 -1.2,2.6 -2.6,2.6 -1.4,0 -2.6,-1.2 -2.6,-2.6 0,-1.4 1.2,-2.6 2.6,-2.6 z"
                   fill="#000000"
                   stroke-width="none"
                   opacity="1" />
                <path
                   id="path1427"
                   d="m 117.4,94.3 -0.5,-0.5 c -0.2,-0.2 -0.4,-0.3 -0.7,-0.3 -0.3,0 -0.5,0.1 -0.7,0.3 -0.2,0.2 -0.3,0.4 -0.3,0.7 0,0.3 0.1,0.5 0.3,0.7 l 0.5,0.5 c 0.2,0.2 0.4,0.3 0.7,0.3 0.2,0 0.5,-0.1 0.7,-0.3 0.3,-0.5 0.4,-1 0,-1.4 z m 2.4,4.4 c 0.8,0 0.8,-1.3 0,-1.3 -0.8,0 -0.8,1.3 0,1.3 z"
                   fill="#ffffff"
                   stroke-width="none"
                   opacity="1" />
              </g>
            </g>
          </g>
          <g
             id="g1443">
            <path
               id="path1435"
               d="m 118.26,85.53 c -6.08,0 -11.02,5.6 -11.02,12.5 0,6.9 4.93,12.5 11.02,12.5 6.09,0 11.02,-5.6 11.02,-12.5 0,-6.9 -4.94,-12.5 -11.02,-12.5 z m -1.47,14.85 c -5.33,-0.06 -9.09,-0.84 -9.09,-0.84 0,0 1.41,-2.67 3.12,-3.92 1.7,-1.25 4.56,-3.05 9.25,-2.12 4.69,0.93 8,4.69 8,4.69 0,0 -5.94,2.26 -11.28,2.19 z"
               fill="#b2713b"
               stroke-width="none"
               opacity="1"
               stroke="none" />
            <path
               id="path1437"
               d="m 108.44,97.86 c 0,0 2.08,-4.66 7.97,-5.44 5.89,-0.79 14.54,3.87 15.21,5.61 0.67,1.74 -14.43,3.48 -18.3,2.53 0,0 11.56,-0.39 14.54,-2.3 0,0 -2.3,-4.27 -8.93,-4.83 -6.61,-0.57 -10.04,3.7 -10.49,4.43 z"
               fill="#aa6730"
               stroke-width="none"
               opacity="1"
               stroke="none" />
            <path
               id="path1439"
               d="m 107.51,100.56 c 2.99,2.4 6.96,3.48 10.76,3.36 0.17,-0.01 0.17,-0.25 0,-0.26 -3.97,-0.16 -7.22,-1.31 -10.68,-3.21 -0.07,-0.04 -0.15,0.05 -0.08,0.11 z"
               fill="#a35e26"
               stroke-width="none"
               opacity="1"
               stroke="none" />
            <path
               id="path1441"
               d="m 128.45,97.96 c -5.31,-6.51 -17.38,-7.23 -20.9,1.51 -0.07,0.17 0.14,0.28 0.27,0.21 6.65,1.63 13.98,1.35 20.43,-0.97 0.34,-0.11 0.42,-0.47 0.2,-0.75 z m -20.43,1.47 c 4.14,-7.52 14.01,-7.58 19.35,-1.37 -6.22,2.11 -12.9,2.5 -19.35,1.37 z"
               fill="#1b2a40"
               stroke-width="none"
               opacity="1"
               stroke="none" />
          </g>
        </g>
      </g>
      <g
         id="g1459"
         transform="matrix(0.38741844,0,0,0.38741844,107.06828,161.4298)">
        <g
           id="g1457">
          <g
             id="g1455">
            <path
               id="path1449"
               d="m 72.9,84.2 c 0.1,-0.2 0.4,-0.3 0.6,-0.4 0.2,-0.1 0.4,-0.2 0.6,-0.2 0.4,-0.2 0.8,-0.4 1.2,-0.5 0.5,-0.1 1.2,-0.5 1.7,-0.2 1.6,-0.6 3.7,-0.2 5.1,0.6 1.9,0.2 3.9,0.8 5.3,1.8 0.1,0.1 0.2,0.2 0.2,0.3 0.3,0.1 0.5,0.2 0.8,0.3 1,0.4 2.1,0.7 3.1,1.2 0.1,0 0.2,0.1 0.3,0.1 0.3,0.1 0.4,0.7 0.2,0.8 -0.1,0.1 -0.1,0.2 -0.2,0.3 -0.8,0.6 -1.8,0.2 -2.6,-0.1 -0.7,-0.3 -1.5,-0.6 -2,-1.2 -0.8,-0.3 -1.4,-0.7 -2.1,-1.1 -0.1,0 -0.2,-0.1 -0.3,-0.1 -1.2,-0.2 -2.5,-0.7 -3.7,-1.3 -0.7,-0.1 -1.3,-0.3 -2,-0.3 -0.9,-0.1 -1.8,0.2 -2.8,-0.1 h -0.1 c -0.2,0.1 -0.4,0.1 -0.6,0.2 -0.8,0.2 -1.5,0.4 -2.3,0.4 -0.1,0 -0.2,-0.1 -0.2,-0.2 H 73 c 0,0 -0.2,-0.1 -0.1,-0.3 z"
               fill="#543c32"
               stroke-width="none"
               opacity="1" />
            <path
               id="path1451"
               d="m 77.4,82.3 c 3.1,-0.2 6.2,1.5 9,2.6 1.7,0.7 5.2,0.9 5.9,3 0.1,0.3 -0.3,0.4 -0.5,0.2 -0.9,-1.2 -2.4,-1.4 -3.8,-1.8 -1.2,-0.4 -2.3,-0.8 -3.5,-1.3 -2.4,-1 -4.8,-1.6 -7.3,-2.2 -0.1,-0.1 0,-0.4 0.2,-0.5 z"
               fill="#634e45"
               stroke-width="none"
               opacity="1" />
            <path
               id="path1453"
               d="m 93.3,87.9 c 0.3,-1.4 -1.8,-1.9 -2.8,-2.3 -2.4,-1 -4.9,-2.1 -7.4,-2.8 -1.5,-0.4 -3.1,-0.7 -4.6,-0.7 -1.2,0 -2.3,0.1 -3.5,0.5 -2,0.6 -3.9,1.8 -5.6,3.1 -0.9,0.5 -1.8,1.2 -2.5,1.9 -0.1,0.1 0,0.3 0.2,0.2 0,0 0.1,0 0.1,-0.1 0,0.1 0.1,0.1 0.2,0.1 1.5,-0.7 2.8,-1.6 4.3,-2.2 1.5,-0.6 3.1,-1 4.7,-1.1 h 0.7 c 1.9,0 3.7,0.4 5.4,1.2 2.4,1.1 4.6,2.6 7,3.5 0.4,0.2 0.9,0.2 1.4,0.2 1.1,0 2.2,-0.4 2.4,-1.5 z M 78.5,83 c 1.6,0 3.2,0.4 4.8,0.9 2,0.7 4,1.6 6,2.4 0.4,0.2 2.4,0.7 2.6,1.2 0.2,0.6 -0.2,0.8 -0.8,0.9 -0.3,0 -0.6,-0.1 -0.8,-0.1 -0.6,-0.2 -1.2,-0.6 -1.7,-0.9 -3.1,-1.6 -6.3,-3.5 -9.8,-3.7 h -1 c -1.1,0 -2.3,0.1 -3.5,0.3 0.5,-0.2 1,-0.4 1.6,-0.6 0.8,-0.3 1.7,-0.4 2.6,-0.4 z"
               fill="#452c22"
               stroke-width="none"
               opacity="1" />
          </g>
        </g>
      </g>
      <g
         id="g1471"
         transform="matrix(0.38741844,0,0,0.38741844,107.06828,161.4298)">
        <g
           id="g1469">
          <g
             id="g1467">
            <path
               id="path1461"
               d="m 127.1,84.2 c -0.1,-0.2 -0.4,-0.3 -0.6,-0.4 -0.2,-0.1 -0.4,-0.2 -0.6,-0.2 -0.4,-0.2 -0.8,-0.4 -1.2,-0.5 -0.5,-0.1 -1.2,-0.5 -1.7,-0.2 -1.6,-0.6 -3.7,-0.2 -5.1,0.6 -1.9,0.2 -3.9,0.8 -5.3,1.8 -0.1,0.1 -0.2,0.2 -0.2,0.3 -0.3,0.1 -0.5,0.2 -0.8,0.3 -1,0.4 -2.1,0.7 -3.1,1.2 -0.1,0 -0.2,0.1 -0.3,0.1 -0.3,0.1 -0.4,0.7 -0.2,0.8 0.1,0.1 0.1,0.2 0.2,0.3 0.8,0.6 1.8,0.2 2.6,-0.1 0.7,-0.3 1.5,-0.6 2,-1.2 0.8,-0.3 1.4,-0.7 2.1,-1.1 0.1,0 0.2,-0.1 0.3,-0.1 1.2,-0.2 2.5,-0.7 3.7,-1.3 0.7,-0.1 1.3,-0.3 2,-0.3 0.9,-0.1 1.8,0.2 2.8,-0.1 h 0.1 c 0.2,0.1 0.4,0.1 0.6,0.2 0.8,0.2 1.5,0.4 2.3,0.4 0.1,0 0.2,-0.1 0.2,-0.2 h 0.1 c 0,0 0.2,-0.1 0.1,-0.3 z"
               fill="#543c32"
               stroke-width="none"
               opacity="1" />
            <path
               id="path1463"
               d="m 122.6,82.3 c -3.1,-0.2 -6.2,1.5 -9,2.6 -1.7,0.7 -5.2,0.9 -5.9,3 -0.1,0.3 0.3,0.4 0.5,0.2 0.9,-1.2 2.4,-1.4 3.8,-1.8 1.2,-0.4 2.3,-0.8 3.5,-1.3 2.4,-1 4.8,-1.6 7.3,-2.2 0.1,-0.1 0,-0.4 -0.2,-0.5 z"
               fill="#634e45"
               stroke-width="none"
               opacity="1" />
            <path
               id="path1465"
               d="m 109,89.3 c 0.5,0 1,-0.1 1.4,-0.2 2.4,-0.9 4.7,-2.4 7,-3.5 1.8,-0.8 3.6,-1.2 5.4,-1.2 h 0.7 c 1.6,0.1 3.2,0.5 4.6,1.1 1.5,0.6 2.9,1.6 4.3,2.2 0.1,0 0.2,0 0.2,-0.1 0,0 0.1,0 0.1,0.1 0.2,0.1 0.3,-0.1 0.2,-0.2 -0.7,-0.7 -1.6,-1.4 -2.5,-1.9 -1.7,-1.3 -3.6,-2.4 -5.6,-3.1 -1.1,-0.4 -2.3,-0.5 -3.5,-0.5 -1.6,0 -3.1,0.3 -4.6,0.7 -2.5,0.7 -5,1.8 -7.4,2.8 -0.9,0.4 -3.1,0.9 -2.8,2.3 0.4,1.2 1.5,1.6 2.5,1.5 z m 15.2,-5.9 c 0.5,0.2 1.1,0.3 1.6,0.6 -1.2,-0.2 -2.3,-0.3 -3.5,-0.3 h -1 c -3.5,0.2 -6.8,2.2 -9.8,3.7 -0.6,0.3 -1.1,0.7 -1.7,0.9 -0.2,0.1 -0.5,0.1 -0.8,0.1 -0.5,0 -1,-0.2 -0.8,-0.9 0.2,-0.5 2.2,-1 2.6,-1.2 2,-0.8 4,-1.7 6,-2.4 1.6,-0.5 3.2,-0.9 4.8,-0.9 0.8,0 1.7,0.1 2.6,0.4 z"
               fill="#452c22"
               stroke-width="none"
               opacity="1" />
          </g>
        </g>
      </g>
      <g
         id="g1483"
         transform="matrix(0.38741844,0,0,0.38741844,107.06828,161.4298)">
        <g
           id="g1481">
          <path
             id="path1473"
             d="m 106.48,114.01 c -2.23,0.09 -3.27,2.84 -5.54,3.17 -3.19,0.45 -5.28,-2.02 -7.58,-3.74 -0.08,-0.06 -0.21,0.06 -0.14,0.14 0.3,0.4 0.64,0.79 1,1.17 -0.5,-0.34 -0.87,-0.33 -1.47,-0.37 -0.73,-0.05 -1.25,-0.35 -1.36,-1.18 -0.04,-0.3 0.55,-1.35 0.73,-1.68 0.82,-1.61 2,-2.88 3.07,-4.3 0.08,-0.1 -0.08,-0.26 -0.18,-0.18 -0.16,0.12 -0.32,0.26 -0.48,0.4 0.74,-1.5 1.44,-3.03 2,-4.58 0.04,-0.12 -0.15,-0.2 -0.21,-0.09 -0.92,1.67 -1.68,3.48 -2.4,5.26 -1.31,1.35 -2.44,3.19 -2.97,4.83 -0.73,2.27 1.71,1.96 3.16,2.24 0.18,0.03 0.26,-0.15 0.16,-0.27 1.5,1.58 3.45,2.87 5.61,3.05 2.98,0.24 4.36,-2.2 6.69,-3.54 0.12,-0.11 0.07,-0.34 -0.09,-0.33 z"
             fill="#843e04"
             stroke-width="none"
             opacity="1"
             transform="translate(0,2)"
             stroke="none" />
          <path
             id="path1475"
             d="m 108.82,112.74 c -0.19,-0.99 -1.07,-1.94 -1.67,-2.71 -0.72,-0.93 -1.48,-1.82 -2.41,-2.54 -0.18,-0.14 -0.34,0.14 -0.22,0.29 0.89,1.13 1.9,2.14 2.75,3.3 0.57,0.78 1.55,1.89 0.7,2.98 -0.5,0.64 -1.65,0.74 -2.39,0.93 -0.09,0.02 -0.07,0.15 0.02,0.16 1.44,0.11 3.58,-0.54 3.22,-2.41 z"
             fill="#843e04"
             stroke-width="none"
             opacity="1"
             transform="translate(0,2)"
             stroke="none" />
          <path
             id="path1477"
             d="m 97.07,106.9 c 2.12,-0.61 4.06,-0.55 6.22,-0.38 0.16,0.01 0.17,-0.21 0.04,-0.26 -2.04,-0.74 -4.39,-0.4 -6.34,0.44 -0.13,0.05 -0.04,0.23 0.08,0.2 z"
             fill="#843e04"
             stroke-width="none"
             opacity="1"
             transform="translate(0,2)"
             stroke="none" />
          <path
             id="path1479"
             d="m 103.63,108.35 c -1.09,-1.49 -3.61,-0.05 -2.51,1.47 1.39,1.92 -0.3,3.43 -2.28,3.58 -0.57,0.04 -0.83,0.66 -0.45,1.1 1.34,1.56 3.69,1.13 5.01,-0.29 1.5,-1.61 1.5,-4.12 0.23,-5.86 z"
             fill="#ba7b47"
             stroke-width="none"
             opacity="1"
             transform="translate(0,2)"
             stroke="none" />
        </g>
      </g>
      <g
         id="g1491"
         transform="matrix(0.38741844,0,0,0.38741844,107.06828,161.4298)"
         style="fill:#040404;fill-opacity:1">
        <path
           id="path1485"
           d="m 96.3,39.2 c 0,0 -1.9,-1.7 -6.2,-2.7 -4.3,-1 -14.5,-0.3 -25.3,9.8 -10.8,10.1 -16.2,22.4 -19.3,32 -3.1,9.6 -4.3,32 -4.1,33.7 0.2,1.7 6,9.1 9.6,11.3 0,0 -0.5,-10.8 0.2,-14.8 0,0 1.2,12.6 1.9,16 0,0 8.4,4.4 14.9,5.4 0,0 -3.1,-17.9 -3.8,-33.9 -0.7,-16 1.4,-31.4 5.1,-38.8 0,0 -2.5,14.6 -3.2,22.5 0,0 25.2,4.3 49.4,2.4 0,0 1.4,-9.1 1.4,-13.1 0,0 0.7,7.9 0.7,12.6 0,0 9.1,1 17.3,-0.7 0,0 3.8,30.3 -5.5,48.8 0,0 9.6,-1.5 13.7,-3.7 0,0 1.4,-4.7 1.9,-7.1 0,0 0.2,3.4 -0.5,6.2 0,0 4.8,-2.7 8.1,-5.4 0,0 -0.1,-10.9 -0.5,-15.9 0,0 2.4,7.5 2.2,14.4 0,0 1.9,-2.5 3.6,-4.4 0,0 -1.8,-20.4 -8.5,-40.9 -6.7,-20.5 -21.7,-31.3 -30.6,-34.5 -8.9,-3.2 -18.9,-2.7 -22.5,0.8 z"
           fill="#eee4e0"
           stroke-width="none"
           opacity="1"
           stroke="none"
           style="fill:#040404;fill-opacity:1" />
        <path
           id="path1487"
           d="m 91.2,39.9 c -18.8,0.6 -23.4,23.5 -23.6,38.3 0,0.4 0.6,0.5 0.7,0.1 2.1,-15.3 4.3,-34.8 23,-37.8 0.4,0 0.3,-0.6 -0.1,-0.6 z M 89,41.1 c -12.8,6 -16.7,20.6 -16.1,33.7 0,0.3 0.4,0.3 0.4,0 C 73.5,61.6 76.6,48.1 89.1,41.4 89.4,41.3 89.2,41 89,41.1 Z m 5.4,0.1 c -5.6,8.9 -7.9,20.7 -4.9,30.9 0.1,0.3 0.7,0.3 0.6,-0.1 C 88.9,61.1 90,51.4 94.9,41.5 95.1,41.1 94.6,40.8 94.4,41.2 Z m -1,-1.8 C 78,35.9 65.6,50.2 61.6,63.5 c -2.8,9 -3,18.6 -2.9,28 0.1,10.2 0.2,20.6 2.4,30.6 0.1,0.3 0.6,0.2 0.5,-0.1 -2.4,-16.8 -4,-35.5 -0.8,-52.3 3,-15.9 14.4,-31.9 32.4,-29.7 0.4,0 0.5,-0.5 0.2,-0.6 z m 6,2.6 c -0.1,-0.2 -0.3,0 -0.3,0.2 2.8,5.6 5,11.5 6.2,17.6 1.2,6.3 0.8,12.3 0.7,18.6 0,0.3 0.5,0.4 0.5,0.1 2.8,-12.1 -0.9,-26.1 -7.1,-36.5 z m 3.4,-3.2 c -0.3,0 -0.4,0.4 -0.1,0.4 18.5,4 21,24.6 22.9,39.9 0,0.3 0.5,0.3 0.5,0 0.2,-14.8 -5.7,-37.9 -23.3,-40.3 z M 140,74.5 c -3.2,-16 -15.4,-29.2 -30,-35.8 -0.2,-0.1 -0.3,0.2 -0.2,0.3 13.9,8.5 26.1,19.9 29,36.7 2.7,15.5 2,32.7 -4,47.3 -0.1,0.4 0.4,0.6 0.6,0.3 4.1,-6.8 5.5,-14.7 5.9,-22.6 0.6,-8.6 0.4,-17.8 -1.3,-26.2 z M 80.5,38.7 C 67.7,43 59.2,55.3 54.5,67.4 48.7,82.4 44.8,101 47,117 c 0,0.3 0.5,0.2 0.5,-0.1 -0.9,-27.7 5.2,-64.9 33.1,-78 0.1,-0.1 0.1,-0.3 -0.1,-0.2 z"
           fill="#dfc5bb"
           stroke-width="none"
           opacity="1"
           stroke="none"
           style="fill:#040404;fill-opacity:1" />
        <path
           id="path1489"
           d="m 109.9,51.7 c -2.1,-5.3 -5.1,-10.4 -10.8,-12.1 -0.2,0 -0.3,0.2 -0.1,0.3 13.1,5.6 14.4,25.9 14.2,38 0,0.3 0.4,0.3 0.4,0 0.9,-8.9 -0.4,-18 -3.7,-26.2 z m 22.6,16.6 c -0.1,-0.2 -0.4,-0.1 -0.4,0.2 1,3.9 1.9,7.6 2.6,11.5 0.1,0.3 0.6,0.2 0.6,-0.1 -0.1,-3.9 -1,-8.1 -2.8,-11.6 z M 99,44.8 c -0.1,-0.2 -0.3,-0.1 -0.3,0.1 2.2,9.6 2.8,18.8 3,28.6 0,0.3 0.4,0.3 0.5,0 1,-9.5 -0.5,-19.6 -3.2,-28.7 z M 98.8,51 c 0,-0.2 -0.3,-0.1 -0.3,0 0.8,7.2 1.1,14.3 1.3,21.6 0,0.3 0.5,0.3 0.5,0 0.5,-7.2 -0.2,-14.5 -1.5,-21.6 z m -2.7,-2.9 c 0,-0.2 -0.3,-0.2 -0.3,0 0.8,10.2 0.7,20.5 1,30.7 0,0.3 0.4,0.3 0.5,0 C 97.8,68.5 97,58.3 96.1,48.1 Z m -1.9,6.8 c -0.4,6.3 -0.6,12.6 -0.4,18.9 0,0.3 0.4,0.3 0.5,0 0.3,-6.3 0.3,-12.6 0.3,-18.9 0,-0.3 -0.4,-0.3 -0.4,0 z m -4.8,-9.4 c -5.3,8.7 -6.4,19.2 -6.6,29.1 0,0.4 0.7,0.4 0.7,0 0.9,-10.1 1.3,-19.8 6.4,-28.9 0.1,-0.2 -0.3,-0.5 -0.5,-0.2 z M 84,50.3 c -3.1,6.2 -4.8,13 -4.1,20 0,0.3 0.4,0.3 0.4,0 0.2,-6.9 1.2,-13.3 4.1,-19.7 0.3,-0.4 -0.2,-0.7 -0.4,-0.3 z m -2.1,-0.5 c -3.2,5.7 -5.5,11.8 -6.2,18.3 0,0.3 0.5,0.4 0.5,0.1 1.2,-6.4 2.9,-12.4 6,-18.2 0.2,-0.2 -0.2,-0.5 -0.3,-0.2 z m 26.4,-6.6 c -0.1,-0.1 -0.3,0 -0.2,0.1 4.7,7.3 7.1,15.4 7.7,24 0,0.2 0.3,0.2 0.3,0 -0.1,-8.9 -2.9,-16.9 -7.8,-24.1 z m 15,10.5 c -0.1,-0.1 -0.3,0 -0.2,0.2 4.4,5.7 5.2,12.6 6.4,19.5 0,0.2 0.4,0.2 0.4,-0.1 -0.7,-7 -2,-14.1 -6.6,-19.6 z m -1,-4 c -0.1,-0.1 -0.3,0.1 -0.2,0.2 5.1,5.5 8.3,11.6 10.7,18.6 0.1,0.3 0.5,0.2 0.4,-0.1 -1.7,-7.2 -5.8,-13.5 -10.9,-18.7 z m -0.9,-8.1 c -0.2,-0.1 -0.4,0.2 -0.2,0.4 19.9,13.3 24.9,35.8 27.1,58.2 0,0.3 0.4,0.3 0.4,0 -0.4,-22 -7.5,-46.7 -27.3,-58.6 z m 25.7,29.8 c -0.1,-0.2 -0.3,-0.1 -0.3,0.1 2,8.2 3.1,16.4 3.7,24.8 0,0.3 0.4,0.3 0.4,0 0,-8.5 -1.4,-16.9 -3.8,-24.9 z m 1.2,31.9 c 0,-0.2 -0.3,-0.2 -0.3,0 -0.3,6.2 -0.7,12.4 -1.3,18.6 0,0.2 0.2,0.2 0.3,0 1,-6.1 1.5,-12.4 1.3,-18.6 z M 57.5,70.8 c 0,-0.2 -0.3,-0.3 -0.3,-0.1 -3,13.1 -3.8,26.9 -2.2,40.2 0,0.2 0.4,0.2 0.4,0 -0.7,-13.5 -0.1,-26.7 2.1,-40.1 z"
           fill="#fdfdfd"
           stroke-width="none"
           opacity="1"
           stroke="none"
           style="fill:#040404;fill-opacity:1" />
      </g>
      <g
         id="g1503"
         transform="matrix(0.38741844,0,0,0.38741844,107.06828,161.4298)">
        <g
           id="g1501">
          <path
             id="path1493"
             d="m 73.9,90.6 c 0,0 -6.6,2.3 -7.2,7.7 -0.6,5.4 5.8,9.9 10.5,10.8 4.7,0.9 10.1,0.6 13.7,-1.6 3.7,-2.2 5.4,-5.4 4.3,-9.2 -1.1,-3.8 -5.4,-7.1 -11.4,-8.2 -6,-1.1 -9.9,0.5 -9.9,0.5 z"
             fill="url(#SvgjsLinearGradient7860)"
             opacity="1"
             style="fill:url(#linearGradient2357)" />
          <path
             id="path1495"
             d="m 126.1,90.6 c 0,0 6.6,2.3 7.2,7.7 0.6,5.4 -5.8,9.9 -10.5,10.8 -4.7,0.9 -10.1,0.6 -13.7,-1.6 -3.7,-2.2 -5.4,-5.4 -4.3,-9.2 1.1,-3.8 5.4,-7.1 11.4,-8.2 6,-1.1 9.9,0.5 9.9,0.5 z"
             fill="url(#SvgjsLinearGradient7866)"
             opacity="1"
             style="fill:url(#linearGradient2359)" />
          <path
             id="path1497"
             d="m 122.9,87.3 c -9.9,0.1 -13.9,3.6 -17.3,5.4 -3.4,1.8 -7.7,1.8 -11.1,0 -3.4,-1.8 -7.4,-5.3 -17.3,-5.4 -9.9,-0.1 -15.5,0.8 -15.4,3.7 0.1,2.9 0.6,4.4 2.8,5.6 0.9,0.5 1.4,1.1 1.7,1.5 v 0.1 c -0.3,2.8 1,5.6 3.7,7.8 2.6,2.2 6.2,3.6 10.2,4 0.7,0.1 1.4,0.1 2.1,0.1 7.3,0 13.3,-3.8 13.8,-9 0.4,-3.5 3.1,-3.6 3.1,-3.6 h 1.7 c 0,0 2.7,0.2 3.1,3.6 0.5,5.2 6.5,9 13.8,9 0.7,0 1.4,0 2.1,-0.1 4,-0.4 7.6,-1.8 10.2,-4 2.7,-2.2 4,-5 3.7,-7.8 v -0.1 c 0.2,-0.4 0.7,-1 1.6,-1.5 2.1,-1.2 2.6,-2.7 2.8,-5.6 0.1,-2.9 -5.4,-3.7 -15.3,-3.7 z m -27.8,13.8 c -0.5,5.2 -7.2,8.8 -14.9,8.1 -3.8,-0.4 -7.2,-1.7 -9.7,-3.8 -2.4,-2 -3.6,-4.5 -3.4,-7 0.5,-4.7 6.1,-8.2 12.9,-8.2 0.7,0 1.4,0 2.1,0.1 7.7,0.7 13.5,5.6 13,10.8 z m 34.4,4.3 c -2.5,2.1 -5.9,3.4 -9.7,3.8 -7.7,0.8 -14.4,-2.8 -14.9,-8.1 -0.5,-5.3 5.3,-10.1 13.1,-10.8 0.7,-0.1 1.4,-0.1 2.1,-0.1 6.8,0 12.4,3.4 12.9,8.2 0.1,2.4 -1.1,4.9 -3.5,7 z"
             fill="#18d5ab"
             stroke-width="none"
             opacity="1"
             stroke="none" />
          <path
             id="path1499"
             d="m 122.9,87.4 c -3.1,0.1 -6.2,0.4 -9.1,1.4 -1.5,0.5 -2.9,1.1 -4.2,1.8 -1.4,0.7 -2.6,1.6 -4,2.3 -2.8,1.4 -6.1,1.7 -9.1,0.8 -1.5,-0.4 -2.9,-1.2 -4.2,-2 -1.3,-0.8 -2.7,-1.5 -4.1,-2.1 -2.8,-1.2 -5.9,-1.8 -8.9,-2 -1.5,-0.1 -3.1,-0.1 -4.6,-0.1 -1.5,0 -3.1,0.1 -4.6,0.2 -1.5,0.1 -3.1,0.3 -4.6,0.6 -0.8,0.2 -1.5,0.4 -2.1,0.8 -0.7,0.3 -1.2,0.9 -1.3,1.7 0,1.5 0.1,3.1 1,4.4 0.4,0.6 1,1.1 1.7,1.5 0.7,0.4 1.3,0.9 1.7,1.6 -0.2,1.9 0.3,3.8 1.4,5.3 1.1,1.6 2.5,2.8 4.1,3.8 3.2,1.9 7.1,2.8 10.8,2.7 1.9,-0.1 3.8,-0.3 5.6,-0.9 1.8,-0.6 3.5,-1.5 4.9,-2.7 0.7,-0.6 1.3,-1.3 1.8,-2.1 0.3,-0.4 0.4,-0.8 0.6,-1.2 0.1,-0.4 0.3,-0.9 0.3,-1.3 0.1,-0.9 0.3,-1.9 0.9,-2.8 0.6,-0.8 1.4,-1.4 2.5,-1.6 h 1.7 c 1,0.1 1.9,0.7 2.5,1.6 0.6,0.8 0.7,1.9 0.9,2.8 0.1,0.5 0.2,0.9 0.3,1.3 l 0.6,1.2 c 0.5,0.8 1.1,1.5 1.8,2.1 1.4,1.2 3.1,2.1 4.9,2.7 1.8,0.6 3.7,0.9 5.5,0.9 3.7,0.1 7.5,-0.8 10.7,-2.8 1.6,-1 3.1,-2.2 4.1,-3.8 1.1,-1.5 1.6,-3.4 1.4,-5.3 v -0.1 c 0.3,-0.5 0.7,-0.9 1.1,-1.2 0.4,-0.3 0.9,-0.5 1.4,-0.9 0.9,-0.6 1.4,-1.5 1.7,-2.6 0.1,-0.5 0.2,-1 0.2,-1.6 0,-0.5 0.1,-1.1 0,-1.6 -0.1,-0.2 -0.2,-0.4 -0.4,-0.7 -0.2,-0.2 -0.4,-0.4 -0.6,-0.5 -0.2,-0.2 -0.4,-0.3 -0.7,-0.4 -0.2,-0.1 -0.5,-0.2 -0.7,-0.3 -2,-0.7 -4.2,-0.8 -6.3,-1 -2.3,0.1 -4.5,0.1 -6.6,0.1 z m 0,-0.1 c 2.1,0 4.3,0 6.4,0.1 2.1,0.1 4.3,0.3 6.4,0.9 0.3,0.1 0.5,0.2 0.8,0.3 0.2,0.1 0.5,0.2 0.7,0.4 0.2,0.1 0.4,0.3 0.6,0.5 0.2,0.2 0.3,0.4 0.4,0.7 0.2,0.6 0.1,1.1 0.1,1.6 -0.1,0.5 -0.1,1.1 -0.2,1.6 -0.2,1.1 -0.8,2.1 -1.7,2.7 -0.4,0.3 -0.9,0.6 -1.3,0.9 -0.4,0.3 -0.8,0.7 -1,1.1 V 98 c 0.2,1.9 -0.3,3.9 -1.4,5.5 -1.1,1.6 -2.5,2.9 -4.2,3.9 -3.3,2 -7.2,2.9 -11,2.8 -1.9,0 -3.8,-0.3 -5.7,-0.9 -1.8,-0.6 -3.6,-1.5 -5,-2.8 -0.7,-0.7 -1.4,-1.4 -1.9,-2.2 -0.3,-0.4 -0.4,-0.9 -0.7,-1.3 -0.1,-0.5 -0.3,-0.9 -0.4,-1.4 -0.1,-0.5 -0.1,-0.9 -0.3,-1.4 -0.1,-0.4 -0.3,-0.9 -0.5,-1.2 -0.5,-0.8 -1.3,-1.3 -2.2,-1.4 h -1.7 c -0.8,0.1 -1.7,0.6 -2.2,1.4 -0.5,0.8 -0.7,1.7 -0.8,2.6 -0.1,0.5 -0.2,0.9 -0.4,1.4 -0.2,0.4 -0.4,0.9 -0.7,1.3 -0.5,0.8 -1.2,1.6 -1.9,2.2 -1.4,1.3 -3.2,2.2 -5,2.8 -1.8,0.6 -3.7,0.9 -5.6,0.9 -3.8,0.1 -7.7,-0.8 -10.9,-2.8 -1.6,-1 -3.1,-2.3 -4.1,-3.9 -1.1,-1.6 -1.6,-3.5 -1.4,-5.4 v 0.1 c -0.7,-1.4 -2.5,-1.7 -3.4,-3 -0.5,-0.7 -0.7,-1.4 -0.8,-2.2 -0.1,-0.8 -0.2,-1.5 -0.2,-2.3 0.1,-0.8 0.7,-1.5 1.4,-1.8 0.7,-0.4 1.4,-0.6 2.2,-0.8 1.5,-0.4 3.1,-0.5 4.6,-0.7 1.5,-0.1 3.1,-0.2 4.6,-0.2 1.5,0 3.1,0 4.6,0.1 3.1,0.2 6.2,0.7 9.1,2 1.4,0.6 2.8,1.4 4.1,2.2 1.3,0.8 2.6,1.6 4.1,2 2.9,0.9 6.2,0.7 8.9,-0.7 1.4,-0.7 2.7,-1.6 4,-2.3 1.4,-0.7 2.8,-1.3 4.3,-1.8 3.1,-1 6.2,-1.4 9.3,-1.4 z m -27.8,13.8 c -0.2,1.6 -0.9,3 -1.9,4.2 -1,1.2 -2.4,2.1 -3.8,2.7 -2.9,1.3 -6.1,1.7 -9.2,1.4 -3.1,-0.3 -6.2,-1.4 -8.7,-3.2 -1.3,-0.9 -2.4,-2 -3.3,-3.3 -0.8,-1.3 -1.3,-2.9 -1.2,-4.5 0.2,-1.6 0.9,-3.1 2,-4.2 1.1,-1.2 2.4,-2.1 3.9,-2.7 2.9,-1.3 6.1,-1.6 9.2,-1.3 3.1,0.3 6.2,1.3 8.8,3.2 1.3,0.9 2.4,2.1 3.2,3.4 0.7,1.2 1.2,2.8 1,4.3 z m 0,0 c 0.1,-1.6 -0.3,-3.1 -1.2,-4.4 -0.8,-1.3 -2,-2.4 -3.2,-3.2 -2.6,-1.7 -5.6,-2.6 -8.7,-2.9 -3.1,-0.3 -6.2,0 -9,1.3 -1.4,0.6 -2.7,1.4 -3.8,2.5 a 6.96,6.96 0 0 0 -2,4 c -0.2,1.5 0.2,3.1 1.1,4.4 0.8,1.3 1.9,2.4 3.2,3.3 2.6,1.8 5.6,2.7 8.7,2.9 3.1,0.2 6.2,-0.1 9.1,-1.2 1.4,-0.6 2.8,-1.4 3.8,-2.5 1.1,-1.2 1.8,-2.6 2,-4.2 z m 34.4,4.3 c -2.4,2 -5.4,3.2 -8.5,3.8 -3.1,0.5 -6.3,0.4 -9.3,-0.7 -1.5,-0.5 -2.9,-1.3 -4.1,-2.3 -1.2,-1 -2.2,-2.3 -2.6,-3.9 -0.5,-1.5 -0.3,-3.2 0.3,-4.6 0.6,-1.5 1.6,-2.7 2.8,-3.7 2.4,-2.1 5.4,-3.2 8.5,-3.8 l 1.2,-0.2 h 1.2 c 0.8,-0.1 1.6,-0.1 2.4,0 1.6,0.1 3.1,0.4 4.6,0.9 1.5,0.5 2.9,1.2 4.1,2.3 0.6,0.5 1.1,1.1 1.6,1.8 0.4,0.7 0.8,1.4 1,2.2 0.4,1.5 0.3,3.2 -0.4,4.6 -0.6,1.4 -1.6,2.6 -2.8,3.6 z m 0,-0.1 c 1.2,-1 2.2,-2.2 2.8,-3.7 0.6,-1.4 0.7,-3 0.2,-4.5 -0.2,-0.7 -0.6,-1.4 -1,-2 -0.5,-0.6 -1,-1.2 -1.6,-1.6 -1.2,-0.9 -2.6,-1.7 -4,-2.2 -2.9,-1 -6.1,-1.1 -9.1,-0.7 -3,0.5 -6,1.6 -8.4,3.5 -1.2,1 -2.2,2.2 -2.8,3.6 -0.6,1.4 -0.8,3 -0.3,4.5 0.4,1.5 1.4,2.8 2.6,3.7 1.2,1 2.6,1.7 4.1,2.2 2.9,1 6.1,1.1 9.1,0.7 2.9,-0.4 6,-1.5 8.4,-3.5 z"
             fill="#00b68e"
             stroke-width="none"
             opacity="1"
             stroke="none" />
        </g>
      </g>
    </g>
  </g>
</svg>
