<?xml version="1.0" encoding="UTF-8" standalone="no"?>
<svg
   width="130.04785"
   height="170.00006"
   viewBox="0 0 34.408493 44.979186"
   version="1.1"
   id="svg8"
   inkscape:version="1.2.1 (9c6d41e410, 2022-07-14)"
   sodipodi:docname="saitama-versions.svg"
   xmlns:inkscape="http://www.inkscape.org/namespaces/inkscape"
   xmlns:sodipodi="http://sodipodi.sourceforge.net/DTD/sodipodi-0.dtd"
   xmlns="http://www.w3.org/2000/svg"
   xmlns:svg="http://www.w3.org/2000/svg"
   xmlns:rdf="http://www.w3.org/1999/02/22-rdf-syntax-ns#"
   xmlns:cc="http://creativecommons.org/ns#"
   xmlns:dc="http://purl.org/dc/elements/1.1/">
  <defs
     id="defs2" />
  <sodipodi:namedview
     id="base"
     pagecolor="#ffffff"
     bordercolor="#ebe6e6"
     borderopacity="1"
     inkscape:pageopacity="0.0"
     inkscape:pageshadow="2"
     inkscape:zoom="0.7"
     inkscape:cx="520"
     inkscape:cy="2868.5714"
     inkscape:document-units="px"
     inkscape:current-layer="layer1"
     inkscape:document-rotation="0"
     showgrid="false"
     units="px"
     showborder="true"
     inkscape:object-nodes="false"
     inkscape:showpageshadow="false"
     inkscape:pagecheckerboard="0"
     inkscape:deskcolor="#d1d1d1"
     inkscape:window-width="1366"
     inkscape:window-height="705"
     inkscape:window-x="-8"
     inkscape:window-y="-8"
     inkscape:window-maximized="1" />
  <metadata
     id="metadata5">
    <rdf:RDF>
      <cc:Work
         rdf:about="">
        <dc:format>image/svg+xml</dc:format>
        <dc:type
           rdf:resource="http://purl.org/dc/dcmitype/StillImage" />
      </cc:Work>
    </rdf:RDF>
  </metadata>
  <g
     inkscape:label="Layer 1"
     inkscape:groupmode="layer"
     id="layer1"
     transform="translate(-130.8026,-604.58518)">
    <g
       id="g554"
       inkscape:export-filename="..\img\saitama\bottom-center-top.png"
       inkscape:export-xdpi="40.431473"
       inkscape:export-ydpi="40.431473"
       transform="matrix(0.45081243,0,0,0.42115579,77.421165,594.79848)">
      <path
         style="fill:#dcb59c;fill-opacity:1;stroke:#000000;stroke-width:0.510574;stroke-linecap:butt;stroke-linejoin:miter;stroke-dasharray:none;stroke-opacity:1"
         d="m 176.90799,31.638418 c 2.06303,2.234946 6.87678,9.7994 7.22062,13.581622 0.34384,3.782222 0.34384,6.361016 0.17192,8.080212 -0.17192,1.719196 0.17192,2.234946 1.20343,3.610303 1.03151,1.375357 2.23495,5.329499 1.37535,8.424051 -0.85959,3.094544 -2.23494,6.361008 -3.95414,7.736365 -1.71919,1.375356 -3.61031,1.547276 -4.81375,1.547276 -1.20343,0 -1.37535,2.406866 -2.06302,3.782222 -0.68767,1.375357 -3.09454,5.845258 -4.81374,7.220614 -1.71919,1.375357 -7.39253,5.329499 -9.97132,5.673338 -2.57879,0.343839 -8.25213,1.891107 -12.3782,-0.687678 -4.12606,-2.578785 -6.36101,-4.98566 -8.59597,-9.283649 -2.23495,-4.297981 -3.95414,-7.736365 -3.95414,-15.472729 0,-7.736373 -0.17192,-13.75355 0.34384,-17.191942 0.51576,-3.438383 0,-4.985651 2.40687,-9.971319 8.18845,-17.183075 25.77345,-20.159752 37.82225,-7.048686 z"
         id="path498"
         sodipodi:nodetypes="cssssssssssssscc" />
      <path
         style="fill:none;stroke:#000000;stroke-width:0.510574;stroke-linecap:butt;stroke-linejoin:miter;stroke-dasharray:none;stroke-opacity:1"
         d="m 138.92293,48.637421 c 0,0 7.90174,0.364694 8.75271,0.364694"
         id="path500"
         sodipodi:nodetypes="cc" />
      <path
         style="fill:none;stroke:#000000;stroke-width:0.510574;stroke-linecap:butt;stroke-linejoin:miter;stroke-dasharray:none;stroke-opacity:1"
         d="m 153.7539,48.51586 c 0,0 10.94088,0.364693 12.03496,0.486255"
         id="path502"
         sodipodi:nodetypes="cc" />
      <path
         style="fill:#fff9f4;fill-opacity:1;stroke:#000000;stroke-width:0.510574;stroke-linecap:butt;stroke-linejoin:miter;stroke-dasharray:none;stroke-opacity:1"
         d="m 139.65231,52.162812 c 0,0 4.13323,-1.215651 6.3214,-0.364694 2.18818,0.850957 3.16071,1.458783 2.55288,2.917565 -0.60783,1.458792 -1.82349,3.525399 -4.37636,2.796012 -2.55287,-0.729395 -4.01165,-1.458791 -4.37635,-3.039144 -0.36469,-1.580344 -0.12157,-2.309739 -0.12157,-2.309739 z"
         id="path504"
         sodipodi:nodetypes="cssssc" />
      <path
         style="fill:#fff9f4;fill-opacity:1;stroke:#000000;stroke-width:0.510574;stroke-linecap:butt;stroke-linejoin:miter;stroke-dasharray:none;stroke-opacity:1"
         d="m 156.06365,52.04125 c 0,0 8.26644,-0.729396 9.84678,0.243132 1.58036,0.972519 1.21566,2.674442 0.36471,3.403829 -0.85097,0.729387 -2.67445,2.066608 -4.49792,2.066608 -1.82349,0 -2.43131,0.12157 -4.61949,-1.823476 -2.18818,-1.945047 -1.70191,-3.646961 -1.09408,-3.890093 z"
         id="path506"
         sodipodi:nodetypes="cssssc" />
      <path
         style="fill:none;stroke:#000000;stroke-width:0.510574;stroke-linecap:butt;stroke-linejoin:miter;stroke-dasharray:none;stroke-opacity:1"
         d="m 150.71477,55.566649 c 0,0 -1.21565,9.238959 -1.58035,10.57618 -0.36469,1.337212 0.24313,2.066608 0.85096,2.431302"
         id="path508"
         sodipodi:nodetypes="csc" />
      <path
         style="fill:#dcb59c;fill-opacity:1;stroke:#000000;stroke-width:0.510574;stroke-linecap:butt;stroke-linejoin:miter;stroke-dasharray:none;stroke-opacity:1"
         d="m 147.78994,89.888926 c 0,0 -0.17509,8.89419 -0.41822,9.441234 -0.24313,0.547045 -2.91758,0.97253 -1.82349,2.91757 1.09409,1.94504 3.09993,3.40387 4.43715,3.95083 1.33722,0.54704 4.68026,1.27646 6.99001,0.85094 2.30974,-0.42543 6.6253,-1.58028 8.26644,-2.43123 1.64113,-0.85097 3.8293,-2.79602 4.37635,-4.25481 0.54704,-1.458774 0.33772,-4.802048 0.36469,-6.503736 l 0.11616,-7.331066 c 0,0 -3.33427,2.401867 -4.83856,3.132531 -1.50429,0.730657 -3.05157,1.590255 -5.24354,1.84813 -2.19198,0.257883 -3.22349,0.601722 -5.07162,0.558736 -1.84813,-0.04294 -4.59885,-0.472772 -5.15758,-0.902576 -0.55875,-0.429794 -1.99779,-1.276553 -1.99779,-1.276553 z"
         id="path510"
         sodipodi:nodetypes="cssssssscssssc" />
      <path
         style="fill:#ebbe64;fill-opacity:1;stroke:#000000;stroke-width:0.510574;stroke-linecap:butt;stroke-linejoin:miter;stroke-dasharray:none;stroke-opacity:1"
         d="m 147.68172,92.755733 c 0,0 -20.71629,8.252127 -22.60741,10.143237 -1.89111,1.89116 -2.3209,5.84522 -2.7507,7.73636 -0.4298,1.89114 -1.21,7.11192 -1.51392,8.63153 -0.30391,1.51952 -0.37719,4.00456 -1.06487,5.72376 -0.68768,1.71919 -1.11748,2.75069 -1.0745,3.39536 0.0429,0.64467 1.0745,1.33236 2.44986,1.37539 1.37535,0.0426 11.21772,0 12.29223,0 1.07448,0 59.66787,-0.16143 60.03257,-0.16143 0.36468,0 1.09408,-0.79018 1.0333,-2.06665 -0.0608,-1.27646 -2.55287,-17.80933 -2.67444,-18.59951 -0.12157,-0.79019 -0.79017,-3.03913 -2.18817,-3.89008 -1.39801,-0.85093 -8.1948,-3.82094 -9.22631,-4.37967 -1.03151,-0.55874 -10.38439,-5.458445 -10.38439,-5.458445 0,0 0.0263,1.504299 0.0263,2.277933 0,0.773634 0.30086,1.246415 -0.2149,2.449852 -0.51576,1.20344 -2.14899,3.18051 -2.75071,3.52435 -0.60172,0.34383 -2.75072,1.71916 -3.48136,1.8911 -0.73067,0.17195 -4.04011,1.11748 -4.51289,1.24639 -0.47278,0.12892 -2.87965,0.77367 -3.99712,0.6877 -1.11748,-0.0861 -3.78223,-0.55878 -4.42692,-0.81661 -0.6447,-0.25792 -3.39543,-1.76214 -3.8682,-2.40687 -0.47278,-0.6447 -1.28939,-2.02006 -1.37535,-2.32091 -0.086,-0.30086 -0.12895,-1.03152 0.30086,-1.28939 0.42979,-0.25789 1.16046,-0.816622 1.37535,-0.859599 0.2149,-0.04294 0.4298,-0.515759 0.47279,-1.031527 0.0429,-0.51575 0.12894,-5.802271 0.12894,-5.802271 z"
         id="path512"
         sodipodi:nodetypes="csssssssssssscssssssssssssc" />
      <circle
         style="opacity:0.966759;fill:#000000;fill-opacity:1;stroke-width:0.510574;stroke-linejoin:round;stroke-dasharray:none;paint-order:stroke fill markers"
         id="circle514"
         cx="144.2718"
         cy="53.50005"
         r="0.60782665" />
      <circle
         style="fill:#000000;fill-opacity:1;stroke-width:0.510574;stroke-linejoin:round;stroke-dasharray:none;paint-order:stroke fill markers"
         id="circle516"
         cx="159.34592"
         cy="53.621605"
         r="0.60782665" />
      <path
         style="fill:none;stroke:#000000;stroke-width:0.510574;stroke-linecap:butt;stroke-linejoin:miter;stroke-dasharray:none;stroke-opacity:1"
         d="m 129.43677,129.84734 c 0,0 -0.36064,-6.02175 -0.72534,-8.20992 -0.36469,-2.18818 -1.09408,-4.86264 -1.33721,-5.89597"
         id="path518"
         sodipodi:nodetypes="csc" />
      <path
         style="fill:none;stroke:#000000;stroke-width:0.510574;stroke-linecap:butt;stroke-linejoin:miter;stroke-dasharray:none;stroke-opacity:1"
         d="m 129.00696,124.02353 c 0,0 -2.68623,-4.34097 -2.9656,-4.72781"
         id="path520"
         sodipodi:nodetypes="cc" />
      <path
         style="fill:none;stroke:#000000;stroke-width:0.510574;stroke-linecap:butt;stroke-linejoin:miter;stroke-dasharray:none;stroke-opacity:1"
         d="m 177.216,129.59994 c 0,0 0.12157,-11.67031 0.54705,-13.25068"
         id="path522"
         sodipodi:nodetypes="cc" />
      <path
         style="fill:#e0e7ea;fill-opacity:1;stroke:#000000;stroke-width:0.510574;stroke-linecap:butt;stroke-linejoin:miter;stroke-dasharray:none;stroke-opacity:1"
         d="m 145.87656,129.71834 c 0,0 -0.14598,-12.33575 0.21872,-14.22003 0.3647,-1.88427 -0.54705,-2.97836 -1.21565,-3.28226 -0.66861,-0.30391 -2.73523,-2.06657 -3.58618,-3.28227 -0.85096,-1.21562 -0.54704,-1.7019 -0.12156,-2.37047 0.42547,-0.66866 3.89008,-5.47045 4.13321,-5.22732 0.24313,0.24313 0.30391,0.65341 0.44068,0.98772 0.13676,0.3343 0.57743,1.06369 1.12448,1.68672 0.54704,0.62305 3.76853,2.44648 4.2396,2.58322 0.47106,0.13674 3.13031,0.60781 3.61657,0.60781 0.48625,0 3.8293,-0.33425 4.52831,-0.60781 0.69899,-0.27348 4.67336,-1.28777 5.23209,-1.58863 0.55874,-0.30086 2.06303,-1.11751 2.79368,-1.71922 0.73067,-0.60173 0.4534,2.18342 0.4534,3.09513 0,0.91171 -0.0608,3.89008 -0.18234,4.49789 -0.12157,0.60789 -0.0608,0.72942 -1.76271,1.58037 -1.7019,0.85094 -6.13904,2.49208 -6.99,2.49208 -0.85095,0 -1.21565,0.79018 -1.33722,1.82351 -0.12156,1.03332 -0.24313,3.7077 -0.24313,4.55865 0,0.85094 -0.0383,8.21305 -0.25315,8.34197 -0.2149,0.12891 -2.19197,0.0426 -3.05157,0.0426 h -8.03723 z"
         id="path524"
         sodipodi:nodetypes="csssssssssssssssssssscc" />
      <path
         style="fill:none;stroke:#000000;stroke-width:0.510574;stroke-linecap:butt;stroke-linejoin:miter;stroke-dasharray:none;stroke-opacity:1"
         d="m 149.57282,129.76137 c 0,0 0.17192,-8.93987 0.17192,-9.8854 0,-0.94552 -0.38681,-1.07444 -0.90257,-1.76214 -0.51575,-0.68769 -1.03151,-1.33236 -0.85959,-2.36394 0.17192,-1.0315 0.73064,-1.20336 1.07449,-2.40681 0.34383,-1.20345 0.34383,-0.6877 0.34383,-2.02006 0,-1.33236 0.5237,-2.99705 0.76682,-3.33138 0.24313,-0.33424 0.63823,-1.12443 0.92694,-1.21561 0.28872,-0.0912 2.90237,0.37988 3.43422,0.4103 0.53185,0.0304 0.99665,0.0539 1.23304,0.16099 0.23639,0.10753 0.94556,2.64334 0.38682,4.19059 -0.55873,1.54725 -0.30086,1.41834 -0.086,2.10603 0.2149,0.68761 0.73026,3.49551 0.0616,4.34645 -0.6686,0.85095 -3.03912,1.64114 -3.22147,2.3098 -0.18235,0.66857 0.21274,9.39086 -0.0608,9.45171 -0.27352,0.0608 -3.26934,0.01 -3.26934,0.01 z"
         id="path526"
         sodipodi:nodetypes="csssssssssssssscc" />
      <ellipse
         style="fill:#000000;fill-opacity:1;stroke-width:0.549406;stroke-linejoin:round;stroke-dasharray:none;paint-order:stroke fill markers"
         id="ellipse528"
         cx="128.14536"
         cy="145.90877"
         rx="0.66860926"
         ry="0.37989166"
         transform="rotate(-10)" />
      <ellipse
         style="fill:#000000;fill-opacity:1;stroke-width:0.642157;stroke-linejoin:round;stroke-dasharray:none;paint-order:stroke fill markers"
         id="ellipse530"
         cx="82.123619"
         cy="188.81508"
         rx="0.75134289"
         ry="0.46183833"
         transform="matrix(0.82831489,-0.56026283,0.44204903,0.89699089,0,0)" />
      <ellipse
         style="fill:#000000;fill-opacity:1;stroke-width:0.595118;stroke-linejoin:round;stroke-dasharray:none;paint-order:stroke fill markers"
         id="ellipse532"
         cx="98.326233"
         cy="169.05099"
         rx="0.73016638"
         ry="0.40815902"
         transform="matrix(0.9419913,-0.33563728,0.34849177,0.93731184,0,0)" />
      <ellipse
         style="fill:#000000;fill-opacity:1;stroke-width:0.717718;stroke-linejoin:round;stroke-dasharray:none;paint-order:stroke fill markers"
         id="ellipse534"
         cx="132.69453"
         cy="157.93199"
         rx="0.78300196"
         ry="0.55359584"
         transform="matrix(0.97610408,-0.21730354,0.13831596,0.99038815,0,0)" />
      <path
         style="fill:#adb4b7;fill-opacity:1;stroke:#000000;stroke-width:0.170191px;stroke-linecap:butt;stroke-linejoin:miter;stroke-opacity:1"
         d="m 151.335,110.63533 c 0,0 0.34384,0.85955 1.03151,1.07453 0.68768,0.21489 1.24643,0.30086 1.76219,-0.0426 0.51575,-0.34389 0.54799,-1.14972 0.7414,-1.28942 0.1934,-0.13969 0.65543,-0.21488 0.63394,0.20411 -0.0215,0.41909 -0.0429,0.53731 -0.20415,1.04228 -0.16117,0.50506 -0.25788,0.98856 -0.34384,1.40756 -0.086,0.41908 -0.0537,0.93483 -0.0537,1.04228 0,0.10744 0.0645,0.25792 0.2149,0.36536 0.15044,0.10744 0.53613,0.20828 0.6577,0.7402 0.12156,0.53183 0.21274,0.699 0.16715,1.2004 -0.0456,0.5015 -0.3191,1.21571 -0.62301,1.56516 -0.30392,0.34954 -1.0789,0.86616 -1.54996,0.97256 -0.47107,0.10632 -1.92986,-0.0156 -2.41612,-0.24314 -0.48625,-0.22792 -0.36469,-0.0609 -1.15487,-0.66865 -0.79018,-0.60781 -1.07889,-0.8965 -1.33722,-1.41321 -0.25833,-0.51662 -0.21274,-1.35236 0.0456,-1.76266 0.25832,-0.41031 0.71419,-0.8054 1.00291,-1.03333 0.28871,-0.22792 0.39509,-0.37988 0.39509,-0.68378 0,-0.3039 0.10637,-0.5926 -0.10638,-0.97248 -0.21274,-0.37996 -0.39508,-0.80539 -0.3343,-1.27646 0.0608,-0.47107 0.29999,-1.20614 0.66532,-1.01273 0.36533,0.19342 0.80588,0.78437 0.80588,0.78437 z"
         id="path536"
         sodipodi:nodetypes="cssssssssssssssssssssscc" />
      <path
         style="fill:#e0e7ea;fill-opacity:1;stroke:#000000;stroke-width:0.510574;stroke-linecap:butt;stroke-linejoin:miter;stroke-dasharray:none;stroke-opacity:1"
         d="m 147.09819,92.947986 c 0,0 -1.39355,-0.23523 -2.1672,0.194564 -0.77363,0.429804 -0.68767,1.203437 -1.80515,1.289393 -1.11747,0.08597 -2.32091,-0.214897 -2.9656,-0.04294 -0.6447,0.17192 -2.17049,2.331655 -2.57879,2.374641 -0.40831,0.04294 -0.80587,-0.268628 -1.33238,-0.08597 -0.52651,0.182664 -0.92407,0.505014 -1.13896,0.676934 -0.21491,0.17192 -0.46204,1.235671 -1.35387,1.149706 -0.89183,-0.08597 -2.04154,-1.085239 -2.84742,-1.160459 -0.80586,-0.07519 -1.31088,0.440548 -1.49354,0.612467 -0.18267,0.17192 -2.77045,4.078698 -3.31749,4.139478 -0.54706,0.0608 -1.64114,-0.18234 -2.24896,0.27353 -0.60784,0.45587 -0.79018,1.3676 -0.82057,2.00581 -0.0303,0.63823 1.21565,1.97546 1.85387,2.43132 0.63822,0.45586 3.37344,2.15775 4.13322,2.43132 0.75979,0.27348 3.28226,0.66857 4.16362,0.66857 0.88135,0 3.73813,-0.0304 5.34886,-1.06366 1.61075,-1.03333 3.06953,-2.85675 3.5254,-3.43422 0.45587,-0.57747 1.88922,-2.68138 2.1686,-2.98224 0.27937,-0.30086 0.60172,-0.62321 0.85959,-0.94556 0.25789,-0.32235 0.10746,-0.51576 0.40832,-0.79513 0.30085,-0.27936 0.73065,-0.42979 1.13896,-0.730658 0.40831,-0.300853 0.81661,-0.429794 0.88109,-0.881087 0.0645,-0.451283 0.0645,-0.386808 0.0645,-0.988531 0,-0.601714 0.25788,-4.792251 0.0645,-5.028637 -0.19342,-0.236395 -0.54054,-0.108618 -0.54054,-0.108618 z"
         id="path538"
         sodipodi:nodetypes="csssssssssssssssssssssssscc" />
      <path
         style="fill:#000000;fill-opacity:1;stroke:#000000;stroke-width:0.170191px;stroke-linecap:butt;stroke-linejoin:miter;stroke-opacity:1"
         d="m 139.77441,94.956786 c 0,0 -0.64688,0.861206 -0.98537,0.805484 -0.31921,-0.0525 -0.81204,0.729413 -0.85629,0.876897 -0.0912,0.303913 -0.59829,1.027641 -0.93264,1.726646 -0.33431,0.698997 -1.72496,2.444487 -2.15044,2.566047 -0.42548,0.12157 -1.15404,0.161 -1.91383,0.58648 -0.75978,0.42547 -1.36761,0.6686 -1.91465,1.09408 -0.54705,0.42548 -1.27644,0.72939 -1.64114,0.33431 -0.36469,-0.39509 -0.85095,-0.75979 -1.15487,-0.82057 -0.30391,-0.0608 -0.88134,0 -0.60782,0.48626 0.27352,0.48626 0.54704,0.63822 1.00291,1.30683 0.45587,0.6686 0.63822,0.72936 0.72939,1.45878 0.0912,0.72934 0.33431,1.03333 0.97253,1.48918 0.63821,0.45586 2.21856,1.24604 3.1607,1.24604 0.94213,0 1.18526,0.0304 1.7323,-0.0912 0.54704,-0.12162 1.24604,-0.48628 1.79309,-1.30681 0.54704,-0.82061 2.00583,-3.8597 2.4617,-4.64989 0.45587,-0.79016 1.48917,-2.522468 2.06661,-3.525386 0.57743,-1.002909 2.43131,-3.373438 3.19109,-3.920483 0.75978,-0.547036 1.7465,-1.493928 1.89845,-1.645889 0.0524,-0.05242 -0.68395,-0.248234 -1.42586,0.106541 -0.49001,0.234317 -0.90056,0.987166 -1.38006,1.186564 -0.89905,0.373856 -1.21566,0.108783 -1.31953,0.23862 -0.24312,0.303904 -1.35918,2.05921 -1.87583,2.849378 -0.51665,0.790185 -1.48918,2.826405 -1.67152,3.099925 -0.18236,0.27352 -0.24314,0.54704 -0.79018,0.63822 -0.54705,0.0912 -1.36761,0.0303 -0.97253,-1.0637 0.39509,-1.094092 2.64539,-5.257194 2.64539,-5.257194 z"
         id="path540"
         sodipodi:nodetypes="csssssssssssssssssssssssssscc" />
      <path
         style="fill:#adb4b7;fill-opacity:1;stroke:#000000;stroke-width:0.170191px;stroke-linecap:butt;stroke-linejoin:miter;stroke-opacity:1"
         d="m 152.98973,108.87319 c 0,0 0.49426,0.2793 0.58022,0.70917 0.086,0.42977 -0.0429,0.77358 -0.32235,0.88102 -0.27937,0.10745 -0.70917,0.32233 -0.92406,-0.0426 -0.2149,-0.36528 -0.19341,-0.88103 -0.0215,-1.096 0.17192,-0.21489 0.49427,-0.5587 0.68768,-0.45125 z"
         id="path542"
         sodipodi:nodetypes="csssssc" />
      <path
         style="fill:none;stroke:#000000;stroke-width:0.510574;stroke-linecap:butt;stroke-linejoin:miter;stroke-dasharray:none;stroke-opacity:1"
         d="m 179.31486,58.457823 c 0,0 1.28939,-2.578786 3.00859,-2.750705 1.71919,-0.17192 2.36881,0.209029 2.53597,0.360981 0.16715,0.151961 1.23086,1.625939 1.4132,2.051422 0.18235,0.425474 0.50145,1.975428 0.59263,2.400911 0.0912,0.425474 0.48684,2.321345 0.40088,3.009014 -0.086,0.687679 -0.94556,4.212026 -1.41833,5.114602 -0.47279,0.902575 -1.76218,3.266472 -2.10602,3.610311 -0.34384,0.343831 -1.11747,1.246415 -1.59025,1.461312 -0.47277,0.214898 -3.65328,1.074495 -3.95414,0.98854"
         id="path544"
         sodipodi:nodetypes="cssssssssc" />
      <ellipse
         style="fill:#000000;fill-opacity:1;stroke-width:0.729032;stroke-linejoin:round;stroke-dasharray:none;paint-order:stroke fill markers"
         id="ellipse546"
         cx="130.05232"
         cy="141.06784"
         rx="0.88582587"
         ry="0.50488669"
         transform="matrix(0.98470861,-0.17420952,0.17308853,0.98490627,0,0)" />
      <path
         style="fill:#000000;fill-opacity:1;stroke:#000000;stroke-width:0.355647px;stroke-linecap:butt;stroke-linejoin:miter;stroke-opacity:1"
         d="m 149.42025,74.839307 c 0,0 8.00208,-0.254032 8.00208,0.254042 0,0.508039 -3.04841,4.699602 -5.58875,3.937512 -2.54034,-0.762107 -3.6835,-3.302434 -3.42946,-3.8105 0.25403,-0.508092 1.01613,-0.381054 1.01613,-0.381054 z"
         id="path548" />
      <path
         style="fill:#e0e7ea;fill-opacity:1;stroke:#000000;stroke-width:0.689999;stroke-linecap:butt;stroke-linejoin:miter;stroke-dasharray:none;stroke-opacity:1"
         d="m 170.11181,94.027219 c 0,0 0.82143,0.49287 1.23214,1.067862 0.41072,0.575001 0.3194,0.862667 0.75502,1.182131 0.43563,0.319473 1.53922,0.842212 2.09102,1.103591 0.55179,0.261369 1.91825,0.178569 2.65753,0.507126 0.73929,0.328575 1.09866,1.252691 1.31429,1.447778 0.21562,0.195086 0.32856,0.215627 0.575,0.369631 0.24642,0.154029 2.58296,1.465422 3.04763,1.479962 0.46467,0.0145 1.3214,-0.46467 2.48307,0.23231 1.16168,0.69702 0.95858,1.29622 1.22554,1.56318 0.26696,0.26696 2.43374,1.57335 3.36308,1.51526 0.92933,-0.0581 2.20718,-0.11615 2.61377,0.75509 0.40658,0.87127 0.81317,1.97485 0.92934,2.67186 0.11616,0.69699 -2.90419,1.62635 -4.87903,2.20717 -1.97486,0.58085 -3.13653,1.74252 -4.06587,2.20719 -0.92934,0.46467 -2.78802,1.16169 -4.76287,1.04552 -1.97484,-0.11618 -4.87903,-0.46467 -6.97004,-0.81319 -2.09101,-0.3485 -3.72479,-0.86124 -3.99176,-0.98445 -0.26696,-0.12321 -0.10267,-0.98571 -0.0205,-1.78659 0.0822,-0.80091 0.18482,-3.16249 0.18482,-3.49108 0,-0.32857 0.0616,-1.08837 0.041,-1.62232 -0.0205,-0.53393 -0.0821,-1.02679 -0.10267,-1.19106 -0.0205,-0.16428 -0.0616,-0.47233 0.20535,-0.78036 0.26697,-0.30804 1.43299,-1.83349 1.73792,-2.57405 0.30494,-0.740572 0.4792,-2.947744 0.46467,-3.209114 -0.0145,-0.261395 -0.12848,-2.903447 -0.12848,-2.903447 z"
         id="path550" />
      <path
         style="fill:#000e14;fill-opacity:1;stroke:#000000;stroke-width:0.229999px;stroke-linecap:butt;stroke-linejoin:miter;stroke-opacity:1"
         d="m 171.57623,96.07392 c 0,0 1.62633,4.64671 1.85867,7.55089 0.23234,2.90419 -1.16167,3.71735 1.62635,4.99518 2.78802,1.27786 5.11136,2.09103 6.85387,1.04551 1.74252,-1.04551 3.9497,-3.1365 1.74252,-3.60117 -2.20719,-0.46467 -4.06586,-0.92934 -4.53053,-2.2072 -0.46467,-1.27783 -0.69701,-3.02035 -0.92934,-3.71735 -0.23234,-0.697012 -0.63296,-2.272366 -1.5776,-2.416121 -0.94464,-0.143745 -1.25268,-0.369657 -1.68393,-0.164287 -0.43124,0.205344 -0.10268,0.369631 0.49286,2.402667 0.59554,2.033031 1.64286,4.415171 1.4375,5.072331 -0.20535,0.65713 -1.49911,0.22587 -1.78661,-0.575 -0.28749,-0.80091 -1.31428,-5.092864 -1.54018,-5.975907 -0.22589,-0.883017 0.041,-0.08215 -0.30803,-0.883017 -0.34911,-0.800903 -1.65555,-1.526526 -1.65555,-1.526526 z"
         id="path552" />
    </g>
  </g>
</svg>
