<?xml version="1.0" encoding="UTF-8" standalone="no"?>
<svg
   width="130.04773"
   height="170.00006"
   viewBox="0 0 34.408461 44.979186"
   version="1.1"
   id="svg8"
   xmlns="http://www.w3.org/2000/svg"
   xmlns:svg="http://www.w3.org/2000/svg"
   xmlns:rdf="http://www.w3.org/1999/02/22-rdf-syntax-ns#"
   xmlns:cc="http://creativecommons.org/ns#"
   xmlns:dc="http://purl.org/dc/elements/1.1/">
  <defs
     id="defs2" />
  <metadata
     id="metadata5">
    <rdf:RDF>
      <cc:Work
         rdf:about="">
        <dc:format>image/svg+xml</dc:format>
        <dc:type
           rdf:resource="http://purl.org/dc/dcmitype/StillImage" />
      </cc:Work>
    </rdf:RDF>
  </metadata>
  <g
     id="layer1"
     transform="translate(-129.43773,-668.96908)">
    <g
       id="g589"
       transform="matrix(0.45081219,0,0,0.42116117,25.322525,602.45023)">
      <path
         style="fill:#dcb59c;fill-opacity:1;stroke:#000000;stroke-width:0.510574;stroke-linecap:butt;stroke-linejoin:miter;stroke-dasharray:none;stroke-opacity:1"
         d="m 289.44667,166.34227 c 2.06302,2.23494 6.87677,9.7994 7.22061,13.58162 0.34384,3.78222 0.34384,6.36102 0.17192,8.08021 -0.17192,1.7192 0.17192,2.23495 1.20343,3.6103 1.03152,1.37536 2.23495,5.3295 1.37536,8.42406 -0.8596,3.09454 -2.23495,6.361 -3.95415,7.73636 -1.71919,1.37536 -3.61031,1.54728 -4.81374,1.54728 -1.20343,0 -1.37535,2.40686 -2.06303,3.78222 -0.68767,1.37536 -3.09454,5.84526 -4.81373,7.22061 -1.7192,1.37536 -7.39254,5.3295 -9.97133,5.67334 -2.57878,0.34384 -8.25212,1.89111 -12.37819,-0.68768 -4.12606,-2.57878 -6.36102,-4.98566 -8.59597,-9.28365 -2.23496,-4.29798 -3.95415,-7.73636 -3.95415,-15.47272 0,-7.73638 -0.17191,-13.75355 0.34384,-17.19195 0.51576,-3.43838 0,-4.98565 2.40687,-9.97132 8.18846,-17.18307 25.77346,-20.15975 37.82226,-7.04868 z"
         id="path559" />
      <path
         style="fill:#000000;fill-opacity:1;stroke:#000000;stroke-width:0.269572;stroke-linecap:butt;stroke-linejoin:miter;stroke-dasharray:none;stroke-opacity:1"
         d="m 260.85498,209.99642 c 0,0 1.20308,-0.0788 2.35385,-0.0788 1.15076,0 2.0923,-0.0197 2.61538,0.0394 0.52308,0.0591 0.88923,0.11813 0.36615,0.16736 -0.52308,0.0492 -2.14461,0.11812 -2.72,0.10828 -0.57538,-0.01 -2.14461,-0.0492 -2.61538,-0.11813 -0.47077,-0.0689 0,-0.11814 0,-0.11814 z"
         id="path561" />
      <path
         style="fill:none;stroke:#000000;stroke-width:0.510574;stroke-linecap:butt;stroke-linejoin:miter;stroke-dasharray:none;stroke-opacity:1"
         d="m 251.4616,183.34127 c 0,0 7.90175,0.36469 8.75271,0.36469"
         id="path563" />
      <path
         style="fill:none;stroke:#000000;stroke-width:0.510574;stroke-linecap:butt;stroke-linejoin:miter;stroke-dasharray:none;stroke-opacity:1"
         d="m 266.29257,183.21971 c 0,0 10.94089,0.36469 12.03497,0.48625"
         id="path565" />
      <path
         style="fill:#fff9f4;fill-opacity:1;stroke:#000000;stroke-width:0.510574;stroke-linecap:butt;stroke-linejoin:miter;stroke-dasharray:none;stroke-opacity:1"
         d="m 252.19099,186.86666 c 0,0 4.13322,-1.21565 6.32139,-0.36469 2.18819,0.85096 3.16072,1.45878 2.55288,2.91756 -0.60782,1.45879 -1.82348,3.5254 -4.37636,2.79602 -2.55287,-0.7294 -4.01165,-1.4588 -4.37634,-3.03915 -0.3647,-1.58034 -0.12157,-2.30974 -0.12157,-2.30974 z"
         id="path567" />
      <path
         style="fill:#fff9f4;fill-opacity:1;stroke:#000000;stroke-width:0.510574;stroke-linecap:butt;stroke-linejoin:miter;stroke-dasharray:none;stroke-opacity:1"
         d="m 268.60232,186.7451 c 0,0 8.26644,-0.7294 9.84679,0.24313 1.58035,0.97252 1.21566,2.67444 0.3647,3.40383 -0.85097,0.72939 -2.67444,2.06661 -4.49792,2.06661 -1.82348,0 -2.43131,0.12157 -4.61949,-1.82348 -2.18817,-1.94504 -1.70191,-3.64696 -1.09408,-3.89009 z"
         id="path569" />
      <path
         style="fill:none;stroke:#000000;stroke-width:0.510574;stroke-linecap:butt;stroke-linejoin:miter;stroke-dasharray:none;stroke-opacity:1"
         d="m 263.25344,190.2705 c 0,0 -1.21565,9.23896 -1.58034,10.57618 -0.3647,1.33721 0.24313,2.06661 0.85095,2.4313"
         id="path571" />
      <path
         style="fill:#dcb59c;fill-opacity:1;stroke:#000000;stroke-width:0.510574;stroke-linecap:butt;stroke-linejoin:miter;stroke-dasharray:none;stroke-opacity:1"
         d="m 260.32862,224.59278 c 0,0 -0.1751,8.89419 -0.41823,9.44123 -0.24313,0.54705 -2.91757,0.97253 -1.82348,2.91757 1.09409,1.94504 3.09992,3.40387 4.43714,3.95083 1.33722,0.54704 4.68026,1.27646 6.99001,0.85094 2.30974,-0.42543 6.62531,-1.58028 8.26644,-2.43123 1.64114,-0.85097 3.8293,-2.79602 4.37635,-4.25481 0.54704,-1.45877 0.33773,-4.80205 0.36469,-6.50374 l 0.11617,-7.33106 c 0,0 -3.33427,2.40186 -4.83857,3.13253 -1.50429,0.73066 -3.05157,1.59025 -5.24354,1.84813 -2.19197,0.25788 -3.22349,0.60172 -5.07162,0.55874 -1.84813,-0.043 -4.59884,-0.47278 -5.15758,-0.90258 -0.55874,-0.4298 -1.99778,-1.27655 -1.99778,-1.27655 z"
         id="path573" />
      <path
         style="fill:#ebbe64;fill-opacity:1;stroke:#000000;stroke-width:0.510574;stroke-linecap:butt;stroke-linejoin:miter;stroke-dasharray:none;stroke-opacity:1"
         d="m 260.22039,227.45958 c 0,0 -20.71629,8.25213 -22.60741,10.14324 -1.8911,1.89116 -2.3209,5.84522 -2.7507,7.73636 -0.4298,1.89114 -1.21,7.11192 -1.51391,8.63153 -0.30392,1.51952 -0.3772,4.00456 -1.06488,5.72376 -0.68767,1.71919 -1.11748,2.75069 -1.0745,3.39536 0.0429,0.64467 1.0745,1.33236 2.44986,1.37539 1.37535,0.0426 11.21773,0 12.29223,0 1.07449,0 59.66787,-0.16143 60.03257,-0.16143 0.36469,0 1.09408,-0.79018 1.0333,-2.06665 -0.0608,-1.27646 -2.55287,-17.80933 -2.67443,-18.59951 -0.12157,-0.79019 -0.79018,-3.03913 -2.18818,-3.89008 -1.398,-0.85093 -8.19479,-3.82094 -9.2263,-4.37967 -1.03152,-0.55874 -10.3844,-5.45844 -10.3844,-5.45844 0,0 0.0263,1.50429 0.0263,2.27793 0,0.77363 0.30086,1.24641 -0.2149,2.44985 -0.51576,1.20344 -2.14899,3.18051 -2.75071,3.52435 -0.60172,0.34383 -2.75071,1.71916 -3.48136,1.8911 -0.73067,0.17195 -4.04011,1.11748 -4.51289,1.24639 -0.47278,0.12892 -2.87965,0.77367 -3.99712,0.6877 -1.11748,-0.0861 -3.78223,-0.55878 -4.42692,-0.81661 -0.6447,-0.25792 -3.39542,-1.76214 -3.8682,-2.40687 -0.47278,-0.6447 -1.28939,-2.02006 -1.37535,-2.32091 -0.086,-0.30086 -0.12895,-1.03152 0.30086,-1.28939 0.42979,-0.25789 1.16046,-0.81662 1.37535,-0.8596 0.2149,-0.0429 0.4298,-0.51576 0.47279,-1.03153 0.0429,-0.51575 0.12894,-5.80227 0.12894,-5.80227 z"
         id="path575" />
      <circle
         style="opacity:0.966759;fill:#000000;fill-opacity:1;stroke-width:0.510574;stroke-linejoin:round;stroke-dasharray:none;paint-order:stroke fill markers"
         id="circle577"
         cx="256.81049"
         cy="188.20387"
         r="0.60782665" />
      <circle
         style="fill:#000000;fill-opacity:1;stroke-width:0.510574;stroke-linejoin:round;stroke-dasharray:none;paint-order:stroke fill markers"
         id="circle579"
         cx="271.88458"
         cy="188.32545"
         r="0.60782665" />
      <path
         style="fill:none;stroke:#000000;stroke-width:0.510574;stroke-linecap:butt;stroke-linejoin:miter;stroke-dasharray:none;stroke-opacity:1"
         d="m 241.97544,264.55119 c 0,0 -0.36063,-6.02175 -0.72534,-8.20992 -0.36469,-2.18818 -1.09408,-4.86264 -1.33721,-5.89597"
         id="path581" />
      <path
         style="fill:none;stroke:#000000;stroke-width:0.510574;stroke-linecap:butt;stroke-linejoin:miter;stroke-dasharray:none;stroke-opacity:1"
         d="m 241.54564,258.72738 c 0,0 -2.68623,-4.34097 -2.9656,-4.72781"
         id="path583" />
      <path
         style="fill:none;stroke:#000000;stroke-width:0.510574;stroke-linecap:butt;stroke-linejoin:miter;stroke-dasharray:none;stroke-opacity:1"
         d="m 289.75467,264.30379 c 0,0 0.12157,-11.67031 0.54705,-13.25068"
         id="path585" />
      <path
         style="fill:none;stroke:#000000;stroke-width:0.510574;stroke-linecap:butt;stroke-linejoin:miter;stroke-dasharray:none;stroke-opacity:1"
         d="m 291.85353,193.16167 c 0,0 1.2894,-2.57878 3.00859,-2.7507 1.7192,-0.17192 2.36882,0.20903 2.53597,0.36098 0.16715,0.15196 1.23086,1.62594 1.4132,2.05142 0.18235,0.42548 0.50145,1.97543 0.59263,2.40091 0.0912,0.42548 0.48684,2.32135 0.40088,3.00902 -0.086,0.68767 -0.94556,4.21202 -1.41833,5.1146 -0.47278,0.90257 -1.76217,3.26647 -2.10601,3.61031 -0.34384,0.34383 -1.11748,1.24641 -1.59026,1.46131 -0.47277,0.2149 -3.65328,1.0745 -3.95414,0.98854"
         id="path587" />
    </g>
  </g>
</svg>
