<?xml version="1.0" encoding="UTF-8" standalone="no"?>
<svg
   width="130.04779"
   height="170.00006"
   viewBox="0 0 34.408477 44.979186"
   version="1.1"
   id="svg8"
   xmlns="http://www.w3.org/2000/svg"
   xmlns:svg="http://www.w3.org/2000/svg"
   xmlns:rdf="http://www.w3.org/1999/02/22-rdf-syntax-ns#"
   xmlns:cc="http://creativecommons.org/ns#"
   xmlns:dc="http://purl.org/dc/elements/1.1/">
  <defs
     id="defs2" />
  <metadata
     id="metadata5">
    <rdf:RDF>
      <cc:Work
         rdf:about="">
        <dc:format>image/svg+xml</dc:format>
        <dc:type
           rdf:resource="http://purl.org/dc/dcmitype/StillImage" />
      </cc:Work>
    </rdf:RDF>
  </metadata>
  <g
     id="layer1"
     transform="translate(-130.14075,-736.30252)">
    <g
       id="g737"
       transform="matrix(0.45081242,0,0,0.42115562,72.662722,611.4996)">
      <path
         style="fill:#dcb59c;fill-opacity:1;stroke:#000000;stroke-width:0.510574;stroke-linecap:butt;stroke-linejoin:miter;stroke-dasharray:none;stroke-opacity:1"
         d="m 185.99516,304.73528 c 2.06302,2.23494 6.87677,9.7994 7.22061,13.58162 0.34384,3.78222 0.34384,6.36102 0.17192,8.08021 -0.17192,1.7192 0.17192,2.23495 1.20343,3.6103 1.03152,1.37536 2.23495,5.3295 1.37536,8.42406 -0.8596,3.09454 -2.23495,6.361 -3.95415,7.73636 -1.71919,1.37536 -3.61031,1.54728 -4.81375,1.54728 -1.20342,0 -1.37534,2.40686 -2.06302,3.78222 -0.68767,1.37536 -3.09454,5.84526 -4.81373,7.22061 -1.7192,1.37536 -7.39254,5.3295 -9.97133,5.67334 -2.57879,0.34384 -8.25212,1.89111 -12.37819,-0.68768 -4.12607,-2.57878 -6.36102,-4.98566 -8.59597,-9.28365 -2.23496,-4.29798 -3.95415,-7.73636 -3.95415,-15.47272 0,-7.73638 -0.17192,-13.75355 0.34384,-17.19195 0.51576,-3.43838 0,-4.98565 2.40687,-9.97132 8.18845,-17.18307 25.77345,-20.15975 37.82226,-7.04868 z"
         id="path681" />
      <path
         style="fill:#000000;fill-opacity:1;stroke:#000000;stroke-width:0.269572;stroke-linecap:butt;stroke-linejoin:miter;stroke-dasharray:none;stroke-opacity:1"
         d="m 157.40347,348.38943 c 0,0 1.20308,-0.0788 2.35385,-0.0788 1.15076,0 2.0923,-0.0197 2.61538,0.0394 0.52308,0.0591 0.88923,0.11813 0.36615,0.16736 -0.52308,0.0492 -2.14461,0.11812 -2.72,0.10828 -0.57538,-0.01 -2.14461,-0.0492 -2.61538,-0.11813 -0.47077,-0.0689 0,-0.11814 0,-0.11814 z"
         id="path683" />
      <path
         style="fill:none;stroke:#000000;stroke-width:0.510574;stroke-linecap:butt;stroke-linejoin:miter;stroke-dasharray:none;stroke-opacity:1"
         d="m 148.01009,321.73428 c 0,0 7.90175,0.36469 8.75271,0.36469"
         id="path685" />
      <path
         style="fill:none;stroke:#000000;stroke-width:0.510574;stroke-linecap:butt;stroke-linejoin:miter;stroke-dasharray:none;stroke-opacity:1"
         d="m 162.84106,321.61272 c 0,0 10.94089,0.36469 12.03497,0.48625"
         id="path687" />
      <path
         style="fill:#fff9f4;fill-opacity:1;stroke:#000000;stroke-width:0.510574;stroke-linecap:butt;stroke-linejoin:miter;stroke-dasharray:none;stroke-opacity:1"
         d="m 148.73948,325.25967 c 0,0 4.13322,-1.21565 6.32139,-0.36469 2.18819,0.85096 3.16071,1.45878 2.55288,2.91756 -0.60783,1.45879 -1.82348,3.5254 -4.37636,2.79602 -2.55287,-0.7294 -4.01165,-1.4588 -4.37634,-3.03915 -0.3647,-1.58034 -0.12157,-2.30974 -0.12157,-2.30974 z"
         id="path689" />
      <path
         style="fill:#fff9f4;fill-opacity:1;stroke:#000000;stroke-width:0.510574;stroke-linecap:butt;stroke-linejoin:miter;stroke-dasharray:none;stroke-opacity:1"
         d="m 165.15081,325.13811 c 0,0 8.26644,-0.7294 9.84679,0.24313 1.58035,0.97252 1.21566,2.67444 0.3647,3.40383 -0.85097,0.72939 -2.67444,2.06661 -4.49792,2.06661 -1.82348,0 -2.43131,0.12157 -4.61949,-1.82348 -2.18818,-1.94504 -1.70191,-3.64696 -1.09408,-3.89009 z"
         id="path691" />
      <path
         style="fill:none;stroke:#000000;stroke-width:0.510574;stroke-linecap:butt;stroke-linejoin:miter;stroke-dasharray:none;stroke-opacity:1"
         d="m 159.80193,328.66351 c 0,0 -1.21565,9.23896 -1.58035,10.57618 -0.36469,1.33721 0.24314,2.06661 0.85096,2.4313"
         id="path693" />
      <path
         style="fill:#dcb59c;fill-opacity:1;stroke:#000000;stroke-width:0.510574;stroke-linecap:butt;stroke-linejoin:miter;stroke-dasharray:none;stroke-opacity:1"
         d="m 156.8771,362.98579 c 0,0 -0.17509,8.89419 -0.41822,9.44123 -0.24313,0.54705 -2.91757,0.97253 -1.82348,2.91757 1.09408,1.94504 3.09992,3.40387 4.43714,3.95083 1.33722,0.54704 4.68026,1.27646 6.99001,0.85094 2.30974,-0.42543 6.62531,-1.58028 8.26644,-2.43123 1.64113,-0.85097 3.8293,-2.79602 4.37635,-4.25481 0.54704,-1.45877 0.33773,-4.80205 0.36469,-6.50374 l 0.11616,-7.33106 c 0,0 -3.33426,2.40186 -4.83856,3.13253 -1.50429,0.73066 -3.05157,1.59025 -5.24354,1.84813 -2.19197,0.25788 -3.22349,0.60172 -5.07162,0.55874 -1.84813,-0.043 -4.59884,-0.47278 -5.15758,-0.90258 -0.55874,-0.4298 -1.99779,-1.27655 -1.99779,-1.27655 z"
         id="path695" />
      <path
         style="fill:#ebbe64;fill-opacity:1;stroke:#000000;stroke-width:0.510574;stroke-linecap:butt;stroke-linejoin:miter;stroke-dasharray:none;stroke-opacity:1"
         d="m 156.76888,365.85259 c 0,0 -20.71629,8.25213 -22.60741,10.14324 -1.8911,1.89116 -2.3209,5.84522 -2.7507,7.73636 -0.4298,1.89114 -1.21,7.11192 -1.51391,8.63153 -0.30392,1.51952 -0.3772,4.00456 -1.06488,5.72376 -0.68767,1.71919 -1.11748,2.75069 -1.0745,3.39536 0.0429,0.64467 1.0745,1.33236 2.44986,1.37539 1.37535,0.0426 11.21773,0 12.29223,0 1.07449,0 59.66787,-0.16143 60.03257,-0.16143 0.36469,0 1.09408,-0.79018 1.0333,-2.06665 -0.0608,-1.27646 -2.55287,-17.80933 -2.67443,-18.59951 -0.12157,-0.79019 -0.79018,-3.03913 -2.18818,-3.89008 -1.398,-0.85093 -8.1948,-3.82094 -9.2263,-4.37967 -1.03152,-0.55874 -10.3844,-5.45844 -10.3844,-5.45844 0,0 0.0263,1.50429 0.0263,2.27793 0,0.77363 0.30086,1.24641 -0.2149,2.44985 -0.51576,1.20344 -2.14899,3.18051 -2.75071,3.52435 -0.60172,0.34383 -2.75072,1.71916 -3.48136,1.8911 -0.73067,0.17195 -4.04011,1.11748 -4.51289,1.24639 -0.47278,0.12892 -2.87965,0.77367 -3.99712,0.6877 -1.11748,-0.0861 -3.78223,-0.55878 -4.42692,-0.81661 -0.6447,-0.25792 -3.39543,-1.76214 -3.8682,-2.40687 -0.47278,-0.6447 -1.28939,-2.02006 -1.37535,-2.32091 -0.086,-0.30086 -0.12895,-1.03152 0.30086,-1.28939 0.42979,-0.25789 1.16046,-0.81662 1.37534,-0.8596 0.21491,-0.0429 0.42981,-0.51576 0.4728,-1.03153 0.0429,-0.51575 0.12894,-5.80227 0.12894,-5.80227 z"
         id="path697" />
      <circle
         style="opacity:0.966759;fill:#000000;fill-opacity:1;stroke-width:0.510574;stroke-linejoin:round;stroke-dasharray:none;paint-order:stroke fill markers"
         id="circle699"
         cx="153.35896"
         cy="326.59689"
         r="0.60782665" />
      <circle
         style="fill:#000000;fill-opacity:1;stroke-width:0.510574;stroke-linejoin:round;stroke-dasharray:none;paint-order:stroke fill markers"
         id="circle701"
         cx="168.43307"
         cy="326.71848"
         r="0.60782665" />
      <path
         style="fill:none;stroke:#000000;stroke-width:0.510574;stroke-linecap:butt;stroke-linejoin:miter;stroke-dasharray:none;stroke-opacity:1"
         d="m 138.52393,402.9442 c 0,0 -0.36063,-6.02175 -0.72534,-8.20992 -0.36469,-2.18818 -1.09408,-4.86264 -1.33721,-5.89597"
         id="path703" />
      <path
         style="fill:none;stroke:#000000;stroke-width:0.510574;stroke-linecap:butt;stroke-linejoin:miter;stroke-dasharray:none;stroke-opacity:1"
         d="m 138.09413,397.12039 c 0,0 -2.68623,-4.34097 -2.96561,-4.72781"
         id="path705" />
      <path
         style="fill:none;stroke:#000000;stroke-width:0.510574;stroke-linecap:butt;stroke-linejoin:miter;stroke-dasharray:none;stroke-opacity:1"
         d="m 186.30316,402.6968 c 0,0 0.12157,-11.67031 0.54705,-13.25068"
         id="path707" />
      <path
         style="fill:#e0e7ea;fill-opacity:1;stroke:#000000;stroke-width:0.510574;stroke-linecap:butt;stroke-linejoin:miter;stroke-dasharray:none;stroke-opacity:1"
         d="m 154.96372,402.8152 c 0,0 -0.14597,-12.33575 0.21872,-14.22003 0.3647,-1.88427 -0.54704,-2.97836 -1.21565,-3.28226 -0.66861,-0.30391 -2.73522,-2.06657 -3.58618,-3.28227 -0.85096,-1.21562 -0.54704,-1.7019 -0.12156,-2.37047 0.42547,-0.66866 3.89008,-5.47045 4.13321,-5.22732 0.24314,0.24313 0.30392,0.65341 0.44068,0.98772 0.13676,0.3343 0.57744,1.06369 1.12448,1.68672 0.54705,0.62305 3.76853,2.44648 4.2396,2.58322 0.47106,0.13674 3.13031,0.60781 3.61657,0.60781 0.48626,0 3.8293,-0.33425 4.52831,-0.60781 0.699,-0.27348 4.67336,-1.28777 5.23209,-1.58863 0.55874,-0.30086 2.06303,-1.11751 2.79369,-1.71922 0.73066,-0.60173 0.45339,2.18342 0.45339,3.09513 0,0.91171 -0.0608,3.89008 -0.18234,4.49789 -0.12157,0.60789 -0.0608,0.72942 -1.7627,1.58037 -1.70191,0.85094 -6.13905,2.49208 -6.99,2.49208 -0.85096,0 -1.21565,0.79018 -1.33722,1.82351 -0.12157,1.03332 -0.24314,3.7077 -0.24314,4.55865 0,0.85094 -0.0383,8.21305 -0.25315,8.34197 -0.2149,0.12891 -2.19197,0.0426 -3.05157,0.0426 h -8.03723 z"
         id="path709" />
      <path
         style="fill:none;stroke:#000000;stroke-width:0.510574;stroke-linecap:butt;stroke-linejoin:miter;stroke-dasharray:none;stroke-opacity:1"
         d="m 158.65998,402.85823 c 0,0 0.17192,-8.93987 0.17192,-9.8854 0,-0.94552 -0.38681,-1.07444 -0.90256,-1.76214 -0.51576,-0.68769 -1.03152,-1.33236 -0.8596,-2.36394 0.17192,-1.0315 0.73065,-1.20336 1.07449,-2.40681 0.34384,-1.20345 0.34384,-0.6877 0.34384,-2.02006 0,-1.33236 0.52369,-2.99705 0.76681,-3.33138 0.24314,-0.33424 0.63823,-1.12443 0.92695,-1.21561 0.28871,-0.0912 2.90237,0.37988 3.43421,0.4103 0.53185,0.0304 0.99666,0.0539 1.23304,0.16099 0.2364,0.10753 0.94556,2.64334 0.38683,4.19059 -0.55874,1.54725 -0.30086,1.41834 -0.086,2.10603 0.21489,0.68761 0.73025,3.49551 0.0616,4.34645 -0.66861,0.85095 -3.03913,1.64114 -3.22148,2.3098 -0.18235,0.66857 0.21274,9.39086 -0.0608,9.45171 -0.27352,0.0609 -3.26934,0.01 -3.26934,0.01 z"
         id="path711" />
      <ellipse
         style="fill:#000000;fill-opacity:1;stroke-width:0.549406;stroke-linejoin:round;stroke-dasharray:none;paint-order:stroke fill markers"
         id="ellipse713"
         cx="89.671692"
         cy="416.43466"
         rx="0.66860926"
         ry="0.37989166"
         transform="rotate(-10)" />
      <ellipse
         style="fill:#000000;fill-opacity:1;stroke-width:0.642157;stroke-linejoin:round;stroke-dasharray:none;paint-order:stroke fill markers"
         id="ellipse715"
         cx="-31.509417"
         cy="422.29849"
         rx="0.75134289"
         ry="0.46183833"
         transform="matrix(0.82831489,-0.56026283,0.44204903,0.89699089,0,0)" />
      <ellipse
         style="fill:#000000;fill-opacity:1;stroke-width:0.595118;stroke-linejoin:round;stroke-dasharray:none;paint-order:stroke fill markers"
         id="ellipse717"
         cx="11.663625"
         cy="429.38025"
         rx="0.73016638"
         ry="0.40815902"
         transform="matrix(0.9419913,-0.33563728,0.34849177,0.93731184,0,0)" />
      <ellipse
         style="fill:#000000;fill-opacity:1;stroke-width:0.717718;stroke-linejoin:round;stroke-dasharray:none;paint-order:stroke fill markers"
         id="ellipse719"
         cx="103.82771"
         cy="427.34555"
         rx="0.78300196"
         ry="0.55359584"
         transform="matrix(0.97610408,-0.21730354,0.13831596,0.99038815,0,0)" />
      <path
         style="fill:#adb4b7;fill-opacity:1;stroke:#000000;stroke-width:0.170191px;stroke-linecap:butt;stroke-linejoin:miter;stroke-opacity:1"
         d="m 160.42217,383.73219 c 0,0 0.34383,0.85955 1.03151,1.07453 0.68767,0.21489 1.24642,0.30086 1.76218,-0.0426 0.51575,-0.34389 0.54799,-1.14972 0.7414,-1.28942 0.1934,-0.13969 0.65544,-0.21488 0.63395,0.20411 -0.0215,0.41909 -0.0429,0.53731 -0.20416,1.04228 -0.16117,0.50506 -0.25788,0.98856 -0.34384,1.40756 -0.086,0.41908 -0.0537,0.93483 -0.0537,1.04228 0,0.10744 0.0645,0.25792 0.2149,0.36536 0.15044,0.10744 0.53614,0.20828 0.65771,0.7402 0.12156,0.53183 0.21274,0.699 0.16714,1.2004 -0.0456,0.5015 -0.3191,1.21571 -0.62301,1.56516 -0.30392,0.34954 -1.07889,0.86616 -1.54996,0.97256 -0.47107,0.10632 -1.92985,-0.0156 -2.41612,-0.24314 -0.48625,-0.22792 -0.36469,-0.0609 -1.15487,-0.66865 -0.79017,-0.60781 -1.07889,-0.8965 -1.33722,-1.41321 -0.25832,-0.51662 -0.21274,-1.35236 0.0456,-1.76266 0.25833,-0.41031 0.7142,-0.8054 1.00291,-1.03333 0.28872,-0.22792 0.3951,-0.37988 0.3951,-0.68378 0,-0.3039 0.10636,-0.5926 -0.10638,-0.97248 -0.21274,-0.37996 -0.39508,-0.80539 -0.3343,-1.27646 0.0608,-0.47107 0.29999,-1.20614 0.66532,-1.01273 0.36533,0.19342 0.80587,0.78437 0.80587,0.78437 z"
         id="path721" />
      <path
         style="fill:#e0e7ea;fill-opacity:1;stroke:#000000;stroke-width:0.510574;stroke-linecap:butt;stroke-linejoin:miter;stroke-dasharray:none;stroke-opacity:1"
         d="m 156.18535,366.04485 c 0,0 -1.39355,-0.23523 -2.16719,0.19456 -0.77364,0.4298 -0.68767,1.20344 -1.80516,1.28939 -1.11747,0.086 -2.32091,-0.21489 -2.9656,-0.0429 -0.6447,0.17192 -2.17049,2.33165 -2.57879,2.37464 -0.40831,0.0429 -0.80587,-0.26863 -1.33238,-0.086 -0.5265,0.18266 -0.92407,0.50501 -1.13896,0.67693 -0.21491,0.17192 -0.46204,1.23567 -1.35387,1.14971 -0.89183,-0.086 -2.04154,-1.08524 -2.84741,-1.16046 -0.80587,-0.0752 -1.31089,0.44055 -1.49355,0.61247 -0.18266,0.17192 -2.77045,4.07869 -3.31749,4.13947 -0.54705,0.0608 -1.64113,-0.18234 -2.24896,0.27353 -0.60783,0.45587 -0.79018,1.3676 -0.82057,2.00581 -0.0303,0.63823 1.21565,1.97546 1.85387,2.43132 0.63823,0.45586 3.37344,2.15775 4.13323,2.43132 0.75978,0.27348 3.28225,0.66857 4.16361,0.66857 0.88135,0 3.73813,-0.0304 5.34887,-1.06366 1.61074,-1.03333 3.06952,-2.85675 3.5254,-3.43422 0.45586,-0.57747 1.88922,-2.68138 2.1686,-2.98224 0.27936,-0.30086 0.60171,-0.62321 0.85959,-0.94556 0.25788,-0.32235 0.10745,-0.51576 0.40831,-0.79513 0.30085,-0.27936 0.73065,-0.42979 1.13896,-0.73065 0.40832,-0.30086 0.81661,-0.4298 0.88109,-0.88109 0.0645,-0.45128 0.0645,-0.38681 0.0645,-0.98853 0,-0.60172 0.25788,-4.79225 0.0645,-5.02864 -0.19342,-0.23639 -0.54054,-0.10862 -0.54054,-0.10862 z"
         id="path723" />
      <path
         style="fill:#000000;fill-opacity:1;stroke:#000000;stroke-width:0.170191px;stroke-linecap:butt;stroke-linejoin:miter;stroke-opacity:1"
         d="m 148.86157,368.05365 c 0,0 -0.64688,0.8612 -0.98537,0.80548 -0.31921,-0.0525 -0.81204,0.72941 -0.85629,0.8769 -0.0912,0.30391 -0.59828,1.02764 -0.93264,1.72664 -0.33431,0.699 -1.72496,2.44449 -2.15043,2.56605 -0.42549,0.12157 -1.15405,0.161 -1.91383,0.58648 -0.75979,0.42547 -1.36761,0.6686 -1.91466,1.09408 -0.54704,0.42548 -1.27644,0.72939 -1.64113,0.33431 -0.3647,-0.39509 -0.85096,-0.75979 -1.15487,-0.82057 -0.30392,-0.0608 -0.88135,0 -0.60783,0.48626 0.27352,0.48626 0.54705,0.63822 1.00291,1.30683 0.45587,0.6686 0.63823,0.72936 0.7294,1.45878 0.0912,0.72934 0.3343,1.03333 0.97252,1.48918 0.63821,0.45586 2.21856,1.24604 3.1607,1.24604 0.94213,0 1.18526,0.0304 1.73231,-0.0912 0.54703,-0.12162 1.24604,-0.48628 1.79308,-1.30681 0.54705,-0.82061 2.00583,-3.8597 2.4617,-4.64989 0.45588,-0.79016 1.48918,-2.52247 2.06661,-3.52539 0.57744,-1.00291 2.43131,-3.37343 3.1911,-3.92048 0.75977,-0.54703 1.74649,-1.49393 1.89844,-1.64589 0.0524,-0.0524 -0.68395,-0.24823 -1.42585,0.10654 -0.49001,0.23432 -0.90056,0.98717 -1.38007,1.18657 -0.89905,0.37385 -1.21566,0.10878 -1.31952,0.23862 -0.24313,0.3039 -1.35918,2.05921 -1.87584,2.84938 -0.51665,0.79018 -1.48918,2.8264 -1.67152,3.09992 -0.18235,0.27352 -0.24313,0.54704 -0.79018,0.63822 -0.54704,0.0912 -1.36761,0.0303 -0.97253,-1.0637 0.3951,-1.09409 2.64539,-5.25719 2.64539,-5.25719 z"
         id="path725" />
      <path
         style="fill:#adb4b7;fill-opacity:1;stroke:#000000;stroke-width:0.170191px;stroke-linecap:butt;stroke-linejoin:miter;stroke-opacity:1"
         d="m 162.07689,381.97005 c 0,0 0.49426,0.2793 0.58022,0.70917 0.086,0.42977 -0.0429,0.77358 -0.32235,0.88102 -0.27937,0.10745 -0.70916,0.32233 -0.92406,-0.0426 -0.2149,-0.36528 -0.19341,-0.88103 -0.0215,-1.096 0.17192,-0.21489 0.49427,-0.5587 0.68768,-0.45125 z"
         id="path727" />
      <path
         style="fill:none;stroke:#000000;stroke-width:0.510574;stroke-linecap:butt;stroke-linejoin:miter;stroke-dasharray:none;stroke-opacity:1"
         d="m 188.40202,331.55468 c 0,0 1.28939,-2.57878 3.00859,-2.7507 1.7192,-0.17192 2.36882,0.20903 2.53597,0.36098 0.16715,0.15196 1.23086,1.62594 1.4132,2.05142 0.18235,0.42548 0.50145,1.97543 0.59263,2.40091 0.0912,0.42548 0.48684,2.32135 0.40088,3.00902 -0.086,0.68767 -0.94556,4.21202 -1.41833,5.1146 -0.47278,0.90257 -1.76218,3.26647 -2.10601,3.61031 -0.34384,0.34383 -1.11748,1.24641 -1.59026,1.46131 -0.47277,0.2149 -3.65328,1.0745 -3.95414,0.98854"
         id="path729" />
      <ellipse
         style="fill:#000000;fill-opacity:1;stroke-width:0.729032;stroke-linejoin:round;stroke-dasharray:none;paint-order:stroke fill markers"
         id="ellipse731"
         cx="91.732368"
         cy="411.5719"
         rx="0.88582587"
         ry="0.50488669"
         transform="matrix(0.98470861,-0.17420952,0.17308853,0.98490627,0,0)" />
      <path
         style="fill:#e0e7ea;fill-opacity:1;stroke:#000000;stroke-width:0.689999;stroke-linecap:butt;stroke-linejoin:miter;stroke-dasharray:none;stroke-opacity:1"
         d="m 179.19897,367.12408 c 0,0 0.82143,0.49287 1.23214,1.06786 0.41072,0.575 0.3194,0.86267 0.75503,1.18213 0.43562,0.31948 1.53921,0.84221 2.09101,1.10359 0.5518,0.26137 1.91825,0.17857 2.65753,0.50713 0.73929,0.32857 1.09866,1.25269 1.31429,1.44778 0.21562,0.19508 0.32856,0.21562 0.575,0.36963 0.24643,0.15403 2.58296,1.46542 3.04763,1.47996 0.46467,0.0145 1.3214,-0.46467 2.48307,0.23231 1.16168,0.69702 0.95858,1.29622 1.22554,1.56318 0.26697,0.26696 2.43374,1.57335 3.36308,1.51526 0.92934,-0.0581 2.20719,-0.11615 2.61377,0.75509 0.40659,0.87127 0.81317,1.97485 0.92934,2.67186 0.11617,0.69699 -2.90419,1.62635 -4.87903,2.20717 -1.97486,0.58085 -3.13652,1.74252 -4.06586,2.20719 -0.92935,0.46467 -2.78803,1.16169 -4.76287,1.04552 -1.97485,-0.11618 -4.87904,-0.46467 -6.97004,-0.81319 -2.09102,-0.3485 -3.7248,-0.86124 -3.99177,-0.98445 -0.26696,-0.12321 -0.10267,-0.98571 -0.0205,-1.78659 0.0821,-0.80091 0.18482,-3.16249 0.18482,-3.49108 0,-0.32857 0.0616,-1.08837 0.041,-1.62232 -0.0205,-0.53393 -0.0822,-1.02679 -0.10267,-1.19106 -0.0205,-0.16428 -0.0616,-0.47233 0.20535,-0.78036 0.26697,-0.30804 1.43298,-1.83349 1.73792,-2.57405 0.30494,-0.74057 0.4792,-2.94774 0.46467,-3.20911 -0.0145,-0.2614 -0.12848,-2.90345 -0.12848,-2.90345 z"
         id="path733" />
      <path
         style="fill:#000e14;fill-opacity:1;stroke:#000000;stroke-width:0.229999px;stroke-linecap:butt;stroke-linejoin:miter;stroke-opacity:1"
         d="m 180.66339,369.17078 c 0,0 1.62634,4.64671 1.85867,7.55089 0.23234,2.90419 -1.16167,3.71735 1.62635,4.99518 2.78802,1.27786 5.11137,2.09103 6.85388,1.04551 1.74251,-1.04551 3.94969,-3.1365 1.74251,-3.60117 -2.20718,-0.46467 -4.06586,-0.92934 -4.53053,-2.2072 -0.46467,-1.27783 -0.697,-3.02035 -0.92934,-3.71735 -0.23233,-0.69701 -0.63295,-2.27237 -1.5776,-2.41612 -0.94464,-0.14375 -1.25268,-0.36966 -1.68392,-0.16429 -0.43125,0.20535 -0.10268,0.36963 0.49286,2.40267 0.59553,2.03303 1.64285,4.41517 1.43749,5.07233 -0.20535,0.65713 -1.49911,0.22587 -1.78661,-0.575 -0.28749,-0.80091 -1.31428,-5.09286 -1.54017,-5.97591 -0.2259,-0.88301 0.041,-0.0822 -0.30804,-0.88301 -0.3491,-0.80091 -1.65555,-1.52653 -1.65555,-1.52653 z"
         id="path735" />
    </g>
  </g>
</svg>
